%FSTAX23Y23*%
%MOIN*%
%SFA1B1*%

%IPPOS*%
%ADD53C,0.009843*%
%ADD54C,0.010000*%
%ADD55C,0.007874*%
%ADD56C,0.006000*%
%LNcfd_2channel_legend_top-1*%
%LPD*%
G54D53*
X04429Y06851D02*
D01*
X04429Y06852*
X04429Y06852*
X04429Y06852*
X04429Y06853*
X04429Y06853*
X04429Y06853*
X04428Y06854*
X04428Y06854*
X04428Y06854*
X04428Y06854*
X04428Y06855*
X04427Y06855*
X04427Y06855*
X04427Y06855*
X04427Y06856*
X04426Y06856*
X04426Y06856*
X04426Y06856*
X04425Y06856*
X04425Y06856*
X04425Y06856*
X04424Y06856*
X04424*
X04424Y06856*
X04423Y06856*
X04423Y06856*
X04423Y06856*
X04422Y06856*
X04422Y06856*
X04422Y06856*
X04421Y06855*
X04421Y06855*
X04421Y06855*
X04421Y06855*
X0442Y06854*
X0442Y06854*
X0442Y06854*
X0442Y06854*
X0442Y06853*
X0442Y06853*
X04419Y06853*
X04419Y06852*
X04419Y06852*
X04419Y06852*
X04419Y06851*
X04419Y06851*
X04419Y06851*
X04419Y0685*
X04419Y0685*
X0442Y0685*
X0442Y06849*
X0442Y06849*
X0442Y06849*
X0442Y06848*
X0442Y06848*
X04421Y06848*
X04421Y06848*
X04421Y06847*
X04421Y06847*
X04422Y06847*
X04422Y06847*
X04422Y06847*
X04423Y06847*
X04423Y06846*
X04423Y06846*
X04424Y06846*
X04424Y06846*
X04424*
X04425Y06846*
X04425Y06846*
X04425Y06846*
X04426Y06847*
X04426Y06847*
X04426Y06847*
X04427Y06847*
X04427Y06847*
X04427Y06847*
X04427Y06848*
X04428Y06848*
X04428Y06848*
X04428Y06848*
X04428Y06849*
X04428Y06849*
X04429Y06849*
X04429Y0685*
X04429Y0685*
X04429Y0685*
X04429Y06851*
X04429Y06851*
X04429Y06851*
X02308Y01287D02*
D01*
X02308Y01287*
X02308Y01288*
X02308Y01288*
X02308Y01288*
X02308Y01289*
X02308Y01289*
X02308Y01289*
X02308Y0129*
X02307Y0129*
X02307Y0129*
X02307Y0129*
X02307Y01291*
X02307Y01291*
X02306Y01291*
X02306Y01291*
X02306Y01291*
X02305Y01292*
X02305Y01292*
X02305Y01292*
X02304Y01292*
X02304Y01292*
X02304Y01292*
X02303*
X02303Y01292*
X02303Y01292*
X02302Y01292*
X02302Y01292*
X02302Y01292*
X02301Y01291*
X02301Y01291*
X02301Y01291*
X023Y01291*
X023Y01291*
X023Y0129*
X023Y0129*
X02299Y0129*
X02299Y0129*
X02299Y01289*
X02299Y01289*
X02299Y01289*
X02299Y01288*
X02299Y01288*
X02299Y01288*
X02299Y01287*
X02299Y01287*
X02299Y01287*
X02299Y01286*
X02299Y01286*
X02299Y01286*
X02299Y01285*
X02299Y01285*
X02299Y01285*
X02299Y01284*
X02299Y01284*
X023Y01284*
X023Y01284*
X023Y01283*
X023Y01283*
X02301Y01283*
X02301Y01283*
X02301Y01283*
X02302Y01282*
X02302Y01282*
X02302Y01282*
X02303Y01282*
X02303Y01282*
X02303Y01282*
X02304*
X02304Y01282*
X02304Y01282*
X02305Y01282*
X02305Y01282*
X02305Y01282*
X02306Y01283*
X02306Y01283*
X02306Y01283*
X02307Y01283*
X02307Y01283*
X02307Y01284*
X02307Y01284*
X02307Y01284*
X02308Y01284*
X02308Y01285*
X02308Y01285*
X02308Y01285*
X02308Y01286*
X02308Y01286*
X02308Y01286*
X02308Y01287*
X02308Y01287*
Y04342D02*
D01*
X02308Y04342*
X02308Y04343*
X02308Y04343*
X02308Y04343*
X02308Y04344*
X02308Y04344*
X02308Y04344*
X02308Y04345*
X02307Y04345*
X02307Y04345*
X02307Y04345*
X02307Y04346*
X02307Y04346*
X02306Y04346*
X02306Y04346*
X02306Y04346*
X02305Y04347*
X02305Y04347*
X02305Y04347*
X02304Y04347*
X02304Y04347*
X02304Y04347*
X02303*
X02303Y04347*
X02303Y04347*
X02302Y04347*
X02302Y04347*
X02302Y04347*
X02301Y04346*
X02301Y04346*
X02301Y04346*
X023Y04346*
X023Y04346*
X023Y04345*
X023Y04345*
X02299Y04345*
X02299Y04345*
X02299Y04344*
X02299Y04344*
X02299Y04344*
X02299Y04343*
X02299Y04343*
X02299Y04343*
X02299Y04342*
X02299Y04342*
X02299Y04342*
X02299Y04341*
X02299Y04341*
X02299Y04341*
X02299Y0434*
X02299Y0434*
X02299Y0434*
X02299Y04339*
X02299Y04339*
X023Y04339*
X023Y04339*
X023Y04338*
X023Y04338*
X02301Y04338*
X02301Y04338*
X02301Y04338*
X02302Y04337*
X02302Y04337*
X02302Y04337*
X02303Y04337*
X02303Y04337*
X02303Y04337*
X02304*
X02304Y04337*
X02304Y04337*
X02305Y04337*
X02305Y04337*
X02305Y04337*
X02306Y04338*
X02306Y04338*
X02306Y04338*
X02307Y04338*
X02307Y04338*
X02307Y04339*
X02307Y04339*
X02307Y04339*
X02308Y04339*
X02308Y0434*
X02308Y0434*
X02308Y0434*
X02308Y04341*
X02308Y04341*
X02308Y04341*
X02308Y04342*
X02308Y04342*
X04989Y02569D02*
D01*
X04989Y02569*
X04989Y02569*
X04988Y0257*
X04988Y0257*
X04988Y0257*
X04988Y02571*
X04988Y02571*
X04988Y02571*
X04988Y02572*
X04987Y02572*
X04987Y02572*
X04987Y02572*
X04987Y02573*
X04986Y02573*
X04986Y02573*
X04986Y02573*
X04985Y02573*
X04985Y02573*
X04985Y02573*
X04984Y02573*
X04984Y02574*
X04984Y02574*
X04983*
X04983Y02574*
X04983Y02573*
X04982Y02573*
X04982Y02573*
X04982Y02573*
X04981Y02573*
X04981Y02573*
X04981Y02573*
X04981Y02573*
X0498Y02572*
X0498Y02572*
X0498Y02572*
X0498Y02572*
X04979Y02571*
X04979Y02571*
X04979Y02571*
X04979Y0257*
X04979Y0257*
X04979Y0257*
X04979Y02569*
X04979Y02569*
X04979Y02569*
X04979Y02568*
X04979Y02568*
X04979Y02568*
X04979Y02567*
X04979Y02567*
X04979Y02567*
X04979Y02566*
X04979Y02566*
X0498Y02566*
X0498Y02565*
X0498Y02565*
X0498Y02565*
X04981Y02565*
X04981Y02565*
X04981Y02564*
X04981Y02564*
X04982Y02564*
X04982Y02564*
X04982Y02564*
X04983Y02564*
X04983Y02564*
X04983Y02564*
X04984*
X04984Y02564*
X04984Y02564*
X04985Y02564*
X04985Y02564*
X04985Y02564*
X04986Y02564*
X04986Y02564*
X04986Y02565*
X04987Y02565*
X04987Y02565*
X04987Y02565*
X04987Y02565*
X04988Y02566*
X04988Y02566*
X04988Y02566*
X04988Y02567*
X04988Y02567*
X04988Y02567*
X04988Y02568*
X04989Y02568*
X04989Y02568*
X04989Y02569*
X00615Y0263D02*
D01*
X00615Y02631*
X00615Y02631*
X00615Y02631*
X00615Y02632*
X00615Y02632*
X00615Y02632*
X00615Y02633*
X00615Y02633*
X00614Y02633*
X00614Y02634*
X00614Y02634*
X00614Y02634*
X00613Y02634*
X00613Y02634*
X00613Y02635*
X00613Y02635*
X00612Y02635*
X00612Y02635*
X00612Y02635*
X00611Y02635*
X00611Y02635*
X00611Y02635*
X0061*
X0061Y02635*
X0061Y02635*
X00609Y02635*
X00609Y02635*
X00609Y02635*
X00608Y02635*
X00608Y02635*
X00608Y02634*
X00607Y02634*
X00607Y02634*
X00607Y02634*
X00607Y02634*
X00606Y02633*
X00606Y02633*
X00606Y02633*
X00606Y02632*
X00606Y02632*
X00606Y02632*
X00606Y02631*
X00605Y02631*
X00605Y02631*
X00605Y0263*
X00605Y0263*
X00605Y0263*
X00606Y02629*
X00606Y02629*
X00606Y02629*
X00606Y02628*
X00606Y02628*
X00606Y02628*
X00606Y02627*
X00607Y02627*
X00607Y02627*
X00607Y02627*
X00607Y02626*
X00608Y02626*
X00608Y02626*
X00608Y02626*
X00609Y02626*
X00609Y02626*
X00609Y02626*
X0061Y02626*
X0061Y02625*
X0061Y02625*
X00611*
X00611Y02625*
X00611Y02626*
X00612Y02626*
X00612Y02626*
X00612Y02626*
X00613Y02626*
X00613Y02626*
X00613Y02626*
X00613Y02626*
X00614Y02627*
X00614Y02627*
X00614Y02627*
X00614Y02627*
X00615Y02628*
X00615Y02628*
X00615Y02628*
X00615Y02629*
X00615Y02629*
X00615Y02629*
X00615Y0263*
X00615Y0263*
X00615Y0263*
X04989Y03399D02*
D01*
X04989Y03399*
X04989Y03399*
X04988Y034*
X04988Y034*
X04988Y034*
X04988Y03401*
X04988Y03401*
X04988Y03401*
X04988Y03402*
X04987Y03402*
X04987Y03402*
X04987Y03402*
X04987Y03403*
X04986Y03403*
X04986Y03403*
X04986Y03403*
X04985Y03403*
X04985Y03403*
X04985Y03403*
X04984Y03403*
X04984Y03404*
X04984Y03404*
X04983*
X04983Y03404*
X04983Y03403*
X04982Y03403*
X04982Y03403*
X04982Y03403*
X04981Y03403*
X04981Y03403*
X04981Y03403*
X04981Y03403*
X0498Y03402*
X0498Y03402*
X0498Y03402*
X0498Y03402*
X04979Y03401*
X04979Y03401*
X04979Y03401*
X04979Y034*
X04979Y034*
X04979Y034*
X04979Y03399*
X04979Y03399*
X04979Y03399*
X04979Y03398*
X04979Y03398*
X04979Y03398*
X04979Y03397*
X04979Y03397*
X04979Y03397*
X04979Y03396*
X04979Y03396*
X0498Y03396*
X0498Y03395*
X0498Y03395*
X0498Y03395*
X04981Y03395*
X04981Y03395*
X04981Y03394*
X04981Y03394*
X04982Y03394*
X04982Y03394*
X04982Y03394*
X04983Y03394*
X04983Y03394*
X04983Y03394*
X04984*
X04984Y03394*
X04984Y03394*
X04985Y03394*
X04985Y03394*
X04985Y03394*
X04986Y03394*
X04986Y03394*
X04986Y03395*
X04987Y03395*
X04987Y03395*
X04987Y03395*
X04987Y03395*
X04988Y03396*
X04988Y03396*
X04988Y03396*
X04988Y03397*
X04988Y03397*
X04988Y03397*
X04988Y03398*
X04989Y03398*
X04989Y03398*
X04989Y03399*
Y02984D02*
D01*
X04989Y02984*
X04989Y02984*
X04988Y02985*
X04988Y02985*
X04988Y02985*
X04988Y02986*
X04988Y02986*
X04988Y02986*
X04988Y02987*
X04987Y02987*
X04987Y02987*
X04987Y02987*
X04987Y02988*
X04986Y02988*
X04986Y02988*
X04986Y02988*
X04985Y02988*
X04985Y02988*
X04985Y02988*
X04984Y02988*
X04984Y02989*
X04984Y02989*
X04983*
X04983Y02989*
X04983Y02988*
X04982Y02988*
X04982Y02988*
X04982Y02988*
X04981Y02988*
X04981Y02988*
X04981Y02988*
X04981Y02988*
X0498Y02987*
X0498Y02987*
X0498Y02987*
X0498Y02987*
X04979Y02986*
X04979Y02986*
X04979Y02986*
X04979Y02985*
X04979Y02985*
X04979Y02985*
X04979Y02984*
X04979Y02984*
X04979Y02984*
X04979Y02983*
X04979Y02983*
X04979Y02983*
X04979Y02982*
X04979Y02982*
X04979Y02982*
X04979Y02981*
X04979Y02981*
X0498Y02981*
X0498Y0298*
X0498Y0298*
X0498Y0298*
X04981Y0298*
X04981Y0298*
X04981Y02979*
X04981Y02979*
X04982Y02979*
X04982Y02979*
X04982Y02979*
X04983Y02979*
X04983Y02979*
X04983Y02979*
X04984*
X04984Y02979*
X04984Y02979*
X04985Y02979*
X04985Y02979*
X04985Y02979*
X04986Y02979*
X04986Y02979*
X04986Y0298*
X04987Y0298*
X04987Y0298*
X04987Y0298*
X04987Y0298*
X04988Y02981*
X04988Y02981*
X04988Y02981*
X04988Y02982*
X04988Y02982*
X04988Y02982*
X04988Y02983*
X04989Y02983*
X04989Y02983*
X04989Y02984*
X00615Y03465D02*
D01*
X00615Y03466*
X00615Y03466*
X00615Y03466*
X00615Y03467*
X00615Y03467*
X00615Y03467*
X00615Y03468*
X00615Y03468*
X00614Y03468*
X00614Y03469*
X00614Y03469*
X00614Y03469*
X00613Y03469*
X00613Y03469*
X00613Y0347*
X00613Y0347*
X00612Y0347*
X00612Y0347*
X00612Y0347*
X00611Y0347*
X00611Y0347*
X00611Y0347*
X0061*
X0061Y0347*
X0061Y0347*
X00609Y0347*
X00609Y0347*
X00609Y0347*
X00608Y0347*
X00608Y0347*
X00608Y03469*
X00607Y03469*
X00607Y03469*
X00607Y03469*
X00607Y03469*
X00606Y03468*
X00606Y03468*
X00606Y03468*
X00606Y03467*
X00606Y03467*
X00606Y03467*
X00606Y03466*
X00605Y03466*
X00605Y03466*
X00605Y03465*
X00605Y03465*
X00605Y03465*
X00606Y03464*
X00606Y03464*
X00606Y03464*
X00606Y03463*
X00606Y03463*
X00606Y03463*
X00606Y03462*
X00607Y03462*
X00607Y03462*
X00607Y03462*
X00607Y03461*
X00608Y03461*
X00608Y03461*
X00608Y03461*
X00609Y03461*
X00609Y03461*
X00609Y03461*
X0061Y03461*
X0061Y0346*
X0061Y0346*
X00611*
X00611Y0346*
X00611Y03461*
X00612Y03461*
X00612Y03461*
X00612Y03461*
X00613Y03461*
X00613Y03461*
X00613Y03461*
X00613Y03461*
X00614Y03462*
X00614Y03462*
X00614Y03462*
X00614Y03462*
X00615Y03463*
X00615Y03463*
X00615Y03463*
X00615Y03464*
X00615Y03464*
X00615Y03464*
X00615Y03465*
X00615Y03465*
X00615Y03465*
Y0305D02*
D01*
X00615Y03051*
X00615Y03051*
X00615Y03051*
X00615Y03052*
X00615Y03052*
X00615Y03052*
X00615Y03053*
X00615Y03053*
X00614Y03053*
X00614Y03054*
X00614Y03054*
X00614Y03054*
X00613Y03054*
X00613Y03054*
X00613Y03055*
X00613Y03055*
X00612Y03055*
X00612Y03055*
X00612Y03055*
X00611Y03055*
X00611Y03055*
X00611Y03055*
X0061*
X0061Y03055*
X0061Y03055*
X00609Y03055*
X00609Y03055*
X00609Y03055*
X00608Y03055*
X00608Y03055*
X00608Y03054*
X00607Y03054*
X00607Y03054*
X00607Y03054*
X00607Y03054*
X00606Y03053*
X00606Y03053*
X00606Y03053*
X00606Y03052*
X00606Y03052*
X00606Y03052*
X00606Y03051*
X00605Y03051*
X00605Y03051*
X00605Y0305*
X00605Y0305*
X00605Y0305*
X00606Y03049*
X00606Y03049*
X00606Y03049*
X00606Y03048*
X00606Y03048*
X00606Y03048*
X00606Y03047*
X00607Y03047*
X00607Y03047*
X00607Y03047*
X00607Y03046*
X00608Y03046*
X00608Y03046*
X00608Y03046*
X00609Y03046*
X00609Y03046*
X00609Y03046*
X0061Y03046*
X0061Y03045*
X0061Y03045*
X00611*
X00611Y03045*
X00611Y03046*
X00612Y03046*
X00612Y03046*
X00612Y03046*
X00613Y03046*
X00613Y03046*
X00613Y03046*
X00613Y03046*
X00614Y03047*
X00614Y03047*
X00614Y03047*
X00614Y03047*
X00615Y03048*
X00615Y03048*
X00615Y03048*
X00615Y03049*
X00615Y03049*
X00615Y03049*
X00615Y0305*
X00615Y0305*
X00615Y0305*
G54D54*
X04525Y02335D02*
X05395D01*
X04525Y038D02*
X05395D01*
Y02335D02*
Y038D01*
X04525Y02335D02*
Y038D01*
X00195Y0225D02*
X01065D01*
X00195Y03715D02*
X01065D01*
Y0225D02*
Y03715D01*
X00195Y0225D02*
Y03715D01*
X0318Y06305D02*
X0398D01*
X0318Y06405D02*
X0398D01*
Y06305D02*
Y06405D01*
X0318Y06305D02*
Y06405D01*
X0298Y08205D02*
X0378D01*
X0298Y08305D02*
X0378D01*
Y08205D02*
Y08305D01*
X0298Y08205D02*
Y08305D01*
X0228Y06305D02*
X0308D01*
X0228Y06405D02*
X0308D01*
Y06305D02*
Y06405D01*
X0228Y06305D02*
Y06405D01*
X0208Y08205D02*
X0288D01*
X0208Y08305D02*
X0288D01*
Y08205D02*
Y08305D01*
X0208Y08205D02*
Y08305D01*
X0138Y06305D02*
X0218D01*
X0138Y06405D02*
X0218D01*
Y06305D02*
Y06405D01*
X0138Y06305D02*
Y06405D01*
X0102Y08205D02*
X0202D01*
X0102Y08305D02*
X0202D01*
Y08205D02*
Y08305D01*
X0102Y08205D02*
Y08305D01*
X0398Y06505D02*
Y08305D01*
X0418Y06505D02*
Y08305D01*
X0398D02*
X0418D01*
X0398Y06505D02*
X0418D01*
X0035Y03341D02*
X00323D01*
X0031Y03355*
X00323Y03368*
X0035*
X0033*
Y03341*
X0031Y03401D02*
Y03388D01*
X00316Y03381*
X00343*
X0035Y03388*
Y03401*
X00343Y03408*
X00316*
X0031Y03401*
X0035Y03421D02*
X0031D01*
X0035Y03448*
X0031*
X05245Y03539D02*
X05284D01*
X05271Y03526*
X05284Y03513*
X05245*
Y03499D02*
X05271D01*
X05284Y03486*
X05271Y03473*
X05245*
X05264*
Y03499*
X05284Y0346D02*
Y03446D01*
Y03453*
X05245*
Y0346*
Y03446*
Y03426D02*
X05284D01*
X05245Y034*
X05284*
X0031Y02906D02*
Y02933D01*
Y0292*
X0035*
X0031Y02973D02*
Y02946D01*
X0035*
Y02973*
X0033Y02946D02*
Y0296D01*
X00316Y03013D02*
X0031Y03006D01*
Y02993*
X00316Y02986*
X00323*
X0033Y02993*
Y03006*
X00336Y03013*
X00343*
X0035Y03006*
Y02993*
X00343Y02986*
X0031Y03026D02*
Y03053D01*
Y03039*
X0035*
X00316Y02496D02*
X0031Y0249D01*
Y02476*
X00316Y0247*
X00323*
X0033Y02476*
Y0249*
X00336Y02496*
X00343*
X0035Y0249*
Y02476*
X00343Y0247*
X0031Y0251D02*
X0035D01*
X0033*
Y02536*
X0031*
X0035*
X0031Y0255D02*
Y02563D01*
Y02556*
X0035*
Y0255*
Y02563*
X0031Y02609D02*
Y02583D01*
X0033*
Y02596*
Y02583*
X0035*
X0031Y02623D02*
Y02649D01*
Y02636*
X0035*
X0073Y03949D02*
Y0391D01*
X00749Y0389*
X00769Y0391*
Y03949*
X00789D02*
Y0389D01*
X00819*
X00829Y039*
Y03939*
X00819Y03949*
X00789*
X00849D02*
Y0389D01*
X00879*
X00889Y039*
Y03939*
X00879Y03949*
X00849*
X00909D02*
Y0389D01*
Y0392*
X00949*
Y03949*
Y0389*
X00969Y03949D02*
Y0391D01*
X00989Y0389*
X01009Y0391*
Y03949*
X0073Y03839D02*
X00739Y03849D01*
X00759*
X00769Y03839*
Y03829*
X00759Y0382*
X00749*
X00759*
X00769Y0381*
Y038*
X00759Y0379*
X00739*
X0073Y038*
X00789Y03839D02*
X00799Y03849D01*
X00819*
X00829Y03839*
Y03829*
X00819Y0382*
X00809*
X00819*
X00829Y0381*
Y038*
X00819Y0379*
X00799*
X00789Y038*
X00849Y0379D02*
Y03849D01*
X00879*
X00889Y03839*
Y0382*
X00879Y0381*
X00849*
X00949Y03839D02*
X00939Y03849D01*
X00919*
X00909Y03839*
Y03829*
X00919Y0382*
X00939*
X00949Y0381*
Y038*
X00939Y0379*
X00919*
X00909Y038*
X00969Y03849D02*
Y038D01*
X00979Y0379*
X00999*
X01009Y038*
Y03849*
X05284Y02789D02*
X05245D01*
Y02769*
X05251Y02763*
X05278*
X05284Y02769*
Y02789*
Y02749D02*
Y02736D01*
Y02743*
X05245*
Y02749*
Y02736*
X05278Y02689D02*
X05284Y02696D01*
Y02709*
X05278Y02716*
X05271*
X05264Y02709*
Y02696*
X05258Y02689*
X05251*
X05245Y02696*
Y02709*
X05251Y02716*
X05278Y02649D02*
X05284Y02656D01*
Y02669*
X05278Y02676*
X05251*
X05245Y02669*
Y02656*
X05251Y02649*
X05245Y02636D02*
X05284D01*
Y02616*
X05278Y0261*
X05264*
X05258Y02616*
Y02636*
Y02623D02*
X05245Y0261D01*
X05284Y0257D02*
Y02596D01*
X05245*
Y0257*
X05264Y02596D02*
Y02583D01*
X05284Y02556D02*
Y0253D01*
Y02543*
X05245*
X05284Y0249D02*
Y02516D01*
X05245*
Y0249*
X05264Y02516D02*
Y02503D01*
X05278Y03121D02*
X05284Y03128D01*
Y03141*
X05278Y03148*
X05271*
X05264Y03141*
Y03128*
X05258Y03121*
X05251*
X05245Y03128*
Y03141*
X05251Y03148*
X05245Y03108D02*
X05284D01*
X05271Y03094*
X05284Y03081*
X05245*
Y03068D02*
X05271D01*
X05284Y03055*
X05271Y03041*
X05245*
X05264*
Y03068*
X05284Y03028D02*
X05245D01*
Y03001*
X05284Y02988D02*
X05245D01*
Y02961*
X01025Y08379D02*
Y08349D01*
X01034Y0834*
X01064*
Y08379*
X01084Y0834D02*
Y08399D01*
X01114*
X01124Y08389*
Y08369*
X01114Y08359*
X01084*
X01144Y0834D02*
X01164D01*
X01154*
Y08399*
X01144Y08389*
G54D55*
X04501Y06873D02*
Y06875D01*
Y06674D02*
Y06676D01*
Y06674D02*
X04678D01*
Y06873D02*
Y06875D01*
Y06674D02*
Y06676D01*
X04501Y06875D02*
X04678D01*
X04697Y04928D02*
X04842D01*
Y04731D02*
Y04928D01*
X04697Y04731D02*
X04842D01*
X04697D02*
Y04928D01*
X04625Y04929D02*
X04683D01*
X0478Y0461D02*
Y04709D01*
X04879Y0461D02*
Y04709D01*
X0478D02*
X04879D01*
X0478Y0461D02*
X04879D01*
X0466D02*
Y04709D01*
X04759Y0461D02*
Y04709D01*
X0466D02*
X04759D01*
X0466Y0461D02*
X04759D01*
X0129Y05145D02*
X0149D01*
X0129Y04845D02*
X0149D01*
X0129D02*
Y05145D01*
X0149Y04845D02*
Y05145D01*
Y04953D02*
Y05145D01*
X0129Y0209D02*
X0149D01*
X0129Y0179D02*
X0149D01*
X0129D02*
Y0209D01*
X0149Y0179D02*
Y0209D01*
Y01898D02*
Y0209D01*
X02263Y01608D02*
X02278D01*
Y01593D02*
Y01608D01*
X01951D02*
X01966D01*
X01951Y01593D02*
Y01608D01*
Y01281D02*
Y01296D01*
Y01281D02*
X01966D01*
X02263D02*
X02278D01*
Y01296*
X02452Y02433D02*
X02597D01*
Y02236D02*
Y02433D01*
X02452Y02236D02*
X02597D01*
X02452D02*
Y02433D01*
X0238Y02434D02*
X02438D01*
X02917Y00973D02*
X03062D01*
Y00776D02*
Y00973D01*
X02917Y00776D02*
X03062D01*
X02917D02*
Y00973D01*
X02845Y00974D02*
X02903D01*
X03106Y02649D02*
X03139D01*
X03153Y0256D02*
Y02639D01*
Y0256D02*
X03216D01*
Y02639*
X03153D02*
X03216D01*
X03106Y02409D02*
X03139D01*
X03153Y0232D02*
Y02399D01*
Y0232D02*
X03216D01*
Y02399*
X03153D02*
X03216D01*
X02739Y0041D02*
Y00443D01*
X0265Y00396D02*
X02729D01*
X0265Y00333D02*
Y00396D01*
Y00333D02*
X02729D01*
Y00396*
X02549Y0026D02*
Y00293D01*
X0246Y00246D02*
X02539D01*
X0246Y00183D02*
Y00246D01*
Y00183D02*
X02539D01*
Y00246*
X03106Y02889D02*
X03139D01*
X03153Y028D02*
Y02879D01*
Y028D02*
X03216D01*
Y02879*
X03153D02*
X03216D01*
X03811Y01364D02*
X03844D01*
X03858Y01275D02*
Y01354D01*
Y01275D02*
X03921D01*
Y01354*
X03858D02*
X03921D01*
X02535Y0211D02*
X02634D01*
X02535Y02209D02*
X02634D01*
X02535Y0211D02*
Y02209D01*
X02634Y0211D02*
Y02209D01*
X02415Y0211D02*
X02514D01*
X02415Y02209D02*
X02514D01*
X02415Y0211D02*
Y02209D01*
X02514Y0211D02*
Y02209D01*
X02239Y00615D02*
Y00714D01*
X02315Y00539D02*
X02414D01*
X0249Y00615D02*
Y00714D01*
X02315Y0079D02*
X02414D01*
X01899Y0216D02*
Y02259D01*
X01975Y02084D02*
X02074D01*
X0215Y0216D02*
Y02259D01*
X01975Y02335D02*
X02074D01*
X03Y0065D02*
X03099D01*
X03Y00749D02*
X03099D01*
X03Y0065D02*
Y00749D01*
X03099Y0065D02*
Y00749D01*
X0288Y0065D02*
X02979D01*
X0288Y00749D02*
X02979D01*
X0288Y0065D02*
Y00749D01*
X02979Y0065D02*
Y00749D01*
X01739Y00615D02*
Y00714D01*
X01815Y00539D02*
X01914D01*
X0199Y00615D02*
Y00714D01*
X01815Y0079D02*
X01914D01*
X02819Y01995D02*
Y02094D01*
X02895Y01919D02*
X02994D01*
X0307Y01995D02*
Y02094D01*
X02895Y0217D02*
X02994D01*
X02064Y0266D02*
Y02759D01*
X0214Y02584D02*
X02239D01*
X02315Y0266D02*
Y02759D01*
X0214Y02835D02*
X02239D01*
X03319Y01995D02*
Y02094D01*
X03395Y01919D02*
X03494D01*
X0357Y01995D02*
Y02094D01*
X03395Y0217D02*
X03494D01*
X03324Y00995D02*
Y01094D01*
X034Y00919D02*
X03499D01*
X03575Y00995D02*
Y01094D01*
X034Y0117D02*
X03499D01*
X03319Y01495D02*
Y01594D01*
X03395Y01419D02*
X03494D01*
X0357Y01495D02*
Y01594D01*
X03395Y0167D02*
X03494D01*
X0171Y01925D02*
X01809D01*
X0171Y02024D02*
X01809D01*
X0171Y01925D02*
Y02024D01*
X01809Y01925D02*
Y02024D01*
X03813Y00627D02*
Y00772D01*
X03616Y00627D02*
X03813D01*
X03616D02*
Y00772D01*
X03813*
X03827Y00786D02*
Y00844D01*
X0345Y00305D02*
Y00405D01*
X0405Y00305D02*
Y00405D01*
X0345Y00305D02*
X0405D01*
X0345Y00405D02*
X0405D01*
X0245Y0105D02*
X02549D01*
X0245Y01149D02*
X02549D01*
X0245Y0105D02*
Y01149D01*
X02549Y0105D02*
Y01149D01*
X02725Y0119D02*
X02824D01*
X02725Y01289D02*
X02824D01*
X02725Y0119D02*
Y01289D01*
X02824Y0119D02*
Y01289D01*
X0129Y0154D02*
Y0164D01*
X0149*
Y0154D02*
Y0164D01*
X0129Y0154D02*
X0149D01*
Y0142D02*
Y0152D01*
X0129Y0142D02*
X0149D01*
X0129D02*
Y0152D01*
X0149*
X04295Y0187D02*
Y0197D01*
X04095Y0187D02*
X04295D01*
X04095D02*
Y0197D01*
X04295*
X04095Y0175D02*
Y0185D01*
X04295*
Y0175D02*
Y0185D01*
X04095Y0175D02*
X04295D01*
Y0154D02*
Y0164D01*
X04095Y0154D02*
X04295D01*
X04095D02*
Y0164D01*
X04295*
X04095Y0142D02*
Y0152D01*
X04295*
Y0142D02*
Y0152D01*
X04095Y0142D02*
X04295D01*
X02824Y04245D02*
Y04344D01*
X02725Y04245D02*
Y04344D01*
X02824*
X02725Y04245D02*
X02824D01*
X01809Y0498D02*
Y05079D01*
X0171Y0498D02*
Y05079D01*
X01809*
X0171Y0498D02*
X01809D01*
X02278Y04336D02*
Y04351D01*
X02263Y04336D02*
X02278D01*
X01951D02*
X01966D01*
X01951D02*
Y04351D01*
Y04648D02*
Y04663D01*
X01966*
X02278Y04648D02*
Y04663D01*
X02263D02*
X02278D01*
X04095Y04695D02*
X04295D01*
X04095Y04595D02*
Y04695D01*
Y04595D02*
X04295D01*
Y04695*
X04095Y04475D02*
X04295D01*
Y04575*
X04095D02*
X04295D01*
X04095Y04475D02*
Y04575D01*
Y05025D02*
X04295D01*
X04095Y04925D02*
Y05025D01*
Y04925D02*
X04295D01*
Y05025*
X04095Y04805D02*
X04295D01*
Y04905*
X04095D02*
X04295D01*
X04095Y04805D02*
Y04905D01*
X0129Y04595D02*
X0149D01*
Y04695*
X0129D02*
X0149D01*
X0129Y04595D02*
Y04695D01*
Y04575D02*
X0149D01*
X0129Y04475D02*
Y04575D01*
Y04475D02*
X0149D01*
Y04575*
X02549Y04105D02*
Y04204D01*
X0245Y04105D02*
Y04204D01*
X02549*
X0245Y04105D02*
X02549D01*
X0345Y0336D02*
Y0346D01*
X0405Y0336D02*
Y0346D01*
X0345Y0336D02*
X0405D01*
X0345Y0346D02*
X0405D01*
X03Y03705D02*
X03099D01*
X03Y03804D02*
X03099D01*
X03Y03705D02*
Y03804D01*
X03099Y03705D02*
Y03804D01*
X0288Y03705D02*
X02979D01*
X0288Y03804D02*
X02979D01*
X0288Y03705D02*
Y03804D01*
X02979Y03705D02*
Y03804D01*
X02535Y05165D02*
X02634D01*
X02535Y05264D02*
X02634D01*
X02535Y05165D02*
Y05264D01*
X02634Y05165D02*
Y05264D01*
X02415Y05165D02*
X02514D01*
X02415Y05264D02*
X02514D01*
X02415Y05165D02*
Y05264D01*
X02514Y05165D02*
Y05264D01*
X03324Y0405D02*
Y04149D01*
X034Y03974D02*
X03499D01*
X03575Y0405D02*
Y04149D01*
X034Y04225D02*
X03499D01*
X03319Y0455D02*
Y04649D01*
X03395Y04474D02*
X03494D01*
X0357Y0455D02*
Y04649D01*
X03395Y04725D02*
X03494D01*
X02064Y05715D02*
Y05814D01*
X0214Y05639D02*
X02239D01*
X02315Y05715D02*
Y05814D01*
X0214Y0589D02*
X02239D01*
X03319Y0505D02*
Y05149D01*
X03395Y04974D02*
X03494D01*
X0357Y0505D02*
Y05149D01*
X03395Y05225D02*
X03494D01*
X01739Y0367D02*
Y03769D01*
X01815Y03594D02*
X01914D01*
X0199Y0367D02*
Y03769D01*
X01815Y03845D02*
X01914D01*
X02819Y0505D02*
Y05149D01*
X02895Y04974D02*
X02994D01*
X0307Y0505D02*
Y05149D01*
X02895Y05225D02*
X02994D01*
X02239Y0367D02*
Y03769D01*
X02315Y03594D02*
X02414D01*
X0249Y0367D02*
Y03769D01*
X02315Y03845D02*
X02414D01*
X01899Y05215D02*
Y05314D01*
X01975Y05139D02*
X02074D01*
X0215Y05215D02*
Y05314D01*
X01975Y0539D02*
X02074D01*
X03811Y04419D02*
X03844D01*
X03858Y0433D02*
Y04409D01*
Y0433D02*
X03921D01*
Y04409*
X03858D02*
X03921D01*
X03153Y05934D02*
X03216D01*
Y05855D02*
Y05934D01*
X03153Y05855D02*
X03216D01*
X03153D02*
Y05934D01*
X03106Y05944D02*
X03139D01*
X02549Y03315D02*
Y03348D01*
X0246Y03301D02*
X02539D01*
X0246Y03238D02*
Y03301D01*
Y03238D02*
X02539D01*
Y03301*
X02739Y03465D02*
Y03498D01*
X0265Y03451D02*
X02729D01*
X0265Y03388D02*
Y03451D01*
Y03388D02*
X02729D01*
Y03451*
X03153Y05454D02*
X03216D01*
Y05375D02*
Y05454D01*
X03153Y05375D02*
X03216D01*
X03153D02*
Y05454D01*
X03106Y05464D02*
X03139D01*
X03813Y03682D02*
Y03827D01*
X03616Y03682D02*
X03813D01*
X03616D02*
Y03827D01*
X03813*
X03827Y03841D02*
Y03899D01*
X03153Y05694D02*
X03216D01*
Y05615D02*
Y05694D01*
X03153Y05615D02*
X03216D01*
X03153D02*
Y05694D01*
X03106Y05704D02*
X03139D01*
X02917Y04028D02*
X03062D01*
Y03831D02*
Y04028D01*
X02917Y03831D02*
X03062D01*
X02917D02*
Y04028D01*
X02845Y04029D02*
X02903D01*
X02452Y05488D02*
X02597D01*
Y05291D02*
Y05488D01*
X02452Y05291D02*
X02597D01*
X02452D02*
Y05488D01*
X0238Y05489D02*
X02438D01*
X04625Y01954D02*
X04683D01*
X04697Y01756D02*
Y01953D01*
Y01756D02*
X04842D01*
Y01953*
X04697D02*
X04842D01*
X00752Y04531D02*
X00897D01*
X00752D02*
Y04728D01*
X00897*
Y04531D02*
Y04728D01*
X00911Y04517D02*
X00969D01*
X00911Y01462D02*
X00969D01*
X00897Y01476D02*
Y01673D01*
X00752D02*
X00897D01*
X00752Y01476D02*
Y01673D01*
Y01476D02*
X00897D01*
X0484Y02515D02*
Y02615D01*
X0464Y02515D02*
X0484D01*
X0464D02*
Y02615D01*
X0484*
X00755Y02585D02*
X00955D01*
Y02685*
X00755D02*
X00955D01*
X00755Y02585D02*
Y02685D01*
X00595Y0397D02*
X00695D01*
Y0377D02*
Y0397D01*
X00595Y0377D02*
X00695D01*
X00595D02*
Y0397D01*
X00755Y03105D02*
X00955D01*
X00755Y03005D02*
Y03105D01*
Y03005D02*
X00955D01*
Y03105*
X00855Y03125D02*
Y03325D01*
Y03125D02*
X00955D01*
Y03325*
X00855D02*
X00955D01*
X0478Y01635D02*
X04879D01*
X0478Y01734D02*
X04879D01*
Y01635D02*
Y01734D01*
X0478Y01635D02*
Y01734D01*
X0466Y01635D02*
X04759D01*
X0466Y01734D02*
X04759D01*
Y01635D02*
Y01734D01*
X0466Y01635D02*
Y01734D01*
X0491Y02578D02*
Y02701D01*
X04949Y02578D02*
Y02701D01*
X0491D02*
X04949D01*
X0491Y02578D02*
X04949D01*
X00645Y02621D02*
X00684D01*
X00645Y02498D02*
X00684D01*
X00645D02*
Y02621D01*
X00684Y02498D02*
Y02621D01*
X0491Y03408D02*
X04949D01*
X0491Y03531D02*
X04949D01*
Y03408D02*
Y03531D01*
X0491Y03408D02*
Y03531D01*
Y02993D02*
Y03116D01*
X04949Y02993D02*
Y03116D01*
X0491D02*
X04949D01*
X0491Y02993D02*
X04949D01*
X00645Y03456D02*
X00684D01*
X00645Y03333D02*
X00684D01*
X00645D02*
Y03456D01*
X00684Y03333D02*
Y03456D01*
X00645Y03041D02*
X00684D01*
X00645Y02918D02*
X00684D01*
X00645D02*
Y03041D01*
X00684Y02918D02*
Y03041D01*
G54D56*
X0079Y02894D02*
X00819D01*
Y02914*
X0079Y02924D02*
X00819D01*
Y02939*
X00814Y02944*
X00795*
X0079Y02939*
Y02924*
Y02969D02*
Y02959D01*
X00795Y02954*
X00814*
X00819Y02959*
Y02969*
X00814Y02974*
X00795*
X0079Y02969*
X00919Y03356D02*
X0089D01*
Y0337*
X00895Y03375*
X00905*
X00909Y0337*
Y03356*
X00895Y03405D02*
X0089Y034D01*
Y0339*
X00895Y03385*
X009*
X00905Y0339*
Y034*
X00909Y03405*
X00914*
X00919Y034*
Y0339*
X00914Y03385*
X0089Y03415D02*
X00914D01*
X00919Y0342*
Y0343*
X00914Y03435*
X0089*
X00919Y02474D02*
X0089D01*
Y02489*
X00895Y02494*
X00905*
X00909Y02489*
Y02474*
X00895Y02524D02*
X0089Y02519D01*
Y02509*
X00895Y02504*
X009*
X00905Y02509*
Y02519*
X00909Y02524*
X00914*
X00919Y02519*
Y02509*
X00914Y02504*
X0089Y02534D02*
X00914D01*
X00919Y02539*
Y02549*
X00914Y02554*
X0089*
X04804Y02484D02*
X04775D01*
Y02464*
X04804Y02454D02*
X04775D01*
Y02439*
X0478Y02434*
X04799*
X04804Y02439*
Y02454*
Y02409D02*
Y02419D01*
X04799Y02424*
X0478*
X04775Y02419*
Y02409*
X0478Y02404*
X04799*
X04804Y02409*
X04675Y02484D02*
X04704D01*
Y02469*
X04699Y02464*
X0469*
X04685Y02469*
Y02484*
X04699Y02434D02*
X04704Y02439D01*
Y02449*
X04699Y02454*
X04694*
X0469Y02449*
Y02439*
X04685Y02434*
X0468*
X04675Y02439*
Y02449*
X0468Y02454*
X04704Y02424D02*
X0468D01*
X04675Y02419*
Y02409*
X0468Y02404*
X04704*
X03917Y03329D02*
X03887D01*
Y03309*
X03917Y03279D02*
Y03299D01*
X03887*
Y03279*
X03902Y03299D02*
Y03289D01*
X03917Y03269D02*
X03887D01*
Y03254*
X03892Y03249*
X03912*
X03917Y03254*
Y03269*
X03882Y03239D02*
Y03219D01*
X03912Y03189D02*
X03917Y03194D01*
Y03204*
X03912Y03209*
X03907*
X03902Y03204*
Y03194*
X03897Y03189*
X03892*
X03887Y03194*
Y03204*
X03892Y03209*
X03887Y03179D02*
X03917D01*
X03907Y03169*
X03917Y03159*
X03887*
Y03149D02*
X03907D01*
X03917Y03139*
X03907Y03129*
X03887*
X03902*
Y03149*
X03917Y03119D02*
X03887D01*
Y03099*
X03917Y03089D02*
X03887D01*
Y03069*
X04012Y03309D02*
X04017Y03314D01*
Y03324*
X04012Y03329*
X03992*
X03987Y03324*
Y03314*
X03992Y03309*
X04017Y03279D02*
Y03299D01*
X04002*
Y03289*
Y03299*
X03987*
X04017Y03269D02*
X03987D01*
Y03254*
X03992Y03249*
X04012*
X04017Y03254*
Y03269*
X03982Y03239D02*
Y03219D01*
X04012Y03189D02*
X04017Y03194D01*
Y03204*
X04012Y03209*
X04007*
X04002Y03204*
Y03194*
X03997Y03189*
X03992*
X03987Y03194*
Y03204*
X03992Y03209*
X03987Y03179D02*
X04017D01*
X04007Y03169*
X04017Y03159*
X03987*
Y03149D02*
X04007D01*
X04017Y03139*
X04007Y03129*
X03987*
X04002*
Y03149*
X04017Y03119D02*
X03987D01*
Y03099*
X04017Y03089D02*
X03987D01*
Y03069*
X03617Y03329D02*
X03587D01*
Y03309*
X03617Y03279D02*
Y03299D01*
X03587*
Y03279*
X03602Y03299D02*
Y03289D01*
X03617Y03269D02*
X03587D01*
Y03254*
X03592Y03249*
X03612*
X03617Y03254*
Y03269*
X03582Y03239D02*
Y03219D01*
X03587Y03209D02*
X03617D01*
X03607Y03199*
X03617Y03189*
X03587*
Y03179D02*
X03607D01*
X03617Y03169*
X03607Y03159*
X03587*
X03602*
Y03179*
X03617Y03149D02*
Y03139D01*
Y03144*
X03587*
Y03149*
Y03139*
Y03124D02*
X03617D01*
X03587Y03104*
X03617*
X03809Y03309D02*
X03814Y03314D01*
Y03324*
X03809Y03329*
X03804*
X038Y03324*
Y03314*
X03795Y03309*
X0379*
X03785Y03314*
Y03324*
X0379Y03329*
X03785Y03299D02*
X03814D01*
X03804Y03289*
X03814Y03279*
X03785*
Y03269D02*
X03804D01*
X03814Y03259*
X03804Y03249*
X03785*
X038*
Y03269*
X03814Y03239D02*
X03785D01*
Y03219*
X03814Y03209D02*
X03785D01*
Y03189*
X03485Y03329D02*
X03514D01*
X03504Y03319*
X03514Y03309*
X03485*
Y03299D02*
X03504D01*
X03514Y03289*
X03504Y03279*
X03485*
X035*
Y03299*
X03514Y03269D02*
Y03259D01*
Y03264*
X03485*
Y03269*
Y03259*
Y03244D02*
X03514D01*
X03485Y03224*
X03514*
X03712Y03309D02*
X03717Y03314D01*
Y03324*
X03712Y03329*
X03692*
X03687Y03324*
Y03314*
X03692Y03309*
X03717Y03279D02*
Y03299D01*
X03702*
Y03289*
Y03299*
X03687*
X03717Y03269D02*
X03687D01*
Y03254*
X03692Y03249*
X03712*
X03717Y03254*
Y03269*
X03682Y03239D02*
Y03219D01*
X03687Y03209D02*
X03717D01*
X03707Y03199*
X03717Y03189*
X03687*
Y03179D02*
X03707D01*
X03717Y03169*
X03707Y03159*
X03687*
X03702*
Y03179*
X03717Y03149D02*
Y03139D01*
Y03144*
X03687*
Y03149*
Y03139*
Y03124D02*
X03717D01*
X03687Y03104*
X03717*
X04316Y0463D02*
Y04659D01*
X0433*
X04335Y04654*
Y04645*
X0433Y0464*
X04316*
X04365Y04654D02*
X0436Y04659D01*
X0435*
X04345Y04654*
Y04649*
X0435Y04645*
X0436*
X04365Y0464*
Y04635*
X0436Y0463*
X0435*
X04345Y04635*
X04375Y04659D02*
Y04635D01*
X0438Y0463*
X0439*
X04395Y04635*
Y04659*
X04316Y04539D02*
Y0451D01*
X04335*
X04345Y04539D02*
Y0451D01*
X0436*
X04365Y04515*
Y04534*
X0436Y04539*
X04345*
X0439D02*
X0438D01*
X04375Y04534*
Y04515*
X0438Y0451*
X0439*
X04395Y04515*
Y04534*
X0439Y04539*
X04326Y04869D02*
Y0484D01*
X04345*
X04355Y04869D02*
Y0484D01*
X0437*
X04375Y04845*
Y04864*
X0437Y04869*
X04355*
X044D02*
X0439D01*
X04385Y04864*
Y04845*
X0439Y0484*
X044*
X04405Y04845*
Y04864*
X044Y04869*
X04326Y0496D02*
Y04989D01*
X0434*
X04345Y04984*
Y04975*
X0434Y0497*
X04326*
X04375Y04984D02*
X0437Y04989D01*
X0436*
X04355Y04984*
Y04979*
X0436Y04975*
X0437*
X04375Y0497*
Y04965*
X0437Y0496*
X0436*
X04355Y04965*
X04385Y04989D02*
Y04965D01*
X0439Y0496*
X044*
X04405Y04965*
Y04989*
X01179Y04539D02*
Y0451D01*
X01199*
X01209Y04539D02*
Y0451D01*
X01224*
X01229Y04515*
Y04534*
X01224Y04539*
X01209*
X01254D02*
X01244D01*
X01239Y04534*
Y04515*
X01244Y0451*
X01254*
X01259Y04515*
Y04534*
X01254Y04539*
X01179Y0463D02*
Y04659D01*
X01194*
X01199Y04654*
Y04645*
X01194Y0464*
X01179*
X01229Y04654D02*
X01224Y04659D01*
X01214*
X01209Y04654*
Y04649*
X01214Y04645*
X01224*
X01229Y0464*
Y04635*
X01224Y0463*
X01214*
X01209Y04635*
X01239Y04659D02*
Y04635D01*
X01244Y0463*
X01254*
X01259Y04635*
Y04659*
X04421Y06944D02*
Y06919D01*
X04425Y06915*
X04435*
X0444Y06919*
Y06944*
X0445D02*
X0447D01*
Y06939*
X0445Y06919*
Y06915*
X04775Y06462D02*
X04745D01*
Y06476*
X0475Y06481*
X0476*
X04765Y06476*
Y06462*
Y06471D02*
X04775Y06481D01*
Y06491D02*
Y06501D01*
Y06496*
X04745*
X0475Y06491*
Y06516D02*
X04745Y06521D01*
Y06531*
X0475Y06536*
X04755*
X0476Y06531*
X04765Y06536*
X0477*
X04775Y06531*
Y06521*
X0477Y06516*
X04765*
X0476Y06521*
X04755Y06516*
X0475*
X0476Y06521D02*
Y06531D01*
X04261Y06637D02*
Y06667D01*
X04275*
X0428Y06662*
Y06652*
X04275Y06647*
X04261*
X0427D02*
X0428Y06637D01*
X0429D02*
X043D01*
X04295*
Y06667*
X0429Y06662*
X04315Y06667D02*
X04335D01*
Y06662*
X04315Y06642*
Y06637*
X04895Y06462D02*
X04865D01*
Y06476*
X0487Y06481*
X0488*
X04885Y06476*
Y06462*
Y06471D02*
X04895Y06481D01*
Y06491D02*
Y06501D01*
Y06496*
X04865*
X0487Y06491*
X04865Y06536D02*
X0487Y06526D01*
X0488Y06516*
X0489*
X04895Y06521*
Y06531*
X0489Y06536*
X04885*
X0488Y06531*
Y06516*
X04835Y06462D02*
X04805D01*
Y06476*
X0481Y06481*
X0482*
X04825Y06476*
Y06462*
Y06471D02*
X04835Y06481D01*
Y06491D02*
Y06501D01*
Y06496*
X04805*
X0481Y06491*
X04805Y06536D02*
Y06516D01*
X0482*
X04815Y06526*
Y06531*
X0482Y06536*
X0483*
X04835Y06531*
Y06521*
X0483Y06516*
X04955Y06462D02*
X04925D01*
Y06476*
X0493Y06481*
X0494*
X04945Y06476*
Y06462*
Y06471D02*
X04955Y06481D01*
Y06491D02*
Y06501D01*
Y06496*
X04925*
X0493Y06491*
X04955Y06531D02*
X04925D01*
X0494Y06516*
Y06536*
X04685Y07073D02*
X0468Y07068D01*
Y07058*
X04685Y07054*
X04705*
X0471Y07058*
Y07068*
X04705Y07073*
X0468Y07103D02*
X04685Y07093D01*
X04695Y07083*
X04705*
X0471Y07088*
Y07098*
X04705Y07103*
X047*
X04695Y07098*
Y07083*
X0471Y07128D02*
X0468D01*
X04695Y07113*
Y07133*
X046Y07073D02*
X04595Y07068D01*
Y07058*
X046Y07054*
X0462*
X04625Y07058*
Y07068*
X0462Y07073*
X04595Y07103D02*
X046Y07093D01*
X0461Y07083*
X0462*
X04625Y07088*
Y07098*
X0462Y07103*
X04615*
X0461Y07098*
Y07083*
X046Y07113D02*
X04595Y07118D01*
Y07128*
X046Y07133*
X04605*
X0461Y07128*
Y07123*
Y07128*
X04615Y07133*
X0462*
X04625Y07128*
Y07118*
X0462Y07113*
X04515Y07073D02*
X0451Y07068D01*
Y07058*
X04515Y07054*
X04535*
X0454Y07058*
Y07068*
X04535Y07073*
X0451Y07103D02*
X04515Y07093D01*
X04525Y07083*
X04535*
X0454Y07088*
Y07098*
X04535Y07103*
X0453*
X04525Y07098*
Y07083*
X0454Y07133D02*
Y07113D01*
X0452Y07133*
X04515*
X0451Y07128*
Y07118*
X04515Y07113*
X02451Y01322D02*
Y01352D01*
X02466*
X02471Y01347*
Y01337*
X02466Y01332*
X02451*
X02461D02*
X02471Y01322D01*
X02481D02*
X02491D01*
X02486*
Y01352*
X02481Y01347*
X02506D02*
X02511Y01352D01*
X02521*
X02526Y01347*
Y01342*
X02521Y01337*
X02516*
X02521*
X02526Y01332*
Y01327*
X02521Y01322*
X02511*
X02506Y01327*
X02536Y01317D02*
X02556D01*
X02566Y01342D02*
X02586Y01322D01*
X02576Y01332*
X02586Y01342*
X02566Y01322*
X02596D02*
X02606D01*
X02601*
Y01352*
X02596Y01347*
X02272Y01782D02*
Y01812D01*
X02287*
X02292Y01807*
Y01797*
X02287Y01792*
X02272*
X02282D02*
X02292Y01782D01*
X02302D02*
X02312D01*
X02307*
Y01812*
X02302Y01807*
X02347Y01782D02*
X02327D01*
X02347Y01802*
Y01807*
X02342Y01812*
X02332*
X02327Y01807*
X02357Y01777D02*
X02377D01*
X02387Y01802D02*
X02407Y01782D01*
X02397Y01792*
X02407Y01802*
X02387Y01782*
X02417D02*
X02427D01*
X02422*
Y01812*
X02417Y01807*
X02732Y01113D02*
Y01142D01*
X02746*
X02751Y01137*
Y01127*
X02746Y01122*
X02732*
X02741D02*
X02751Y01113D01*
X02761D02*
X02771D01*
X02766*
Y01142*
X02761Y01137*
X02786Y01113D02*
X02796D01*
X02791*
Y01142*
X02786Y01137*
X02811Y01108D02*
X02831D01*
X02841Y01132D02*
X02861Y01113D01*
X02851Y01122*
X02861Y01132*
X02841Y01113*
X02871D02*
X02881D01*
X02876*
Y01142*
X02871Y01137*
X02836Y01392D02*
Y01421D01*
X0285*
X02855Y01416*
Y01406*
X0285Y01401*
X02836*
X02845D02*
X02855Y01392D01*
X02865D02*
X02875D01*
X0287*
Y01421*
X02865Y01416*
X0289D02*
X02895Y01421D01*
X02905*
X0291Y01416*
Y01396*
X02905Y01392*
X02895*
X0289Y01396*
Y01416*
X0292Y01387D02*
X0294D01*
X0295Y01411D02*
X0297Y01392D01*
X0296Y01401*
X0297Y01411*
X0295Y01392*
X0298D02*
X0299D01*
X02985*
Y01421*
X0298Y01416*
X028Y01012D02*
Y01042D01*
X02815*
X0282Y01037*
Y01027*
X02815Y01022*
X028*
X0281D02*
X0282Y01012D01*
X0283Y01017D02*
X02835Y01012D01*
X02845*
X0285Y01017*
Y01037*
X02845Y01042*
X02835*
X0283Y01037*
Y01032*
X02835Y01027*
X0285*
X0286Y01007D02*
X02879D01*
X02889Y01032D02*
X02909Y01012D01*
X02899Y01022*
X02909Y01032*
X02889Y01012*
X02919D02*
X02929D01*
X02924*
Y01042*
X02919Y01037*
X02543Y02573D02*
Y02602D01*
X02557*
X02562Y02597*
Y02587*
X02557Y02582*
X02543*
X02552D02*
X02562Y02573D01*
X02572Y02597D02*
X02577Y02602D01*
X02587*
X02592Y02597*
Y02592*
X02587Y02587*
X02592Y02582*
Y02577*
X02587Y02573*
X02577*
X02572Y02577*
Y02582*
X02577Y02587*
X02572Y02592*
Y02597*
X02577Y02587D02*
X02587D01*
X02602Y02568D02*
X02622D01*
X02632Y02592D02*
X02652Y02573D01*
X02642Y02582*
X02652Y02592*
X02632Y02573*
X02662D02*
X02672D01*
X02667*
Y02602*
X02662Y02597*
X02836Y01497D02*
Y01526D01*
X0285*
X02855Y01521*
Y01511*
X0285Y01506*
X02836*
X02845D02*
X02855Y01497D01*
X02865Y01526D02*
X02885D01*
Y01521*
X02865Y01501*
Y01497*
X02895Y01492D02*
X02915D01*
X02925Y01516D02*
X02945Y01497D01*
X02935Y01506*
X02945Y01516*
X02925Y01497*
X02955D02*
X02965D01*
X0296*
Y01526*
X02955Y01521*
X02502Y02488D02*
Y02517D01*
X02516*
X02521Y02512*
Y02502*
X02516Y02497*
X02502*
X02511D02*
X02521Y02488D01*
X02551Y02517D02*
X02541Y02512D01*
X02531Y02502*
Y02492*
X02536Y02488*
X02546*
X02551Y02492*
Y02497*
X02546Y02502*
X02531*
X02561Y02483D02*
X02581D01*
X02591Y02507D02*
X02611Y02488D01*
X02601Y02497*
X02611Y02507*
X02591Y02488*
X02621D02*
X02631D01*
X02626*
Y02517*
X02621Y02512*
X02272Y00879D02*
X02242D01*
Y00893*
X02247Y00898*
X02257*
X02262Y00893*
Y00879*
Y00888D02*
X02272Y00898D01*
X02242Y00928D02*
Y00908D01*
X02257*
X02252Y00918*
Y00923*
X02257Y00928*
X02267*
X02272Y00923*
Y00913*
X02267Y00908*
X02276Y00938D02*
Y00958D01*
X02252Y00968D02*
X02272Y00988D01*
X02262Y00978*
X02252Y00988*
X02272Y00968*
Y00998D02*
Y01008D01*
Y01003*
X02242*
X02247Y00998*
X02836Y01602D02*
Y01631D01*
X0285*
X02855Y01626*
Y01616*
X0285Y01611*
X02836*
X02845D02*
X02855Y01602D01*
X0288D02*
Y01631D01*
X02865Y01616*
X02885*
X02895Y01597D02*
X02915D01*
X02925Y01621D02*
X02945Y01602D01*
X02935Y01611*
X02945Y01621*
X02925Y01602*
X02955D02*
X02965D01*
X0296*
Y01631*
X02955Y01626*
X02377Y00879D02*
X02347D01*
Y00893*
X02352Y00898*
X02362*
X02367Y00893*
Y00879*
Y00888D02*
X02377Y00898D01*
X02352Y00908D02*
X02347Y00913D01*
Y00923*
X02352Y00928*
X02357*
X02362Y00923*
Y00918*
Y00923*
X02367Y00928*
X02372*
X02377Y00923*
Y00913*
X02372Y00908*
X02381Y00938D02*
Y00958D01*
X02357Y00968D02*
X02377Y00988D01*
X02367Y00978*
X02357Y00988*
X02377Y00968*
Y00998D02*
Y01008D01*
Y01003*
X02347*
X02352Y00998*
X02198Y01998D02*
Y02027D01*
X02212*
X02217Y02022*
Y02012*
X02212Y02007*
X02198*
X02207D02*
X02217Y01998D01*
X02247D02*
X02227D01*
X02247Y02017*
Y02022*
X02242Y02027*
X02232*
X02227Y02022*
X02257Y01993D02*
X02277D01*
X02287Y02017D02*
X02307Y01998D01*
X02297Y02007*
X02307Y02017*
X02287Y01998*
X02317D02*
X02327D01*
X02322*
Y02027*
X02317Y02022*
X03795Y01236D02*
X03804D01*
X03799*
Y01207*
X03795*
X03804*
X03839Y01231D02*
X03834Y01236D01*
X03824*
X03819Y01231*
Y01211*
X03824Y01207*
X03834*
X03839Y01211*
X03849Y01207D02*
X03859D01*
X03854*
Y01236*
X03849Y01231*
X03874D02*
X03879Y01236D01*
X03889*
X03894Y01231*
Y01226*
X03889Y01221*
X03884*
X03889*
X03894Y01216*
Y01211*
X03889Y01207*
X03879*
X03874Y01211*
X03904Y01202D02*
X03924D01*
X03934Y01226D02*
X03954Y01207D01*
X03944Y01216*
X03954Y01226*
X03934Y01207*
X03964D02*
X03974D01*
X03969*
Y01236*
X03964Y01231*
X03034Y02794D02*
Y02803D01*
Y02798*
X03064*
Y02794*
Y02803*
X03039Y02838D02*
X03034Y02833D01*
Y02823*
X03039Y02818*
X03059*
X03064Y02823*
Y02833*
X03059Y02838*
X03064Y02848D02*
Y02858D01*
Y02853*
X03034*
X03039Y02848*
X03064Y02893D02*
Y02873D01*
X03044Y02893*
X03039*
X03034Y02888*
Y02878*
X03039Y02873*
X03068Y02903D02*
Y02923D01*
X03044Y02933D02*
X03064Y02953D01*
X03054Y02943*
X03044Y02953*
X03064Y02933*
Y02963D02*
Y02973D01*
Y02968*
X03034*
X03039Y02963*
X02362Y00365D02*
X02371D01*
X02366*
Y00336*
X02362*
X02371*
X02406Y0036D02*
X02401Y00365D01*
X02391*
X02386Y0036*
Y0034*
X02391Y00336*
X02401*
X02406Y0034*
X02416Y00336D02*
X02426D01*
X02421*
Y00365*
X02416Y0036*
X02441Y00336D02*
X02451D01*
X02446*
Y00365*
X02441Y0036*
X02466Y00331D02*
X02486D01*
X02496Y00355D02*
X02516Y00336D01*
X02506Y00345*
X02516Y00355*
X02496Y00336*
X02526D02*
X02536D01*
X02531*
Y00365*
X02526Y0036*
X02547Y00515D02*
X02556D01*
X02551*
Y00486*
X02547*
X02556*
X02591Y0051D02*
X02586Y00515D01*
X02576*
X02571Y0051*
Y0049*
X02576Y00486*
X02586*
X02591Y0049*
X02601Y00486D02*
X02611D01*
X02606*
Y00515*
X02601Y0051*
X02626D02*
X02631Y00515D01*
X02641*
X02646Y0051*
Y0049*
X02641Y00486*
X02631*
X02626Y0049*
Y0051*
X02656Y00481D02*
X02676D01*
X02686Y00505D02*
X02706Y00486D01*
X02696Y00495*
X02706Y00505*
X02686Y00486*
X02716D02*
X02726D01*
X02721*
Y00515*
X02716Y0051*
X03034Y02314D02*
Y02323D01*
Y02318*
X03064*
Y02314*
Y02323*
X03039Y02358D02*
X03034Y02353D01*
Y02343*
X03039Y02338*
X03059*
X03064Y02343*
Y02353*
X03059Y02358*
Y02368D02*
X03064Y02373D01*
Y02383*
X03059Y02388*
X03039*
X03034Y02383*
Y02373*
X03039Y02368*
X03044*
X03049Y02373*
Y02388*
X03068Y02398D02*
Y02418D01*
X03044Y02428D02*
X03064Y02448D01*
X03054Y02438*
X03044Y02448*
X03064Y02428*
Y02458D02*
Y02468D01*
Y02463*
X03034*
X03039Y02458*
X0361Y00916D02*
X03619D01*
X03614*
Y00887*
X0361*
X03619*
X03654Y00911D02*
X03649Y00916D01*
X03639*
X03634Y00911*
Y00891*
X03639Y00887*
X03649*
X03654Y00891*
X03664Y00911D02*
X03669Y00916D01*
X03679*
X03684Y00911*
Y00906*
X03679Y00901*
X03684Y00896*
Y00891*
X03679Y00887*
X03669*
X03664Y00891*
Y00896*
X03669Y00901*
X03664Y00906*
Y00911*
X03669Y00901D02*
X03679D01*
X03694Y00882D02*
X03714D01*
X03724Y00906D02*
X03744Y00887D01*
X03734Y00896*
X03744Y00906*
X03724Y00887*
X03754D02*
X03764D01*
X03759*
Y00916*
X03754Y00911*
X03034Y02554D02*
Y02563D01*
Y02558*
X03064*
Y02554*
Y02563*
X03039Y02598D02*
X03034Y02593D01*
Y02583*
X03039Y02578*
X03059*
X03064Y02583*
Y02593*
X03059Y02598*
X03034Y02608D02*
Y02628D01*
X03039*
X03059Y02608*
X03064*
X03068Y02638D02*
Y02658D01*
X03044Y02668D02*
X03064Y02688D01*
X03054Y02678*
X03044Y02688*
X03064Y02668*
Y02698D02*
Y02708D01*
Y02703*
X03034*
X03039Y02698*
X02773Y0077D02*
Y00779D01*
Y00774*
X02803*
Y0077*
Y00779*
X02778Y00814D02*
X02773Y00809D01*
Y00799*
X02778Y00794*
X02798*
X02803Y00799*
Y00809*
X02798Y00814*
X02773Y00844D02*
X02778Y00834D01*
X02788Y00824*
X02798*
X02803Y00829*
Y00839*
X02798Y00844*
X02793*
X02788Y00839*
Y00824*
X02807Y00854D02*
Y00874D01*
X02783Y00884D02*
X02803Y00904D01*
X02793Y00894*
X02783Y00904*
X02803Y00884*
Y00914D02*
Y00924D01*
Y00919*
X02773*
X02778Y00914*
X02308Y0223D02*
Y02239D01*
Y02234*
X02338*
Y0223*
Y02239*
X02313Y02274D02*
X02308Y02269D01*
Y02259*
X02313Y02254*
X02333*
X02338Y02259*
Y02269*
X02333Y02274*
X02308Y02304D02*
Y02284D01*
X02323*
X02318Y02294*
Y02299*
X02323Y02304*
X02333*
X02338Y02299*
Y02289*
X02333Y02284*
X02342Y02314D02*
Y02334D01*
X02318Y02344D02*
X02338Y02364D01*
X02328Y02354*
X02318Y02364*
X02338Y02344*
Y02374D02*
Y02384D01*
Y02379*
X02308*
X02313Y02374*
X0194Y01237D02*
Y01208D01*
X01954*
X01959Y01212*
Y01232*
X01954Y01237*
X0194*
X01969D02*
Y01212D01*
X01974Y01208*
X01984*
X01989Y01212*
Y01237*
X01999D02*
X02019D01*
X02009*
Y01208*
X02029D02*
X02039D01*
X02034*
Y01237*
X02029Y01232*
X02054Y01203D02*
X02074D01*
X02084Y01227D02*
X02104Y01208D01*
X02094Y01217*
X02104Y01227*
X02084Y01208*
X02114D02*
X02124D01*
X02119*
Y01237*
X02114Y01232*
X02152Y00875D02*
X02147Y0087D01*
Y0086*
X02152Y00856*
X02172*
X02177Y0086*
Y0087*
X02172Y00875*
X02147Y00905D02*
X02152Y00895D01*
X02162Y00885*
X02172*
X02177Y0089*
Y009*
X02172Y00905*
X02167*
X02162Y009*
Y00885*
X02177Y00915D02*
Y00925D01*
Y0092*
X02147*
X02152Y00915*
X02181Y0094D02*
Y0096D01*
X02157Y0097D02*
X02177Y0099D01*
X02167Y0098*
X02157Y0099*
X02177Y0097*
Y01D02*
Y0101D01*
Y01005*
X02147*
X02152Y01*
X02558Y01547D02*
X02553Y01552D01*
X02543*
X02539Y01547*
Y01527*
X02543Y01523*
X02553*
X02558Y01527*
X02588Y01552D02*
X02578Y01547D01*
X02568Y01537*
Y01527*
X02573Y01523*
X02583*
X02588Y01527*
Y01532*
X02583Y01537*
X02568*
X02598Y01547D02*
X02603Y01552D01*
X02613*
X02618Y01547*
Y01527*
X02613Y01523*
X02603*
X02598Y01527*
Y01547*
X02628Y01518D02*
X02648D01*
X02658Y01542D02*
X02678Y01523D01*
X02668Y01532*
X02678Y01542*
X02658Y01523*
X02688D02*
X02698D01*
X02693*
Y01552*
X02688Y01547*
X02056Y01882D02*
X02053Y01878D01*
Y01872*
X02056Y01869*
X02069*
X02073Y01872*
Y01878*
X02069Y01882*
X02053Y01902D02*
Y01888D01*
X02063*
X02059Y01895*
Y01898*
X02063Y01902*
X02069*
X02073Y01898*
Y01892*
X02069Y01888*
Y01908D02*
X02073Y01912D01*
Y01918*
X02069Y01922*
X02056*
X02053Y01918*
Y01912*
X02056Y01908*
X02059*
X02063Y01912*
Y01922*
X02076Y01928D02*
Y01942D01*
X02059Y01948D02*
X02073Y01962D01*
X02066Y01955*
X02059Y01962*
X02073Y01948*
Y01968D02*
Y01975D01*
Y01972*
X02053*
X02056Y01968*
X0154Y01737D02*
X01535Y01742D01*
X01525*
X01521Y01737*
Y01717*
X01525Y01713*
X01535*
X0154Y01717*
X0157Y01742D02*
X0155D01*
Y01727*
X0156Y01732*
X01565*
X0157Y01727*
Y01717*
X01565Y01713*
X01555*
X0155Y01717*
X0158Y01737D02*
X01585Y01742D01*
X01595*
X016Y01737*
Y01732*
X01595Y01727*
X016Y01722*
Y01717*
X01595Y01713*
X01585*
X0158Y01717*
Y01722*
X01585Y01727*
X0158Y01732*
Y01737*
X01585Y01727D02*
X01595D01*
X0161Y01708D02*
X0163D01*
X0164Y01732D02*
X0166Y01713D01*
X0165Y01722*
X0166Y01732*
X0164Y01713*
X0167D02*
X0168D01*
X01675*
Y01742*
X0167Y01737*
X0154Y01652D02*
X01535Y01657D01*
X01525*
X01521Y01652*
Y01632*
X01525Y01628*
X01535*
X0154Y01632*
X0157Y01657D02*
X0155D01*
Y01642*
X0156Y01647*
X01565*
X0157Y01642*
Y01632*
X01565Y01628*
X01555*
X0155Y01632*
X0158Y01657D02*
X016D01*
Y01652*
X0158Y01632*
Y01628*
X0161Y01623D02*
X0163D01*
X0164Y01647D02*
X0166Y01628D01*
X0165Y01637*
X0166Y01647*
X0164Y01628*
X0167D02*
X0168D01*
X01675*
Y01657*
X0167Y01652*
X0154Y01567D02*
X01535Y01572D01*
X01525*
X01521Y01567*
Y01547*
X01525Y01543*
X01535*
X0154Y01547*
X0157Y01572D02*
X0155D01*
Y01557*
X0156Y01562*
X01565*
X0157Y01557*
Y01547*
X01565Y01543*
X01555*
X0155Y01547*
X016Y01572D02*
X0159Y01567D01*
X0158Y01557*
Y01547*
X01585Y01543*
X01595*
X016Y01547*
Y01552*
X01595Y01557*
X0158*
X0161Y01538D02*
X0163D01*
X0164Y01562D02*
X0166Y01543D01*
X0165Y01552*
X0166Y01562*
X0164Y01543*
X0167D02*
X0168D01*
X01675*
Y01572*
X0167Y01567*
X02067Y0087D02*
X02062Y00865D01*
Y00855*
X02067Y00851*
X02087*
X02092Y00855*
Y00865*
X02087Y0087*
X02062Y009D02*
Y0088D01*
X02077*
X02072Y0089*
Y00895*
X02077Y009*
X02087*
X02092Y00895*
Y00885*
X02087Y0088*
X02062Y0093D02*
Y0091D01*
X02077*
X02072Y0092*
Y00925*
X02077Y0093*
X02087*
X02092Y00925*
Y00915*
X02087Y0091*
X02096Y0094D02*
Y0096D01*
X02072Y0097D02*
X02092Y0099D01*
X02082Y0098*
X02072Y0099*
X02092Y0097*
Y01D02*
Y0101D01*
Y01005*
X02062*
X02067Y01*
X01882Y01888D02*
X01877Y01883D01*
Y01873*
X01882Y01869*
X01902*
X01907Y01873*
Y01883*
X01902Y01888*
X01877Y01918D02*
Y01898D01*
X01892*
X01887Y01908*
Y01913*
X01892Y01918*
X01902*
X01907Y01913*
Y01903*
X01902Y01898*
X01907Y01943D02*
X01877D01*
X01892Y01928*
Y01948*
X01911Y01958D02*
Y01978D01*
X01887Y01988D02*
X01907Y02008D01*
X01897Y01998*
X01887Y02008*
X01907Y01988*
Y02018D02*
Y02028D01*
Y02023*
X01877*
X01882Y02018*
X01897Y0087D02*
X01892Y00865D01*
Y00855*
X01897Y00851*
X01917*
X01922Y00855*
Y00865*
X01917Y0087*
X01892Y009D02*
Y0088D01*
X01907*
X01902Y0089*
Y00895*
X01907Y009*
X01917*
X01922Y00895*
Y00885*
X01917Y0088*
X01897Y0091D02*
X01892Y00915D01*
Y00925*
X01897Y0093*
X01902*
X01907Y00925*
Y0092*
Y00925*
X01912Y0093*
X01917*
X01922Y00925*
Y00915*
X01917Y0091*
X01926Y0094D02*
Y0096D01*
X01902Y0097D02*
X01922Y0099D01*
X01912Y0098*
X01902Y0099*
X01922Y0097*
Y01D02*
Y0101D01*
Y01005*
X01892*
X01897Y01*
X0154Y01397D02*
X01535Y01402D01*
X01525*
X01521Y01397*
Y01377*
X01525Y01373*
X01535*
X0154Y01377*
X0157Y01402D02*
X0155D01*
Y01387*
X0156Y01392*
X01565*
X0157Y01387*
Y01377*
X01565Y01373*
X01555*
X0155Y01377*
X016Y01373D02*
X0158D01*
X016Y01392*
Y01397*
X01595Y01402*
X01585*
X0158Y01397*
X0161Y01368D02*
X0163D01*
X0164Y01392D02*
X0166Y01373D01*
X0165Y01382*
X0166Y01392*
X0164Y01373*
X0167D02*
X0168D01*
X01675*
Y01402*
X0167Y01397*
X03797Y01397D02*
X03792Y01392D01*
Y01382*
X03797Y01377*
X03817*
X03822Y01382*
Y01392*
X03817Y01397*
X03792Y01427D02*
Y01407D01*
X03807*
X03802Y01417*
Y01422*
X03807Y01427*
X03817*
X03822Y01422*
Y01412*
X03817Y01407*
X03822Y01437D02*
Y01447D01*
Y01442*
X03792*
X03797Y01437*
X03827Y01462D02*
Y01482D01*
X03802Y01492D02*
X03822Y01512D01*
X03812Y01502*
X03802Y01512*
X03822Y01492*
Y01522D02*
Y01532D01*
Y01527*
X03792*
X03797Y01522*
X02558Y01682D02*
X02553Y01687D01*
X02543*
X02539Y01682*
Y01662*
X02543Y01658*
X02553*
X02558Y01662*
X02588Y01687D02*
X02568D01*
Y01672*
X02578Y01677*
X02583*
X02588Y01672*
Y01662*
X02583Y01658*
X02573*
X02568Y01662*
X02598Y01682D02*
X02603Y01687D01*
X02613*
X02618Y01682*
Y01662*
X02613Y01658*
X02603*
X02598Y01662*
Y01682*
X02628Y01653D02*
X02648D01*
X02658Y01677D02*
X02678Y01658D01*
X02668Y01667*
X02678Y01677*
X02658Y01658*
X02688D02*
X02698D01*
X02693*
Y01687*
X02688Y01682*
X01967Y01888D02*
X01962Y01883D01*
Y01873*
X01967Y01869*
X01987*
X01992Y01873*
Y01883*
X01987Y01888*
X01992Y01913D02*
X01962D01*
X01977Y01898*
Y01918*
X01987Y01928D02*
X01992Y01933D01*
Y01943*
X01987Y01948*
X01967*
X01962Y01943*
Y01933*
X01967Y01928*
X01972*
X01977Y01933*
Y01948*
X01996Y01958D02*
Y01978D01*
X01972Y01988D02*
X01992Y02008D01*
X01982Y01998*
X01972Y02008*
X01992Y01988*
Y02018D02*
Y02028D01*
Y02023*
X01962*
X01967Y02018*
X01982Y0087D02*
X01977Y00865D01*
Y00855*
X01982Y00851*
X02002*
X02007Y00855*
Y00865*
X02002Y0087*
X02007Y00895D02*
X01977D01*
X01992Y0088*
Y009*
X01982Y0091D02*
X01977Y00915D01*
Y00925*
X01982Y0093*
X01987*
X01992Y00925*
X01997Y0093*
X02002*
X02007Y00925*
Y00915*
X02002Y0091*
X01997*
X01992Y00915*
X01987Y0091*
X01982*
X01992Y00915D02*
Y00925D01*
X02011Y0094D02*
Y0096D01*
X01987Y0097D02*
X02007Y0099D01*
X01997Y0098*
X01987Y0099*
X02007Y0097*
Y01D02*
Y0101D01*
Y01005*
X01977*
X01982Y01*
X0154Y01312D02*
X01535Y01317D01*
X01525*
X01521Y01312*
Y01292*
X01525Y01288*
X01535*
X0154Y01292*
X01565Y01288D02*
Y01317D01*
X0155Y01302*
X0157*
X0158Y01317D02*
X016D01*
Y01312*
X0158Y01292*
Y01288*
X0161Y01283D02*
X0163D01*
X0164Y01307D02*
X0166Y01288D01*
X0165Y01297*
X0166Y01307*
X0164Y01288*
X0167D02*
X0168D01*
X01675*
Y01317*
X0167Y01312*
X0154Y01482D02*
X01535Y01487D01*
X01525*
X01521Y01482*
Y01462*
X01525Y01458*
X01535*
X0154Y01462*
X01565Y01458D02*
Y01487D01*
X0155Y01472*
X0157*
X016Y01487D02*
X0159Y01482D01*
X0158Y01472*
Y01462*
X01585Y01458*
X01595*
X016Y01462*
Y01467*
X01595Y01472*
X0158*
X0161Y01453D02*
X0163D01*
X0164Y01477D02*
X0166Y01458D01*
X0165Y01467*
X0166Y01477*
X0164Y01458*
X0167D02*
X0168D01*
X01675*
Y01487*
X0167Y01482*
X03272Y02972D02*
X03267Y02977D01*
X03257*
X03253Y02972*
Y02952*
X03257Y02948*
X03267*
X03272Y02952*
X03297Y02948D02*
Y02977D01*
X03282Y02962*
X03302*
X03332Y02977D02*
X03312D01*
Y02962*
X03322Y02967*
X03327*
X03332Y02962*
Y02952*
X03327Y02948*
X03317*
X03312Y02952*
X03342Y02943D02*
X03362D01*
X03372Y02967D02*
X03392Y02948D01*
X03382Y02957*
X03392Y02967*
X03372Y02948*
X03402D02*
X03412D01*
X03407*
Y02977*
X03402Y02972*
X02733Y00227D02*
X02728Y00232D01*
X02718*
X02714Y00227*
Y00207*
X02718Y00203*
X02728*
X02733Y00207*
X02758Y00203D02*
Y00232D01*
X02743Y00217*
X02763*
X02788Y00203D02*
Y00232D01*
X02773Y00217*
X02793*
X02803Y00198D02*
X02823D01*
X02833Y00222D02*
X02853Y00203D01*
X02843Y00212*
X02853Y00222*
X02833Y00203*
X02863D02*
X02873D01*
X02868*
Y00232*
X02863Y00227*
X02923Y00377D02*
X02918Y00382D01*
X02908*
X02904Y00377*
Y00357*
X02908Y00353*
X02918*
X02923Y00357*
X02948Y00353D02*
Y00382D01*
X02933Y00367*
X02953*
X02963Y00377D02*
X02968Y00382D01*
X02978*
X02983Y00377*
Y00372*
X02978Y00367*
X02973*
X02978*
X02983Y00362*
Y00357*
X02978Y00353*
X02968*
X02963Y00357*
X02993Y00348D02*
X03013D01*
X03023Y00372D02*
X03043Y00353D01*
X03033Y00362*
X03043Y00372*
X03023Y00353*
X03053D02*
X03063D01*
X03058*
Y00382*
X03053Y00377*
X04008Y00627D02*
X04003Y00632D01*
X03993*
X03989Y00627*
Y00607*
X03993Y00603*
X04003*
X04008Y00607*
X04033Y00603D02*
Y00632D01*
X04018Y00617*
X04038*
X04068Y00603D02*
X04048D01*
X04068Y00622*
Y00627*
X04063Y00632*
X04053*
X04048Y00627*
X04078Y00598D02*
X04098D01*
X04108Y00622D02*
X04128Y00603D01*
X04118Y00612*
X04128Y00622*
X04108Y00603*
X04138D02*
X04148D01*
X04143*
Y00632*
X04138Y00627*
X04008Y00712D02*
X04003Y00717D01*
X03993*
X03989Y00712*
Y00692*
X03993Y00688*
X04003*
X04008Y00692*
X04033Y00688D02*
Y00717D01*
X04018Y00702*
X04038*
X04048Y00688D02*
X04058D01*
X04053*
Y00717*
X04048Y00712*
X04073Y00683D02*
X04093D01*
X04103Y00707D02*
X04123Y00688D01*
X04113Y00697*
X04123Y00707*
X04103Y00688*
X04133D02*
X04143D01*
X04138*
Y00717*
X04133Y00712*
X04008Y00797D02*
X04003Y00802D01*
X03993*
X03989Y00797*
Y00777*
X03993Y00773*
X04003*
X04008Y00777*
X04033Y00773D02*
Y00802D01*
X04018Y00787*
X04038*
X04048Y00797D02*
X04053Y00802D01*
X04063*
X04068Y00797*
Y00777*
X04063Y00773*
X04053*
X04048Y00777*
Y00797*
X04078Y00768D02*
X04098D01*
X04108Y00792D02*
X04128Y00773D01*
X04118Y00782*
X04128Y00792*
X04108Y00773*
X04138D02*
X04148D01*
X04143*
Y00802*
X04138Y00797*
X03272Y02492D02*
X03267Y02497D01*
X03257*
X03253Y02492*
Y02472*
X03257Y02468*
X03267*
X03272Y02472*
X03282Y02492D02*
X03287Y02497D01*
X03297*
X03302Y02492*
Y02487*
X03297Y02482*
X03292*
X03297*
X03302Y02477*
Y02472*
X03297Y02468*
X03287*
X03282Y02472*
X03312D02*
X03317Y02468D01*
X03327*
X03332Y02472*
Y02492*
X03327Y02497*
X03317*
X03312Y02492*
Y02487*
X03317Y02482*
X03332*
X03342Y02463D02*
X03362D01*
X03372Y02487D02*
X03392Y02468D01*
X03382Y02477*
X03392Y02487*
X03372Y02468*
X03402D02*
X03412D01*
X03407*
Y02497*
X03402Y02492*
X03272Y02732D02*
X03267Y02737D01*
X03257*
X03253Y02732*
Y02712*
X03257Y02708*
X03267*
X03272Y02712*
X03282Y02732D02*
X03287Y02737D01*
X03297*
X03302Y02732*
Y02727*
X03297Y02722*
X03292*
X03297*
X03302Y02717*
Y02712*
X03297Y02708*
X03287*
X03282Y02712*
X03312Y02732D02*
X03317Y02737D01*
X03327*
X03332Y02732*
Y02727*
X03327Y02722*
X03332Y02717*
Y02712*
X03327Y02708*
X03317*
X03312Y02712*
Y02717*
X03317Y02722*
X03312Y02727*
Y02732*
X03317Y02722D02*
X03327D01*
X03342Y02703D02*
X03362D01*
X03372Y02727D02*
X03392Y02708D01*
X03382Y02717*
X03392Y02727*
X03372Y02708*
X03402D02*
X03412D01*
X03407*
Y02737*
X03402Y02732*
X03202Y00736D02*
X03197Y00731D01*
Y00721*
X03202Y00717*
X03222*
X03227Y00721*
Y00731*
X03222Y00736*
X03202Y00746D02*
X03197Y00751D01*
Y00761*
X03202Y00766*
X03207*
X03212Y00761*
Y00756*
Y00761*
X03217Y00766*
X03222*
X03227Y00761*
Y00751*
X03222Y00746*
X03197Y00776D02*
Y00796D01*
X03202*
X03222Y00776*
X03227*
X03231Y00806D02*
Y00826D01*
X03207Y00836D02*
X03227Y00856D01*
X03217Y00846*
X03207Y00856*
X03227Y00836*
Y00866D02*
Y00876D01*
Y00871*
X03197*
X03202Y00866*
Y01127D02*
X03197Y01122D01*
Y01112*
X03202Y01108*
X03222*
X03227Y01112*
Y01122*
X03222Y01127*
X03202Y01137D02*
X03197Y01142D01*
Y01152*
X03202Y01157*
X03207*
X03212Y01152*
Y01147*
Y01152*
X03217Y01157*
X03222*
X03227Y01152*
Y01142*
X03222Y01137*
X03197Y01187D02*
X03202Y01177D01*
X03212Y01167*
X03222*
X03227Y01172*
Y01182*
X03222Y01187*
X03217*
X03212Y01182*
Y01167*
X03231Y01197D02*
Y01217D01*
X03207Y01227D02*
X03227Y01247D01*
X03217Y01237*
X03207Y01247*
X03227Y01227*
Y01257D02*
Y01267D01*
Y01262*
X03197*
X03202Y01257*
X03092Y01168D02*
X03087Y01163D01*
Y01153*
X03092Y01149*
X03112*
X03117Y01153*
Y01163*
X03112Y01168*
X03092Y01178D02*
X03087Y01183D01*
Y01193*
X03092Y01198*
X03097*
X03102Y01193*
Y01188*
Y01193*
X03107Y01198*
X03112*
X03117Y01193*
Y01183*
X03112Y01178*
X03087Y01228D02*
Y01208D01*
X03102*
X03097Y01218*
Y01223*
X03102Y01228*
X03112*
X03117Y01223*
Y01213*
X03112Y01208*
X03121Y01238D02*
Y01258D01*
X03097Y01268D02*
X03117Y01288D01*
X03107Y01278*
X03097Y01288*
X03117Y01268*
Y01298D02*
Y01308D01*
Y01303*
X03087*
X03092Y01298*
X02861Y02427D02*
X02856Y02432D01*
X02846*
X02842Y02427*
Y02407*
X02846Y02403*
X02856*
X02861Y02407*
X02871Y02427D02*
X02876Y02432D01*
X02886*
X02891Y02427*
Y02422*
X02886Y02417*
X02881*
X02886*
X02891Y02412*
Y02407*
X02886Y02403*
X02876*
X02871Y02407*
X02916Y02403D02*
Y02432D01*
X02901Y02417*
X02921*
X02931Y02398D02*
X02951D01*
X02961Y02422D02*
X02981Y02403D01*
X02971Y02412*
X02981Y02422*
X02961Y02403*
X02991D02*
X03001D01*
X02996*
Y02432*
X02991Y02427*
X02861Y02512D02*
X02856Y02517D01*
X02846*
X02842Y02512*
Y02492*
X02846Y02488*
X02856*
X02861Y02492*
X02871Y02512D02*
X02876Y02517D01*
X02886*
X02891Y02512*
Y02507*
X02886Y02502*
X02881*
X02886*
X02891Y02497*
Y02492*
X02886Y02488*
X02876*
X02871Y02492*
X02901Y02512D02*
X02906Y02517D01*
X02916*
X02921Y02512*
Y02507*
X02916Y02502*
X02911*
X02916*
X02921Y02497*
Y02492*
X02916Y02488*
X02906*
X02901Y02492*
X02931Y02483D02*
X02951D01*
X02961Y02507D02*
X02981Y02488D01*
X02971Y02497*
X02981Y02507*
X02961Y02488*
X02991D02*
X03001D01*
X02996*
Y02517*
X02991Y02512*
X02861Y02597D02*
X02856Y02602D01*
X02846*
X02842Y02597*
Y02577*
X02846Y02573*
X02856*
X02861Y02577*
X02871Y02597D02*
X02876Y02602D01*
X02886*
X02891Y02597*
Y02592*
X02886Y02587*
X02881*
X02886*
X02891Y02582*
Y02577*
X02886Y02573*
X02876*
X02871Y02577*
X02921Y02573D02*
X02901D01*
X02921Y02592*
Y02597*
X02916Y02602*
X02906*
X02901Y02597*
X02931Y02568D02*
X02951D01*
X02961Y02592D02*
X02981Y02573D01*
X02971Y02582*
X02981Y02592*
X02961Y02573*
X02991D02*
X03001D01*
X02996*
Y02602*
X02991Y02597*
X02141Y01882D02*
X02138Y01878D01*
Y01872*
X02141Y01869*
X02154*
X02158Y01872*
Y01878*
X02154Y01882*
X02141Y01888D02*
X02138Y01892D01*
Y01898*
X02141Y01902*
X02144*
X02148Y01898*
Y01895*
Y01898*
X02151Y01902*
X02154*
X02158Y01898*
Y01892*
X02154Y01888*
X02158Y01908D02*
Y01915D01*
Y01912*
X02138*
X02141Y01908*
X02161Y01925D02*
Y01938D01*
X02144Y01945D02*
X02158Y01958D01*
X02151Y01952*
X02144Y01958*
X02158Y01945*
Y01965D02*
Y01972D01*
Y01968*
X02138*
X02141Y01965*
X0194Y04292D02*
Y04263D01*
X01954*
X01959Y04267*
Y04287*
X01954Y04292*
X0194*
X01969D02*
Y04267D01*
X01974Y04263*
X01984*
X01989Y04267*
Y04292*
X01999D02*
X02019D01*
X02009*
Y04263*
X02029D02*
X02039D01*
X02034*
Y04292*
X02029Y04287*
X02054Y04258D02*
X02074D01*
X02084Y04282D02*
X02104Y04263D01*
X02094Y04272*
X02104Y04282*
X02084Y04263*
X02114Y04287D02*
X02119Y04292D01*
X02129*
X02134Y04287*
Y04267*
X02129Y04263*
X02119*
X02114Y04267*
Y04287*
X02152Y0393D02*
X02147Y03925D01*
Y03915*
X02152Y03911*
X02172*
X02177Y03915*
Y03925*
X02172Y0393*
X02147Y0396D02*
X02152Y0395D01*
X02162Y0394*
X02172*
X02177Y03945*
Y03955*
X02172Y0396*
X02167*
X02162Y03955*
Y0394*
X02177Y0397D02*
Y0398D01*
Y03975*
X02147*
X02152Y0397*
X02181Y03995D02*
Y04015D01*
X02157Y04025D02*
X02177Y04045D01*
X02167Y04035*
X02157Y04045*
X02177Y04025*
X02152Y04055D02*
X02147Y0406D01*
Y0407*
X02152Y04075*
X02172*
X02177Y0407*
Y0406*
X02172Y04055*
X02152*
X00587Y02881D02*
Y02856D01*
X00591Y02852*
X00601*
X00606Y02856*
Y02881*
X00636D02*
X00626Y02876D01*
X00616Y02866*
Y02856*
X00621Y02852*
X00631*
X00636Y02856*
Y02861*
X00631Y02866*
X00616*
X00587Y03296D02*
Y03271D01*
X00591Y03267*
X00601*
X00606Y03271*
Y03296*
X00636D02*
X00616D01*
Y03281*
X00626Y03286*
X00631*
X00636Y03281*
Y03271*
X00631Y03267*
X00621*
X00616Y03271*
X04958Y03182D02*
Y03157D01*
X04962Y03153*
X04972*
X04977Y03157*
Y03182*
X05002Y03153D02*
Y03182D01*
X04987Y03167*
X05007*
X04958Y03597D02*
Y03572D01*
X04962Y03568*
X04972*
X04977Y03572*
Y03597*
X04987Y03592D02*
X04992Y03597D01*
X05002*
X05007Y03592*
Y03587*
X05002Y03582*
X04997*
X05002*
X05007Y03577*
Y03572*
X05002Y03568*
X04992*
X04987Y03572*
X00587Y02461D02*
Y02436D01*
X00591Y02432*
X00601*
X00606Y02436*
Y02461*
X00636Y02432D02*
X00616D01*
X00636Y02451*
Y02456*
X00631Y02461*
X00621*
X00616Y02456*
X04968Y02767D02*
Y02742D01*
X04972Y02738*
X04982*
X04987Y02742*
Y02767*
X04997Y02738D02*
X05007D01*
X05002*
Y02767*
X04997Y02762*
X02451Y04377D02*
Y04407D01*
X02466*
X02471Y04402*
Y04392*
X02466Y04387*
X02451*
X02461D02*
X02471Y04377D01*
X02481D02*
X02491D01*
X02486*
Y04407*
X02481Y04402*
X02506D02*
X02511Y04407D01*
X02521*
X02526Y04402*
Y04397*
X02521Y04392*
X02516*
X02521*
X02526Y04387*
Y04382*
X02521Y04377*
X02511*
X02506Y04382*
X02536Y04372D02*
X02556D01*
X02566Y04397D02*
X02586Y04377D01*
X02576Y04387*
X02586Y04397*
X02566Y04377*
X02596Y04402D02*
X02601Y04407D01*
X02611*
X02616Y04402*
Y04382*
X02611Y04377*
X02601*
X02596Y04382*
Y04402*
X02272Y04837D02*
Y04867D01*
X02287*
X02292Y04862*
Y04852*
X02287Y04847*
X02272*
X02282D02*
X02292Y04837D01*
X02302D02*
X02312D01*
X02307*
Y04867*
X02302Y04862*
X02347Y04837D02*
X02327D01*
X02347Y04857*
Y04862*
X02342Y04867*
X02332*
X02327Y04862*
X02357Y04832D02*
X02377D01*
X02387Y04857D02*
X02407Y04837D01*
X02397Y04847*
X02407Y04857*
X02387Y04837*
X02417Y04862D02*
X02422Y04867D01*
X02432*
X02437Y04862*
Y04842*
X02432Y04837*
X02422*
X02417Y04842*
Y04862*
X02732Y04168D02*
Y04197D01*
X02746*
X02751Y04192*
Y04182*
X02746Y04177*
X02732*
X02741D02*
X02751Y04168D01*
X02761D02*
X02771D01*
X02766*
Y04197*
X02761Y04192*
X02786Y04168D02*
X02796D01*
X02791*
Y04197*
X02786Y04192*
X02811Y04163D02*
X02831D01*
X02841Y04187D02*
X02861Y04168D01*
X02851Y04177*
X02861Y04187*
X02841Y04168*
X02871Y04192D02*
X02876Y04197D01*
X02886*
X02891Y04192*
Y04172*
X02886Y04168*
X02876*
X02871Y04172*
Y04192*
X02836Y04447D02*
Y04476D01*
X0285*
X02855Y04471*
Y04461*
X0285Y04456*
X02836*
X02845D02*
X02855Y04447D01*
X02865D02*
X02875D01*
X0287*
Y04476*
X02865Y04471*
X0289D02*
X02895Y04476D01*
X02905*
X0291Y04471*
Y04451*
X02905Y04447*
X02895*
X0289Y04451*
Y04471*
X0292Y04442D02*
X0294D01*
X0295Y04466D02*
X0297Y04447D01*
X0296Y04456*
X0297Y04466*
X0295Y04447*
X0298Y04471D02*
X02985Y04476D01*
X02995*
X03Y04471*
Y04451*
X02995Y04447*
X02985*
X0298Y04451*
Y04471*
X028Y04067D02*
Y04097D01*
X02815*
X0282Y04092*
Y04082*
X02815Y04077*
X028*
X0281D02*
X0282Y04067D01*
X0283Y04072D02*
X02835Y04067D01*
X02845*
X0285Y04072*
Y04092*
X02845Y04097*
X02835*
X0283Y04092*
Y04087*
X02835Y04082*
X0285*
X0286Y04062D02*
X02879D01*
X02889Y04087D02*
X02909Y04067D01*
X02899Y04077*
X02909Y04087*
X02889Y04067*
X02919Y04092D02*
X02924Y04097D01*
X02934*
X02939Y04092*
Y04072*
X02934Y04067*
X02924*
X02919Y04072*
Y04092*
X02543Y05628D02*
Y05657D01*
X02557*
X02562Y05652*
Y05642*
X02557Y05637*
X02543*
X02552D02*
X02562Y05628D01*
X02572Y05652D02*
X02577Y05657D01*
X02587*
X02592Y05652*
Y05647*
X02587Y05642*
X02592Y05637*
Y05632*
X02587Y05628*
X02577*
X02572Y05632*
Y05637*
X02577Y05642*
X02572Y05647*
Y05652*
X02577Y05642D02*
X02587D01*
X02602Y05623D02*
X02622D01*
X02632Y05647D02*
X02652Y05628D01*
X02642Y05637*
X02652Y05647*
X02632Y05628*
X02662Y05652D02*
X02667Y05657D01*
X02677*
X02682Y05652*
Y05632*
X02677Y05628*
X02667*
X02662Y05632*
Y05652*
X02836Y04552D02*
Y04581D01*
X0285*
X02855Y04576*
Y04566*
X0285Y04561*
X02836*
X02845D02*
X02855Y04552D01*
X02865Y04581D02*
X02885D01*
Y04576*
X02865Y04556*
Y04552*
X02895Y04547D02*
X02915D01*
X02925Y04571D02*
X02945Y04552D01*
X02935Y04561*
X02945Y04571*
X02925Y04552*
X02955Y04576D02*
X0296Y04581D01*
X0297*
X02975Y04576*
Y04556*
X0297Y04552*
X0296*
X02955Y04556*
Y04576*
X02502Y05543D02*
Y05572D01*
X02516*
X02521Y05567*
Y05557*
X02516Y05552*
X02502*
X02511D02*
X02521Y05543D01*
X02551Y05572D02*
X02541Y05567D01*
X02531Y05557*
Y05547*
X02536Y05543*
X02546*
X02551Y05547*
Y05552*
X02546Y05557*
X02531*
X02561Y05538D02*
X02581D01*
X02591Y05562D02*
X02611Y05543D01*
X02601Y05552*
X02611Y05562*
X02591Y05543*
X02621Y05567D02*
X02626Y05572D01*
X02636*
X02641Y05567*
Y05547*
X02636Y05543*
X02626*
X02621Y05547*
Y05567*
X02272Y03934D02*
X02242D01*
Y03948*
X02247Y03953*
X02257*
X02262Y03948*
Y03934*
Y03943D02*
X02272Y03953D01*
X02242Y03983D02*
Y03963D01*
X02257*
X02252Y03973*
Y03978*
X02257Y03983*
X02267*
X02272Y03978*
Y03968*
X02267Y03963*
X02276Y03993D02*
Y04013D01*
X02252Y04023D02*
X02272Y04043D01*
X02262Y04033*
X02252Y04043*
X02272Y04023*
X02247Y04053D02*
X02242Y04058D01*
Y04068*
X02247Y04073*
X02267*
X02272Y04068*
Y04058*
X02267Y04053*
X02247*
X02836Y04657D02*
Y04686D01*
X0285*
X02855Y04681*
Y04671*
X0285Y04666*
X02836*
X02845D02*
X02855Y04657D01*
X0288D02*
Y04686D01*
X02865Y04671*
X02885*
X02895Y04652D02*
X02915D01*
X02925Y04676D02*
X02945Y04657D01*
X02935Y04666*
X02945Y04676*
X02925Y04657*
X02955Y04681D02*
X0296Y04686D01*
X0297*
X02975Y04681*
Y04661*
X0297Y04657*
X0296*
X02955Y04661*
Y04681*
X02377Y03934D02*
X02347D01*
Y03948*
X02352Y03953*
X02362*
X02367Y03948*
Y03934*
Y03943D02*
X02377Y03953D01*
X02352Y03963D02*
X02347Y03968D01*
Y03978*
X02352Y03983*
X02357*
X02362Y03978*
Y03973*
Y03978*
X02367Y03983*
X02372*
X02377Y03978*
Y03968*
X02372Y03963*
X02381Y03993D02*
Y04013D01*
X02357Y04023D02*
X02377Y04043D01*
X02367Y04033*
X02357Y04043*
X02377Y04023*
X02352Y04053D02*
X02347Y04058D01*
Y04068*
X02352Y04073*
X02372*
X02377Y04068*
Y04058*
X02372Y04053*
X02352*
X02198Y05053D02*
Y05082D01*
X02212*
X02217Y05077*
Y05067*
X02212Y05062*
X02198*
X02207D02*
X02217Y05053D01*
X02247D02*
X02227D01*
X02247Y05072*
Y05077*
X02242Y05082*
X02232*
X02227Y05077*
X02257Y05048D02*
X02277D01*
X02287Y05072D02*
X02307Y05053D01*
X02297Y05062*
X02307Y05072*
X02287Y05053*
X02317Y05077D02*
X02322Y05082D01*
X02332*
X02337Y05077*
Y05057*
X02332Y05053*
X02322*
X02317Y05057*
Y05077*
X04296Y06857D02*
Y06886D01*
X0431*
X04315Y06881*
Y06871*
X0431Y06866*
X04296*
X04305D02*
X04315Y06857D01*
X04325D02*
X04335D01*
X0433*
Y06886*
X04325Y06881*
X03795Y04291D02*
X03804D01*
X03799*
Y04262*
X03795*
X03804*
X03839Y04286D02*
X03834Y04291D01*
X03824*
X03819Y04286*
Y04266*
X03824Y04262*
X03834*
X03839Y04266*
X03849Y04262D02*
X03859D01*
X03854*
Y04291*
X03849Y04286*
X03874D02*
X03879Y04291D01*
X03889*
X03894Y04286*
Y04281*
X03889Y04276*
X03884*
X03889*
X03894Y04271*
Y04266*
X03889Y04262*
X03879*
X03874Y04266*
X03904Y04257D02*
X03924D01*
X03934Y04281D02*
X03954Y04262D01*
X03944Y04271*
X03954Y04281*
X03934Y04262*
X03964Y04286D02*
X03969Y04291D01*
X03979*
X03984Y04286*
Y04266*
X03979Y04262*
X03969*
X03964Y04266*
Y04286*
X03034Y05849D02*
Y05858D01*
Y05853*
X03064*
Y05849*
Y05858*
X03039Y05893D02*
X03034Y05888D01*
Y05878*
X03039Y05873*
X03059*
X03064Y05878*
Y05888*
X03059Y05893*
X03064Y05903D02*
Y05913D01*
Y05908*
X03034*
X03039Y05903*
X03064Y05948D02*
Y05928D01*
X03044Y05948*
X03039*
X03034Y05943*
Y05933*
X03039Y05928*
X03068Y05958D02*
Y05978D01*
X03044Y05988D02*
X03064Y06008D01*
X03054Y05998*
X03044Y06008*
X03064Y05988*
X03039Y06018D02*
X03034Y06023D01*
Y06033*
X03039Y06038*
X03059*
X03064Y06033*
Y06023*
X03059Y06018*
X03039*
X02362Y0342D02*
X02371D01*
X02366*
Y03391*
X02362*
X02371*
X02406Y03415D02*
X02401Y0342D01*
X02391*
X02386Y03415*
Y03395*
X02391Y03391*
X02401*
X02406Y03395*
X02416Y03391D02*
X02426D01*
X02421*
Y0342*
X02416Y03415*
X02441Y03391D02*
X02451D01*
X02446*
Y0342*
X02441Y03415*
X02466Y03386D02*
X02486D01*
X02496Y0341D02*
X02516Y03391D01*
X02506Y034*
X02516Y0341*
X02496Y03391*
X02526Y03415D02*
X02531Y0342D01*
X02541*
X02546Y03415*
Y03395*
X02541Y03391*
X02531*
X02526Y03395*
Y03415*
X02547Y0357D02*
X02556D01*
X02551*
Y03541*
X02547*
X02556*
X02591Y03565D02*
X02586Y0357D01*
X02576*
X02571Y03565*
Y03545*
X02576Y03541*
X02586*
X02591Y03545*
X02601Y03541D02*
X02611D01*
X02606*
Y0357*
X02601Y03565*
X02626D02*
X02631Y0357D01*
X02641*
X02646Y03565*
Y03545*
X02641Y03541*
X02631*
X02626Y03545*
Y03565*
X02656Y03536D02*
X02676D01*
X02686Y0356D02*
X02706Y03541D01*
X02696Y0355*
X02706Y0356*
X02686Y03541*
X02716Y03565D02*
X02721Y0357D01*
X02731*
X02736Y03565*
Y03545*
X02731Y03541*
X02721*
X02716Y03545*
Y03565*
X03034Y05369D02*
Y05378D01*
Y05373*
X03064*
Y05369*
Y05378*
X03039Y05413D02*
X03034Y05408D01*
Y05398*
X03039Y05393*
X03059*
X03064Y05398*
Y05408*
X03059Y05413*
Y05423D02*
X03064Y05428D01*
Y05438*
X03059Y05443*
X03039*
X03034Y05438*
Y05428*
X03039Y05423*
X03044*
X03049Y05428*
Y05443*
X03068Y05453D02*
Y05473D01*
X03044Y05483D02*
X03064Y05503D01*
X03054Y05493*
X03044Y05503*
X03064Y05483*
X03039Y05513D02*
X03034Y05518D01*
Y05528*
X03039Y05533*
X03059*
X03064Y05528*
Y05518*
X03059Y05513*
X03039*
X0361Y03971D02*
X03619D01*
X03614*
Y03942*
X0361*
X03619*
X03654Y03966D02*
X03649Y03971D01*
X03639*
X03634Y03966*
Y03946*
X03639Y03942*
X03649*
X03654Y03946*
X03664Y03966D02*
X03669Y03971D01*
X03679*
X03684Y03966*
Y03961*
X03679Y03956*
X03684Y03951*
Y03946*
X03679Y03942*
X03669*
X03664Y03946*
Y03951*
X03669Y03956*
X03664Y03961*
Y03966*
X03669Y03956D02*
X03679D01*
X03694Y03937D02*
X03714D01*
X03724Y03961D02*
X03744Y03942D01*
X03734Y03951*
X03744Y03961*
X03724Y03942*
X03754Y03966D02*
X03759Y03971D01*
X03769*
X03774Y03966*
Y03946*
X03769Y03942*
X03759*
X03754Y03946*
Y03966*
X03034Y05609D02*
Y05618D01*
Y05613*
X03064*
Y05609*
Y05618*
X03039Y05653D02*
X03034Y05648D01*
Y05638*
X03039Y05633*
X03059*
X03064Y05638*
Y05648*
X03059Y05653*
X03034Y05663D02*
Y05683D01*
X03039*
X03059Y05663*
X03064*
X03068Y05693D02*
Y05713D01*
X03044Y05723D02*
X03064Y05743D01*
X03054Y05733*
X03044Y05743*
X03064Y05723*
X03039Y05753D02*
X03034Y05758D01*
Y05768*
X03039Y05773*
X03059*
X03064Y05768*
Y05758*
X03059Y05753*
X03039*
X02773Y03825D02*
Y03834D01*
Y03829*
X02803*
Y03825*
Y03834*
X02778Y03869D02*
X02773Y03864D01*
Y03854*
X02778Y03849*
X02798*
X02803Y03854*
Y03864*
X02798Y03869*
X02773Y03899D02*
X02778Y03889D01*
X02788Y03879*
X02798*
X02803Y03884*
Y03894*
X02798Y03899*
X02793*
X02788Y03894*
Y03879*
X02807Y03909D02*
Y03929D01*
X02783Y03939D02*
X02803Y03959D01*
X02793Y03949*
X02783Y03959*
X02803Y03939*
X02778Y03969D02*
X02773Y03974D01*
Y03984*
X02778Y03989*
X02798*
X02803Y03984*
Y03974*
X02798Y03969*
X02778*
X02308Y05285D02*
Y05294D01*
Y05289*
X02338*
Y05285*
Y05294*
X02313Y05329D02*
X02308Y05324D01*
Y05314*
X02313Y05309*
X02333*
X02338Y05314*
Y05324*
X02333Y05329*
X02308Y05359D02*
Y05339D01*
X02323*
X02318Y05349*
Y05354*
X02323Y05359*
X02333*
X02338Y05354*
Y05344*
X02333Y05339*
X02342Y05369D02*
Y05389D01*
X02318Y05399D02*
X02338Y05419D01*
X02328Y05409*
X02318Y05419*
X02338Y05399*
X02313Y05429D02*
X02308Y05434D01*
Y05444*
X02313Y05449*
X02333*
X02338Y05444*
Y05434*
X02333Y05429*
X02313*
X00675Y01741D02*
X00684D01*
X00679*
Y01712*
X00675*
X00684*
X00719Y01736D02*
X00714Y01741D01*
X00704*
X00699Y01736*
Y01716*
X00704Y01712*
X00714*
X00719Y01716*
X00744Y01712D02*
Y01741D01*
X00729Y01726*
X00749*
X00675Y04796D02*
X00684D01*
X00679*
Y04767*
X00675*
X00684*
X00719Y04791D02*
X00714Y04796D01*
X00704*
X00699Y04791*
Y04771*
X00704Y04767*
X00714*
X00719Y04771*
X00729Y04791D02*
X00734Y04796D01*
X00744*
X00749Y04791*
Y04786*
X00744Y04781*
X00739*
X00744*
X00749Y04776*
Y04771*
X00744Y04767*
X00734*
X00729Y04771*
X0462Y02021D02*
X04629D01*
X04624*
Y01992*
X0462*
X04629*
X04664Y02016D02*
X04659Y02021D01*
X04649*
X04644Y02016*
Y01996*
X04649Y01992*
X04659*
X04664Y01996*
X04694Y01992D02*
X04674D01*
X04694Y02011*
Y02016*
X04689Y02021*
X04679*
X04674Y02016*
X0462Y04996D02*
X04629D01*
X04624*
Y04967*
X0462*
X04629*
X04664Y04991D02*
X04659Y04996D01*
X04649*
X04644Y04991*
Y04971*
X04649Y04967*
X04659*
X04664Y04971*
X04674Y04967D02*
X04684D01*
X04679*
Y04996*
X04674Y04991*
X02056Y04937D02*
X02053Y04933D01*
Y04927*
X02056Y04924*
X02069*
X02073Y04927*
Y04933*
X02069Y04937*
X02053Y04957D02*
Y04943D01*
X02063*
X02059Y0495*
Y04953*
X02063Y04957*
X02069*
X02073Y04953*
Y04947*
X02069Y04943*
Y04963D02*
X02073Y04967D01*
Y04973*
X02069Y04977*
X02056*
X02053Y04973*
Y04967*
X02056Y04963*
X02059*
X02063Y04967*
Y04977*
X02076Y04983D02*
Y04997D01*
X02059Y05003D02*
X02073Y05017D01*
X02066Y0501*
X02059Y05017*
X02073Y05003*
X02056Y05023D02*
X02053Y05027D01*
Y05033*
X02056Y05037*
X02069*
X02073Y05033*
Y05027*
X02069Y05023*
X02056*
X0154Y04792D02*
X01535Y04797D01*
X01525*
X01521Y04792*
Y04772*
X01525Y04768*
X01535*
X0154Y04772*
X0157Y04797D02*
X0155D01*
Y04782*
X0156Y04787*
X01565*
X0157Y04782*
Y04772*
X01565Y04768*
X01555*
X0155Y04772*
X0158Y04792D02*
X01585Y04797D01*
X01595*
X016Y04792*
Y04787*
X01595Y04782*
X016Y04777*
Y04772*
X01595Y04768*
X01585*
X0158Y04772*
Y04777*
X01585Y04782*
X0158Y04787*
Y04792*
X01585Y04782D02*
X01595D01*
X0161Y04763D02*
X0163D01*
X0164Y04787D02*
X0166Y04768D01*
X0165Y04777*
X0166Y04787*
X0164Y04768*
X0167Y04792D02*
X01675Y04797D01*
X01685*
X0169Y04792*
Y04772*
X01685Y04768*
X01675*
X0167Y04772*
Y04792*
X0154Y04707D02*
X01535Y04712D01*
X01525*
X01521Y04707*
Y04687*
X01525Y04683*
X01535*
X0154Y04687*
X0157Y04712D02*
X0155D01*
Y04697*
X0156Y04702*
X01565*
X0157Y04697*
Y04687*
X01565Y04683*
X01555*
X0155Y04687*
X0158Y04712D02*
X016D01*
Y04707*
X0158Y04687*
Y04683*
X0161Y04678D02*
X0163D01*
X0164Y04702D02*
X0166Y04683D01*
X0165Y04692*
X0166Y04702*
X0164Y04683*
X0167Y04707D02*
X01675Y04712D01*
X01685*
X0169Y04707*
Y04687*
X01685Y04683*
X01675*
X0167Y04687*
Y04707*
X0154Y04622D02*
X01535Y04627D01*
X01525*
X01521Y04622*
Y04602*
X01525Y04598*
X01535*
X0154Y04602*
X0157Y04627D02*
X0155D01*
Y04612*
X0156Y04617*
X01565*
X0157Y04612*
Y04602*
X01565Y04598*
X01555*
X0155Y04602*
X016Y04627D02*
X0159Y04622D01*
X0158Y04612*
Y04602*
X01585Y04598*
X01595*
X016Y04602*
Y04607*
X01595Y04612*
X0158*
X0161Y04593D02*
X0163D01*
X0164Y04617D02*
X0166Y04598D01*
X0165Y04607*
X0166Y04617*
X0164Y04598*
X0167Y04622D02*
X01675Y04627D01*
X01685*
X0169Y04622*
Y04602*
X01685Y04598*
X01675*
X0167Y04602*
Y04622*
X02067Y03925D02*
X02062Y0392D01*
Y0391*
X02067Y03906*
X02087*
X02092Y0391*
Y0392*
X02087Y03925*
X02062Y03955D02*
Y03935D01*
X02077*
X02072Y03945*
Y0395*
X02077Y03955*
X02087*
X02092Y0395*
Y0394*
X02087Y03935*
X02062Y03985D02*
Y03965D01*
X02077*
X02072Y03975*
Y0398*
X02077Y03985*
X02087*
X02092Y0398*
Y0397*
X02087Y03965*
X02096Y03995D02*
Y04015D01*
X02072Y04025D02*
X02092Y04045D01*
X02082Y04035*
X02072Y04045*
X02092Y04025*
X02067Y04055D02*
X02062Y0406D01*
Y0407*
X02067Y04075*
X02087*
X02092Y0407*
Y0406*
X02087Y04055*
X02067*
X02558Y04602D02*
X02553Y04607D01*
X02543*
X02539Y04602*
Y04582*
X02543Y04578*
X02553*
X02558Y04582*
X02588Y04607D02*
X02578Y04602D01*
X02568Y04592*
Y04582*
X02573Y04578*
X02583*
X02588Y04582*
Y04587*
X02583Y04592*
X02568*
X02598Y04602D02*
X02603Y04607D01*
X02613*
X02618Y04602*
Y04582*
X02613Y04578*
X02603*
X02598Y04582*
Y04602*
X02628Y04573D02*
X02648D01*
X02658Y04597D02*
X02678Y04578D01*
X02668Y04587*
X02678Y04597*
X02658Y04578*
X02688Y04602D02*
X02693Y04607D01*
X02703*
X02708Y04602*
Y04582*
X02703Y04578*
X02693*
X02688Y04582*
Y04602*
X01882Y04943D02*
X01877Y04938D01*
Y04928*
X01882Y04924*
X01902*
X01907Y04928*
Y04938*
X01902Y04943*
X01877Y04973D02*
Y04953D01*
X01892*
X01887Y04963*
Y04968*
X01892Y04973*
X01902*
X01907Y04968*
Y04958*
X01902Y04953*
X01907Y04998D02*
X01877D01*
X01892Y04983*
Y05003*
X01911Y05013D02*
Y05033D01*
X01887Y05043D02*
X01907Y05063D01*
X01897Y05053*
X01887Y05063*
X01907Y05043*
X01882Y05073D02*
X01877Y05078D01*
Y05088*
X01882Y05093*
X01902*
X01907Y05088*
Y05078*
X01902Y05073*
X01882*
X01897Y03925D02*
X01892Y0392D01*
Y0391*
X01897Y03906*
X01917*
X01922Y0391*
Y0392*
X01917Y03925*
X01892Y03955D02*
Y03935D01*
X01907*
X01902Y03945*
Y0395*
X01907Y03955*
X01917*
X01922Y0395*
Y0394*
X01917Y03935*
X01897Y03965D02*
X01892Y0397D01*
Y0398*
X01897Y03985*
X01902*
X01907Y0398*
Y03975*
Y0398*
X01912Y03985*
X01917*
X01922Y0398*
Y0397*
X01917Y03965*
X01926Y03995D02*
Y04015D01*
X01902Y04025D02*
X01922Y04045D01*
X01912Y04035*
X01902Y04045*
X01922Y04025*
X01897Y04055D02*
X01892Y0406D01*
Y0407*
X01897Y04075*
X01917*
X01922Y0407*
Y0406*
X01917Y04055*
X01897*
X0154Y04452D02*
X01535Y04457D01*
X01525*
X01521Y04452*
Y04432*
X01525Y04428*
X01535*
X0154Y04432*
X0157Y04457D02*
X0155D01*
Y04442*
X0156Y04447*
X01565*
X0157Y04442*
Y04432*
X01565Y04428*
X01555*
X0155Y04432*
X016Y04428D02*
X0158D01*
X016Y04447*
Y04452*
X01595Y04457*
X01585*
X0158Y04452*
X0161Y04423D02*
X0163D01*
X0164Y04447D02*
X0166Y04428D01*
X0165Y04437*
X0166Y04447*
X0164Y04428*
X0167Y04452D02*
X01675Y04457D01*
X01685*
X0169Y04452*
Y04432*
X01685Y04428*
X01675*
X0167Y04432*
Y04452*
X03797Y04452D02*
X03792Y04447D01*
Y04437*
X03797Y04432*
X03817*
X03822Y04437*
Y04447*
X03817Y04452*
X03792Y04482D02*
Y04462D01*
X03807*
X03802Y04472*
Y04477*
X03807Y04482*
X03817*
X03822Y04477*
Y04467*
X03817Y04462*
X03822Y04492D02*
Y04502D01*
Y04497*
X03792*
X03797Y04492*
X03827Y04517D02*
Y04537D01*
X03802Y04547D02*
X03822Y04567D01*
X03812Y04557*
X03802Y04567*
X03822Y04547*
X03797Y04577D02*
X03792Y04582D01*
Y04592*
X03797Y04597*
X03817*
X03822Y04592*
Y04582*
X03817Y04577*
X03797*
X02558Y04737D02*
X02553Y04742D01*
X02543*
X02539Y04737*
Y04717*
X02543Y04713*
X02553*
X02558Y04717*
X02588Y04742D02*
X02568D01*
Y04727*
X02578Y04732*
X02583*
X02588Y04727*
Y04717*
X02583Y04713*
X02573*
X02568Y04717*
X02598Y04737D02*
X02603Y04742D01*
X02613*
X02618Y04737*
Y04717*
X02613Y04713*
X02603*
X02598Y04717*
Y04737*
X02628Y04708D02*
X02648D01*
X02658Y04732D02*
X02678Y04713D01*
X02668Y04722*
X02678Y04732*
X02658Y04713*
X02688Y04737D02*
X02693Y04742D01*
X02703*
X02708Y04737*
Y04717*
X02703Y04713*
X02693*
X02688Y04717*
Y04737*
X01967Y04943D02*
X01962Y04938D01*
Y04928*
X01967Y04924*
X01987*
X01992Y04928*
Y04938*
X01987Y04943*
X01992Y04968D02*
X01962D01*
X01977Y04953*
Y04973*
X01987Y04983D02*
X01992Y04988D01*
Y04998*
X01987Y05003*
X01967*
X01962Y04998*
Y04988*
X01967Y04983*
X01972*
X01977Y04988*
Y05003*
X01996Y05013D02*
Y05033D01*
X01972Y05043D02*
X01992Y05063D01*
X01982Y05053*
X01972Y05063*
X01992Y05043*
X01967Y05073D02*
X01962Y05078D01*
Y05088*
X01967Y05093*
X01987*
X01992Y05088*
Y05078*
X01987Y05073*
X01967*
X01982Y03925D02*
X01977Y0392D01*
Y0391*
X01982Y03906*
X02002*
X02007Y0391*
Y0392*
X02002Y03925*
X02007Y0395D02*
X01977D01*
X01992Y03935*
Y03955*
X01982Y03965D02*
X01977Y0397D01*
Y0398*
X01982Y03985*
X01987*
X01992Y0398*
X01997Y03985*
X02002*
X02007Y0398*
Y0397*
X02002Y03965*
X01997*
X01992Y0397*
X01987Y03965*
X01982*
X01992Y0397D02*
Y0398D01*
X02011Y03995D02*
Y04015D01*
X01987Y04025D02*
X02007Y04045D01*
X01997Y04035*
X01987Y04045*
X02007Y04025*
X01982Y04055D02*
X01977Y0406D01*
Y0407*
X01982Y04075*
X02002*
X02007Y0407*
Y0406*
X02002Y04055*
X01982*
X0154Y04367D02*
X01535Y04372D01*
X01525*
X01521Y04367*
Y04347*
X01525Y04343*
X01535*
X0154Y04347*
X01565Y04343D02*
Y04372D01*
X0155Y04357*
X0157*
X0158Y04372D02*
X016D01*
Y04367*
X0158Y04347*
Y04343*
X0161Y04338D02*
X0163D01*
X0164Y04362D02*
X0166Y04343D01*
X0165Y04352*
X0166Y04362*
X0164Y04343*
X0167Y04367D02*
X01675Y04372D01*
X01685*
X0169Y04367*
Y04347*
X01685Y04343*
X01675*
X0167Y04347*
Y04367*
X0154Y04537D02*
X01535Y04542D01*
X01525*
X01521Y04537*
Y04517*
X01525Y04513*
X01535*
X0154Y04517*
X01565Y04513D02*
Y04542D01*
X0155Y04527*
X0157*
X016Y04542D02*
X0159Y04537D01*
X0158Y04527*
Y04517*
X01585Y04513*
X01595*
X016Y04517*
Y04522*
X01595Y04527*
X0158*
X0161Y04508D02*
X0163D01*
X0164Y04532D02*
X0166Y04513D01*
X0165Y04522*
X0166Y04532*
X0164Y04513*
X0167Y04537D02*
X01675Y04542D01*
X01685*
X0169Y04537*
Y04517*
X01685Y04513*
X01675*
X0167Y04517*
Y04537*
X03272Y06027D02*
X03267Y06032D01*
X03257*
X03253Y06027*
Y06007*
X03257Y06003*
X03267*
X03272Y06007*
X03297Y06003D02*
Y06032D01*
X03282Y06017*
X03302*
X03332Y06032D02*
X03312D01*
Y06017*
X03322Y06022*
X03327*
X03332Y06017*
Y06007*
X03327Y06003*
X03317*
X03312Y06007*
X03342Y05998D02*
X03362D01*
X03372Y06022D02*
X03392Y06003D01*
X03382Y06012*
X03392Y06022*
X03372Y06003*
X03402Y06027D02*
X03407Y06032D01*
X03417*
X03422Y06027*
Y06007*
X03417Y06003*
X03407*
X03402Y06007*
Y06027*
X02733Y03282D02*
X02728Y03287D01*
X02718*
X02714Y03282*
Y03262*
X02718Y03258*
X02728*
X02733Y03262*
X02758Y03258D02*
Y03287D01*
X02743Y03272*
X02763*
X02788Y03258D02*
Y03287D01*
X02773Y03272*
X02793*
X02803Y03253D02*
X02823D01*
X02833Y03277D02*
X02853Y03258D01*
X02843Y03267*
X02853Y03277*
X02833Y03258*
X02863Y03282D02*
X02868Y03287D01*
X02878*
X02883Y03282*
Y03262*
X02878Y03258*
X02868*
X02863Y03262*
Y03282*
X02923Y03432D02*
X02918Y03437D01*
X02908*
X02904Y03432*
Y03412*
X02908Y03408*
X02918*
X02923Y03412*
X02948Y03408D02*
Y03437D01*
X02933Y03422*
X02953*
X02963Y03432D02*
X02968Y03437D01*
X02978*
X02983Y03432*
Y03427*
X02978Y03422*
X02973*
X02978*
X02983Y03417*
Y03412*
X02978Y03408*
X02968*
X02963Y03412*
X02993Y03403D02*
X03013D01*
X03023Y03427D02*
X03043Y03408D01*
X03033Y03417*
X03043Y03427*
X03023Y03408*
X03053Y03432D02*
X03058Y03437D01*
X03068*
X03073Y03432*
Y03412*
X03068Y03408*
X03058*
X03053Y03412*
Y03432*
X04008Y03682D02*
X04003Y03687D01*
X03993*
X03989Y03682*
Y03662*
X03993Y03658*
X04003*
X04008Y03662*
X04033Y03658D02*
Y03687D01*
X04018Y03672*
X04038*
X04068Y03658D02*
X04048D01*
X04068Y03677*
Y03682*
X04063Y03687*
X04053*
X04048Y03682*
X04078Y03653D02*
X04098D01*
X04108Y03677D02*
X04128Y03658D01*
X04118Y03667*
X04128Y03677*
X04108Y03658*
X04138Y03682D02*
X04143Y03687D01*
X04153*
X04158Y03682*
Y03662*
X04153Y03658*
X04143*
X04138Y03662*
Y03682*
X04008Y03767D02*
X04003Y03772D01*
X03993*
X03989Y03767*
Y03747*
X03993Y03743*
X04003*
X04008Y03747*
X04033Y03743D02*
Y03772D01*
X04018Y03757*
X04038*
X04048Y03743D02*
X04058D01*
X04053*
Y03772*
X04048Y03767*
X04073Y03738D02*
X04093D01*
X04103Y03762D02*
X04123Y03743D01*
X04113Y03752*
X04123Y03762*
X04103Y03743*
X04133Y03767D02*
X04138Y03772D01*
X04148*
X04153Y03767*
Y03747*
X04148Y03743*
X04138*
X04133Y03747*
Y03767*
X04008Y03852D02*
X04003Y03857D01*
X03993*
X03989Y03852*
Y03832*
X03993Y03828*
X04003*
X04008Y03832*
X04033Y03828D02*
Y03857D01*
X04018Y03842*
X04038*
X04048Y03852D02*
X04053Y03857D01*
X04063*
X04068Y03852*
Y03832*
X04063Y03828*
X04053*
X04048Y03832*
Y03852*
X04078Y03823D02*
X04098D01*
X04108Y03847D02*
X04128Y03828D01*
X04118Y03837*
X04128Y03847*
X04108Y03828*
X04138Y03852D02*
X04143Y03857D01*
X04153*
X04158Y03852*
Y03832*
X04153Y03828*
X04143*
X04138Y03832*
Y03852*
X03272Y05547D02*
X03267Y05552D01*
X03257*
X03253Y05547*
Y05527*
X03257Y05522*
X03267*
X03272Y05527*
X03282Y05547D02*
X03287Y05552D01*
X03297*
X03302Y05547*
Y05542*
X03297Y05537*
X03292*
X03297*
X03302Y05532*
Y05527*
X03297Y05522*
X03287*
X03282Y05527*
X03312D02*
X03317Y05522D01*
X03327*
X03332Y05527*
Y05547*
X03327Y05552*
X03317*
X03312Y05547*
Y05542*
X03317Y05537*
X03332*
X03342Y05518D02*
X03362D01*
X03372Y05542D02*
X03392Y05522D01*
X03382Y05532*
X03392Y05542*
X03372Y05522*
X03402Y05547D02*
X03407Y05552D01*
X03417*
X03422Y05547*
Y05527*
X03417Y05522*
X03407*
X03402Y05527*
Y05547*
X03272Y05787D02*
X03267Y05792D01*
X03257*
X03253Y05787*
Y05767*
X03257Y05763*
X03267*
X03272Y05767*
X03282Y05787D02*
X03287Y05792D01*
X03297*
X03302Y05787*
Y05782*
X03297Y05777*
X03292*
X03297*
X03302Y05772*
Y05767*
X03297Y05763*
X03287*
X03282Y05767*
X03312Y05787D02*
X03317Y05792D01*
X03327*
X03332Y05787*
Y05782*
X03327Y05777*
X03332Y05772*
Y05767*
X03327Y05763*
X03317*
X03312Y05767*
Y05772*
X03317Y05777*
X03312Y05782*
Y05787*
X03317Y05777D02*
X03327D01*
X03342Y05758D02*
X03362D01*
X03372Y05782D02*
X03392Y05763D01*
X03382Y05772*
X03392Y05782*
X03372Y05763*
X03402Y05787D02*
X03407Y05792D01*
X03417*
X03422Y05787*
Y05767*
X03417Y05763*
X03407*
X03402Y05767*
Y05787*
X03202Y03791D02*
X03197Y03786D01*
Y03776*
X03202Y03772*
X03222*
X03227Y03776*
Y03786*
X03222Y03791*
X03202Y03801D02*
X03197Y03806D01*
Y03816*
X03202Y03821*
X03207*
X03212Y03816*
Y03811*
Y03816*
X03217Y03821*
X03222*
X03227Y03816*
Y03806*
X03222Y03801*
X03197Y03831D02*
Y03851D01*
X03202*
X03222Y03831*
X03227*
X03231Y03861D02*
Y03881D01*
X03207Y03891D02*
X03227Y03911D01*
X03217Y03901*
X03207Y03911*
X03227Y03891*
X03202Y03921D02*
X03197Y03926D01*
Y03936*
X03202Y03941*
X03222*
X03227Y03936*
Y03926*
X03222Y03921*
X03202*
Y04182D02*
X03197Y04177D01*
Y04167*
X03202Y04163*
X03222*
X03227Y04167*
Y04177*
X03222Y04182*
X03202Y04192D02*
X03197Y04197D01*
Y04207*
X03202Y04212*
X03207*
X03212Y04207*
Y04202*
Y04207*
X03217Y04212*
X03222*
X03227Y04207*
Y04197*
X03222Y04192*
X03197Y04242D02*
X03202Y04232D01*
X03212Y04222*
X03222*
X03227Y04227*
Y04237*
X03222Y04242*
X03217*
X03212Y04237*
Y04222*
X03231Y04252D02*
Y04272D01*
X03207Y04282D02*
X03227Y04302D01*
X03217Y04292*
X03207Y04302*
X03227Y04282*
X03202Y04312D02*
X03197Y04317D01*
Y04327*
X03202Y04332*
X03222*
X03227Y04327*
Y04317*
X03222Y04312*
X03202*
X03092Y04223D02*
X03087Y04218D01*
Y04208*
X03092Y04204*
X03112*
X03117Y04208*
Y04218*
X03112Y04223*
X03092Y04233D02*
X03087Y04238D01*
Y04248*
X03092Y04253*
X03097*
X03102Y04248*
Y04243*
Y04248*
X03107Y04253*
X03112*
X03117Y04248*
Y04238*
X03112Y04233*
X03087Y04283D02*
Y04263D01*
X03102*
X03097Y04273*
Y04278*
X03102Y04283*
X03112*
X03117Y04278*
Y04268*
X03112Y04263*
X03121Y04293D02*
Y04313D01*
X03097Y04323D02*
X03117Y04343D01*
X03107Y04333*
X03097Y04343*
X03117Y04323*
X03092Y04353D02*
X03087Y04358D01*
Y04368*
X03092Y04373*
X03112*
X03117Y04368*
Y04358*
X03112Y04353*
X03092*
X02861Y05482D02*
X02856Y05487D01*
X02846*
X02842Y05482*
Y05462*
X02846Y05457*
X02856*
X02861Y05462*
X02871Y05482D02*
X02876Y05487D01*
X02886*
X02891Y05482*
Y05477*
X02886Y05472*
X02881*
X02886*
X02891Y05467*
Y05462*
X02886Y05457*
X02876*
X02871Y05462*
X02916Y05457D02*
Y05487D01*
X02901Y05472*
X02921*
X02931Y05453D02*
X02951D01*
X02961Y05477D02*
X02981Y05457D01*
X02971Y05467*
X02981Y05477*
X02961Y05457*
X02991Y05482D02*
X02996Y05487D01*
X03006*
X03011Y05482*
Y05462*
X03006Y05457*
X02996*
X02991Y05462*
Y05482*
X02861Y05567D02*
X02856Y05572D01*
X02846*
X02842Y05567*
Y05547*
X02846Y05543*
X02856*
X02861Y05547*
X02871Y05567D02*
X02876Y05572D01*
X02886*
X02891Y05567*
Y05562*
X02886Y05557*
X02881*
X02886*
X02891Y05552*
Y05547*
X02886Y05543*
X02876*
X02871Y05547*
X02901Y05567D02*
X02906Y05572D01*
X02916*
X02921Y05567*
Y05562*
X02916Y05557*
X02911*
X02916*
X02921Y05552*
Y05547*
X02916Y05543*
X02906*
X02901Y05547*
X02931Y05538D02*
X02951D01*
X02961Y05562D02*
X02981Y05543D01*
X02971Y05552*
X02981Y05562*
X02961Y05543*
X02991Y05567D02*
X02996Y05572D01*
X03006*
X03011Y05567*
Y05547*
X03006Y05543*
X02996*
X02991Y05547*
Y05567*
X02861Y05652D02*
X02856Y05657D01*
X02846*
X02842Y05652*
Y05632*
X02846Y05628*
X02856*
X02861Y05632*
X02871Y05652D02*
X02876Y05657D01*
X02886*
X02891Y05652*
Y05647*
X02886Y05642*
X02881*
X02886*
X02891Y05637*
Y05632*
X02886Y05628*
X02876*
X02871Y05632*
X02921Y05628D02*
X02901D01*
X02921Y05647*
Y05652*
X02916Y05657*
X02906*
X02901Y05652*
X02931Y05623D02*
X02951D01*
X02961Y05647D02*
X02981Y05628D01*
X02971Y05637*
X02981Y05647*
X02961Y05628*
X02991Y05652D02*
X02996Y05657D01*
X03006*
X03011Y05652*
Y05632*
X03006Y05628*
X02996*
X02991Y05632*
Y05652*
X02141Y04937D02*
X02138Y04933D01*
Y04927*
X02141Y04924*
X02154*
X02158Y04927*
Y04933*
X02154Y04937*
X02141Y04943D02*
X02138Y04947D01*
Y04953*
X02141Y04957*
X02144*
X02148Y04953*
Y0495*
Y04953*
X02151Y04957*
X02154*
X02158Y04953*
Y04947*
X02154Y04943*
X02158Y04963D02*
Y0497D01*
Y04967*
X02138*
X02141Y04963*
X02161Y0498D02*
Y04993D01*
X02144Y05D02*
X02158Y05013D01*
X02151Y05007*
X02144Y05013*
X02158Y05*
X02141Y0502D02*
X02138Y05023D01*
Y0503*
X02141Y05033*
X02154*
X02158Y0503*
Y05023*
X02154Y0502*
X02141*
X009Y0124D02*
X00895Y01235D01*
Y01225*
X009Y01221*
X0092*
X00925Y01225*
Y01235*
X0092Y0124*
X009Y0125D02*
X00895Y01255D01*
Y01265*
X009Y0127*
X00905*
X0091Y01265*
Y0126*
Y01265*
X00915Y0127*
X0092*
X00925Y01265*
Y01255*
X0092Y0125*
X009Y0128D02*
X00895Y01285D01*
Y01295*
X009Y013*
X0092*
X00925Y01295*
Y01285*
X0092Y0128*
X009*
X00815Y0124D02*
X0081Y01235D01*
Y01225*
X00815Y01221*
X00835*
X0084Y01225*
Y01235*
X00835Y0124*
X0084Y0127D02*
Y0125D01*
X0082Y0127*
X00815*
X0081Y01265*
Y01255*
X00815Y0125*
X00835Y0128D02*
X0084Y01285D01*
Y01295*
X00835Y013*
X00815*
X0081Y01295*
Y01285*
X00815Y0128*
X0082*
X00825Y01285*
Y013*
X0073Y0124D02*
X00725Y01235D01*
Y01225*
X0073Y01221*
X0075*
X00755Y01225*
Y01235*
X0075Y0124*
X00755Y0127D02*
Y0125D01*
X00735Y0127*
X0073*
X00725Y01265*
Y01255*
X0073Y0125*
Y0128D02*
X00725Y01285D01*
Y01295*
X0073Y013*
X00735*
X0074Y01295*
X00745Y013*
X0075*
X00755Y01295*
Y01285*
X0075Y0128*
X00745*
X0074Y01285*
X00735Y0128*
X0073*
X0074Y01285D02*
Y01295D01*
X009Y04295D02*
X00895Y0429D01*
Y0428*
X009Y04276*
X0092*
X00925Y0428*
Y0429*
X0092Y04295*
X00925Y04325D02*
Y04305D01*
X00905Y04325*
X009*
X00895Y0432*
Y0431*
X009Y04305*
X00895Y04335D02*
Y04355D01*
X009*
X0092Y04335*
X00925*
X00815Y04295D02*
X0081Y0429D01*
Y0428*
X00815Y04276*
X00835*
X0084Y0428*
Y0429*
X00835Y04295*
X0084Y04325D02*
Y04305D01*
X0082Y04325*
X00815*
X0081Y0432*
Y0431*
X00815Y04305*
X0081Y04355D02*
X00815Y04345D01*
X00825Y04335*
X00835*
X0084Y0434*
Y0435*
X00835Y04355*
X0083*
X00825Y0435*
Y04335*
X0073Y04295D02*
X00725Y0429D01*
Y0428*
X0073Y04276*
X0075*
X00755Y0428*
Y0429*
X0075Y04295*
X00755Y04325D02*
Y04305D01*
X00735Y04325*
X0073*
X00725Y0432*
Y0431*
X0073Y04305*
X00725Y04355D02*
Y04335D01*
X0074*
X00735Y04345*
Y0435*
X0074Y04355*
X0075*
X00755Y0435*
Y0434*
X0075Y04335*
X05108Y02109D02*
X05103Y02114D01*
X05093*
X05089Y02109*
Y02089*
X05093Y02085*
X05103*
X05108Y02089*
X05138Y02085D02*
X05118D01*
X05138Y02104*
Y02109*
X05133Y02114*
X05123*
X05118Y02109*
X05163Y02085D02*
Y02114D01*
X05148Y02099*
X05168*
X05108Y02024D02*
X05103Y02029D01*
X05093*
X05089Y02024*
Y02004*
X05093Y02*
X05103*
X05108Y02004*
X05138Y02D02*
X05118D01*
X05138Y02019*
Y02024*
X05133Y02029*
X05123*
X05118Y02024*
X05148D02*
X05153Y02029D01*
X05163*
X05168Y02024*
Y02019*
X05163Y02014*
X05158*
X05163*
X05168Y02009*
Y02004*
X05163Y02*
X05153*
X05148Y02004*
X05108Y01939D02*
X05103Y01944D01*
X05093*
X05089Y01939*
Y01919*
X05093Y01915*
X05103*
X05108Y01919*
X05138Y01915D02*
X05118D01*
X05138Y01934*
Y01939*
X05133Y01944*
X05123*
X05118Y01939*
X05168Y01915D02*
X05148D01*
X05168Y01934*
Y01939*
X05163Y01944*
X05153*
X05148Y01939*
X05108Y05084D02*
X05103Y05089D01*
X05093*
X05089Y05084*
Y05064*
X05093Y0506*
X05103*
X05108Y05064*
X05138Y0506D02*
X05118D01*
X05138Y05079*
Y05084*
X05133Y05089*
X05123*
X05118Y05084*
X05148Y0506D02*
X05158D01*
X05153*
Y05089*
X05148Y05084*
X05108Y04999D02*
X05103Y05004D01*
X05093*
X05089Y04999*
Y04979*
X05093Y04975*
X05103*
X05108Y04979*
X05138Y04975D02*
X05118D01*
X05138Y04994*
Y04999*
X05133Y05004*
X05123*
X05118Y04999*
X05148D02*
X05153Y05004D01*
X05163*
X05168Y04999*
Y04979*
X05163Y04975*
X05153*
X05148Y04979*
Y04999*
X05108Y04914D02*
X05103Y04919D01*
X05093*
X05089Y04914*
Y04894*
X05093Y0489*
X05103*
X05108Y04894*
X05118Y0489D02*
X05128D01*
X05123*
Y04919*
X05118Y04914*
X05143Y04894D02*
X05148Y0489D01*
X05158*
X05163Y04894*
Y04914*
X05158Y04919*
X05148*
X05143Y04914*
Y04909*
X05148Y04904*
X05163*
X00778Y02797D02*
X00773Y02792D01*
Y02782*
X00778Y02778*
X00798*
X00803Y02782*
Y02792*
X00798Y02797*
X00803Y02807D02*
Y02817D01*
Y02812*
X00773*
X00778Y02807*
Y02832D02*
X00773Y02837D01*
Y02847*
X00778Y02852*
X00783*
X00788Y02847*
X00793Y02852*
X00798*
X00803Y02847*
Y02837*
X00798Y02832*
X00793*
X00788Y02837*
X00783Y02832*
X00778*
X00788Y02837D02*
Y02847D01*
X00778Y03212D02*
X00773Y03207D01*
Y03197*
X00778Y03193*
X00798*
X00803Y03197*
Y03207*
X00798Y03212*
X00803Y03222D02*
Y03232D01*
Y03227*
X00773*
X00778Y03222*
X00773Y03247D02*
Y03267D01*
X00778*
X00798Y03247*
X00803*
X00612Y03126D02*
X00607Y03121D01*
Y03111*
X00612Y03107*
X00632*
X00637Y03111*
Y03121*
X00632Y03126*
X00637Y03136D02*
Y03146D01*
Y03141*
X00607*
X00612Y03136*
X00607Y03181D02*
X00612Y03171D01*
X00622Y03161*
X00632*
X00637Y03166*
Y03176*
X00632Y03181*
X00627*
X00622Y03176*
Y03161*
X00516Y02906D02*
X00511Y02911D01*
X00501*
X00497Y02906*
Y02886*
X00501Y02882*
X00511*
X00516Y02886*
X00526Y02882D02*
X00536D01*
X00531*
Y02911*
X00526Y02906*
X00571Y02911D02*
X00551D01*
Y02896*
X00561Y02901*
X00566*
X00571Y02896*
Y02886*
X00566Y02882*
X00556*
X00551Y02886*
X00612Y03541D02*
X00607Y03536D01*
Y03526*
X00612Y03522*
X00632*
X00637Y03526*
Y03536*
X00632Y03541*
X00637Y03551D02*
Y03561D01*
Y03556*
X00607*
X00612Y03551*
X00637Y03591D02*
X00607D01*
X00622Y03576*
Y03596*
X00516Y03321D02*
X00511Y03326D01*
X00501*
X00497Y03321*
Y03301*
X00501Y03297*
X00511*
X00516Y03301*
X00526Y03297D02*
X00536D01*
X00531*
Y03326*
X00526Y03321*
X00551D02*
X00556Y03326D01*
X00566*
X00571Y03321*
Y03316*
X00566Y03311*
X00561*
X00566*
X00571Y03306*
Y03301*
X00566Y03297*
X00556*
X00551Y03301*
X04797Y03201D02*
X04792Y03196D01*
Y03186*
X04797Y03182*
X04817*
X04822Y03186*
Y03196*
X04817Y03201*
X04822Y03211D02*
Y03221D01*
Y03216*
X04792*
X04797Y03211*
X04822Y03256D02*
Y03236D01*
X04802Y03256*
X04797*
X04792Y03251*
Y03241*
X04797Y03236*
Y03626D02*
X04792Y03621D01*
Y03611*
X04797Y03607*
X04817*
X04822Y03611*
Y03621*
X04817Y03626*
X04822Y03636D02*
Y03646D01*
Y03641*
X04792*
X04797Y03636*
X04822Y03661D02*
Y03671D01*
Y03666*
X04792*
X04797Y03661*
X04963Y02872D02*
X04958Y02867D01*
Y02857*
X04963Y02853*
X04983*
X04988Y02857*
Y02867*
X04983Y02872*
X04988Y02882D02*
Y02892D01*
Y02887*
X04958*
X04963Y02882*
Y02907D02*
X04958Y02912D01*
Y02922*
X04963Y02927*
X04983*
X04988Y02922*
Y02912*
X04983Y02907*
X04963*
X05042Y03147D02*
X05037Y03152D01*
X05027*
X05023Y03147*
Y03127*
X05027Y03123*
X05037*
X05042Y03127*
X05052D02*
X05057Y03123D01*
X05067*
X05072Y03127*
Y03147*
X05067Y03152*
X05057*
X05052Y03147*
Y03142*
X05057Y03137*
X05072*
X04963Y03287D02*
X04958Y03282D01*
Y03272*
X04963Y03268*
X04983*
X04988Y03272*
Y03282*
X04983Y03287*
X04963Y03297D02*
X04958Y03302D01*
Y03312*
X04963Y03317*
X04968*
X04973Y03312*
X04978Y03317*
X04983*
X04988Y03312*
Y03302*
X04983Y03297*
X04978*
X04973Y03302*
X04968Y03297*
X04963*
X04973Y03302D02*
Y03312D01*
X05042Y03562D02*
X05037Y03567D01*
X05027*
X05023Y03562*
Y03542*
X05027Y03538*
X05037*
X05042Y03542*
X05052Y03567D02*
X05072D01*
Y03562*
X05052Y03542*
Y03538*
X00778Y02377D02*
X00773Y02372D01*
Y02362*
X00778Y02358*
X00798*
X00803Y02362*
Y02372*
X00798Y02377*
X00773Y02407D02*
X00778Y02397D01*
X00788Y02387*
X00798*
X00803Y02392*
Y02402*
X00798Y02407*
X00793*
X00788Y02402*
Y02387*
X04797Y02811D02*
X04792Y02806D01*
Y02796*
X04797Y02792*
X04817*
X04822Y02796*
Y02806*
X04817Y02811*
X04792Y02841D02*
Y02821D01*
X04807*
X04802Y02831*
Y02836*
X04807Y02841*
X04817*
X04822Y02836*
Y02826*
X04817Y02821*
X00612Y02731D02*
X00607Y02726D01*
Y02716*
X00612Y02712*
X00632*
X00637Y02716*
Y02726*
X00632Y02731*
X00637Y02756D02*
X00607D01*
X00622Y02741*
Y02761*
X00541Y02486D02*
X00536Y02491D01*
X00526*
X00522Y02486*
Y02466*
X00526Y02462*
X00536*
X00541Y02466*
X00551Y02486D02*
X00556Y02491D01*
X00566*
X00571Y02486*
Y02481*
X00566Y02476*
X00561*
X00566*
X00571Y02471*
Y02466*
X00566Y02462*
X00556*
X00551Y02466*
X04963Y02457D02*
X04958Y02452D01*
Y02442*
X04963Y02438*
X04983*
X04988Y02442*
Y02452*
X04983Y02457*
X04988Y02487D02*
Y02467D01*
X04968Y02487*
X04963*
X04958Y02482*
Y02472*
X04963Y02467*
X05042Y02732D02*
X05037Y02737D01*
X05027*
X05023Y02732*
Y02712*
X05027Y02708*
X05037*
X05042Y02712*
X05052Y02708D02*
X05062D01*
X05057*
Y02737*
X05052Y02732*
M02*