%FSTAX23Y23*%
%MOIN*%
%SFA1B1*%

%IPPOS*%
%ADD11C,0.010000*%
%ADD14C,0.020000*%
%ADD52C,0.015000*%
%ADD53C,0.030000*%
%ADD54C,0.200000*%
%ADD55C,0.059055*%
%ADD56C,0.082677*%
%ADD57R,0.059055X0.059055*%
%ADD58C,0.078740*%
%ADD59R,0.059055X0.059055*%
%ADD60C,0.025000*%
%ADD61C,0.050000*%
%LNcfd_2channel_copper_signal_bot-1*%
%LPD*%
G36*
X05544Y00015D02*
X00015D01*
Y08734*
X05544*
Y00015*
G37*
%LNcfd_2channel_copper_signal_bot-2*%
%LPC*%
G36*
X0492Y08709D02*
Y0861D01*
X05019*
X05017Y08625*
X05011Y08642*
X05004Y08657*
X04993Y08671*
X04981Y08683*
X04967Y08694*
X04952Y08701*
X04935Y08707*
X0492Y08709*
G37*
G36*
X049D02*
X04884Y08707D01*
X04867Y08701*
X04852Y08694*
X04838Y08683*
X04826Y08671*
X04815Y08657*
X04808Y08642*
X04802Y08625*
X048Y0861*
X049*
Y08709*
G37*
G36*
X0066D02*
Y0861D01*
X00759*
X00757Y08625*
X00751Y08642*
X00744Y08657*
X00733Y08671*
X00721Y08683*
X00707Y08694*
X00692Y08701*
X00675Y08707*
X0066Y08709*
G37*
G36*
X0064D02*
X00624Y08707D01*
X00607Y08701*
X00592Y08694*
X00578Y08683*
X00566Y08671*
X00555Y08657*
X00548Y08642*
X00542Y08625*
X0054Y0861*
X0064*
Y08709*
G37*
G36*
X05418Y08705D02*
X05401D01*
X05385Y08702*
X05369Y08697*
X05354Y08689*
X05341Y0868*
X05329Y08668*
X0532Y08655*
X05312Y0864*
X05307Y08624*
X05305Y08608*
Y08591*
X05307Y08575*
X05312Y08559*
X0532Y08544*
X05329Y08531*
X05341Y08519*
X05354Y0851*
X05369Y08502*
X05385Y08497*
X05401Y08495*
X05418*
X05434Y08497*
X0545Y08502*
X05465Y0851*
X05478Y08519*
X0549Y08531*
X05499Y08544*
X05507Y08559*
X05512Y08575*
X05515Y08591*
Y08608*
X05512Y08624*
X05507Y0864*
X05499Y08655*
X0549Y08668*
X05478Y0868*
X05465Y08689*
X0545Y08697*
X05434Y08702*
X05418Y08705*
G37*
G36*
X00158D02*
X00141D01*
X00125Y08702*
X00109Y08697*
X00094Y08689*
X00081Y0868*
X00069Y08668*
X0006Y08655*
X00052Y0864*
X00047Y08624*
X00045Y08608*
Y08591*
X00047Y08575*
X00052Y08559*
X0006Y08544*
X00069Y08531*
X00081Y08519*
X00094Y0851*
X00109Y08502*
X00125Y08497*
X00141Y08495*
X00158*
X00174Y08497*
X0019Y08502*
X00205Y0851*
X00218Y08519*
X0023Y08531*
X00239Y08544*
X00247Y08559*
X00252Y08575*
X00255Y08591*
Y08608*
X00252Y08624*
X00247Y0864*
X00239Y08655*
X0023Y08668*
X00218Y0868*
X00205Y08689*
X0019Y08697*
X00174Y08702*
X00158Y08705*
G37*
G36*
X05019Y0859D02*
X0492D01*
Y0849*
X04935Y08492*
X04952Y08498*
X04967Y08505*
X04981Y08516*
X04993Y08528*
X05004Y08542*
X05011Y08557*
X05017Y08574*
X05019Y0859*
G37*
G36*
X049D02*
X048D01*
X04802Y08574*
X04808Y08557*
X04815Y08542*
X04826Y08528*
X04838Y08516*
X04852Y08505*
X04867Y08498*
X04884Y08492*
X049Y0849*
Y0859*
G37*
G36*
X00759D02*
X0066D01*
Y0849*
X00675Y08492*
X00692Y08498*
X00707Y08505*
X00721Y08516*
X00733Y08528*
X00744Y08542*
X00751Y08557*
X00757Y08574*
X00759Y0859*
G37*
G36*
X0064D02*
X0054D01*
X00542Y08574*
X00548Y08557*
X00555Y08542*
X00566Y08528*
X00578Y08516*
X00592Y08505*
X00607Y08498*
X00624Y08492*
X0064Y0849*
Y0859*
G37*
G36*
X04134Y08289D02*
X04125D01*
X04116Y08287*
X04108Y08282*
X04102Y08276*
X04097Y08268*
X04095Y08259*
Y0825*
X04097Y08241*
X04102Y08233*
X04108Y08227*
X04116Y08222*
X04125Y0822*
X04134*
X04143Y08222*
X04151Y08227*
X04157Y08233*
X04162Y08241*
X04164Y0825*
Y08259*
X04162Y08268*
X04157Y08276*
X04151Y08282*
X04143Y08287*
X04134Y08289*
G37*
G36*
X04034D02*
X04025D01*
X04016Y08287*
X04008Y08282*
X04002Y08276*
X03997Y08268*
X03995Y08259*
Y0825*
X03997Y08241*
X04002Y08233*
X04008Y08227*
X04016Y08222*
X04025Y0822*
X04034*
X04043Y08222*
X04051Y08227*
X04057Y08233*
X04062Y08241*
X04064Y0825*
Y08259*
X04062Y08268*
X04057Y08276*
X04051Y08282*
X04043Y08287*
X04034Y08289*
G37*
G36*
X03734D02*
X03725D01*
X03716Y08287*
X03708Y08282*
X03702Y08276*
X03697Y08268*
X03695Y08259*
Y0825*
X03697Y08241*
X03702Y08233*
X03708Y08227*
X03716Y08222*
X03725Y0822*
X03734*
X03743Y08222*
X03751Y08227*
X03757Y08233*
X03762Y08241*
X03764Y0825*
Y08259*
X03762Y08268*
X03757Y08276*
X03751Y08282*
X03743Y08287*
X03734Y08289*
G37*
G36*
X03634D02*
X03625D01*
X03616Y08287*
X03608Y08282*
X03602Y08276*
X03597Y08268*
X03595Y08259*
Y0825*
X03597Y08241*
X03602Y08233*
X03608Y08227*
X03616Y08222*
X03625Y0822*
X03634*
X03643Y08222*
X03651Y08227*
X03657Y08233*
X03662Y08241*
X03664Y0825*
Y08259*
X03662Y08268*
X03657Y08276*
X03651Y08282*
X03643Y08287*
X03634Y08289*
G37*
G36*
X03534D02*
X03525D01*
X03516Y08287*
X03508Y08282*
X03502Y08276*
X03497Y08268*
X03495Y08259*
Y0825*
X03497Y08241*
X03502Y08233*
X03508Y08227*
X03516Y08222*
X03525Y0822*
X03534*
X03543Y08222*
X03551Y08227*
X03557Y08233*
X03562Y08241*
X03564Y0825*
Y08259*
X03562Y08268*
X03557Y08276*
X03551Y08282*
X03543Y08287*
X03534Y08289*
G37*
G36*
X03434D02*
X03425D01*
X03416Y08287*
X03408Y08282*
X03402Y08276*
X03397Y08268*
X03395Y08259*
Y0825*
X03397Y08241*
X03402Y08233*
X03408Y08227*
X03416Y08222*
X03425Y0822*
X03434*
X03443Y08222*
X03451Y08227*
X03457Y08233*
X03462Y08241*
X03464Y0825*
Y08259*
X03462Y08268*
X03457Y08276*
X03451Y08282*
X03443Y08287*
X03434Y08289*
G37*
G36*
X03334D02*
X03325D01*
X03316Y08287*
X03308Y08282*
X03302Y08276*
X03297Y08268*
X03295Y08259*
Y0825*
X03297Y08241*
X03302Y08233*
X03308Y08227*
X03316Y08222*
X03325Y0822*
X03334*
X03343Y08222*
X03351Y08227*
X03357Y08233*
X03362Y08241*
X03364Y0825*
Y08259*
X03362Y08268*
X03357Y08276*
X03351Y08282*
X03343Y08287*
X03334Y08289*
G37*
G36*
X03234D02*
X03225D01*
X03216Y08287*
X03208Y08282*
X03202Y08276*
X03197Y08268*
X03195Y08259*
Y0825*
X03197Y08241*
X03202Y08233*
X03208Y08227*
X03216Y08222*
X03225Y0822*
X03234*
X03243Y08222*
X03251Y08227*
X03257Y08233*
X03262Y08241*
X03264Y0825*
Y08259*
X03262Y08268*
X03257Y08276*
X03251Y08282*
X03243Y08287*
X03234Y08289*
G37*
G36*
X03134D02*
X03125D01*
X03116Y08287*
X03108Y08282*
X03102Y08276*
X03097Y08268*
X03095Y08259*
Y0825*
X03097Y08241*
X03102Y08233*
X03108Y08227*
X03116Y08222*
X03125Y0822*
X03134*
X03143Y08222*
X03151Y08227*
X03157Y08233*
X03162Y08241*
X03164Y0825*
Y08259*
X03162Y08268*
X03157Y08276*
X03151Y08282*
X03143Y08287*
X03134Y08289*
G37*
G36*
X03034D02*
X03025D01*
X03016Y08287*
X03008Y08282*
X03002Y08276*
X02997Y08268*
X02995Y08259*
Y0825*
X02997Y08241*
X03002Y08233*
X03008Y08227*
X03016Y08222*
X03025Y0822*
X03034*
X03043Y08222*
X03051Y08227*
X03057Y08233*
X03062Y08241*
X03064Y0825*
Y08259*
X03062Y08268*
X03057Y08276*
X03051Y08282*
X03043Y08287*
X03034Y08289*
G37*
G36*
X02834D02*
X02825D01*
X02816Y08287*
X02808Y08282*
X02802Y08276*
X02797Y08268*
X02795Y08259*
Y0825*
X02797Y08241*
X02802Y08233*
X02808Y08227*
X02816Y08222*
X02825Y0822*
X02834*
X02843Y08222*
X02851Y08227*
X02857Y08233*
X02862Y08241*
X02864Y0825*
Y08259*
X02862Y08268*
X02857Y08276*
X02851Y08282*
X02843Y08287*
X02834Y08289*
G37*
G36*
X02734D02*
X02725D01*
X02716Y08287*
X02708Y08282*
X02702Y08276*
X02697Y08268*
X02695Y08259*
Y0825*
X02697Y08241*
X02702Y08233*
X02708Y08227*
X02716Y08222*
X02725Y0822*
X02734*
X02743Y08222*
X02751Y08227*
X02757Y08233*
X02762Y08241*
X02764Y0825*
Y08259*
X02762Y08268*
X02757Y08276*
X02751Y08282*
X02743Y08287*
X02734Y08289*
G37*
G36*
X02634D02*
X02625D01*
X02616Y08287*
X02608Y08282*
X02602Y08276*
X02597Y08268*
X02595Y08259*
Y0825*
X02597Y08241*
X02602Y08233*
X02608Y08227*
X02616Y08222*
X02625Y0822*
X02634*
X02643Y08222*
X02651Y08227*
X02657Y08233*
X02662Y08241*
X02664Y0825*
Y08259*
X02662Y08268*
X02657Y08276*
X02651Y08282*
X02643Y08287*
X02634Y08289*
G37*
G36*
X02534D02*
X02525D01*
X02516Y08287*
X02508Y08282*
X02502Y08276*
X02497Y08268*
X02495Y08259*
Y0825*
X02497Y08241*
X02502Y08233*
X02508Y08227*
X02516Y08222*
X02525Y0822*
X02534*
X02543Y08222*
X02551Y08227*
X02557Y08233*
X02562Y08241*
X02564Y0825*
Y08259*
X02562Y08268*
X02557Y08276*
X02551Y08282*
X02543Y08287*
X02534Y08289*
G37*
G36*
X02434D02*
X02425D01*
X02416Y08287*
X02408Y08282*
X02402Y08276*
X02397Y08268*
X02395Y08259*
Y0825*
X02397Y08241*
X02402Y08233*
X02408Y08227*
X02416Y08222*
X02425Y0822*
X02434*
X02443Y08222*
X02451Y08227*
X02457Y08233*
X02462Y08241*
X02464Y0825*
Y08259*
X02462Y08268*
X02457Y08276*
X02451Y08282*
X02443Y08287*
X02434Y08289*
G37*
G36*
X02334D02*
X02325D01*
X02316Y08287*
X02308Y08282*
X02302Y08276*
X02297Y08268*
X02295Y08259*
Y0825*
X02297Y08241*
X02302Y08233*
X02308Y08227*
X02316Y08222*
X02325Y0822*
X02334*
X02343Y08222*
X02351Y08227*
X02357Y08233*
X02362Y08241*
X02364Y0825*
Y08259*
X02362Y08268*
X02357Y08276*
X02351Y08282*
X02343Y08287*
X02334Y08289*
G37*
G36*
X02234D02*
X02225D01*
X02216Y08287*
X02208Y08282*
X02202Y08276*
X02197Y08268*
X02195Y08259*
Y0825*
X02197Y08241*
X02202Y08233*
X02208Y08227*
X02216Y08222*
X02225Y0822*
X02234*
X02243Y08222*
X02251Y08227*
X02257Y08233*
X02262Y08241*
X02264Y0825*
Y08259*
X02262Y08268*
X02257Y08276*
X02251Y08282*
X02243Y08287*
X02234Y08289*
G37*
G36*
X02134D02*
X02125D01*
X02116Y08287*
X02108Y08282*
X02102Y08276*
X02097Y08268*
X02095Y08259*
Y0825*
X02097Y08241*
X02102Y08233*
X02108Y08227*
X02116Y08222*
X02125Y0822*
X02134*
X02143Y08222*
X02151Y08227*
X02157Y08233*
X02162Y08241*
X02164Y0825*
Y08259*
X02162Y08268*
X02157Y08276*
X02151Y08282*
X02143Y08287*
X02134Y08289*
G37*
G36*
X01974D02*
X01965D01*
X01956Y08287*
X01948Y08282*
X01942Y08276*
X01937Y08268*
X01935Y08259*
Y0825*
X01937Y08241*
X01942Y08233*
X01948Y08227*
X01956Y08222*
X01965Y0822*
X01974*
X01983Y08222*
X01991Y08227*
X01997Y08233*
X02002Y08241*
X02004Y0825*
Y08259*
X02002Y08268*
X01997Y08276*
X01991Y08282*
X01983Y08287*
X01974Y08289*
G37*
G36*
X01874D02*
X01865D01*
X01856Y08287*
X01848Y08282*
X01842Y08276*
X01837Y08268*
X01835Y08259*
Y0825*
X01837Y08241*
X01842Y08233*
X01848Y08227*
X01856Y08222*
X01865Y0822*
X01874*
X01883Y08222*
X01891Y08227*
X01897Y08233*
X01902Y08241*
X01904Y0825*
Y08259*
X01902Y08268*
X01897Y08276*
X01891Y08282*
X01883Y08287*
X01874Y08289*
G37*
G36*
X01774D02*
X01765D01*
X01756Y08287*
X01748Y08282*
X01742Y08276*
X01737Y08268*
X01735Y08259*
Y0825*
X01737Y08241*
X01742Y08233*
X01748Y08227*
X01756Y08222*
X01765Y0822*
X01774*
X01783Y08222*
X01791Y08227*
X01797Y08233*
X01802Y08241*
X01804Y0825*
Y08259*
X01802Y08268*
X01797Y08276*
X01791Y08282*
X01783Y08287*
X01774Y08289*
G37*
G36*
X01674D02*
X01665D01*
X01656Y08287*
X01648Y08282*
X01642Y08276*
X01637Y08268*
X01635Y08259*
Y0825*
X01637Y08241*
X01642Y08233*
X01648Y08227*
X01656Y08222*
X01665Y0822*
X01674*
X01683Y08222*
X01691Y08227*
X01697Y08233*
X01702Y08241*
X01704Y0825*
Y08259*
X01702Y08268*
X01697Y08276*
X01691Y08282*
X01683Y08287*
X01674Y08289*
G37*
G36*
X01574D02*
X01565D01*
X01556Y08287*
X01548Y08282*
X01542Y08276*
X01537Y08268*
X01535Y08259*
Y0825*
X01537Y08241*
X01542Y08233*
X01548Y08227*
X01556Y08222*
X01565Y0822*
X01574*
X01583Y08222*
X01591Y08227*
X01597Y08233*
X01602Y08241*
X01604Y0825*
Y08259*
X01602Y08268*
X01597Y08276*
X01591Y08282*
X01583Y08287*
X01574Y08289*
G37*
G36*
X01474D02*
X01465D01*
X01456Y08287*
X01448Y08282*
X01442Y08276*
X01437Y08268*
X01435Y08259*
Y0825*
X01437Y08241*
X01442Y08233*
X01448Y08227*
X01456Y08222*
X01465Y0822*
X01474*
X01483Y08222*
X01491Y08227*
X01497Y08233*
X01502Y08241*
X01504Y0825*
Y08259*
X01502Y08268*
X01497Y08276*
X01491Y08282*
X01483Y08287*
X01474Y08289*
G37*
G36*
X01374D02*
X01365D01*
X01356Y08287*
X01348Y08282*
X01342Y08276*
X01337Y08268*
X01335Y08259*
Y0825*
X01337Y08241*
X01342Y08233*
X01348Y08227*
X01356Y08222*
X01365Y0822*
X01374*
X01383Y08222*
X01391Y08227*
X01397Y08233*
X01402Y08241*
X01404Y0825*
Y08259*
X01402Y08268*
X01397Y08276*
X01391Y08282*
X01383Y08287*
X01374Y08289*
G37*
G36*
X01274D02*
X01265D01*
X01256Y08287*
X01248Y08282*
X01242Y08276*
X01237Y08268*
X01235Y08259*
Y0825*
X01237Y08241*
X01242Y08233*
X01248Y08227*
X01256Y08222*
X01265Y0822*
X01274*
X01283Y08222*
X01291Y08227*
X01297Y08233*
X01302Y08241*
X01304Y0825*
Y08259*
X01302Y08268*
X01297Y08276*
X01291Y08282*
X01283Y08287*
X01274Y08289*
G37*
G36*
X01174D02*
X01165D01*
X01156Y08287*
X01148Y08282*
X01142Y08276*
X01137Y08268*
X01135Y08259*
Y0825*
X01137Y08241*
X01142Y08233*
X01148Y08227*
X01156Y08222*
X01165Y0822*
X01174*
X01183Y08222*
X01191Y08227*
X01197Y08233*
X01202Y08241*
X01204Y0825*
Y08259*
X01202Y08268*
X01197Y08276*
X01191Y08282*
X01183Y08287*
X01174Y08289*
G37*
G36*
X01074D02*
X01065D01*
X01056Y08287*
X01048Y08282*
X01042Y08276*
X01037Y08268*
X01035Y08259*
Y0825*
X01037Y08241*
X01042Y08233*
X01048Y08227*
X01056Y08222*
X01065Y0822*
X01074*
X01083Y08222*
X01091Y08227*
X01097Y08233*
X01102Y08241*
X01104Y0825*
Y08259*
X01102Y08268*
X01097Y08276*
X01091Y08282*
X01083Y08287*
X01074Y08289*
G37*
G36*
X04134Y08189D02*
X04125D01*
X04116Y08187*
X04108Y08182*
X04102Y08176*
X04097Y08168*
X04095Y08159*
Y0815*
X04097Y08141*
X04102Y08133*
X04108Y08127*
X04116Y08122*
X04125Y0812*
X04134*
X04143Y08122*
X04151Y08127*
X04157Y08133*
X04162Y08141*
X04164Y0815*
Y08159*
X04162Y08168*
X04157Y08176*
X04151Y08182*
X04143Y08187*
X04134Y08189*
G37*
G36*
X04034D02*
X04025D01*
X04016Y08187*
X04008Y08182*
X04002Y08176*
X03997Y08168*
X03995Y08159*
Y0815*
X03997Y08141*
X04002Y08133*
X04008Y08127*
X04016Y08122*
X04025Y0812*
X04034*
X04043Y08122*
X04051Y08127*
X04057Y08133*
X04062Y08141*
X04064Y0815*
Y08159*
X04062Y08168*
X04057Y08176*
X04051Y08182*
X04043Y08187*
X04034Y08189*
G37*
G36*
X0542Y08209D02*
Y0811D01*
X05519*
X05517Y08125*
X05511Y08142*
X05504Y08157*
X05493Y08171*
X05481Y08183*
X05467Y08194*
X05452Y08201*
X05435Y08207*
X0542Y08209*
G37*
G36*
X054D02*
X05384Y08207D01*
X05367Y08201*
X05352Y08194*
X05338Y08183*
X05326Y08171*
X05315Y08157*
X05308Y08142*
X05302Y08125*
X053Y0811*
X054*
Y08209*
G37*
G36*
X0016D02*
Y0811D01*
X00259*
X00257Y08125*
X00251Y08142*
X00244Y08157*
X00233Y08171*
X00221Y08183*
X00207Y08194*
X00192Y08201*
X00175Y08207*
X0016Y08209*
G37*
G36*
X0014D02*
X00124Y08207D01*
X00107Y08201*
X00092Y08194*
X00078Y08183*
X00066Y08171*
X00055Y08157*
X00048Y08142*
X00042Y08125*
X0004Y0811*
X0014*
Y08209*
G37*
G36*
X04134Y08089D02*
X04125D01*
X04116Y08087*
X04108Y08082*
X04102Y08076*
X04097Y08068*
X04095Y08059*
Y0805*
X04097Y08041*
X04102Y08033*
X04108Y08027*
X04116Y08022*
X04125Y0802*
X04134*
X04143Y08022*
X04151Y08027*
X04157Y08033*
X04162Y08041*
X04164Y0805*
Y08059*
X04162Y08068*
X04157Y08076*
X04151Y08082*
X04143Y08087*
X04134Y08089*
G37*
G36*
X04034D02*
X04025D01*
X04016Y08087*
X04008Y08082*
X04002Y08076*
X03997Y08068*
X03995Y08059*
Y0805*
X03997Y08041*
X04002Y08033*
X04008Y08027*
X04016Y08022*
X04025Y0802*
X04034*
X04043Y08022*
X04051Y08027*
X04057Y08033*
X04062Y08041*
X04064Y0805*
Y08059*
X04062Y08068*
X04057Y08076*
X04051Y08082*
X04043Y08087*
X04034Y08089*
G37*
G36*
X05519Y0809D02*
X0542D01*
Y0799*
X05435Y07992*
X05452Y07998*
X05467Y08005*
X05481Y08016*
X05493Y08028*
X05504Y08042*
X05511Y08057*
X05517Y08074*
X05519Y0809*
G37*
G36*
X054D02*
X053D01*
X05302Y08074*
X05308Y08057*
X05315Y08042*
X05326Y08028*
X05338Y08016*
X05352Y08005*
X05367Y07998*
X05384Y07992*
X054Y0799*
Y0809*
G37*
G36*
X00259D02*
X0016D01*
Y0799*
X00175Y07992*
X00192Y07998*
X00207Y08005*
X00221Y08016*
X00233Y08028*
X00244Y08042*
X00251Y08057*
X00257Y08074*
X00259Y0809*
G37*
G36*
X0014D02*
X0004D01*
X00042Y08074*
X00048Y08057*
X00055Y08042*
X00066Y08028*
X00078Y08016*
X00092Y08005*
X00107Y07998*
X00124Y07992*
X0014Y0799*
Y0809*
G37*
G36*
X04134Y07989D02*
X04125D01*
X04116Y07987*
X04108Y07982*
X04102Y07976*
X04097Y07968*
X04095Y07959*
Y0795*
X04097Y07941*
X04102Y07933*
X04108Y07927*
X04116Y07922*
X04125Y0792*
X04134*
X04143Y07922*
X04151Y07927*
X04157Y07933*
X04162Y07941*
X04164Y0795*
Y07959*
X04162Y07968*
X04157Y07976*
X04151Y07982*
X04143Y07987*
X04134Y07989*
G37*
G36*
X04034D02*
X04025D01*
X04016Y07987*
X04008Y07982*
X04002Y07976*
X03997Y07968*
X03995Y07959*
Y0795*
X03997Y07941*
X04002Y07933*
X04008Y07927*
X04016Y07922*
X04025Y0792*
X04034*
X04043Y07922*
X04051Y07927*
X04057Y07933*
X04062Y07941*
X04064Y0795*
Y07959*
X04062Y07968*
X04057Y07976*
X04051Y07982*
X04043Y07987*
X04034Y07989*
G37*
G36*
X04134Y07889D02*
X04125D01*
X04116Y07887*
X04108Y07882*
X04102Y07876*
X04097Y07868*
X04095Y07859*
Y0785*
X04097Y07841*
X04102Y07833*
X04108Y07827*
X04116Y07822*
X04125Y0782*
X04134*
X04143Y07822*
X04151Y07827*
X04157Y07833*
X04162Y07841*
X04164Y0785*
Y07859*
X04162Y07868*
X04157Y07876*
X04151Y07882*
X04143Y07887*
X04134Y07889*
G37*
G36*
X04034D02*
X04025D01*
X04016Y07887*
X04008Y07882*
X04002Y07876*
X03997Y07868*
X03995Y07859*
Y0785*
X03997Y07841*
X04002Y07833*
X04008Y07827*
X04016Y07822*
X04025Y0782*
X04034*
X04043Y07822*
X04051Y07827*
X04057Y07833*
X04062Y07841*
X04064Y0785*
Y07859*
X04062Y07868*
X04057Y07876*
X04051Y07882*
X04043Y07887*
X04034Y07889*
G37*
G36*
X04134Y07789D02*
X04125D01*
X04116Y07787*
X04108Y07782*
X04102Y07776*
X04097Y07768*
X04095Y07759*
Y0775*
X04097Y07741*
X04102Y07733*
X04108Y07727*
X04116Y07722*
X04125Y0772*
X04134*
X04143Y07722*
X04151Y07727*
X04157Y07733*
X04162Y07741*
X04164Y0775*
Y07759*
X04162Y07768*
X04157Y07776*
X04151Y07782*
X04143Y07787*
X04134Y07789*
G37*
G36*
X04034D02*
X04025D01*
X04016Y07787*
X04008Y07782*
X04002Y07776*
X03997Y07768*
X03995Y07759*
Y0775*
X03997Y07741*
X04002Y07733*
X04008Y07727*
X04016Y07722*
X04025Y0772*
X04034*
X04043Y07722*
X04051Y07727*
X04057Y07733*
X04062Y07741*
X04064Y0775*
Y07759*
X04062Y07768*
X04057Y07776*
X04051Y07782*
X04043Y07787*
X04034Y07789*
G37*
G36*
X04134Y07689D02*
X04125D01*
X04116Y07687*
X04108Y07682*
X04102Y07676*
X04097Y07668*
X04095Y07659*
Y0765*
X04097Y07641*
X04102Y07633*
X04108Y07627*
X04116Y07622*
X04125Y0762*
X04134*
X04143Y07622*
X04151Y07627*
X04157Y07633*
X04162Y07641*
X04164Y0765*
Y07659*
X04162Y07668*
X04157Y07676*
X04151Y07682*
X04143Y07687*
X04134Y07689*
G37*
G36*
X04034D02*
X04025D01*
X04016Y07687*
X04008Y07682*
X04002Y07676*
X03997Y07668*
X03995Y07659*
Y0765*
X03997Y07641*
X04002Y07633*
X04008Y07627*
X04016Y07622*
X04025Y0762*
X04034*
X04043Y07622*
X04051Y07627*
X04057Y07633*
X04062Y07641*
X04064Y0765*
Y07659*
X04062Y07668*
X04057Y07676*
X04051Y07682*
X04043Y07687*
X04034Y07689*
G37*
G36*
X04134Y07589D02*
X04125D01*
X04116Y07587*
X04108Y07582*
X04102Y07576*
X04097Y07568*
X04095Y07559*
Y0755*
X04097Y07541*
X04102Y07533*
X04108Y07527*
X04116Y07522*
X04125Y0752*
X04134*
X04143Y07522*
X04151Y07527*
X04157Y07533*
X04162Y07541*
X04164Y0755*
Y07559*
X04162Y07568*
X04157Y07576*
X04151Y07582*
X04143Y07587*
X04134Y07589*
G37*
G36*
X04034D02*
X04025D01*
X04016Y07587*
X04008Y07582*
X04002Y07576*
X03997Y07568*
X03995Y07559*
Y0755*
X03997Y07541*
X04002Y07533*
X04008Y07527*
X04016Y07522*
X04025Y0752*
X04034*
X04043Y07522*
X04051Y07527*
X04057Y07533*
X04062Y07541*
X04064Y0755*
Y07559*
X04062Y07568*
X04057Y07576*
X04051Y07582*
X04043Y07587*
X04034Y07589*
G37*
G36*
X04134Y07489D02*
X04125D01*
X04116Y07487*
X04108Y07482*
X04102Y07476*
X04097Y07468*
X04095Y07459*
Y0745*
X04097Y07441*
X04102Y07433*
X04108Y07427*
X04116Y07422*
X04125Y0742*
X04134*
X04143Y07422*
X04151Y07427*
X04157Y07433*
X04162Y07441*
X04164Y0745*
Y07459*
X04162Y07468*
X04157Y07476*
X04151Y07482*
X04143Y07487*
X04134Y07489*
G37*
G36*
X04034D02*
X04025D01*
X04016Y07487*
X04008Y07482*
X04002Y07476*
X03997Y07468*
X03995Y07459*
Y0745*
X03997Y07441*
X04002Y07433*
X04008Y07427*
X04016Y07422*
X04025Y0742*
X04034*
X04043Y07422*
X04051Y07427*
X04057Y07433*
X04062Y07441*
X04064Y0745*
Y07459*
X04062Y07468*
X04057Y07476*
X04051Y07482*
X04043Y07487*
X04034Y07489*
G37*
G36*
X04134Y07389D02*
X04125D01*
X04116Y07387*
X04108Y07382*
X04102Y07376*
X04097Y07368*
X04095Y07359*
Y0735*
X04097Y07341*
X04102Y07333*
X04108Y07327*
X04116Y07322*
X04125Y0732*
X04134*
X04143Y07322*
X04151Y07327*
X04157Y07333*
X04162Y07341*
X04164Y0735*
Y07359*
X04162Y07368*
X04157Y07376*
X04151Y07382*
X04143Y07387*
X04134Y07389*
G37*
G36*
X04034D02*
X04025D01*
X04016Y07387*
X04008Y07382*
X04002Y07376*
X03997Y07368*
X03995Y07359*
Y0735*
X03997Y07341*
X04002Y07333*
X04008Y07327*
X04016Y07322*
X04025Y0732*
X04034*
X04043Y07322*
X04051Y07327*
X04057Y07333*
X04062Y07341*
X04064Y0735*
Y07359*
X04062Y07368*
X04057Y07376*
X04051Y07382*
X04043Y07387*
X04034Y07389*
G37*
G36*
X04134Y07289D02*
X04125D01*
X04116Y07287*
X04108Y07282*
X04102Y07276*
X04097Y07268*
X04095Y07259*
Y0725*
X04097Y07241*
X04102Y07233*
X04108Y07227*
X04116Y07222*
X04125Y0722*
X04134*
X04143Y07222*
X04151Y07227*
X04157Y07233*
X04162Y07241*
X04164Y0725*
Y07259*
X04162Y07268*
X04157Y07276*
X04151Y07282*
X04143Y07287*
X04134Y07289*
G37*
G36*
X04034D02*
X04025D01*
X04016Y07287*
X04008Y07282*
X04002Y07276*
X03997Y07268*
X03995Y07259*
Y0725*
X03997Y07241*
X04002Y07233*
X04008Y07227*
X04016Y07222*
X04025Y0722*
X04034*
X04043Y07222*
X04051Y07227*
X04057Y07233*
X04062Y07241*
X04064Y0725*
Y07259*
X04062Y07268*
X04057Y07276*
X04051Y07282*
X04043Y07287*
X04034Y07289*
G37*
G36*
X04698Y07187D02*
X04691D01*
X04685Y07184*
X0468Y07179*
X04677Y07173*
Y07166*
X0468Y0716*
X04685Y07155*
X04691Y07152*
X04698*
X04704Y07155*
X04709Y0716*
X04712Y07166*
Y07173*
X04709Y07179*
X04704Y07184*
X04698Y07187*
G37*
G36*
X04613D02*
X04606D01*
X046Y07184*
X04595Y07179*
X04592Y07173*
Y07166*
X04595Y0716*
X046Y07155*
X04606Y07152*
X04613*
X04619Y07155*
X04624Y0716*
X04627Y07166*
Y07173*
X04624Y07179*
X04619Y07184*
X04613Y07187*
G37*
G36*
X04528D02*
X04521D01*
X04515Y07184*
X0451Y07179*
X04507Y07173*
Y07166*
X0451Y0716*
X04515Y07155*
X04521Y07152*
X04528*
X04534Y07155*
X04539Y0716*
X04542Y07166*
Y07173*
X04539Y07179*
X04534Y07184*
X04528Y07187*
G37*
G36*
X04134Y07189D02*
X04125D01*
X04116Y07187*
X04108Y07182*
X04102Y07176*
X04097Y07168*
X04095Y07159*
Y0715*
X04097Y07141*
X04102Y07133*
X04108Y07127*
X04116Y07122*
X04125Y0712*
X04134*
X04143Y07122*
X04151Y07127*
X04157Y07133*
X04162Y07141*
X04164Y0715*
Y07159*
X04162Y07168*
X04157Y07176*
X04151Y07182*
X04143Y07187*
X04134Y07189*
G37*
G36*
X04034D02*
X04025D01*
X04016Y07187*
X04008Y07182*
X04002Y07176*
X03997Y07168*
X03995Y07159*
Y0715*
X03997Y07141*
X04002Y07133*
X04008Y07127*
X04016Y07122*
X04025Y0712*
X04034*
X04043Y07122*
X04051Y07127*
X04057Y07133*
X04062Y07141*
X04064Y0715*
Y07159*
X04062Y07168*
X04057Y07176*
X04051Y07182*
X04043Y07187*
X04034Y07189*
G37*
G36*
X04134Y07089D02*
X04125D01*
X04116Y07087*
X04108Y07082*
X04102Y07076*
X04097Y07068*
X04095Y07059*
Y0705*
X04097Y07041*
X04102Y07033*
X04108Y07027*
X04116Y07022*
X04125Y0702*
X04134*
X04143Y07022*
X04151Y07027*
X04157Y07033*
X04162Y07041*
X04164Y0705*
Y07059*
X04162Y07068*
X04157Y07076*
X04151Y07082*
X04143Y07087*
X04134Y07089*
G37*
G36*
X04034D02*
X04025D01*
X04016Y07087*
X04008Y07082*
X04002Y07076*
X03997Y07068*
X03995Y07059*
Y0705*
X03997Y07041*
X04002Y07033*
X04008Y07027*
X04016Y07022*
X04025Y0702*
X04034*
X04043Y07022*
X04051Y07027*
X04057Y07033*
X04062Y07041*
X04064Y0705*
Y07059*
X04062Y07068*
X04057Y07076*
X04051Y07082*
X04043Y07087*
X04034Y07089*
G37*
G36*
X04358Y06973D02*
X04351D01*
X04345Y06971*
X0434Y06966*
X04337Y06959*
Y06952*
X0434Y06946*
X04345Y06941*
X04351Y06938*
X04358*
X04365Y06941*
X04369Y06946*
X04372Y06952*
Y06959*
X04369Y06966*
X04365Y06971*
X04358Y06973*
G37*
G36*
X04134Y06989D02*
X04125D01*
X04116Y06987*
X04108Y06982*
X04102Y06976*
X04097Y06968*
X04095Y06959*
Y0695*
X04097Y06941*
X04102Y06933*
X04108Y06927*
X04116Y06922*
X04125Y0692*
X04134*
X04143Y06922*
X04151Y06927*
X04157Y06933*
X04162Y06941*
X04164Y0695*
Y06959*
X04162Y06968*
X04157Y06976*
X04151Y06982*
X04143Y06987*
X04134Y06989*
G37*
G36*
X04034D02*
X04025D01*
X04016Y06987*
X04008Y06982*
X04002Y06976*
X03997Y06968*
X03995Y06959*
Y0695*
X03997Y06941*
X04002Y06933*
X04008Y06927*
X04016Y06922*
X04025Y0692*
X04034*
X04043Y06922*
X04051Y06927*
X04057Y06933*
X04062Y06941*
X04064Y0695*
Y06959*
X04062Y06968*
X04057Y06976*
X04051Y06982*
X04043Y06987*
X04034Y06989*
G37*
G36*
X04134Y06889D02*
X04125D01*
X04116Y06887*
X04108Y06882*
X04102Y06876*
X04097Y06868*
X04095Y06859*
Y0685*
X04097Y06841*
X04102Y06833*
X04108Y06827*
X04116Y06822*
X04125Y0682*
X04134*
X04143Y06822*
X04151Y06827*
X04157Y06833*
X04162Y06841*
X04164Y0685*
Y06859*
X04162Y06868*
X04157Y06876*
X04151Y06882*
X04143Y06887*
X04134Y06889*
G37*
G36*
X04034D02*
X04025D01*
X04016Y06887*
X04008Y06882*
X04002Y06876*
X03997Y06868*
X03995Y06859*
Y0685*
X03997Y06841*
X04002Y06833*
X04008Y06827*
X04016Y06822*
X04025Y0682*
X04034*
X04043Y06822*
X04051Y06827*
X04057Y06833*
X04062Y06841*
X04064Y0685*
Y06859*
X04062Y06868*
X04057Y06876*
X04051Y06882*
X04043Y06887*
X04034Y06889*
G37*
G36*
X046Y06808D02*
Y06785D01*
X04623*
X04622Y06788*
X04618Y06796*
X04611Y06803*
X04603Y06807*
X046Y06808*
G37*
G36*
X0458D02*
X04576Y06807D01*
X04568Y06803*
X04561Y06796*
X04557Y06788*
X04556Y06785*
X0458*
Y06808*
G37*
G36*
X04393Y0679D02*
X04386D01*
X0438Y06787*
X04375Y06783*
X04372Y06776*
Y06769*
X04375Y06763*
X0438Y06758*
X04386Y06755*
X04393*
X04399Y06758*
X04404Y06763*
X04407Y06769*
Y06776*
X04404Y06783*
X04399Y06787*
X04393Y0679*
G37*
G36*
X04623Y06765D02*
X046D01*
Y06741*
X04603Y06742*
X04611Y06746*
X04618Y06753*
X04622Y06761*
X04623Y06765*
G37*
G36*
X0458D02*
X04556D01*
X04557Y06761*
X04561Y06753*
X04568Y06746*
X04576Y06742*
X0458Y06741*
Y06765*
G37*
G36*
X04793D02*
X04786D01*
X0478Y06762*
X04775Y06757*
X04772Y0675*
Y06744*
X04775Y06737*
X0478Y06732*
X04786Y0673*
X04793*
X04799Y06732*
X04804Y06737*
X04807Y06744*
Y0675*
X04804Y06757*
X04799Y06762*
X04793Y06765*
G37*
G36*
X04034Y06789D02*
X04025D01*
X04016Y06787*
X04008Y06782*
X04002Y06776*
X03997Y06768*
X03995Y06759*
Y0675*
X03997Y06741*
X04002Y06733*
X04008Y06727*
X04016Y06722*
X04025Y0672*
X04034*
X04043Y06722*
X04051Y06727*
X04057Y06733*
X04062Y06741*
X04064Y0675*
Y06759*
X04062Y06768*
X04057Y06776*
X04051Y06782*
X04043Y06787*
X04034Y06789*
G37*
G36*
X04393Y06712D02*
X04386D01*
X0438Y06709*
X04375Y06704*
X04372Y06698*
Y06691*
X04375Y06685*
X0438Y0668*
X04386Y06677*
X04393*
X04399Y0668*
X04404Y06685*
X04407Y06691*
Y06698*
X04404Y06704*
X04399Y06709*
X04393Y06712*
G37*
G36*
X04034Y06689D02*
X04025D01*
X04016Y06687*
X04008Y06682*
X04002Y06676*
X03997Y06668*
X03995Y06659*
Y0665*
X03997Y06641*
X04002Y06633*
X04008Y06627*
X04016Y06622*
X04025Y0662*
X04034*
X04043Y06622*
X04051Y06627*
X04057Y06633*
X04062Y06641*
X04064Y0665*
Y06659*
X04062Y06668*
X04057Y06676*
X04051Y06682*
X04043Y06687*
X04034Y06689*
G37*
G36*
X04134Y06789D02*
X04125D01*
X04116Y06787*
X04108Y06782*
X04102Y06776*
X04097Y06768*
X04095Y06759*
Y0675*
X04097Y06741*
X04102Y06733*
X04108Y06727*
X04116Y06722*
X04125Y0672*
X04134*
X04143Y06722*
X04147Y06725*
X04307Y06565*
Y06561*
X0431Y06555*
X04315Y0655*
X04321Y06547*
X04328*
X04334Y0655*
X04339Y06555*
X04342Y06561*
Y06568*
X04339Y06574*
X04334Y06579*
X04328Y06582*
X04321*
X0432Y06581*
X04161Y0674*
X04162Y06741*
X04164Y0675*
Y06759*
X04162Y06768*
X04157Y06776*
X04151Y06782*
X04143Y06787*
X04134Y06789*
G37*
G36*
Y06589D02*
X04125D01*
X04116Y06587*
X04108Y06582*
X04102Y06576*
X04097Y06568*
X04095Y06559*
Y0655*
X04097Y06541*
X04102Y06533*
X04108Y06527*
X04116Y06522*
X04125Y0652*
X04134*
X04143Y06522*
X04151Y06527*
X04157Y06533*
X04162Y06541*
X04164Y0655*
Y06559*
X04162Y06568*
X04157Y06576*
X04151Y06582*
X04143Y06587*
X04134Y06589*
G37*
G36*
X04034D02*
X04025D01*
X04016Y06587*
X04008Y06582*
X04002Y06576*
X03997Y06568*
X03995Y06559*
Y0655*
X03997Y06541*
X04002Y06533*
X04008Y06527*
X04016Y06522*
X04025Y0652*
X04034*
X04043Y06522*
X04051Y06527*
X04057Y06533*
X04062Y06541*
X04064Y0655*
Y06559*
X04062Y06568*
X04057Y06576*
X04051Y06582*
X04043Y06587*
X04034Y06589*
G37*
G36*
X04134Y06689D02*
X04125D01*
X04116Y06687*
X04108Y06682*
X04102Y06676*
X04097Y06668*
X04095Y06659*
Y0665*
X04097Y06641*
X04102Y06633*
X04108Y06627*
X04116Y06622*
X04125Y0662*
X04134*
X04143Y06622*
X04147Y06625*
X04256Y06516*
Y06512*
X04259Y06506*
X04263Y06501*
X0427Y06498*
X04277*
X04283Y06501*
X04288Y06506*
X04291Y06512*
Y06519*
X04288Y06526*
X04283Y06531*
X04277Y06533*
X0427*
X04268Y06533*
X04161Y0664*
X04162Y06641*
X04164Y0665*
Y06659*
X04162Y06668*
X04157Y06676*
X04151Y06682*
X04143Y06687*
X04134Y06689*
G37*
G36*
X02844Y06683D02*
X02837D01*
X02831Y0668*
X02826Y06675*
X02823Y06669*
Y06662*
X02826Y06656*
X0283Y06651*
Y0649*
X0283Y06489*
X02825Y06484*
X02822Y06478*
Y06471*
X02825Y06465*
X0283Y0646*
X02836Y06457*
X02843*
X02849Y0646*
X02854Y06465*
X02857Y06471*
Y06478*
X02854Y06484*
X02851Y06488*
Y06651*
X02855Y06656*
X02858Y06662*
Y06669*
X02855Y06675*
X0285Y0668*
X02844Y06683*
G37*
G36*
X02893Y06637D02*
X02886D01*
X0288Y06634*
X02875Y06629*
X02872Y06623*
Y06616*
X02875Y0661*
X02877Y06607*
Y0645*
X02875Y06449*
X0287Y06444*
X02867Y06438*
Y06431*
X0287Y06425*
X02875Y0642*
X02881Y06417*
X02888*
X02894Y0642*
X02899Y06425*
X02902Y06431*
Y06438*
X02899Y06444*
X02897Y06447*
Y06604*
X02899Y06605*
X02904Y0661*
X02907Y06616*
Y06623*
X02904Y06629*
X02899Y06634*
X02893Y06637*
G37*
G36*
X03534Y06389D02*
X03525D01*
X03516Y06387*
X03508Y06382*
X03502Y06376*
X03497Y06368*
X03497Y06367*
X0348*
X03475Y06366*
X03471Y06364*
X03469Y06361*
X03463Y06362*
X03462Y06368*
X03457Y06376*
X03451Y06382*
X03443Y06387*
X03434Y06389*
X03425*
X03416Y06387*
X03408Y06382*
X03402Y06376*
X03397Y06368*
X03395Y06359*
Y0635*
X03397Y06341*
X03398Y06341*
X03362Y06305*
X03298*
X03316Y06323*
X03316Y06322*
X03325Y0632*
X03334*
X03343Y06322*
X03351Y06327*
X03357Y06333*
X03362Y06341*
X03364Y0635*
Y06359*
X03362Y06368*
X03357Y06376*
X03351Y06382*
X03343Y06387*
X03334Y06389*
X03325*
X03316Y06387*
X03308Y06382*
X03302Y06376*
X03297Y06368*
X03295Y06359*
Y0635*
X03297Y06341*
X03298Y06341*
X03282Y06325*
X03256*
X03254Y0633*
X03257Y06333*
X03262Y06341*
X03264Y0635*
Y06359*
X03262Y06368*
X03257Y06376*
X03251Y06382*
X03243Y06387*
X03234Y06389*
X03225*
X03216Y06387*
X03208Y06382*
X03202Y06376*
X03197Y06368*
X03197Y06367*
X03089*
X03084Y06366*
X0308Y06364*
X03069Y06353*
X03064Y06355*
Y06359*
X03062Y06368*
X03057Y06376*
X03051Y06382*
X03043Y06387*
X03034Y06389*
X03025*
X03016Y06387*
X03008Y06382*
X03002Y06376*
X02997Y06368*
X02995Y06359*
Y0635*
X02997Y06341*
X02998Y06341*
X02794Y06137*
X02748*
X02746Y06142*
X02746Y06142*
X02746Y06142*
X02924Y0632*
X02925Y0632*
X02934*
X02943Y06322*
X02951Y06327*
X02957Y06333*
X02962Y06341*
X02964Y0635*
Y06359*
X02962Y06368*
X02957Y06376*
X02951Y06382*
X02943Y06387*
X02934Y06389*
X02925*
X02916Y06387*
X02908Y06382*
X02902Y06376*
X02897Y06368*
X02895Y06359*
Y0635*
X02895Y06349*
X02721Y06175*
X02686*
X02684Y0618*
X02824Y0632*
X02825Y0632*
X02834*
X02843Y06322*
X02851Y06327*
X02857Y06333*
X02862Y06341*
X02864Y0635*
Y06359*
X02862Y06368*
X02857Y06376*
X02851Y06382*
X02843Y06387*
X02834Y06389*
X02825*
X02816Y06387*
X02808Y06382*
X02802Y06376*
X02797Y06368*
X02795Y06359*
Y0635*
X02795Y06349*
X02656Y0621*
X02607*
X02718Y06322*
X02725Y0632*
X02734*
X02743Y06322*
X02751Y06327*
X02757Y06333*
X02762Y06341*
X02764Y0635*
Y06359*
X02762Y06368*
X02757Y06376*
X02751Y06382*
X02743Y06387*
X02734Y06389*
X02725*
X02716Y06387*
X02708Y06382*
X02702Y06376*
X02697Y06368*
X02695Y06359*
Y0635*
X02697Y06343*
X02588Y06235*
X02531*
X02618Y06322*
X02625Y0632*
X02634*
X02643Y06322*
X02651Y06327*
X02657Y06333*
X02662Y06341*
X02664Y0635*
Y06359*
X02662Y06368*
X02657Y06376*
X02651Y06382*
X02643Y06387*
X02634Y06389*
X02625*
X02616Y06387*
X02608Y06382*
X02602Y06376*
X02597Y06368*
X02595Y06359*
Y0635*
X02597Y06343*
X02513Y0626*
X02456*
X02518Y06322*
X02525Y0632*
X02534*
X02543Y06322*
X02551Y06327*
X02557Y06333*
X02562Y06341*
X02564Y0635*
Y06359*
X02562Y06368*
X02557Y06376*
X02551Y06382*
X02543Y06387*
X02534Y06389*
X02525*
X02516Y06387*
X02508Y06382*
X02502Y06376*
X02497Y06368*
X02495Y06359*
Y0635*
X02497Y06343*
X02438Y06285*
X02381*
X02418Y06322*
X02425Y0632*
X02434*
X02443Y06322*
X02451Y06327*
X02457Y06333*
X02462Y06341*
X02464Y0635*
Y06359*
X02462Y06368*
X02457Y06376*
X02451Y06382*
X02443Y06387*
X02434Y06389*
X02425*
X02416Y06387*
X02408Y06382*
X02402Y06376*
X02397Y06368*
X02395Y06359*
Y0635*
X02397Y06343*
X02363Y0631*
X00615*
X00609Y06309*
X00604Y06305*
X0014Y05842*
X00135Y05839*
X0013Y05834*
X00127Y05828*
Y05821*
X0013Y05815*
X00135Y0581*
X00141Y05807*
X00148*
X00154Y0581*
X00159Y05815*
X00162Y0582*
X00621Y06279*
X00633*
X0014Y05787*
X00135Y05784*
X0013Y05779*
X00127Y05773*
Y05766*
X0013Y0576*
X00135Y05755*
X00141Y05752*
X00148*
X00154Y05755*
X00159Y0576*
X00162Y05765*
X00651Y06254*
X00663*
X0014Y05732*
X00135Y05729*
X0013Y05724*
X00127Y05718*
Y05711*
X0013Y05705*
X00135Y057*
X00141Y05697*
X00148*
X00154Y057*
X00159Y05705*
X00162Y0571*
X00681Y06229*
X00693*
X0014Y05677*
X00135Y05674*
X0013Y05669*
X00127Y05663*
Y05656*
X0013Y0565*
X00135Y05645*
X00141Y05642*
X00148*
X00154Y05645*
X00159Y0565*
X00162Y05655*
X00711Y06204*
X00813*
X00815Y06199*
X0026Y05644*
X00256Y05637*
X00254Y0563*
X00256Y05622*
X0026Y05615*
X00267Y05611*
X00275Y05609*
X00282Y05611*
X00289Y05615*
X00843Y06169*
X01558*
X0156Y06164*
X01325Y05929*
X01321Y05922*
X01319Y05915*
X01321Y05907*
X01325Y059*
X01332Y05896*
X0134Y05894*
X01347Y05896*
X01354Y059*
X01588Y06134*
X01792*
X01794Y06129*
X01564Y059*
X01561*
X01555Y05897*
X0155Y05892*
X01547Y05885*
Y05879*
X0155Y05872*
X01555Y05867*
X01561Y05865*
X01568*
X01574Y05867*
X01579Y05872*
X01582Y05879*
Y05881*
X01812Y06112*
X01831*
X01619Y059*
X01616*
X0161Y05897*
X01605Y05892*
X01602Y05885*
Y05879*
X01605Y05872*
X0161Y05867*
X01616Y05865*
X01623*
X01629Y05867*
X01634Y05872*
X01637Y05879*
Y05881*
X01847Y06092*
X01866*
X01674Y059*
X01671*
X01665Y05897*
X0166Y05892*
X01657Y05885*
Y05879*
X0166Y05872*
X01665Y05867*
X01671Y05865*
X01678*
X01684Y05867*
X01689Y05872*
X01692Y05879*
Y05881*
X01882Y06072*
X01901*
X01729Y059*
X01726*
X0172Y05897*
X01715Y05892*
X01712Y05885*
Y05879*
X01715Y05872*
X0172Y05867*
X01726Y05865*
X01733*
X01739Y05867*
X01744Y05872*
X01747Y05879*
Y05881*
X01917Y06052*
X01936*
X01784Y059*
X01781*
X01775Y05897*
X0177Y05892*
X01767Y05885*
Y05879*
X0177Y05872*
X01775Y05867*
X01781Y05865*
X01788*
X01794Y05867*
X01799Y05872*
X01802Y05879*
Y05881*
X01952Y06032*
X02888*
X02893Y06033*
X02897Y06035*
X03121Y0626*
X03407*
X03412Y06261*
X03416Y06263*
X03481Y06328*
X03483Y06332*
X03484Y06337*
Y0634*
X03486Y06342*
X03497*
X03497Y06341*
X03502Y06333*
X03508Y06327*
X03516Y06322*
X03525Y0632*
X03534*
X03543Y06322*
X03551Y06327*
X03557Y06333*
X03562Y06341*
X03564Y0635*
Y06359*
X03562Y06368*
X03557Y06376*
X03551Y06382*
X03543Y06387*
X03534Y06389*
G37*
G36*
X03934D02*
X03925D01*
X03916Y06387*
X03908Y06382*
X03902Y06376*
X03897Y06368*
X03895Y06359*
Y0635*
X03897Y06341*
X03902Y06333*
X03908Y06327*
X03916Y06322*
X03925Y0632*
X03934*
X03943Y06322*
X03951Y06327*
X03957Y06333*
X03962Y06341*
X03964Y0635*
Y06359*
X03962Y06368*
X03957Y06376*
X03951Y06382*
X03943Y06387*
X03934Y06389*
G37*
G36*
X03834D02*
X03825D01*
X03816Y06387*
X03808Y06382*
X03802Y06376*
X03797Y06368*
X03795Y06359*
Y0635*
X03797Y06341*
X03802Y06333*
X03808Y06327*
X03816Y06322*
X03825Y0632*
X03834*
X03843Y06322*
X03851Y06327*
X03857Y06333*
X03862Y06341*
X03864Y0635*
Y06359*
X03862Y06368*
X03857Y06376*
X03851Y06382*
X03843Y06387*
X03834Y06389*
G37*
G36*
X03734D02*
X03725D01*
X03716Y06387*
X03708Y06382*
X03702Y06376*
X03697Y06368*
X03695Y06359*
Y0635*
X03697Y06341*
X03702Y06333*
X03708Y06327*
X03716Y06322*
X03725Y0632*
X03734*
X03743Y06322*
X03751Y06327*
X03757Y06333*
X03762Y06341*
X03764Y0635*
Y06359*
X03762Y06368*
X03757Y06376*
X03751Y06382*
X03743Y06387*
X03734Y06389*
G37*
G36*
X03634D02*
X03625D01*
X03616Y06387*
X03608Y06382*
X03602Y06376*
X03597Y06368*
X03595Y06359*
Y0635*
X03597Y06341*
X03602Y06333*
X03608Y06327*
X03616Y06322*
X03625Y0632*
X03634*
X03643Y06322*
X03651Y06327*
X03657Y06333*
X03662Y06341*
X03664Y0635*
Y06359*
X03662Y06368*
X03657Y06376*
X03651Y06382*
X03643Y06387*
X03634Y06389*
G37*
G36*
X02255Y06445D02*
X00695D01*
X00689Y06444*
X00684Y0644*
X0014Y05897*
X00135Y05894*
X0013Y05889*
X00127Y05883*
Y05876*
X0013Y0587*
X00135Y05865*
X00141Y05862*
X00148*
X00154Y05865*
X00159Y0587*
X00162Y05875*
X00701Y06414*
X02248*
X02297Y06366*
X02295Y06359*
Y0635*
X02297Y06341*
X02302Y06333*
X02308Y06327*
X02316Y06322*
X02325Y0632*
X02334*
X02343Y06322*
X02351Y06327*
X02357Y06333*
X02362Y06341*
X02364Y0635*
Y06359*
X02362Y06368*
X02357Y06376*
X02351Y06382*
X02343Y06387*
X02334Y06389*
X02325*
X02318Y06387*
X02265Y0644*
X0226Y06444*
X02255Y06445*
G37*
G36*
X02134Y06389D02*
X02125D01*
X02116Y06387*
X02108Y06382*
X02102Y06376*
X02097Y06368*
X02095Y06359*
Y0635*
X02097Y06341*
X02102Y06333*
X02108Y06327*
X02116Y06322*
X02125Y0632*
X02134*
X02143Y06322*
X02151Y06327*
X02157Y06333*
X02162Y06341*
X02164Y0635*
Y06359*
X02162Y06368*
X02157Y06376*
X02151Y06382*
X02143Y06387*
X02134Y06389*
G37*
G36*
X02034D02*
X02025D01*
X02016Y06387*
X02008Y06382*
X02002Y06376*
X01997Y06368*
X01995Y06359*
Y0635*
X01997Y06341*
X02002Y06333*
X02008Y06327*
X02016Y06322*
X02025Y0632*
X02034*
X02043Y06322*
X02051Y06327*
X02057Y06333*
X02062Y06341*
X02064Y0635*
Y06359*
X02062Y06368*
X02057Y06376*
X02051Y06382*
X02043Y06387*
X02034Y06389*
G37*
G36*
X01934D02*
X01925D01*
X01916Y06387*
X01908Y06382*
X01902Y06376*
X01897Y06368*
X01895Y06359*
Y0635*
X01897Y06341*
X01902Y06333*
X01908Y06327*
X01916Y06322*
X01925Y0632*
X01934*
X01943Y06322*
X01951Y06327*
X01957Y06333*
X01962Y06341*
X01964Y0635*
Y06359*
X01962Y06368*
X01957Y06376*
X01951Y06382*
X01943Y06387*
X01934Y06389*
G37*
G36*
X01834D02*
X01825D01*
X01816Y06387*
X01808Y06382*
X01802Y06376*
X01797Y06368*
X01795Y06359*
Y0635*
X01797Y06341*
X01802Y06333*
X01808Y06327*
X01816Y06322*
X01825Y0632*
X01834*
X01843Y06322*
X01851Y06327*
X01857Y06333*
X01862Y06341*
X01864Y0635*
Y06359*
X01862Y06368*
X01857Y06376*
X01851Y06382*
X01843Y06387*
X01834Y06389*
G37*
G36*
X01734D02*
X01725D01*
X01716Y06387*
X01708Y06382*
X01702Y06376*
X01697Y06368*
X01695Y06359*
Y0635*
X01697Y06341*
X01702Y06333*
X01708Y06327*
X01716Y06322*
X01725Y0632*
X01734*
X01743Y06322*
X01751Y06327*
X01757Y06333*
X01762Y06341*
X01764Y0635*
Y06359*
X01762Y06368*
X01757Y06376*
X01751Y06382*
X01743Y06387*
X01734Y06389*
G37*
G36*
X01634D02*
X01625D01*
X01616Y06387*
X01608Y06382*
X01602Y06376*
X01597Y06368*
X01595Y06359*
Y0635*
X01597Y06341*
X01602Y06333*
X01608Y06327*
X01616Y06322*
X01625Y0632*
X01634*
X01643Y06322*
X01651Y06327*
X01657Y06333*
X01662Y06341*
X01664Y0635*
Y06359*
X01662Y06368*
X01657Y06376*
X01651Y06382*
X01643Y06387*
X01634Y06389*
G37*
G36*
X01534D02*
X01525D01*
X01516Y06387*
X01508Y06382*
X01502Y06376*
X01497Y06368*
X01495Y06359*
Y0635*
X01497Y06341*
X01502Y06333*
X01508Y06327*
X01516Y06322*
X01525Y0632*
X01534*
X01543Y06322*
X01551Y06327*
X01557Y06333*
X01562Y06341*
X01564Y0635*
Y06359*
X01562Y06368*
X01557Y06376*
X01551Y06382*
X01543Y06387*
X01534Y06389*
G37*
G36*
X01434D02*
X01425D01*
X01416Y06387*
X01408Y06382*
X01402Y06376*
X01397Y06368*
X01395Y06359*
Y0635*
X01397Y06341*
X01402Y06333*
X01408Y06327*
X01416Y06322*
X01425Y0632*
X01434*
X01443Y06322*
X01451Y06327*
X01457Y06333*
X01462Y06341*
X01464Y0635*
Y06359*
X01462Y06368*
X01457Y06376*
X01451Y06382*
X01443Y06387*
X01434Y06389*
G37*
G36*
X03113Y06062D02*
X03106D01*
X031Y06059*
X03095Y06054*
X03092Y06048*
Y06041*
X03095Y06035*
X031Y0603*
X03106Y06027*
X03113*
X03119Y0603*
X03124Y06035*
X03127Y06041*
Y06048*
X03124Y06054*
X03119Y06059*
X03113Y06062*
G37*
G36*
X04823Y06435D02*
X04816D01*
X04808Y06432*
X04801Y06429*
X04795Y06423*
X04792Y06416*
X0479Y06408*
Y06401*
X04792Y06393*
X04795Y06386*
X04801Y0638*
X04808Y06377*
X04816Y06375*
X04823*
X04829Y06376*
X0529Y05915*
X0529Y05913*
Y05906*
X05292Y05898*
X05295Y05891*
X05301Y05885*
X05308Y05882*
X05316Y0588*
X05323*
X05331Y05882*
X05338Y05885*
X05344Y05891*
X05347Y05898*
X0535Y05906*
Y05913*
X05347Y05921*
X05344Y05928*
X05338Y05934*
X05331Y05937*
X05323Y0594*
X05316*
X0531Y05938*
X04849Y06399*
X0485Y06401*
Y06408*
X04847Y06416*
X04844Y06423*
X04838Y06429*
X04831Y06432*
X04823Y06435*
G37*
G36*
X02296Y05911D02*
X02283D01*
X02272Y05908*
X02261Y05902*
X02252Y05893*
X02246Y05882*
X02243Y05871*
Y05858*
X02246Y05847*
X02252Y05836*
X02254Y05835*
X02261Y05827*
X02272Y05821*
X02283Y05818*
X02296*
X02307Y05821*
X02318Y05827*
X02325Y05835*
X02327Y05836*
X02333Y05847*
X02336Y05858*
Y05871*
X02333Y05882*
X02327Y05893*
X02318Y05902*
X02307Y05908*
X02296Y05911*
G37*
G36*
X02096D02*
X02083D01*
X02072Y05908*
X02061Y05902*
X02052Y05893*
X02046Y05882*
X02043Y05871*
Y05858*
X02046Y05847*
X02052Y05836*
X02054Y05835*
X02061Y05827*
X02072Y05821*
X02083Y05818*
X02096*
X02107Y05821*
X02118Y05827*
X02125Y05835*
X02127Y05836*
X02133Y05847*
X02136Y05858*
Y05871*
X02133Y05882*
X02127Y05893*
X02118Y05902*
X02107Y05908*
X02096Y05911*
G37*
G36*
X03113Y05822D02*
X03106D01*
X031Y05819*
X03095Y05814*
X03092Y05808*
Y05801*
X03095Y05795*
X031Y0579*
X03106Y05787*
X03113*
X03119Y0579*
X03124Y05795*
X03127Y05801*
Y05808*
X03124Y05814*
X03119Y05819*
X03113Y05822*
G37*
G36*
X04083Y06415D02*
X04076D01*
X04068Y06412*
X04061Y06409*
X04055Y06403*
X04052Y06396*
X0405Y06388*
Y06381*
X04052Y06373*
X04055Y06366*
X04061Y0636*
X04064Y06359*
Y05835*
Y05792*
X0406Y05788*
X04057Y05781*
X04055Y05773*
Y05766*
X04057Y05758*
X0406Y05751*
X04066Y05745*
X04073Y05742*
X04081Y0574*
X04088*
X04096Y05742*
X04103Y05745*
X04109Y05751*
X04112Y05758*
X04115Y05766*
Y05773*
X04112Y05781*
X04109Y05788*
X04103Y05794*
X04096Y05797*
X04095Y05798*
Y05835*
Y06359*
X04098Y0636*
X04104Y06366*
X04107Y06373*
X0411Y06381*
Y06388*
X04107Y06396*
X04104Y06403*
X04098Y06409*
X04091Y06412*
X04083Y06415*
G37*
G36*
X0273Y05758D02*
Y05735D01*
X02753*
X02752Y05738*
X02748Y05746*
X02741Y05753*
X02733Y05757*
X0273Y05758*
G37*
G36*
X0271D02*
X02706Y05757D01*
X02698Y05753*
X02691Y05746*
X02687Y05738*
X02686Y05735*
X0271*
Y05758*
G37*
G36*
X02195Y05809D02*
X02184D01*
X02172Y05806*
X02162Y058*
X02154Y05792*
X02148Y05782*
X02145Y0577*
Y05759*
X02148Y05747*
X02154Y05737*
X02162Y05729*
X02172Y05723*
X02184Y0572*
X02195*
X02207Y05723*
X02217Y05729*
X02225Y05737*
X02231Y05747*
X02234Y05759*
Y0577*
X02231Y05782*
X02225Y05792*
X02217Y058*
X02207Y05806*
X02195Y05809*
G37*
G36*
X02798Y05742D02*
X02791D01*
X02785Y05739*
X0278Y05734*
X02777Y05728*
Y05721*
X0278Y05715*
X02785Y0571*
X02791Y05707*
X02798*
X02804Y0571*
X02809Y05715*
X02812Y05721*
Y05728*
X02809Y05734*
X02804Y05739*
X02798Y05742*
G37*
G36*
X02498Y05732D02*
X02491D01*
X02485Y05729*
X0248Y05724*
X02477Y05718*
Y05711*
X0248Y05705*
X02485Y057*
X02491Y05697*
X02498*
X02504Y057*
X02509Y05705*
X02512Y05711*
Y05718*
X02509Y05724*
X02504Y05729*
X02498Y05732*
G37*
G36*
X02753Y05715D02*
X0273D01*
Y05691*
X02733Y05692*
X02741Y05696*
X02748Y05703*
X02752Y05711*
X02753Y05715*
G37*
G36*
X0271D02*
X02686D01*
X02687Y05711*
X02691Y05703*
X02698Y05696*
X02706Y05692*
X0271Y05691*
Y05715*
G37*
G36*
X02296Y05711D02*
X02283D01*
X02272Y05708*
X02261Y05702*
X02252Y05693*
X02246Y05682*
X02243Y05671*
Y05658*
X02246Y05647*
X02252Y05636*
X02261Y05627*
X02272Y05621*
X02283Y05618*
X02296*
X02307Y05621*
X02318Y05627*
X02327Y05636*
X02333Y05647*
X02336Y05658*
Y05671*
X02333Y05682*
X02327Y05693*
X02318Y05702*
X02307Y05708*
X02296Y05711*
G37*
G36*
X02096D02*
X02083D01*
X02072Y05708*
X02061Y05702*
X02052Y05693*
X02046Y05682*
X02043Y05671*
Y05658*
X02046Y05647*
X02052Y05636*
X02061Y05627*
X02072Y05621*
X02083Y05618*
X02096*
X02107Y05621*
X02118Y05627*
X02127Y05636*
X02133Y05647*
X02136Y05658*
Y05671*
X02133Y05682*
X02127Y05693*
X02118Y05702*
X02107Y05708*
X02096Y05711*
G37*
G36*
X02778Y05612D02*
X02771D01*
X02765Y05609*
X0276Y05604*
X02757Y05598*
Y05591*
X0276Y05585*
X02765Y0558*
X02771Y05577*
X02778*
X02784Y0558*
X02789Y05585*
X02792Y05591*
Y05598*
X02789Y05604*
X02784Y05609*
X02778Y05612*
G37*
G36*
X03113Y05582D02*
X03106D01*
X031Y05579*
X03095Y05574*
X03092Y05568*
Y05561*
X03095Y05555*
X031Y0555*
X03106Y05547*
X03113*
X03119Y0555*
X03124Y05555*
X03127Y05561*
Y05568*
X03124Y05574*
X03119Y05579*
X03113Y05582*
G37*
G36*
X04648Y06385D02*
X04641D01*
X04633Y06382*
X04626Y06379*
X0462Y06373*
X04617Y06366*
X04615Y06358*
Y06351*
X04617Y06343*
X0462Y06336*
X04626Y0633*
X04629Y06329*
Y05835*
Y05816*
X04322Y05509*
X04318Y0551*
X04311*
X04303Y05507*
X04296Y05504*
X0429Y05498*
X04287Y05491*
X04285Y05483*
Y05476*
X04287Y05468*
X0429Y05461*
X04296Y05455*
X04303Y05452*
X04311Y0545*
X04318*
X04326Y05452*
X04333Y05455*
X04339Y05461*
X04342Y05468*
X04345Y05476*
Y05483*
X04344Y05487*
X04655Y05799*
X04659Y05804*
X0466Y0581*
Y05835*
Y06329*
X04663Y0633*
X04669Y06336*
X04672Y06343*
X04675Y06351*
Y06358*
X04672Y06366*
X04669Y06373*
X04663Y06379*
X04656Y06382*
X04648Y06385*
G37*
G36*
X02781Y05527D02*
X02774D01*
X02768Y05524*
X02763Y05519*
X0276Y05513*
Y05506*
X02763Y055*
X02768Y05495*
X02774Y05492*
X02781*
X02788Y05495*
X02792Y055*
X02795Y05506*
Y05513*
X02792Y05519*
X02788Y05524*
X02781Y05527*
G37*
G36*
X03113Y05342D02*
X03106D01*
X031Y05339*
X03095Y05334*
X03092Y05328*
Y05321*
X03095Y05315*
X031Y0531*
X03106Y05307*
X03113*
X03119Y0531*
X03124Y05315*
X03127Y05321*
Y05328*
X03124Y05334*
X03119Y05339*
X03113Y05342*
G37*
G36*
X0492Y05208D02*
Y05185D01*
X04943*
X04942Y05188*
X04938Y05196*
X04931Y05203*
X04923Y05207*
X0492Y05208*
G37*
G36*
X049D02*
X04896Y05207D01*
X04888Y05203*
X04881Y05196*
X04877Y05188*
X04876Y05185*
X049*
Y05208*
G37*
G36*
X03551Y05246D02*
X03538D01*
X03527Y05243*
X03516Y05237*
X03507Y05228*
X03501Y05217*
X03498Y05206*
Y05193*
X03501Y05182*
X03507Y05171*
X03516Y05162*
X03527Y05156*
X03538Y05153*
X03551*
X03562Y05156*
X03573Y05162*
X03582Y05171*
X03588Y05182*
X03591Y05193*
Y05206*
X03588Y05217*
X03582Y05228*
X03573Y05237*
X03562Y05243*
X03551Y05246*
G37*
G36*
X03351D02*
X03338D01*
X03327Y05243*
X03316Y05237*
X03307Y05228*
X03301Y05217*
X03298Y05206*
Y05193*
X03301Y05182*
X03307Y05171*
X03316Y05162*
X03327Y05156*
X03338Y05153*
X03351*
X03362Y05156*
X03373Y05162*
X03382Y05171*
X03388Y05182*
X03391Y05193*
Y05206*
X03388Y05217*
X03382Y05228*
X03373Y05237*
X03362Y05243*
X03351Y05246*
G37*
G36*
X03051D02*
X03038D01*
X03027Y05243*
X03016Y05237*
X03007Y05228*
X03001Y05217*
X02998Y05206*
Y05193*
X03001Y05182*
X03007Y05171*
X03016Y05162*
X03027Y05156*
X03038Y05153*
X03051*
X03062Y05156*
X03073Y05162*
X03082Y05171*
X03088Y05182*
X03091Y05193*
Y05206*
X03088Y05217*
X03082Y05228*
X03073Y05237*
X03062Y05243*
X03051Y05246*
G37*
G36*
X02851D02*
X02838D01*
X02827Y05243*
X02816Y05237*
X02807Y05228*
X02801Y05217*
X02798Y05206*
Y05193*
X02801Y05182*
X02807Y05171*
X02816Y05162*
X02827Y05156*
X02838Y05153*
X02851*
X02862Y05156*
X02873Y05162*
X02882Y05171*
X02888Y05182*
X02891Y05193*
Y05206*
X02888Y05217*
X02882Y05228*
X02873Y05237*
X02862Y05243*
X02851Y05246*
G37*
G36*
X04943Y05165D02*
X0492D01*
Y05141*
X04923Y05142*
X04931Y05146*
X04938Y05153*
X04942Y05161*
X04943Y05165*
G37*
G36*
X049D02*
X04876D01*
X04877Y05161*
X04881Y05153*
X04888Y05146*
X04896Y05142*
X049Y05141*
Y05165*
G37*
G36*
X0326Y06D02*
X03252Y05998D01*
X03245Y05994*
X03241Y05987*
X03239Y0598*
Y05835*
Y0574*
Y055*
Y0544*
X03241Y05432*
X03245Y05426*
X03396Y05275*
X03403Y0527*
X0341Y05269*
X03561*
X03695Y05136*
Y05131*
X03697Y05123*
X037Y05116*
X03706Y0511*
X03713Y05107*
X03721Y05105*
X03728*
X03736Y05107*
X03743Y0511*
X03749Y05116*
X03752Y05123*
X03755Y05131*
Y05138*
X03752Y05146*
X03749Y05153*
X03743Y05159*
X03736Y05162*
X03728Y05165*
X03723*
X03584Y05304*
X03578Y05308*
X03572Y05309*
X03573Y05314*
X03671*
X03905Y0508*
X03912Y05076*
X0392Y05074*
X03927Y05076*
X03934Y0508*
X03938Y05087*
X0394Y05095*
X03938Y05102*
X03934Y05109*
X03694Y05349*
X03687Y05353*
X0368Y05355*
X03423*
X03355Y05423*
Y05655*
Y05835*
Y05895*
X03353Y05902*
X03349Y05909*
X03342Y05913*
X03335Y05915*
X03327Y05913*
X0332Y05909*
X03316Y05902*
X03314Y05895*
Y05655*
Y05421*
X03309Y05419*
X0328Y05448*
Y055*
Y0574*
Y0598*
X03278Y05987*
X03274Y05994*
X03267Y05998*
X0326Y06*
G37*
G36*
X01344Y05129D02*
X01335D01*
X01326Y05127*
X01318Y05122*
X01312Y05116*
X01307Y05108*
X01305Y05099*
Y0509*
X01307Y05081*
X01312Y05073*
X01318Y05067*
X01326Y05062*
X01335Y0506*
X01344*
X01353Y05062*
X01361Y05067*
X01367Y05073*
X01372Y05081*
X01374Y0509*
Y05099*
X01372Y05108*
X01367Y05116*
X01361Y05122*
X01353Y05127*
X01344Y05129*
G37*
G36*
X05073Y05092D02*
X05066D01*
X0506Y05089*
X05055Y05084*
X05052Y05078*
Y05071*
X05055Y05065*
X0506Y0506*
X05066Y05057*
X05073*
X05079Y0506*
X05084Y05065*
X05087Y05071*
Y05078*
X05084Y05084*
X05079Y05089*
X05073Y05092*
G37*
G36*
X0345Y05144D02*
X03439D01*
X03427Y05141*
X03417Y05135*
X03409Y05127*
X03403Y05117*
X034Y05105*
Y05094*
X03403Y05082*
X03409Y05072*
X03417Y05064*
X03427Y05058*
X03439Y05055*
X0345*
X03462Y05058*
X03472Y05064*
X0348Y05072*
X03486Y05082*
X03489Y05094*
Y05105*
X03486Y05117*
X0348Y05127*
X03472Y05135*
X03462Y05141*
X0345Y05144*
G37*
G36*
X0295D02*
X02939D01*
X02927Y05141*
X02917Y05135*
X02909Y05127*
X02903Y05117*
X029Y05105*
Y05094*
X02903Y05082*
X02909Y05072*
X02917Y05064*
X02927Y05058*
X02939Y05055*
X0295*
X02962Y05058*
X02972Y05064*
X0298Y05072*
X02986Y05082*
X02989Y05094*
Y05105*
X02986Y05117*
X0298Y05127*
X02972Y05135*
X02962Y05141*
X0295Y05144*
G37*
G36*
X02598Y0558D02*
X0191D01*
X01904Y05579*
X01899Y05575*
X01451Y05127*
X01444Y05129*
X01435*
X01426Y05127*
X01418Y05122*
X01412Y05116*
X01407Y05108*
X01405Y05099*
Y0509*
X01407Y05081*
X01412Y05073*
X01418Y05067*
X01426Y05062*
X01435Y0506*
X01444*
X01453Y05062*
X01461Y05067*
X01467Y05073*
X01472Y05081*
X01474Y0509*
Y05099*
X01472Y05106*
X01916Y05549*
X02591*
X02744Y05396*
Y0502*
X02512*
X0264Y05148*
X02643Y05153*
X02644Y05159*
Y05368*
X02643Y05374*
X0264Y05379*
X02509Y0551*
X02504Y05514*
X02498Y05515*
X01945*
X01939Y05514*
X01934Y0551*
X01451Y05027*
X01444Y05029*
X01435*
X01426Y05027*
X01418Y05022*
X01412Y05016*
X01411Y05015*
X01407Y05013*
X01405Y05014*
X01404Y05015*
X01403Y05015*
X01403Y05015*
X01376*
X01376Y05015*
X01375Y05015*
X01374Y05014*
X01372Y05013*
X01368Y05015*
X01367Y05016*
X01361Y05022*
X01353Y05027*
X01344Y05029*
X01335*
X01326Y05027*
X01318Y05022*
X01312Y05016*
X01311Y05015*
X01307Y05013*
X01305Y05014*
X01304Y05015*
X01303Y05015*
X01303Y05015*
X01285*
X01281Y05013*
X01279Y0501*
Y04545*
X01197*
X01195Y0455*
X01206Y04561*
X01212Y04559*
X01219*
X01226Y04561*
X01231Y04566*
X01233Y04573*
Y0458*
X01231Y04586*
X01226Y04591*
X01219Y04594*
X01212*
X01206Y04591*
X01201Y04586*
X01199Y04582*
X01197Y0458*
X00694Y04077*
X00691*
X00685Y04074*
X0068Y04069*
X00677Y04063*
Y04056*
X0068Y0405*
X00685Y04045*
X00691Y04042*
X00698*
X00704Y04045*
X00709Y0405*
X00712Y04056*
Y04063*
X00711Y04066*
X00759Y04114*
X00764Y04112*
Y03813*
X00766Y03805*
X00769Y038*
Y03518*
X00768Y03517*
X00762Y03511*
X00757Y03503*
X00755Y03494*
Y03485*
X00757Y03476*
X00762Y03468*
X00768Y03462*
X00769Y03461*
Y03455*
Y03414*
X00764Y0341*
X0076Y03412*
X00754*
X00747Y03409*
X00742Y03404*
X0074Y03398*
Y03391*
X00742Y03385*
X00747Y0338*
X00754Y03377*
X0076*
X00764Y03379*
X00769Y03375*
Y03319*
X00771Y03312*
X00775Y03305*
X00867Y03213*
X0087Y03209*
Y0314*
X00884*
Y03083*
X00883Y03082*
X00877Y03076*
X00872Y03068*
X0087Y03059*
Y0305*
X00872Y03041*
X00877Y03033*
X00883Y03027*
X00884Y03026*
Y0278*
Y0273*
X00841Y02687*
X00836Y0268*
X00835Y02672*
Y0266*
X0083Y02658*
X00826Y02662*
X00818Y02667*
X00809Y02669*
X008*
X00791Y02667*
X00783Y02662*
X00777Y02656*
X00772Y02648*
X0077Y02639*
Y0263*
X00772Y02621*
X00777Y02613*
X00783Y02607*
X00791Y02602*
X008Y026*
X00809*
X00818Y02602*
X00826Y02607*
X0083Y02611*
X00835Y02609*
Y02595*
Y0164*
X0083Y01638*
X00827Y01641*
X00824Y01644*
X00816Y01648*
X00813Y01649*
Y01616*
Y01582*
X00816Y01583*
X00824Y01588*
X0083Y01593*
X00835Y01591*
Y01591*
Y01143*
X00836Y01135*
X00841Y01128*
X01014Y00954*
Y00954*
X01016Y00946*
X0102Y0094*
X012Y0076*
X01207Y00756*
X01215Y00754*
X0166*
X01668Y00756*
X01674Y0076*
X0172Y00805*
X01733*
X01735Y008*
X01733Y00798*
X01727Y00793*
X01721Y00782*
X01718Y00771*
Y00758*
X01721Y00747*
X01727Y00736*
X01736Y00727*
X01747Y00721*
X01758Y00718*
X01771*
X01782Y00721*
X01793Y00727*
X01802Y00736*
X01808Y00747*
X01811Y00758*
Y00771*
X01808Y00782*
X01802Y00793*
X01793Y00802*
X01782Y00808*
X01771Y00811*
X01767*
X01765Y00816*
X01818Y0087*
X01823*
X01831Y00872*
X01838Y00875*
X01844Y00881*
X01847Y00888*
X0185Y00896*
Y00903*
X01847Y00911*
X01844Y00918*
X01838Y00924*
X01837Y00924*
X01838Y00929*
X0245*
X02614Y00766*
Y0064*
X02614Y00636*
X02616Y00633*
X02742Y00507*
X02746Y00505*
X0275Y00504*
X02883*
X02887Y00505*
X0289Y00507*
X02894Y00511*
X03013*
X03018Y00507*
X03024Y00504*
X03031*
X03038Y00507*
X03042Y00511*
X03045Y00518*
Y00525*
X03042Y00531*
X03038Y00536*
X03031Y00539*
X03029*
X03028Y00544*
X03029Y00545*
X03034Y0055*
X03037Y00556*
Y00563*
X03034Y00569*
X03029Y00574*
X03023Y00577*
X03016*
X0301Y00574*
X03005Y0057*
X02799*
X02649Y0072*
Y00776*
X02832Y00592*
X02836Y0059*
X0284Y00589*
X02935*
X0294Y00585*
X02946Y00582*
X02953*
X02959Y00585*
X02964Y0059*
X02967Y00596*
Y00603*
X02964Y00609*
X02959Y00614*
X02953Y00617*
X02946*
X0294Y00614*
X02935Y0061*
X02879*
X02884Y00615*
X02887Y00621*
Y00628*
X02884Y00634*
X02879Y00639*
X02873Y00642*
X02866*
X02514Y00994*
X02934*
Y00868*
X02935Y00862*
X02939Y00857*
X03034Y00762*
Y00731*
X03029Y00727*
X03028Y00727*
X03022Y00721*
X03017Y00713*
X03015Y00704*
Y00695*
X03017Y00686*
X03022Y00678*
X03028Y00672*
X03036Y00667*
X03045Y00665*
X03054*
X03063Y00667*
X03071Y00672*
X03077Y00678*
X03082Y00686*
X03084Y00695*
Y00704*
X03082Y00713*
X03077Y00721*
X03071Y00727*
X03065Y00731*
Y00768*
X03064Y00774*
X0306Y00779*
X02994Y00845*
X02996Y0085*
X03003Y00852*
X03011Y00856*
X03018Y00863*
X03022Y00871*
X03023Y00875*
X0299*
Y00885*
X0298*
Y00918*
X02976Y00917*
X0297Y00914*
X02965Y00916*
Y01177*
X02964Y01183*
X0296Y01188*
X02793Y01355*
X02788Y01359*
X02782Y0136*
X02641*
X02577Y01424*
X03301*
X03301Y01424*
X03302Y01424*
X03302Y01425*
X03307Y01416*
X03316Y01407*
X03327Y01401*
X03338Y01398*
X03351*
X03362Y01401*
X03373Y01407*
X03382Y01416*
X03387Y01425*
X03387Y01424*
X03388Y01424*
X03388Y01424*
X03501*
X03501Y01424*
X03502Y01424*
X03502Y01425*
X03507Y01416*
X03516Y01407*
X03527Y01401*
X03538Y01398*
X03551*
X03562Y01401*
X03573Y01407*
X03582Y01416*
X03587Y01425*
X03587Y01424*
X03588Y01424*
X03588Y01424*
X0371*
X03712Y01419*
X0371Y01418*
X03707Y01411*
X03705Y01403*
Y01396*
X03707Y01388*
X0371Y01381*
X03716Y01375*
X03723Y01372*
X03731Y0137*
X03733*
X0394Y01163*
Y01156*
X03942Y01148*
X03945Y01141*
X03947Y0114*
X03945Y01135*
X03726*
X03605Y01255*
X036Y01259*
X03595Y0126*
X03255*
X03249Y01259*
X03244Y01255*
X03144Y01156*
X03141Y01151*
X0314Y01145*
Y01141*
X03045Y01047*
X0304Y01044*
X03035Y01039*
X03032Y01033*
Y01026*
X03035Y0102*
X0304Y01015*
X03046Y01012*
X03053*
X03059Y01015*
X03064Y0102*
X03067Y01025*
X03166Y01124*
X03169Y01129*
X0317Y01135*
Y01139*
X03261Y01229*
X03588*
X03709Y01109*
X03714Y01105*
X0372Y01104*
X05009*
X0501Y01101*
X05016Y01095*
X05023Y01092*
X05031Y0109*
X05038*
X05046Y01092*
X05053Y01095*
X05059Y01101*
X05062Y01108*
X05065Y01116*
Y01123*
X05062Y01131*
X05059Y01138*
X05053Y01144*
X05046Y01147*
X05038Y0115*
X05031*
X05023Y01147*
X05016Y01144*
X0501Y01138*
X05009Y01135*
X04315*
Y02094*
X04336*
X04337Y02094*
X04338Y02094*
X04338Y02095*
X0434Y02091*
X04346Y02085*
X04353Y02082*
X04361Y0208*
X04368*
X04376Y02082*
X04378Y02082*
X04538Y01923*
X04537Y01921*
Y01913*
X04539Y01906*
X04543Y01899*
X04549Y01893*
X04556Y01889*
X04563Y01887*
X04571*
X04579Y01889*
X04586Y01893*
X04591Y01899*
X04595Y01906*
X04597Y01913*
Y01921*
X04595Y01929*
X04591Y01936*
X04586Y01941*
X04579Y01945*
X04571Y01947*
X04571*
X04424Y02094*
X0484*
X04843Y02096*
X04845Y021*
Y02244*
X04869*
X04871Y02239*
X0487Y02237*
X04867Y02233*
X04866Y0223*
X04934*
X04933Y02233*
X04929Y02239*
X04931Y02244*
X0497*
X04975Y0224*
X04981Y02237*
X04988*
X04994Y0224*
X04999Y02245*
X05002Y02251*
Y02258*
X04999Y02264*
X04994Y02269*
X04988Y02272*
X04994Y02275*
X04999Y0228*
X05002Y02286*
Y02293*
X04999Y02299*
X04994Y02304*
X04988Y02307*
X04981*
X04975Y02304*
X0497Y023*
X04845*
Y02632*
X04844Y02633*
X04844Y02635*
X04844Y02635*
X04843Y02636*
X04842Y02636*
X04841Y02637*
X04841Y0264*
X04841Y02642*
X04842Y02643*
X04843Y02643*
X04844Y02644*
X04844Y02644*
X04844Y02646*
X04845Y02647*
Y0297*
X04843Y02973*
X0484Y02975*
X0482*
Y02978*
X04817Y02986*
X04814Y02993*
X04808Y02999*
X04801Y03002*
X04794Y03004*
X04765Y03033*
Y03455*
Y04025*
X04763Y04032*
X04759Y04039*
X04313Y04485*
X04315Y04488*
Y04488*
Y04755*
X04616Y04454*
X04623Y04449*
X04629Y04448*
X0463Y04446*
X04636Y0444*
X04643Y04437*
X04651Y04435*
X04652*
X04654Y0443*
X04625Y044*
X0454*
X04539Y04403*
X04533Y04409*
X04526Y04412*
X04518Y04415*
X04511*
X04503Y04412*
X04496Y04409*
X0449Y04403*
X04487Y04396*
X04485Y04388*
Y04381*
X04487Y04373*
X0449Y04366*
X04496Y0436*
X04503Y04357*
X04511Y04355*
X04518*
X04526Y04357*
X04533Y0436*
X04539Y04366*
X0454Y04369*
X04631*
X04637Y0437*
X04642Y04374*
X04757Y04489*
X04761Y04494*
X04762Y045*
Y0457*
X04818Y04627*
X04825Y04625*
X04834*
X04843Y04627*
X04851Y04632*
X04857Y04638*
X04862Y04646*
X04864Y04655*
Y04664*
X04862Y04673*
X04857Y04681*
X04851Y04687*
X04843Y04692*
X04834Y04694*
X04825*
X04816Y04692*
X04808Y04687*
X04802Y04681*
X04797Y04673*
X04795Y04664*
Y04655*
X04797Y04648*
X04736Y04587*
X04732Y04582*
X04731Y04577*
Y04506*
X0469Y04465*
X04685Y04467*
Y04468*
X04682Y04476*
X04679Y04483*
X04673Y04489*
X04666Y04492*
X04658Y04495*
X04651*
X04643Y04492*
X04638Y0449*
X04631Y04497*
X04313Y04815*
X04315Y04818*
Y04818*
Y0501*
X04313Y05013*
X0431Y05015*
X04272*
X04271Y05015*
X0427*
X0427Y05014*
X04269Y05013*
X04268Y05012*
X04267Y05012*
X04266Y05008*
X04262Y05005*
X04261Y05005*
X0426Y05005*
X04258Y05007*
X04249Y05009*
X0424*
X04231Y05007*
X04229Y05005*
X04228Y05005*
X04227Y05005*
X04223Y05008*
X04222Y05012*
X04221Y05012*
X0422Y05013*
X04219Y05014*
X04219Y05015*
X04218*
X04217Y05015*
X04184*
X04184Y05015*
X04183Y05015*
X04178Y05014*
X04177Y05014*
X04175Y05013*
X04175Y05013*
X04175Y05012*
X04174Y05011*
X04174Y05009*
X04115*
X0411Y0501*
X0411Y05014*
X0411Y05016*
X04109Y05017*
X04109Y05018*
X04109Y05018*
X04107Y05019*
X04106Y05019*
X04101Y0502*
X041Y0502*
X041Y0502*
X03957*
X04032Y05095*
X04036Y05095*
X04043*
X04051Y05097*
X04058Y051*
X04064Y05106*
X04067Y05113*
X0407Y05121*
Y05128*
X04067Y05136*
X04064Y05143*
X04058Y05149*
X04051Y05152*
X04043Y05155*
X04036*
X04028Y05152*
X04021Y05149*
X04015Y05143*
X04012Y05136*
X0401Y05128*
Y05121*
X0401Y05117*
X0393Y05037*
X03928Y05039*
X03921Y05042*
X03913Y05045*
X03906*
X03898Y05042*
X03891Y05039*
X03885Y05033*
X03882Y05026*
X0388Y0502*
X0388Y0502*
X03588*
X03588Y0502*
X03587Y0502*
X03587Y05019*
X03582Y05028*
X03573Y05037*
X03562Y05043*
X03551Y05046*
X03538*
X03527Y05043*
X03516Y05037*
X03507Y05028*
X03502Y05019*
X03502Y0502*
X03501Y0502*
X03501Y0502*
X03388*
X03388Y0502*
X03387Y0502*
X03387Y05019*
X03382Y05028*
X03373Y05037*
X03362Y05043*
X03351Y05046*
X03338*
X03327Y05043*
X03316Y05037*
X03307Y05028*
X03302Y05019*
X03302Y0502*
X03301Y0502*
X03301Y0502*
X03088*
X03088Y0502*
X03087Y0502*
X03087Y05019*
X03082Y05028*
X03073Y05037*
X03062Y05043*
X03051Y05046*
X03038*
X03027Y05043*
X03016Y05037*
X03007Y05028*
X03002Y05019*
X03002Y0502*
X03001Y0502*
X03001Y0502*
X02888*
X02888Y0502*
X02887Y0502*
X02887Y05019*
X02882Y05028*
X02873Y05037*
X02862Y05043*
X02851Y05046*
X02838*
X02827Y05043*
X02816Y05037*
X02807Y05028*
X02802Y05019*
X02802Y0502*
X02801Y0502*
X02801Y0502*
X02775*
Y05403*
X02774Y05409*
X0277Y05414*
X02609Y05575*
X02604Y05579*
X02598Y0558*
G37*
G36*
X05073Y05007D02*
X05066D01*
X0506Y05004*
X05055Y04999*
X05052Y04993*
Y04986*
X05055Y0498*
X0506Y04975*
X05066Y04972*
X05073*
X05079Y04975*
X05084Y0498*
X05087Y04986*
Y04993*
X05084Y04999*
X05079Y05004*
X05073Y05007*
G37*
G36*
Y04922D02*
X05066D01*
X0506Y04919*
X05055Y04914*
X05052Y04908*
Y04901*
X05055Y04895*
X0506Y0489*
X05066Y04887*
X05073*
X05079Y0489*
X05084Y04895*
X05087Y04901*
Y04908*
X05084Y04914*
X05079Y04919*
X05073Y04922*
G37*
G36*
X04623Y04677D02*
X04616D01*
X0461Y04674*
X04605Y04669*
X04602Y04663*
Y04656*
X04605Y0465*
X0461Y04645*
X04616Y04642*
X04623*
X04629Y04645*
X04634Y0465*
X04637Y04656*
Y04663*
X04634Y04669*
X04629Y04674*
X04623Y04677*
G37*
G36*
X00598Y04662D02*
X00591D01*
X00585Y04659*
X0058Y04654*
X00577Y04648*
Y04641*
X0058Y04635*
X00585Y0463*
X00591Y04627*
X00598*
X00604Y0463*
X00609Y04635*
X00612Y04641*
Y04648*
X00609Y04654*
X00604Y04659*
X00598Y04662*
G37*
G36*
X04714Y04694D02*
X04705D01*
X04696Y04692*
X04688Y04687*
X04682Y04681*
X04677Y04673*
X04675Y04664*
Y04655*
X04677Y04646*
X04682Y04638*
X04688Y04632*
X04696Y04627*
X04705Y04625*
X04714*
X04723Y04627*
X04731Y04632*
X04737Y04638*
X04742Y04646*
X04744Y04655*
Y04664*
X04742Y04673*
X04737Y04681*
X04731Y04687*
X04723Y04692*
X04714Y04694*
G37*
G36*
X00665Y04518D02*
Y04495D01*
X00688*
X00687Y04498*
X00683Y04506*
X00676Y04513*
X00668Y04517*
X00665Y04518*
G37*
G36*
X00645D02*
X00641Y04517D01*
X00633Y04513*
X00626Y04506*
X00622Y04498*
X00621Y04495*
X00645*
Y04518*
G37*
G36*
X00688Y04475D02*
X00665D01*
Y04451*
X00668Y04452*
X00676Y04456*
X00683Y04463*
X00687Y04471*
X00688Y04475*
G37*
G36*
X00645D02*
X00621D01*
X00622Y04471*
X00626Y04463*
X00633Y04456*
X00641Y04452*
X00645Y04451*
Y04475*
G37*
G36*
X0116Y0461D02*
X01154D01*
X01147Y04607*
X01142Y04602*
X0114Y04596*
Y04589*
X00933Y04382*
X00929Y04382*
X00927Y04384*
X00924Y04389*
X00919Y04394*
X00913Y04397*
X00906*
X009Y04394*
X00895Y04389*
X00892Y04383*
Y04376*
X00895Y0437*
X009Y04365*
X00905Y04362*
X00907Y0436*
X00907Y04356*
X00687Y04137*
X00681*
X00675Y04134*
X0067Y04129*
X00667Y04123*
Y04116*
X0067Y0411*
X00675Y04105*
X00681Y04102*
X00688*
X00694Y04105*
X00699Y0411*
X00702Y04116*
Y04123*
X01154Y04575*
X0116*
X01167Y04578*
X01172Y04583*
X01175Y04589*
Y04596*
X01172Y04602*
X01167Y04607*
X0116Y0461*
G37*
G36*
X00828Y04397D02*
X00821D01*
X00815Y04394*
X0081Y04389*
X00807Y04383*
Y04376*
X0081Y0437*
X00815Y04365*
X00821Y04362*
X00828*
X00834Y04365*
X00839Y0437*
X00842Y04376*
Y04383*
X00839Y04389*
X00834Y04394*
X00828Y04397*
G37*
G36*
X00743D02*
X00736D01*
X0073Y04394*
X00725Y04389*
X00722Y04383*
Y04376*
X00725Y0437*
X0073Y04365*
X00736Y04362*
X00743*
X00749Y04365*
X00754Y0437*
X00757Y04376*
Y04383*
X00754Y04389*
X00749Y04394*
X00743Y04397*
G37*
G36*
X00403Y04062D02*
X00396D01*
X0039Y04059*
X00385Y04054*
X00382Y04048*
Y04041*
X00385Y04035*
X00389Y0403*
Y03989*
X00382Y03996*
Y04003*
X00379Y04009*
X00374Y04014*
X00368Y04017*
X00361*
X00355Y04014*
X0035Y04009*
X00347Y04003*
Y03996*
X0035Y0399*
X00355Y03985*
X00361Y03982*
X00368*
X00384Y03965*
Y03714*
X0038Y03709*
X00377Y03703*
Y03696*
X0038Y0369*
X00385Y03685*
X00391Y03682*
X00398*
X00404Y03685*
X00409Y0369*
X00412Y03696*
Y03703*
X00409Y03709*
X00405Y03714*
Y03966*
X00419Y03951*
Y03759*
X00415Y03754*
X00412Y03748*
Y03741*
X00415Y03735*
X0042Y0373*
X00426Y03727*
X00433*
X00439Y0373*
X00444Y03735*
X00447Y03741*
Y03748*
X00444Y03754*
X0044Y03759*
Y03956*
X00439Y0396*
X00437Y03963*
X0041Y0399*
Y0403*
X00414Y04035*
X00417Y04041*
Y04048*
X00414Y04054*
X00409Y04059*
X00403Y04062*
G37*
G36*
X00473D02*
X00466D01*
X00465Y04061*
X0046Y04059*
X00455Y04054*
X00452Y04048*
Y04041*
X00455Y04035*
X00459Y0403*
Y03989*
X00452Y03996*
Y04003*
X00449Y04009*
X00444Y04014*
X00438Y04017*
X00431*
X00425Y04014*
X0042Y04009*
X00417Y04003*
Y03996*
X0042Y0399*
X00425Y03985*
X00431Y03982*
X00438*
X00454Y03965*
Y03714*
X0045Y03709*
X00447Y03703*
Y03696*
X0045Y0369*
X00455Y03685*
X00461Y03682*
X00468*
X00474Y03685*
X00479Y0369*
X00482Y03696*
Y03703*
X00479Y03709*
X00475Y03714*
Y03966*
X00489Y03951*
Y03759*
X00485Y03754*
X00482Y03748*
Y03741*
X00485Y03735*
X0049Y0373*
X00496Y03727*
X00503*
X00509Y0373*
X00514Y03735*
X00517Y03741*
Y03748*
X00514Y03754*
X0051Y03759*
Y03956*
X00509Y0396*
X00507Y03963*
X0048Y0399*
Y0403*
X00484Y04035*
X00487Y04041*
Y04048*
X00484Y04054*
X00479Y04059*
X00473Y04062*
G37*
G36*
X00649Y03954D02*
X0064D01*
X00631Y03952*
X00623Y03947*
X00617Y03941*
X00612Y03933*
X0061Y03924*
Y03915*
X00612Y03906*
X00617Y03898*
X00623Y03892*
X00631Y03887*
X0064Y03885*
X00649*
X00658Y03887*
X00666Y03892*
X00672Y03898*
X00677Y03906*
X00679Y03915*
Y03924*
X00677Y03933*
X00672Y03941*
X00666Y03947*
X00658Y03952*
X00649Y03954*
G37*
G36*
X00684Y03859D02*
X00655D01*
Y0383*
X00684*
Y03859*
G37*
G36*
X00635D02*
X00605D01*
Y0383*
X00635*
Y03859*
G37*
G36*
X00684Y0381D02*
X00655D01*
Y0378*
X00684*
Y0381*
G37*
G36*
X00635D02*
X00605D01*
Y0378*
X00635*
Y0381*
G37*
G36*
X00543Y04062D02*
X00536D01*
X0053Y04059*
X00525Y04054*
X00522Y04048*
Y04041*
X00525Y04035*
X0053Y0403*
X00536Y04027*
X00543*
X00563Y04007*
Y03756*
X00558Y03752*
X00555Y03745*
Y03738*
X00558Y03732*
X00563Y03727*
X00569Y03724*
X00576*
X00583Y03727*
X00588Y03732*
X0059Y03738*
Y03745*
X00588Y03752*
X00583Y03756*
Y04011*
X00582Y04015*
X0058Y04018*
X00557Y04041*
Y04048*
X00554Y04054*
X00549Y04059*
X00543Y04062*
G37*
G36*
X00508Y04017D02*
X00501D01*
X00495Y04014*
X0049Y04009*
X00487Y04003*
Y03996*
X0049Y0399*
X00495Y03985*
X00501Y03982*
X00508*
X00524Y03965*
Y03714*
X0052Y03709*
X00517Y03703*
Y03696*
X0052Y0369*
X00525Y03685*
X00531Y03682*
X00538*
X00544Y03685*
X00549Y0369*
X00552Y03696*
Y03703*
X00549Y03709*
X00545Y03714*
Y0397*
X00544Y03973*
X00542Y03977*
X00522Y03996*
Y04003*
X00519Y04009*
X00514Y04014*
X00508Y04017*
G37*
G36*
X0055Y03523D02*
Y035D01*
X00573*
X00572Y03503*
X00568Y03511*
X00561Y03518*
X00553Y03522*
X0055Y03523*
G37*
G36*
X0053D02*
X00526Y03522D01*
X00518Y03518*
X00511Y03511*
X00507Y03503*
X00506Y035*
X0053*
Y03523*
G37*
G36*
X00573Y0348D02*
X0055D01*
Y03456*
X00553Y03457*
X00554Y03457*
X00558Y0346*
X00561Y03461*
X00568Y03468*
X00572Y03476*
X00573Y0348*
G37*
G36*
X0053D02*
X00506D01*
X00507Y03476*
X00511Y03468*
X00518Y03461*
X00521Y0346*
X00526Y03457*
X0053Y03456*
Y0348*
G37*
G36*
X04803Y03487D02*
X04796D01*
X0479Y03484*
X04785Y03479*
X04782Y03473*
Y03466*
X04785Y0346*
X0479Y03455*
X04796Y03452*
X04803*
X04809Y03455*
X04814Y0346*
X04814Y0346*
X04817Y03466*
Y03473*
X04814Y03479*
X04809Y03484*
X04803Y03487*
G37*
G36*
X05065Y03408D02*
Y03385D01*
X05088*
X05087Y03388*
X05083Y03396*
X05076Y03403*
X05068Y03407*
X05065Y03408*
G37*
G36*
X05045D02*
X05041Y03407D01*
X05033Y03403*
X05026Y03396*
X05022Y03388*
X05021Y03385*
X05045*
Y03408*
G37*
G36*
X05088Y03365D02*
X05065D01*
Y03341*
X05068Y03342*
X05076Y03346*
X05083Y03353*
X05087Y03361*
X05088Y03365*
G37*
G36*
X05045D02*
X05021D01*
X05022Y03361*
X05026Y03353*
X05033Y03346*
X05041Y03342*
X05045Y03341*
Y03365*
G37*
G36*
X0055Y03108D02*
Y03085D01*
X00573*
X00572Y03088*
X00568Y03096*
X00561Y03103*
X00553Y03107*
X0055Y03108*
G37*
G36*
X0053D02*
X00526Y03107D01*
X00518Y03103*
X00511Y03096*
X00507Y03088*
X00506Y03085*
X0053*
Y03108*
G37*
G36*
X00573Y03065D02*
X0055D01*
Y03041*
X00553Y03042*
X00561Y03046*
X00568Y03053*
X00572Y03061*
X00573Y03065*
G37*
G36*
X0053D02*
X00506D01*
X00507Y03061*
X00511Y03053*
X00518Y03046*
X00526Y03042*
X0053Y03041*
Y03065*
G37*
G36*
X04803Y03072D02*
X04796D01*
X0479Y03069*
X04785Y03064*
X04782Y03058*
Y03051*
X04785Y03045*
X0479Y0304*
X04796Y03037*
X04803*
X04809Y0304*
X04814Y03045*
X04817Y03051*
Y03058*
X04814Y03064*
X04809Y03069*
X04803Y03072*
G37*
G36*
X00839Y03089D02*
X0077D01*
Y0302*
X00839*
Y03089*
G37*
G36*
X05065Y02993D02*
Y0297D01*
X05088*
X05087Y02973*
X05083Y02981*
X05076Y02988*
X05068Y02992*
X05065Y02993*
G37*
G36*
X05045D02*
X05041Y02992D01*
X05033Y02988*
X05026Y02981*
X05022Y02973*
X05021Y0297*
X05045*
Y02993*
G37*
G36*
X00798Y02997D02*
X00791D01*
X00785Y02994*
X0078Y02989*
X00777Y02983*
Y02976*
X0078Y0297*
X00785Y02965*
X00791Y02962*
X00798*
X00804Y02965*
X00809Y0297*
X00812Y02976*
Y02983*
X00809Y02989*
X00804Y02994*
X00798Y02997*
G37*
G36*
X05088Y0295D02*
X05065D01*
Y02926*
X05068Y02927*
X05076Y02931*
X05083Y02938*
X05087Y02946*
X05088Y0295*
G37*
G36*
X05045D02*
X05021D01*
X05022Y02946*
X05026Y02938*
X05033Y02931*
X05041Y02927*
X05045Y02926*
Y0295*
G37*
G36*
X0055Y02688D02*
Y02665D01*
X00573*
X00572Y02668*
X00568Y02676*
X00561Y02683*
X00553Y02687*
X0055Y02688*
G37*
G36*
X0053D02*
X00526Y02687D01*
X00518Y02683*
X00511Y02676*
X00507Y02668*
X00506Y02665*
X0053*
Y02688*
G37*
G36*
X00573Y02645D02*
X0055D01*
Y02621*
X00553Y02622*
X00561Y02626*
X00568Y02633*
X00572Y02641*
X00573Y02645*
G37*
G36*
X0053D02*
X00506D01*
X00507Y02641*
X00511Y02633*
X00518Y02626*
X00526Y02622*
X0053Y02621*
Y02645*
G37*
G36*
X05065Y02578D02*
Y02555D01*
X05088*
X05087Y02558*
X05083Y02566*
X05076Y02573*
X05068Y02577*
X05065Y02578*
G37*
G36*
X05045D02*
X05041Y02577D01*
X05033Y02573*
X05026Y02566*
X05022Y02558*
X05021Y02555*
X05045*
Y02578*
G37*
G36*
X00798Y02577D02*
X00791D01*
X00785Y02574*
X0078Y02569*
X00777Y02563*
Y02556*
X0078Y0255*
X00785Y02545*
X00791Y02542*
X00798*
X00804Y02545*
X00809Y0255*
X00812Y02556*
Y02563*
X00809Y02569*
X00804Y02574*
X00798Y02577*
G37*
G36*
X05088Y02535D02*
X05065D01*
Y02511*
X05068Y02512*
X05076Y02516*
X05083Y02523*
X05087Y02531*
X05088Y02535*
G37*
G36*
X05045D02*
X05021D01*
X05022Y02531*
X05026Y02523*
X05033Y02516*
X05041Y02512*
X05045Y02511*
Y02535*
G37*
G36*
X04934Y0221D02*
X0491D01*
Y02186*
X04914Y02187*
X04921Y02191*
X04928Y02198*
X04933Y02206*
X04934Y0221*
G37*
G36*
X0489D02*
X04866D01*
X04867Y02206*
X04872Y02198*
X04879Y02191*
X04886Y02187*
X0489Y02186*
Y0221*
G37*
G36*
X05013Y06555D02*
X05006D01*
X04998Y06552*
X04991Y06549*
X04985Y06543*
X04982Y06536*
X0498Y06528*
Y06521*
X04982Y06513*
X04985Y06506*
X04991Y065*
X04998Y06497*
X05006Y06495*
X05013*
X05017Y06495*
X05369Y06143*
Y02481*
X05026Y02138*
X05023Y02133*
X05022Y02127*
Y02018*
X04721Y01717*
X04714Y01719*
X04705*
X04696Y01717*
X04688Y01712*
X04682Y01706*
X04677Y01698*
X04675Y01689*
Y0168*
X04677Y01671*
X04682Y01663*
X04688Y01657*
X04696Y01652*
X04705Y0165*
X04714*
X04723Y01652*
X04731Y01657*
X04737Y01663*
X04742Y01671*
X04744Y0168*
Y01689*
X04742Y01696*
X05048Y02001*
X0505Y02004*
X05055Y02*
X05061Y01997*
X05068*
X05074Y02*
X05079Y02005*
X05082Y02011*
Y02018*
X05079Y02024*
X05074Y02029*
X05068Y02032*
X05061*
X05057Y0203*
X05052Y02034*
Y0208*
X05057Y02084*
X05061Y02082*
X05068*
X05074Y02085*
X05079Y0209*
X05082Y02096*
Y02103*
X05079Y02109*
X05074Y02114*
X05068Y02117*
X05061*
X0506Y02117*
X05055Y0212*
X05055Y02123*
X05395Y02464*
X05399Y02469*
X054Y02475*
Y0615*
X05399Y06155*
X05395Y0616*
X05039Y06517*
X0504Y06521*
Y06528*
X05037Y06536*
X05034Y06543*
X05028Y06549*
X05021Y06552*
X05013Y06555*
G37*
G36*
X05068Y01947D02*
X05061D01*
X05055Y01944*
X0505Y01939*
X05047Y01933*
Y01926*
X0505Y0192*
X05055Y01915*
X05061Y01912*
X05068*
X05074Y01915*
X05079Y0192*
X05082Y01926*
Y01933*
X05079Y01939*
X05074Y01944*
X05068Y01947*
G37*
G36*
X00645Y01742D02*
X00638D01*
X00632Y01739*
X00627Y01735*
X00624Y01728*
Y01721*
X00627Y01715*
X00632Y0171*
X00638Y01707*
X00645*
X00652Y0171*
X00657Y01715*
X00659Y01721*
Y01728*
X00657Y01735*
X00652Y01739*
X00645Y01742*
G37*
G36*
X04623Y01702D02*
X04616D01*
X0461Y01699*
X04605Y01694*
X04602Y01688*
Y01681*
X04605Y01675*
X0461Y0167*
X04616Y01667*
X04623*
X04629Y0167*
X04634Y01675*
X04637Y01681*
Y01688*
X04634Y01694*
X04629Y01699*
X04623Y01702*
G37*
G36*
X04834Y01719D02*
X04825D01*
X04816Y01717*
X04808Y01712*
X04802Y01706*
X04797Y01698*
X04795Y01689*
Y0168*
X04797Y01671*
X04802Y01663*
X04808Y01657*
X04816Y01652*
X04825Y0165*
X04834*
X04843Y01652*
X04851Y01657*
X04857Y01663*
X04862Y01671*
X04864Y0168*
Y01689*
X04862Y01698*
X04857Y01706*
X04851Y01712*
X04843Y01717*
X04834Y01719*
G37*
G36*
X00793Y01649D02*
X00789Y01648D01*
X00781Y01644*
X00775Y01637*
X0077Y01629*
X00769Y01626*
X00793*
Y01649*
G37*
G36*
Y01606D02*
X00769D01*
X0077Y01602*
X00775Y01594*
X00781Y01588*
X00789Y01583*
X00793Y01582*
Y01606*
G37*
G36*
X00643Y01607D02*
X00636D01*
X0063Y01604*
X00625Y01599*
X00622Y01593*
Y01586*
X00625Y0158*
X0063Y01575*
X00636Y01572*
X00643*
X00649Y01575*
X00654Y0158*
X00657Y01586*
Y01593*
X00654Y01599*
X00649Y01604*
X00643Y01607*
G37*
G36*
X00683Y01437D02*
X00676D01*
X0067Y01434*
X00665Y01429*
X00662Y01423*
Y01416*
X00665Y0141*
X0067Y01405*
X00676Y01402*
X00683*
X00689Y01405*
X00694Y0141*
X00697Y01416*
Y01423*
X00694Y01429*
X00689Y01434*
X00683Y01437*
G37*
G36*
X02718Y01402D02*
X02711D01*
X02705Y01399*
X027Y01394*
X02697Y01388*
Y01381*
X027Y01375*
X02705Y0137*
X02711Y01367*
X02718*
X02724Y0137*
X02729Y01375*
X02732Y01381*
Y01388*
X02729Y01394*
X02724Y01399*
X02718Y01402*
G37*
G36*
X00742Y01344D02*
X00735D01*
X00728Y01341*
X00724Y01336*
X00721Y0133*
Y01323*
X00724Y01317*
X00728Y01312*
X00735Y01309*
X00742*
X00748Y01312*
X00753Y01317*
X00756Y01323*
Y0133*
X00753Y01336*
X00748Y01341*
X00742Y01344*
G37*
G36*
X00813Y01342D02*
X00806D01*
X008Y01339*
X00795Y01334*
X00792Y01328*
Y01321*
X00795Y01315*
X008Y0131*
X00806Y01307*
X00813*
X00819Y0131*
X00824Y01315*
X00827Y01321*
Y01328*
X00824Y01334*
X00819Y01339*
X00813Y01342*
G37*
G36*
X03752Y01282D02*
X03745D01*
X03739Y01279*
X03734Y01274*
X03731Y01268*
Y01261*
X03734Y01254*
X03739Y01249*
X03745Y01247*
X03752*
X03759Y01249*
X03763Y01254*
X03766Y01261*
Y01268*
X03763Y01274*
X03759Y01279*
X03752Y01282*
G37*
G36*
X00763Y01275D02*
X00756D01*
X0075Y01272*
X00745Y01267*
X00742Y0126*
Y01255*
X00729Y01242*
X00726Y01238*
X00725Y01233*
Y01223*
X00605Y01103*
X00598Y01105*
X00591*
X00583Y01102*
X00576Y01099*
X0057Y01093*
X00567Y01086*
X00565Y01078*
Y01071*
X00567Y01063*
X0057Y01056*
X00576Y0105*
X00583Y01047*
X00591Y01045*
X00598*
X00606Y01047*
X00613Y0105*
X00619Y01056*
X00622Y01063*
X00625Y01071*
Y01078*
X00623Y01085*
X00747Y01209*
X0075Y01213*
X00751Y01218*
Y01228*
X00763Y0124*
X00763*
X00769Y01242*
X00774Y01247*
X00777Y01254*
Y0126*
X00774Y01267*
X00769Y01272*
X00763Y01275*
G37*
G36*
X03556Y01191D02*
X03543D01*
X03532Y01188*
X03521Y01182*
X03512Y01173*
X03506Y01162*
X03503Y01151*
Y01138*
X03506Y01127*
X03512Y01116*
X03521Y01107*
X03532Y01101*
X03543Y01098*
X03556*
X03567Y01101*
X03578Y01107*
X03587Y01116*
X03593Y01127*
X03596Y01138*
Y01151*
X03593Y01162*
X03587Y01173*
X03578Y01182*
X03567Y01188*
X03556Y01191*
G37*
G36*
X03356D02*
X03343D01*
X03332Y01188*
X03321Y01182*
X03312Y01173*
X03306Y01162*
X03303Y01151*
Y01138*
X03306Y01127*
X03312Y01116*
X03321Y01107*
X03332Y01101*
X03343Y01098*
X03356*
X03367Y01101*
X03378Y01107*
X03387Y01116*
X03393Y01127*
X03396Y01138*
Y01151*
X03393Y01162*
X03387Y01173*
X03378Y01182*
X03367Y01188*
X03356Y01191*
G37*
G36*
X03455Y01089D02*
X03444D01*
X03432Y01086*
X03422Y0108*
X03414Y01072*
X03408Y01062*
X03405Y0105*
Y01039*
X03408Y01027*
X03414Y01017*
X03422Y01009*
X03432Y01003*
X03444Y01*
X03455*
X03467Y01003*
X03477Y01009*
X03485Y01017*
X03491Y01027*
X03494Y01039*
Y0105*
X03491Y01062*
X03485Y01072*
X03477Y0108*
X03467Y01086*
X03455Y01089*
G37*
G36*
X00806Y01134D02*
X00799D01*
X00792Y01132*
X00788Y01127*
X00785Y0112*
Y01113*
X00788Y01107*
X0079Y01105*
Y00978*
X0075Y00938*
X00743Y0094*
X00736*
X00728Y00937*
X00721Y00934*
X00715Y00928*
X00712Y00921*
X0071Y00913*
Y00906*
X00712Y00898*
X00715Y00891*
X00721Y00885*
X00728Y00882*
X00736Y0088*
X00743*
X00746Y0088*
X00748Y00876*
X00745Y00873*
X00742Y00866*
X0074Y00858*
Y00851*
X00742Y00843*
X00745Y00836*
X00751Y0083*
X00758Y00827*
X00766Y00825*
X00773*
X00781Y00827*
X00788Y0083*
X00794Y00836*
X00797Y00843*
X008Y00851*
Y00858*
X00798Y00865*
X00854Y0092*
X00856Y00925*
X00857Y0093*
Y01077*
X00859Y0108*
X00862Y01086*
Y01093*
X00859Y01099*
X00854Y01104*
X00848Y01107*
X00841*
X00835Y01104*
X0083Y01099*
X00827Y01093*
Y01086*
X0083Y0108*
X00832Y01077*
Y00935*
X0078Y00883*
X00773Y00885*
X00766*
X00763Y00884*
X00761Y00888*
X00764Y00891*
X00767Y00898*
X0077Y00906*
Y00913*
X00768Y0092*
X00811Y00963*
X00814Y00967*
X00815Y00972*
Y01105*
X00817Y01107*
X0082Y01113*
Y0112*
X00817Y01127*
X00812Y01132*
X00806Y01134*
G37*
G36*
X00813Y01255D02*
X00806D01*
X008Y01252*
X00795Y01247*
X00792Y0124*
Y01238*
X00774Y0122*
X00771Y01215*
X0077Y01211*
Y01209*
X0064Y01079*
X00638Y01075*
X00637Y0107*
Y01047*
X00631Y01044*
X00625Y01038*
X00622Y01031*
X0062Y01023*
Y01016*
X00622Y01008*
X00625Y01001*
X00631Y00995*
X00638Y00992*
X00646Y0099*
X00653*
X00661Y00992*
X00668Y00995*
X00674Y01001*
X00677Y01007*
X00682Y01005*
Y00983*
X00678Y00982*
X00671Y00979*
X00665Y00973*
X00662Y00966*
X0066Y00958*
Y00951*
X00662Y00943*
X00665Y00936*
X00671Y0093*
X00678Y00927*
X00686Y00925*
X00693*
X00701Y00927*
X00708Y0093*
X00714Y00936*
X00717Y00943*
X0072Y00951*
Y00958*
X00717Y00966*
X00714Y00973*
X00708Y00979*
X00707Y00979*
Y01072*
X00813Y01177*
X00813*
X00819Y0118*
X00824Y01185*
X00827Y01191*
Y01198*
X00824Y01204*
X00819Y01209*
X00813Y01212*
X00812*
X0081Y01217*
X00812Y0122*
X00813*
X00819Y01222*
X00824Y01227*
X00827Y01234*
Y0124*
X00824Y01247*
X00819Y01252*
X00813Y01255*
G37*
G36*
X03556Y00991D02*
X03543D01*
X03532Y00988*
X03521Y00982*
X03512Y00973*
X03506Y00962*
X03503Y00951*
Y00938*
X03506Y00927*
X03512Y00916*
X03521Y00907*
X03532Y00901*
X03543Y00898*
X03556*
X03567Y00901*
X03578Y00907*
X03587Y00916*
X03593Y00927*
X03596Y00938*
Y00951*
X03593Y00962*
X03587Y00973*
X03578Y00982*
X03567Y00988*
X03556Y00991*
G37*
G36*
X03356D02*
X03343D01*
X03332Y00988*
X03321Y00982*
X03312Y00973*
X03306Y00962*
X03303Y00951*
Y00938*
X03306Y00927*
X03312Y00916*
X03321Y00907*
X03332Y00901*
X03343Y00898*
X03356*
X03367Y00901*
X03378Y00907*
X03387Y00916*
X03393Y00927*
X03396Y00938*
Y00951*
X03393Y00962*
X03387Y00973*
X03378Y00982*
X03367Y00988*
X03356Y00991*
G37*
G36*
X03Y00918D02*
Y00895D01*
X03023*
X03022Y00898*
X03018Y00906*
X03011Y00913*
X03003Y00917*
X03Y00918*
G37*
G36*
X04128Y0081D02*
X04121D01*
X04113Y00807*
X04106Y00804*
X041Y00798*
X04097Y00791*
X04095Y00783*
Y00776*
X04097Y00768*
X041Y00761*
X04106Y00755*
X04113Y00752*
X04121Y0075*
X04128*
X04136Y00752*
X04143Y00755*
X04149Y00761*
X04152Y00768*
X04155Y00776*
Y00783*
X04152Y00791*
X04149Y00798*
X04143Y00804*
X04136Y00807*
X04128Y0081*
G37*
G36*
X02471Y00811D02*
X02458D01*
X02447Y00808*
X02436Y00802*
X02427Y00793*
X02421Y00782*
X02418Y00771*
Y00758*
X02421Y00747*
X02427Y00736*
X02436Y00727*
X02447Y00721*
X02458Y00718*
X02471*
X02482Y00721*
X02493Y00727*
X02502Y00736*
X02508Y00747*
X02511Y00758*
Y00771*
X02508Y00782*
X02502Y00793*
X02493Y00802*
X02482Y00808*
X02471Y00811*
G37*
G36*
X02271D02*
X02258D01*
X02247Y00808*
X02236Y00802*
X02227Y00793*
X02221Y00782*
X02218Y00771*
Y00758*
X02221Y00747*
X02227Y00736*
X02236Y00727*
X02247Y00721*
X02258Y00718*
X02271*
X02282Y00721*
X02293Y00727*
X02302Y00736*
X02308Y00747*
X02311Y00758*
Y00771*
X02308Y00782*
X02302Y00793*
X02293Y00802*
X02282Y00808*
X02271Y00811*
G37*
G36*
X01971D02*
X01958D01*
X01947Y00808*
X01936Y00802*
X01927Y00793*
X01921Y00782*
X01918Y00771*
Y00758*
X01921Y00747*
X01927Y00736*
X01936Y00727*
X01947Y00721*
X01958Y00718*
X01971*
X01982Y00721*
X01993Y00727*
X02002Y00736*
X02008Y00747*
X02011Y00758*
Y00771*
X02008Y00782*
X02002Y00793*
X01993Y00802*
X01982Y00808*
X01971Y00811*
G37*
G36*
X02833Y00737D02*
X02826D01*
X0282Y00734*
X02815Y00729*
X02812Y00723*
Y00716*
X02815Y0071*
X0282Y00705*
X02826Y00702*
X02833*
X02839Y00705*
X02844Y0071*
X02847Y00716*
Y00723*
X02844Y00729*
X02839Y00734*
X02833Y00737*
G37*
G36*
X04128Y0073D02*
X04121D01*
X04113Y00727*
X04106Y00724*
X041Y00718*
X04097Y00711*
X04095Y00703*
Y00696*
X04097Y00688*
X041Y00681*
X04106Y00675*
X04113Y00672*
X04121Y0067*
X04128*
X04136Y00672*
X04143Y00675*
X04149Y00681*
X04152Y00688*
X04155Y00696*
Y00703*
X04152Y00711*
X04149Y00718*
X04143Y00724*
X04136Y00727*
X04128Y0073*
G37*
G36*
X02934Y00734D02*
X02925D01*
X02916Y00732*
X02908Y00727*
X02902Y00721*
X02897Y00713*
X02895Y00704*
Y00695*
X02897Y00686*
X02902Y00678*
X02908Y00672*
X02916Y00667*
X02925Y00665*
X02934*
X02943Y00667*
X02951Y00672*
X02957Y00678*
X02962Y00686*
X02964Y00695*
Y00704*
X02962Y00713*
X02957Y00721*
X02951Y00727*
X02943Y00732*
X02934Y00734*
G37*
G36*
X0542Y00759D02*
Y0066D01*
X05519*
X05517Y00675*
X05511Y00692*
X05504Y00707*
X05493Y00721*
X05481Y00733*
X05467Y00744*
X05452Y00751*
X05435Y00757*
X0542Y00759*
G37*
G36*
X054D02*
X05384Y00757D01*
X05367Y00751*
X05352Y00744*
X05338Y00733*
X05326Y00721*
X05315Y00707*
X05308Y00692*
X05302Y00675*
X053Y0066*
X054*
Y00759*
G37*
G36*
X0016D02*
Y0066D01*
X00259*
X00257Y00675*
X00251Y00692*
X00244Y00707*
X00233Y00721*
X00221Y00733*
X00207Y00744*
X00192Y00751*
X00175Y00757*
X0016Y00759*
G37*
G36*
X0014D02*
X00124Y00757D01*
X00107Y00751*
X00092Y00744*
X00078Y00733*
X00066Y00721*
X00055Y00707*
X00048Y00692*
X00042Y00675*
X0004Y0066*
X0014*
Y00759*
G37*
G36*
X03663Y00705D02*
X03656D01*
X03648Y00702*
X03641Y00699*
X03635Y00693*
X03632Y00686*
X0363Y00678*
Y00671*
X03632Y00663*
X03635Y00656*
X03641Y0065*
X03648Y00647*
X03656Y00645*
X03663*
X03671Y00647*
X03678Y0065*
X03684Y00656*
X03687Y00663*
X0369Y00671*
Y00678*
X03687Y00686*
X03684Y00693*
X03678Y00699*
X03671Y00702*
X03663Y00705*
G37*
G36*
X0237Y00709D02*
X02359D01*
X02347Y00706*
X02337Y007*
X02329Y00692*
X02323Y00682*
X0232Y0067*
Y00659*
X02323Y00647*
X02329Y00637*
X02337Y00629*
X02347Y00623*
X02359Y0062*
X0237*
X02382Y00623*
X02392Y00629*
X024Y00637*
X02406Y00647*
X02409Y00659*
Y0067*
X02406Y00682*
X024Y00692*
X02392Y007*
X02382Y00706*
X0237Y00709*
G37*
G36*
X0187D02*
X01859D01*
X01847Y00706*
X01837Y007*
X01829Y00692*
X01823Y00682*
X0182Y0067*
Y00659*
X01823Y00647*
X01829Y00637*
X01837Y00629*
X01847Y00623*
X01859Y0062*
X0187*
X01882Y00623*
X01892Y00629*
X019Y00637*
X01906Y00647*
X01909Y00659*
Y0067*
X01906Y00682*
X019Y00692*
X01892Y007*
X01882Y00706*
X0187Y00709*
G37*
G36*
X04128Y00645D02*
X04121D01*
X04113Y00642*
X04106Y00639*
X041Y00633*
X04097Y00626*
X04095Y00618*
Y00611*
X04097Y00603*
X041Y00596*
X04106Y0059*
X04113Y00587*
X04121Y00585*
X04128*
X04136Y00587*
X04143Y0059*
X04149Y00596*
X04152Y00603*
X04155Y00611*
Y00618*
X04152Y00626*
X04149Y00633*
X04143Y00639*
X04136Y00642*
X04128Y00645*
G37*
G36*
X05519Y0064D02*
X0542D01*
Y0054*
X05435Y00542*
X05452Y00548*
X05467Y00555*
X05481Y00566*
X05493Y00578*
X05504Y00592*
X05511Y00607*
X05517Y00624*
X05519Y0064*
G37*
G36*
X054D02*
X053D01*
X05302Y00624*
X05308Y00607*
X05315Y00592*
X05326Y00578*
X05338Y00566*
X05352Y00555*
X05367Y00548*
X05384Y00542*
X054Y0054*
Y0064*
G37*
G36*
X00259D02*
X0016D01*
Y0054*
X00175Y00542*
X00192Y00548*
X00207Y00555*
X00221Y00566*
X00233Y00578*
X00244Y00592*
X00251Y00607*
X00257Y00624*
X00259Y0064*
G37*
G36*
X0014D02*
X0004D01*
X00042Y00624*
X00048Y00607*
X00055Y00592*
X00066Y00578*
X00078Y00566*
X00092Y00555*
X00107Y00548*
X00124Y00542*
X0014Y0054*
Y0064*
G37*
G36*
X02471Y00611D02*
X02458D01*
X02447Y00608*
X02436Y00602*
X02427Y00593*
X02421Y00582*
X02418Y00571*
Y00558*
X02421Y00547*
X02427Y00536*
X02436Y00527*
X02447Y00521*
X02458Y00518*
X02471*
X02482Y00521*
X02493Y00527*
X02502Y00536*
X02508Y00547*
X02511Y00558*
Y00571*
X02508Y00582*
X02502Y00593*
X02493Y00602*
X02482Y00608*
X02471Y00611*
G37*
G36*
X02271D02*
X02258D01*
X02247Y00608*
X02236Y00602*
X02227Y00593*
X02221Y00582*
X02218Y00571*
Y00558*
X02221Y00547*
X02227Y00536*
X02236Y00527*
X02247Y00521*
X02258Y00518*
X02271*
X02282Y00521*
X02293Y00527*
X02302Y00536*
X02308Y00547*
X02311Y00558*
Y00571*
X02308Y00582*
X02302Y00593*
X02293Y00602*
X02282Y00608*
X02271Y00611*
G37*
G36*
X01971D02*
X01958D01*
X01947Y00608*
X01936Y00602*
X01927Y00593*
X01921Y00582*
X01918Y00571*
Y00558*
X01921Y00547*
X01927Y00536*
X01936Y00527*
X01947Y00521*
X01958Y00518*
X01971*
X01982Y00521*
X01993Y00527*
X02002Y00536*
X02008Y00547*
X02011Y00558*
Y00571*
X02008Y00582*
X02002Y00593*
X01993Y00602*
X01982Y00608*
X01971Y00611*
G37*
G36*
X01771D02*
X01758D01*
X01747Y00608*
X01736Y00602*
X01727Y00593*
X01721Y00582*
X01718Y00571*
Y00558*
X01721Y00547*
X01727Y00536*
X01736Y00527*
X01747Y00521*
X01758Y00518*
X01771*
X01782Y00521*
X01793Y00527*
X01802Y00536*
X01808Y00547*
X01811Y00558*
Y00571*
X01808Y00582*
X01802Y00593*
X01793Y00602*
X01782Y00608*
X01771Y00611*
G37*
G36*
X03955Y00528D02*
Y00505D01*
X03978*
X03977Y00508*
X03973Y00516*
X03966Y00523*
X03958Y00527*
X03955Y00528*
G37*
G36*
X03935D02*
X03931Y00527D01*
X03923Y00523*
X03916Y00516*
X03912Y00508*
X03911Y00505*
X03935*
Y00528*
G37*
G36*
X03729Y00935D02*
X037D01*
X03696Y00934*
X03693Y00932*
X03601Y0084*
X03598Y00836*
X03598Y00832*
Y00789*
X03308Y005*
X03163*
X03162Y00501*
X03159Y00508*
X03153Y00514*
X03146Y00517*
X03138Y0052*
X03131*
X03123Y00517*
X03116Y00514*
X0311Y00508*
X03107Y00501*
X03105Y00493*
Y00491*
X03104Y0049*
X031Y00488*
X03098Y00489*
Y00489*
X03094Y0049*
X0309Y0049*
X0309*
X02948*
X0294Y00489*
X02933Y00484*
X02914Y00465*
X0278*
X02772Y00463*
X02765Y00459*
X02761Y00452*
X02759Y00445*
X02761Y00437*
X02765Y0043*
X02772Y00426*
X0278Y00424*
X02835*
X02839Y00419*
X02837Y00415*
Y00409*
X0284Y00402*
X02845Y00397*
X02851Y00395*
X02858*
X02864Y00397*
X02869Y00402*
X02872Y00409*
Y00415*
X0287Y00419*
X02874Y00424*
X02922*
X0293Y00426*
X02937Y0043*
X02956Y0045*
X03026*
X0303Y00445*
X03028Y00441*
Y00438*
X02781Y00191*
X02778Y00192*
X02771*
X02765Y00189*
X0276Y00184*
X02757Y00178*
Y00171*
X0276Y00165*
X02765Y0016*
X02771Y00157*
X02778*
X02784Y0016*
X02789Y00165*
X02792Y00171*
Y00174*
X0293Y00312*
X02935Y00309*
X02935Y00308*
Y00301*
X02937Y00293*
X0294Y00286*
X02946Y0028*
X02953Y00277*
X02961Y00275*
X02968*
X02976Y00277*
X02983Y0028*
X02989Y00286*
X02992Y00293*
X02995Y00301*
Y00308*
X02992Y00316*
X02992Y00317*
X03084Y00409*
X03155*
X03157Y00404*
X03155Y00403*
X03152Y00396*
X0315Y0039*
X0314*
X03136Y00389*
X03132Y00387*
X03012Y00267*
X03011Y00267*
X03003Y0027*
X02996*
X02988Y00267*
X02981Y00264*
X02975Y00258*
X02972Y00251*
X0297Y00243*
Y00236*
X02972Y00228*
X02975Y00221*
X02981Y00215*
X02988Y00212*
X02996Y0021*
X03003*
X03011Y00212*
X03018Y00215*
X03024Y00221*
X03027Y00228*
X0303Y00236*
Y00243*
X03027Y00251*
X03027Y00252*
X03144Y00369*
X03154*
X03155Y00366*
X03161Y0036*
X03168Y00357*
X03176Y00355*
X03183*
X03191Y00357*
X03198Y0036*
X03204Y00366*
X03207Y00373*
X0321Y00381*
Y00388*
X03207Y00396*
X03204Y00403*
X03202Y00404*
X03204Y00409*
X03313*
X03317Y0041*
X03321Y00412*
X03757Y00848*
X03759Y00852*
X0376Y00856*
Y00904*
X03759Y00908*
X03757Y00911*
X03736Y00932*
X03733Y00934*
X03729Y00935*
G37*
G36*
X03978Y00485D02*
X03955D01*
Y00461*
X03958Y00462*
X03966Y00466*
X03973Y00473*
X03977Y00481*
X03978Y00485*
G37*
G36*
X03935D02*
X03911D01*
X03912Y00481*
X03916Y00473*
X03923Y00466*
X03931Y00462*
X03935Y00461*
Y00485*
G37*
G36*
X02613Y00447D02*
X02606D01*
X026Y00444*
X02595Y00439*
X02592Y00433*
Y00426*
X02595Y0042*
X026Y00415*
X02606Y00412*
X02613*
X02619Y00415*
X02624Y0042*
X02627Y00426*
Y00433*
X02624Y00439*
X02619Y00444*
X02613Y00447*
G37*
G36*
X04034Y00389D02*
X03965D01*
Y0032*
X04034*
Y00389*
G37*
G36*
X03904D02*
X03895D01*
X03886Y00387*
X03878Y00382*
X03872Y00376*
X03867Y00368*
X03865Y00359*
Y0035*
X03867Y00341*
X03872Y00333*
X03878Y00327*
X03886Y00322*
X03895Y0032*
X03904*
X03913Y00322*
X03921Y00327*
X03927Y00333*
X03932Y00341*
X03934Y0035*
Y00359*
X03932Y00368*
X03927Y00376*
X03921Y00382*
X03913Y00387*
X03904Y00389*
G37*
G36*
X03804D02*
X03795D01*
X03786Y00387*
X03778Y00382*
X03772Y00376*
X03767Y00368*
X03765Y00359*
Y0035*
X03767Y00341*
X03772Y00333*
X03778Y00327*
X03786Y00322*
X03795Y0032*
X03804*
X03813Y00322*
X03821Y00327*
X03827Y00333*
X03832Y00341*
X03834Y0035*
Y00359*
X03832Y00368*
X03827Y00376*
X03821Y00382*
X03813Y00387*
X03804Y00389*
G37*
G36*
X03704D02*
X03695D01*
X03686Y00387*
X03678Y00382*
X03672Y00376*
X03667Y00368*
X03665Y00359*
Y0035*
X03667Y00341*
X03672Y00333*
X03678Y00327*
X03686Y00322*
X03695Y0032*
X03704*
X03713Y00322*
X03721Y00327*
X03727Y00333*
X03732Y00341*
X03734Y0035*
Y00359*
X03732Y00368*
X03727Y00376*
X03721Y00382*
X03713Y00387*
X03704Y00389*
G37*
G36*
X03604D02*
X03595D01*
X03586Y00387*
X03578Y00382*
X03572Y00376*
X03567Y00368*
X03565Y00359*
Y0035*
X03567Y00341*
X03572Y00333*
X03578Y00327*
X03586Y00322*
X03595Y0032*
X03604*
X03613Y00322*
X03621Y00327*
X03627Y00333*
X03632Y00341*
X03634Y0035*
Y00359*
X03632Y00368*
X03627Y00376*
X03621Y00382*
X03613Y00387*
X03604Y00389*
G37*
G36*
X03504D02*
X03495D01*
X03486Y00387*
X03478Y00382*
X03472Y00376*
X03467Y00368*
X03465Y00359*
Y0035*
X03467Y00341*
X03472Y00333*
X03478Y00327*
X03486Y00322*
X03495Y0032*
X03504*
X03513Y00322*
X03521Y00327*
X03527Y00333*
X03532Y00341*
X03534Y0035*
Y00359*
X03532Y00368*
X03527Y00376*
X03521Y00382*
X03513Y00387*
X03504Y00389*
G37*
G36*
X02593Y00312D02*
X02586D01*
X0258Y00309*
X02575Y00304*
X02572Y00298*
Y00291*
X02575Y00285*
X0258Y0028*
X02586Y00277*
X02593*
X02599Y0028*
X02604Y00285*
X02607Y00291*
Y00298*
X02604Y00304*
X02599Y00309*
X02593Y00312*
G37*
G36*
X02423Y00297D02*
X02416D01*
X0241Y00294*
X02405Y00289*
X02402Y00283*
Y00276*
X02405Y0027*
X0241Y00265*
X02416Y00262*
X02423*
X02429Y00265*
X02434Y0027*
X02437Y00276*
Y00283*
X02434Y00289*
X02429Y00294*
X02423Y00297*
G37*
G36*
X0492Y00259D02*
Y0016D01*
X05019*
X05017Y00175*
X05011Y00192*
X05004Y00207*
X04993Y00221*
X04981Y00233*
X04967Y00244*
X04952Y00251*
X04935Y00257*
X0492Y00259*
G37*
G36*
X049D02*
X04884Y00257D01*
X04867Y00251*
X04852Y00244*
X04838Y00233*
X04826Y00221*
X04815Y00207*
X04808Y00192*
X04802Y00175*
X048Y0016*
X049*
Y00259*
G37*
G36*
X0066D02*
Y0016D01*
X00759*
X00757Y00175*
X00751Y00192*
X00744Y00207*
X00733Y00221*
X00721Y00233*
X00707Y00244*
X00692Y00251*
X00675Y00257*
X0066Y00259*
G37*
G36*
X0064D02*
X00624Y00257D01*
X00607Y00251*
X00592Y00244*
X00578Y00233*
X00566Y00221*
X00555Y00207*
X00548Y00192*
X00542Y00175*
X0054Y0016*
X0064*
Y00259*
G37*
G36*
X02718Y00182D02*
X02711D01*
X02705Y00179*
X027Y00174*
X02697Y00168*
Y00161*
X027Y00155*
X02705Y0015*
X02711Y00147*
X02718*
X02724Y0015*
X02729Y00155*
X02732Y00161*
Y00168*
X02729Y00174*
X02724Y00179*
X02718Y00182*
G37*
G36*
X05418Y00255D02*
X05401D01*
X05385Y00252*
X05369Y00247*
X05354Y00239*
X05341Y0023*
X05329Y00218*
X0532Y00205*
X05312Y0019*
X05307Y00174*
X05305Y00158*
Y00141*
X05307Y00125*
X05312Y00109*
X0532Y00094*
X05329Y00081*
X05341Y00069*
X05354Y0006*
X05369Y00052*
X05385Y00047*
X05401Y00045*
X05418*
X05434Y00047*
X0545Y00052*
X05465Y0006*
X05478Y00069*
X0549Y00081*
X05499Y00094*
X05507Y00109*
X05512Y00125*
X05515Y00141*
Y00158*
X05512Y00174*
X05507Y0019*
X05499Y00205*
X0549Y00218*
X05478Y0023*
X05465Y00239*
X0545Y00247*
X05434Y00252*
X05418Y00255*
G37*
G36*
X00158D02*
X00141D01*
X00125Y00252*
X00109Y00247*
X00094Y00239*
X00081Y0023*
X00069Y00218*
X0006Y00205*
X00052Y0019*
X00047Y00174*
X00045Y00158*
Y00141*
X00047Y00125*
X00052Y00109*
X0006Y00094*
X00069Y00081*
X00081Y00069*
X00094Y0006*
X00109Y00052*
X00125Y00047*
X00141Y00045*
X00158*
X00174Y00047*
X0019Y00052*
X00205Y0006*
X00218Y00069*
X0023Y00081*
X00239Y00094*
X00247Y00109*
X00252Y00125*
X00255Y00141*
Y00158*
X00252Y00174*
X00247Y0019*
X00239Y00205*
X0023Y00218*
X00218Y0023*
X00205Y00239*
X0019Y00247*
X00174Y00252*
X00158Y00255*
G37*
G36*
X05019Y0014D02*
X0492D01*
Y0004*
X04935Y00042*
X04952Y00048*
X04967Y00055*
X04981Y00066*
X04993Y00078*
X05004Y00092*
X05011Y00107*
X05017Y00124*
X05019Y0014*
G37*
G36*
X049D02*
X048D01*
X04802Y00124*
X04808Y00107*
X04815Y00092*
X04826Y00078*
X04838Y00066*
X04852Y00055*
X04867Y00048*
X04884Y00042*
X049Y0004*
Y0014*
G37*
G36*
X00759D02*
X0066D01*
Y0004*
X00675Y00042*
X00692Y00048*
X00707Y00055*
X00721Y00066*
X00733Y00078*
X00744Y00092*
X00751Y00107*
X00757Y00124*
X00759Y0014*
G37*
G36*
X0064D02*
X0054D01*
X00542Y00124*
X00548Y00107*
X00555Y00092*
X00566Y00078*
X00578Y00066*
X00592Y00055*
X00607Y00048*
X00624Y00042*
X0064Y0004*
Y0014*
G37*
%LNcfd_2channel_copper_signal_bot-3*%
%LPD*%
G36*
X02419Y046D02*
X0242Y04594D01*
X02424Y04589*
X02624Y04389*
X02629Y04385*
X02635Y04384*
X02776*
X02934Y04226*
Y04055*
X02544*
X02519Y04079*
X02735*
X0274Y04075*
X02746Y04072*
X02753*
X02759Y04075*
X02764Y0408*
X02767Y04086*
Y04093*
X02764Y04099*
X02764Y041*
X02766Y04105*
X02801*
X02805Y04106*
X02808Y04108*
X02813Y04113*
X02816Y04112*
X02823*
X02829Y04115*
X02834Y0412*
X02837Y04126*
Y04133*
X02834Y04139*
X02829Y04144*
X02823Y04147*
X02816*
X0281Y04144*
X02805Y04139*
X02802Y04133*
Y0413*
X02797Y04125*
X02526*
X02524Y0413*
X02527Y04133*
X02532Y04141*
X02534Y0415*
Y04159*
X02532Y04168*
X02527Y04176*
X02521Y04182*
X02513Y04187*
X02513Y04187*
X02513Y04192*
X02685*
X02689Y04193*
X02694Y04195*
X02761Y04263*
X02761Y04262*
X0277Y0426*
X02779*
X02788Y04262*
X02796Y04267*
X02802Y04273*
X02807Y04281*
X02809Y0429*
Y04299*
X02807Y04308*
X02802Y04316*
X02796Y04322*
X02788Y04327*
X02779Y04329*
X0277*
X02761Y04327*
X02753Y04322*
X02747Y04316*
X02742Y04308*
X0274Y04299*
Y0429*
X02742Y04281*
X02743Y04281*
X02679Y04217*
X02407*
X02404Y04219*
X02398Y04222*
X02391*
X02385Y04219*
X0238Y04214*
X02377Y04208*
Y04201*
X0238Y04195*
X02385Y0419*
X02391Y04187*
X02398*
X02404Y0419*
X02407Y04192*
X02486*
X02486Y04187*
X02486Y04187*
X02478Y04182*
X02472Y04176*
X02467Y04168*
X02465Y04159*
Y0415*
X02467Y04141*
X02471Y04135*
X02469Y0413*
X01349*
X01344Y04134*
X01338Y04137*
X01331*
X01325Y04134*
X0132Y04129*
X01317Y04123*
Y04116*
X0132Y0411*
X01325Y04105*
X01331Y04102*
X01334*
X01335Y04097*
X01335Y04097*
X0133Y04092*
X01327Y04085*
Y04079*
X01329Y04074*
X01328Y0407*
X01327Y04068*
X01325Y04067*
X01313Y04055*
X01285*
Y04504*
X01305*
Y0449*
X01374*
Y04559*
X01305*
Y04545*
X01285*
Y0501*
X01303*
X01306Y05005*
X01305Y04999*
Y0499*
X01307Y04981*
X01312Y04973*
X01318Y04967*
X01326Y04962*
X01335Y0496*
X01344*
X01353Y04962*
X01361Y04967*
X01367Y04973*
X01372Y04981*
X01374Y0499*
Y04999*
X01373Y05005*
X01376Y0501*
X01403*
X01406Y05005*
X01405Y04999*
Y0499*
X01407Y04981*
X01412Y04973*
X01418Y04967*
X01426Y04962*
X01435Y0496*
X01444*
X01453Y04962*
X01461Y04967*
X01467Y04973*
X01472Y04981*
X01474Y0499*
Y04999*
X01472Y05006*
X01476Y0501*
X01552*
Y0489*
X01553Y04885*
X01555Y0488*
X01676Y0476*
X0146*
Y0486*
X01474*
Y04929*
X01405*
Y0486*
X01419*
Y0476*
X01405*
X01401Y04758*
X01399Y04755*
Y04684*
X01401Y0468*
X01405Y04679*
X01405*
Y0461*
X01405*
X01401Y04609*
X01399Y04605*
Y04552*
X014Y04551*
Y0455*
X014Y0455*
X01401Y04549*
X01402Y04548*
X01402Y04547*
X01406Y04546*
X01409Y04542*
X01409Y04541*
X01409Y0454*
X01407Y04538*
X01405Y04529*
Y0452*
X01407Y04511*
X01409Y04509*
X01409Y04508*
X01409Y04507*
X01406Y04503*
X01402Y04502*
X01402Y04501*
X01401Y045*
X014Y04499*
X014Y04499*
Y04498*
X01399Y04497*
Y04245*
X01401Y04241*
X01405Y04239*
X02023*
X02024Y0424*
X02026Y0424*
X02026Y0424*
X02027Y04241*
X02027Y04242*
X02028Y04243*
X02029Y04247*
X0203Y04249*
X02033Y04252*
X02034Y04252*
X02038*
X02044Y04255*
X02049Y0426*
X02052Y04266*
Y04273*
X0205Y04278*
Y04287*
X02052Y04288*
X02053Y04289*
X02053Y04289*
X02054Y0429*
X02055Y04292*
X02055Y04292*
X02055Y04293*
Y04315*
X02067Y04303*
Y04296*
X0207Y0429*
X02075Y04285*
X02081Y04282*
X02088*
X02094Y04285*
X02099Y0429*
X02101Y04293*
X02106Y04294*
X02109Y04291*
Y04269*
X02105Y04264*
X02102Y04258*
Y04251*
X02105Y04245*
X0211Y0424*
X02116Y04237*
X02123*
X02129Y0424*
X02134Y04245*
X02137Y04251*
Y04258*
X02134Y04264*
X0213Y04269*
Y04296*
X02129Y043*
X02127Y04304*
X02072Y04359*
X02068Y04361*
X02064Y04362*
X02062*
X02033Y04391*
X02034Y04396*
X02038Y04398*
X02043Y04403*
X02045Y04409*
Y04416*
X02043Y04423*
X02038Y04428*
X02031Y0443*
X02024*
X02021Y04429*
X02016Y04432*
Y04437*
X02021Y0444*
X02024Y04439*
X02031*
X02038Y04441*
X02043Y04446*
X02045Y04453*
Y0446*
X02043Y04466*
X02038Y04471*
X02031Y04474*
X02024*
X02021Y04472*
X02016Y04475*
Y04481*
X02021Y04484*
X02024Y04482*
X02031*
X02038Y04485*
X02043Y0449*
X02045Y04496*
Y04503*
X02043Y04509*
X02038Y04514*
X02031Y04517*
X02024*
X02021Y04515*
X02016Y04518*
Y04524*
X02021Y04527*
X02024Y04525*
X02031*
X02038Y04528*
X02043Y04533*
X02045Y04539*
Y04546*
X02043Y04553*
X02038Y04558*
X02031Y0456*
X02024*
X02021Y04559*
X02016Y04562*
Y04567*
X02021Y0457*
X02024Y04569*
X02031*
X02038Y04571*
X02043Y04576*
X02045Y04583*
Y0459*
X02043Y04596*
X02038Y04601*
X02034Y04603*
X02033Y04608*
X02035Y04611*
X02036Y04615*
Y04737*
X02035Y04741*
X02033Y04744*
X0188Y04897*
X01876Y04899*
X01873Y049*
X01814*
X0173Y04983*
Y05003*
X01735Y05005*
X01738Y05002*
X01746Y04997*
X01755Y04995*
X01764*
X01773Y04997*
X01781Y05002*
X01787Y05008*
X01788Y0501*
X02419*
Y046*
G37*
G36*
X0431Y04818D02*
X04279Y04849D01*
Y04889*
X0421*
Y0482*
X0425*
X0431Y04761*
Y04488*
X04279Y04519*
Y04559*
X0421*
Y0449*
X0425*
X0431Y04431*
X04724Y04016*
Y03739*
X04719Y03737*
X04718Y03739*
X04711Y03742*
X04703Y03745*
X04696*
X04688Y03742*
X04681Y03739*
X04677Y03735*
X0454*
X04532Y03733*
X04525Y03729*
X04516Y03719*
X04513Y0372*
X04506*
X04498Y03717*
X04491Y03714*
X04485Y03708*
X04482Y03701*
X0448Y03693*
Y03686*
X04482Y03678*
X04485Y03671*
X04491Y03665*
X04498Y03662*
X04506Y0366*
X04513*
X04521Y03662*
X04528Y03665*
X04534Y03671*
X04537Y03678*
X04539Y03685*
X04548Y03694*
X04677*
X04681Y0369*
X04688Y03687*
X04696Y03685*
X04703*
X04711Y03687*
X04718Y0369*
X04719Y03692*
X04724Y0369*
Y03025*
X04726Y03017*
X0473Y0301*
X04735Y03006*
Y02529*
X04734Y02529*
X04733Y02529*
X04729Y02531*
Y02555*
X0465*
Y02525*
X04645Y02525*
X04528*
X04669Y02665*
X04673Y02672*
X04675Y0268*
Y03402*
X04679Y03406*
X04682Y03413*
X04685Y03421*
Y03428*
X04682Y03436*
X04679Y03443*
X04673Y03449*
X04666Y03452*
X04658Y03455*
X04651*
X04643Y03452*
X04636Y03449*
X0463Y03443*
X04627Y03436*
X04625Y03428*
Y03421*
X04627Y03413*
X0463Y03406*
X04634Y03402*
Y02688*
X04471Y02525*
X04305*
Y03013*
X0432Y03029*
X04324Y03034*
X04325Y0304*
Y04234*
X04328Y04235*
X04334Y04241*
X04337Y04248*
X0434Y04256*
Y04263*
X04337Y04271*
X04334Y04278*
X04328Y04284*
X04321Y04287*
X04313Y0429*
X04306*
X04305Y04289*
X04298Y04287*
X04291Y04284*
X04285Y04278*
X04282Y04271*
X0428Y04263*
Y04256*
X04282Y04248*
X04285Y04241*
X04291Y04235*
X04294Y04234*
Y04055*
X04028*
X03995Y04088*
Y04197*
X03999Y04201*
X04002Y04208*
X04005Y04216*
Y04223*
X04002Y04231*
X03999Y04238*
X03993Y04244*
X03986Y04247*
X03978Y0425*
X03971*
X03765Y04456*
Y04458*
X03762Y04466*
X03759Y04473*
X03757Y04474*
X03759Y04479*
X04125*
X04126Y0448*
X04127Y0448*
X04128Y0448*
X04129Y04481*
X04129Y04482*
X0413Y04483*
X04131Y04487*
X04133Y04489*
X04135Y04491*
X04136Y04491*
X0414Y0449*
X04149*
X04158Y04492*
X04166Y04497*
X04172Y04503*
X04177Y04511*
X04179Y0452*
Y04529*
X04177Y04538*
X04175Y0454*
X04178Y04546*
X04178Y04547*
X0418Y0455*
Y0455*
Y04605*
X0418Y04605*
X04179Y0461*
Y04679*
X0411*
Y04684*
X0411Y04686*
X04109Y04687*
X04109Y04688*
X04109Y04688*
X04107Y04689*
X04106Y04689*
X04101Y0469*
X041Y0469*
X041Y0469*
X03704*
X03702Y04691*
X03699Y04698*
X03696Y04701*
Y04704*
X03787Y04795*
X03791Y04795*
X03798*
X03806Y04797*
X03813Y048*
X03819Y04806*
X03822Y04813*
X03824Y04819*
X03825Y04819*
X04119*
X04122Y04821*
X04123Y04821*
X04129Y04824*
X04131Y04822*
X0414Y0482*
X04149*
X04158Y04822*
X04166Y04827*
X04172Y04833*
X04177Y04841*
X04179Y0485*
Y04859*
X04178Y04863*
X04178Y04864*
X0418Y04866*
X04182Y04868*
X04186Y04869*
X04187Y0487*
X04188Y0487*
X04189Y04871*
X04189Y04872*
X04189Y04873*
X0419Y04874*
Y0493*
X0419Y0493*
X0419Y04931*
X04189Y04936*
X04189Y04937*
X04188Y04939*
X04188Y04939*
X04187Y04939*
X04186Y0494*
X04184Y0494*
X04179*
Y05009*
X04184Y0501*
X04217*
X04219Y05005*
X04213Y04999*
X04208Y0499*
X04206Y04985*
X04283*
X04281Y0499*
X04276Y04999*
X0427Y05005*
X04272Y0501*
X0431*
Y04818*
G37*
G36*
X04105Y05014D02*
Y0501D01*
Y04985*
X04145*
Y04975*
X04155*
Y04935*
X04184*
X04185Y0493*
Y04874*
X0418Y04873*
X04176Y04879*
X04169Y04886*
X0416Y04891*
X04155Y04893*
Y04855*
X04145*
Y04845*
X04106*
X04108Y04839*
X04113Y0483*
X04119Y04825*
X03825*
Y04828*
X03822Y04836*
X03819Y04843*
X03813Y04849*
X03806Y04852*
X03798Y04855*
X03791*
X03783Y04852*
X03776Y04849*
X0377Y04843*
X03767Y04836*
X03765Y04828*
Y04825*
X02553*
X0255Y04828*
X02544Y0483*
X02537*
X0253Y04828*
X02527Y04825*
X025*
X02492Y04832*
X025Y04835*
X02506Y04842*
X02507Y04845*
X02487*
Y04855*
X02477*
Y04875*
X02475Y04874*
Y04983*
X02506Y05015*
X02801*
X02798Y05006*
Y04993*
X02801Y04982*
X02807Y04971*
X02816Y04962*
X02827Y04956*
X02838Y04953*
X02851*
X02862Y04956*
X02873Y04962*
X02882Y04971*
X02888Y04982*
X02891Y04993*
Y05006*
X02888Y05015*
X03001*
X02998Y05006*
Y04993*
X03001Y04982*
X03007Y04971*
X03016Y04962*
X03027Y04956*
X03038Y04953*
X03051*
X03062Y04956*
X03073Y04962*
X03082Y04971*
X03088Y04982*
X03091Y04993*
Y05006*
X03088Y05015*
X03301*
X03298Y05006*
Y04993*
X03301Y04982*
X03307Y04971*
X03316Y04962*
X03327Y04956*
X03338Y04953*
X03351*
X03362Y04956*
X03373Y04962*
X03382Y04971*
X03388Y04982*
X03391Y04993*
Y05006*
X03388Y05015*
X03501*
X03498Y05006*
Y04993*
X03501Y04982*
X03507Y04971*
X03516Y04962*
X03527Y04956*
X03538Y04953*
X03551*
X03562Y04956*
X03573Y04962*
X03582Y04971*
X03588Y04982*
X03591Y04993*
Y05006*
X03588Y05015*
X0388*
Y05011*
X03882Y05003*
X03885Y04996*
X03891Y0499*
X03898Y04987*
X03906Y04985*
X03913*
X03921Y04987*
X03928Y0499*
X03934Y04996*
X03937Y05003*
X03938Y05006*
X03941Y05006*
X03946Y05009*
X03951Y05015*
X041*
X04105Y05014*
G37*
G36*
X01969Y0475D02*
X01967Y04749D01*
X0196Y04742*
X01959Y0474*
X0198*
Y0473*
X0199*
Y04709*
X01992Y0471*
Y04617*
X01983Y04609*
X01981Y04606*
X0198Y04602*
Y04394*
X01981Y0439*
X01983Y04386*
X0205Y0432*
Y04293*
X02045Y0429*
Y0427*
X02035*
Y0426*
X02014*
X02015Y04257*
X02022Y0425*
X02024Y0425*
X02023Y04245*
X01405*
Y04497*
X0141Y04499*
X01415Y04493*
X01424Y04488*
X0143Y04486*
Y04525*
Y04563*
X01424Y04561*
X01415Y04556*
X0141Y0455*
X01405Y04552*
Y04605*
X0143*
Y04645*
Y04684*
X01405*
Y04755*
X01681*
X01867Y04569*
Y04566*
X0187Y0456*
X01875Y04555*
X01881Y04552*
X01888*
X01894Y04555*
X01899Y0456*
X01902Y04566*
Y04573*
X01899Y04579*
X01894Y04584*
X01888Y04587*
X01885*
X01718Y04755*
X01737*
Y04754*
X01738Y04749*
X01741Y04745*
X01857Y04629*
Y04626*
X0186Y0462*
X01865Y04615*
X01871Y04612*
X01878*
X01884Y04615*
X01889Y0462*
X01892Y04626*
Y04633*
X01889Y04639*
X01884Y04644*
X01878Y04647*
X01875*
X01768Y04755*
X01783*
X01789Y04749*
X01793Y04746*
X01798Y04745*
X01798*
X01868Y04675*
Y04672*
X01871Y04666*
X01876Y04661*
X01882Y04658*
X01889*
X01896Y04661*
X01901Y04666*
X01903Y04672*
Y04679*
X01901Y04685*
X01896Y0469*
X01889Y04693*
X01886*
X01825Y04755*
X01968*
X01969Y0475*
G37*
G36*
X04105Y04684D02*
Y04655D01*
X04145*
Y04645*
X04155*
Y04605*
X04175*
Y0455*
X04169Y04556*
X0416Y04561*
X04155Y04563*
Y04525*
X04145*
Y04515*
X04106*
X04108Y04509*
X04113Y045*
X0412Y04493*
X04126Y0449*
X04125Y04485*
X03588*
X03591Y04493*
Y04506*
X03588Y04517*
X03582Y04528*
X03573Y04537*
X03562Y04543*
X03551Y04546*
X03538*
X03527Y04543*
X03516Y04537*
X03507Y04528*
X03501Y04517*
X03498Y04506*
Y04493*
X03501Y04485*
X03388*
X03391Y04493*
Y04506*
X03388Y04517*
X03382Y04528*
X03373Y04537*
X03362Y04543*
X03351Y04546*
X03338*
X03327Y04543*
X03316Y04537*
X03307Y04528*
X03301Y04517*
X03298Y04506*
Y04493*
X03301Y04485*
X02571*
X0249Y04566*
Y04598*
X02495Y04601*
X02496Y046*
Y0462*
Y0464*
X02495Y0464*
X0249Y04642*
Y04685*
X02579*
X0258Y0468*
X0258Y04679*
X02575Y04674*
X02572Y04668*
Y04661*
X02575Y04655*
X0258Y0465*
X02586Y04647*
X02593*
X02599Y0465*
X02604Y04655*
X02607Y04661*
Y04668*
X02604Y04674*
X02599Y04679*
X02599Y0468*
X026Y04685*
X03301*
X03301Y04682*
X03307Y04671*
X03316Y04662*
X03327Y04656*
X03338Y04653*
X03351*
X03362Y04656*
X03373Y04662*
X03382Y04671*
X03388Y04682*
X03388Y04685*
X03501*
X03501Y04682*
X03507Y04671*
X03516Y04662*
X03527Y04656*
X03538Y04653*
X03551*
X03562Y04656*
X03573Y04662*
X03582Y04671*
X03588Y04682*
X03588Y04685*
X03645*
X03645Y04683*
Y04676*
X03647Y04668*
X0365Y04661*
X03656Y04655*
X03663Y04652*
X03671Y0465*
X03678*
X03686Y04652*
X03693Y04655*
X03699Y04661*
X03702Y04668*
X03705Y04676*
Y04683*
X03704Y04685*
X041*
X04105Y04684*
G37*
G36*
X03507Y04471D02*
X03516Y04462D01*
X03527Y04456*
X03538Y04453*
X03551*
X03562Y04456*
X03573Y04462*
X03582Y04471*
X03587Y0448*
X03587Y04479*
X03588Y04479*
X03588Y04479*
X0371*
X03712Y04474*
X0371Y04473*
X03707Y04466*
X03705Y04458*
Y04451*
X03706Y04446*
X03706Y04445*
X03701Y04443*
X03701Y04444*
X03699Y04448*
X03693Y04454*
X03686Y04457*
X03678Y0446*
X03671*
X03663Y04457*
X03656Y04454*
X0365Y04448*
X03647Y04441*
X03645Y04433*
Y04426*
X03645Y04422*
X03368Y04145*
X0307*
X03069Y04148*
X03063Y04154*
X03056Y04157*
X03048Y0416*
X03041*
X03033Y04157*
X03026Y04154*
X0302Y04148*
X03017Y04141*
X03015Y04133*
Y04126*
X03017Y04118*
X0302Y04111*
X03026Y04105*
X03033Y04102*
X03041Y041*
X03048*
X03056Y04102*
X03063Y04105*
X03069Y04111*
X0307Y04114*
X03375*
X0338Y04115*
X03385Y04119*
X03667Y044*
X03671Y044*
X03678*
X03686Y04402*
X03693Y04405*
X03699Y04411*
X03702Y04418*
X03705Y04426*
Y04433*
X03703Y04438*
X03703Y04439*
X03708Y04441*
X03708Y0444*
X03708Y0444*
X0371Y04436*
X03716Y0443*
X03723Y04427*
X03731Y04425*
X03738*
X03945Y04218*
Y04216*
X03947Y04208*
X0395Y04201*
X03954Y04197*
Y0408*
X03956Y04072*
X0396Y04065*
X03994Y04031*
Y03455*
Y03444*
X03965*
Y03375*
X03994*
Y02975*
X03279*
X03275Y02973*
X0322Y03028*
X03215Y03031*
X03209Y03032*
X0274*
X02734Y03031*
X02734Y03031*
X02731Y03032*
X02723Y03035*
X02716*
X02708Y03032*
X02701Y03029*
X02695Y03023*
X02692Y03016*
X0269Y03008*
Y03001*
X02692Y02993*
X02695Y02986*
X02701Y0298*
X02708Y02977*
X02716Y02975*
X02723*
X02731Y02977*
X02738Y0298*
X02744Y02986*
X02747Y02993*
X0275Y03001*
Y03002*
X0309*
X03094Y02997*
X03092Y02993*
Y02986*
X03095Y0298*
X031Y02975*
X03106Y02972*
X03113*
X03119Y02975*
X03124Y0298*
X03127Y02986*
Y02993*
X03125Y02997*
X03129Y03002*
X03203*
X03226Y02979*
X03226Y02973*
X03224Y0297*
Y02615*
X02794*
X02793Y02615*
X02792Y02615*
X02792Y02614*
X02792Y02616*
X02787Y02621*
X0278Y02623*
X02773*
X02767Y02621*
X02762Y02616*
X02761Y02614*
X02761Y02615*
X0276Y02615*
X02759Y02615*
X02336*
Y02616*
X02333Y02627*
X02327Y02638*
X02318Y02647*
X02307Y02653*
X02296Y02656*
X02283*
X02272Y02653*
X02261Y02647*
X02252Y02638*
X02246Y02627*
X02243Y02616*
Y02615*
X02136*
Y02616*
X02133Y02627*
X02127Y02638*
X02118Y02647*
X02107Y02653*
X02096Y02656*
X02083*
X02072Y02653*
X02061Y02647*
X02052Y02638*
X02046Y02627*
X02043Y02616*
Y02615*
X01285*
X01281Y02613*
X01279Y0261*
Y0226*
X01218*
X00925Y02553*
Y026*
X00939*
Y02669*
X00881*
X00919Y02707*
X00923Y02714*
X00925Y02722*
Y03026*
X00926Y03027*
X00932Y03033*
X00937Y03041*
X00939Y0305*
Y03059*
X00937Y03068*
X00932Y03076*
X00926Y03082*
X00925Y03083*
Y0314*
X00939*
Y03198*
X01024Y03113*
Y02533*
X01023Y02532*
X01017Y02526*
X01012Y02518*
X0101Y02509*
Y025*
X01012Y02491*
X01017Y02483*
X01023Y02477*
X01031Y02472*
X0104Y0247*
X01049*
X01058Y02472*
X01066Y02477*
X01072Y02483*
X01077Y02491*
X01079Y025*
Y02509*
X01077Y02518*
X01072Y02526*
X01066Y02532*
X01065Y02533*
Y03122*
X01063Y0313*
X01059Y03136*
X00956Y03239*
X00949Y03244*
X00941Y03245*
X00931*
X00929Y0325*
X00932Y03253*
X00937Y03261*
X00939Y0327*
Y03279*
X00937Y03288*
X00932Y03296*
X00926Y03302*
X00925Y03303*
Y0368*
X01213Y03968*
X01217Y03966*
Y03961*
X0122Y03954*
X01225Y03949*
X01231Y03947*
X01238*
X01245Y03949*
X01242Y03943*
Y03936*
X01245Y0393*
X0125Y03925*
X01256Y03922*
X01263*
X01269Y03925*
X01274Y0393*
X01277Y03936*
Y03943*
X01318Y03984*
X0132Y03987*
X01321Y03991*
Y03992*
X01324Y03994*
X01775*
X0168Y039*
X01224*
X01219Y03904*
X01213Y03907*
X01206*
X012Y03904*
X01195Y03899*
X01192Y03893*
Y03886*
X01195Y0388*
X012Y03875*
X01206Y03872*
X01213*
X01219Y03875*
X01224Y03879*
X01575*
X01577Y03874*
X01573Y03871*
X01568Y03865*
X01346Y03642*
X01341*
X01333Y0364*
X01326Y03636*
X0132Y03631*
X0132Y0363*
X01317Y03624*
X01316Y03624*
X01314Y03616*
Y03608*
X01316Y03601*
X0132Y03594*
X01326Y03588*
X01333Y03584*
X01341Y03582*
X01348*
X01356Y03584*
X01363Y03588*
X01368Y03594*
X01372Y03601*
X01374Y03608*
Y03614*
X01598Y03837*
X01715*
X01716Y03837*
X0172Y03832*
X01718Y03826*
Y03813*
X01721Y03802*
X01727Y03791*
X01736Y03782*
X01747Y03776*
X01758Y03773*
X01771*
X01782Y03776*
X01793Y03782*
X01802Y03791*
X01808Y03802*
X01811Y03813*
Y03826*
X01808Y03837*
X01802Y03848*
X01793Y03857*
X01782Y03863*
X01771Y03866*
X01767*
X01765Y03871*
X01818Y03925*
X01823*
X01831Y03927*
X01838Y0393*
X01844Y03936*
X01847Y03943*
X0185Y03951*
Y03958*
X01847Y03966*
X01844Y03973*
X01842Y03974*
X01844Y03979*
X02455*
X02614Y03821*
Y03695*
X02614Y03691*
X02616Y03688*
X02742Y03562*
X02746Y0356*
X0275Y03559*
X02883*
X02887Y0356*
X0289Y03562*
X02894Y03566*
X02938*
X02939Y03565*
X02938Y03559*
X02935Y03557*
X02898Y0352*
X0278*
X02772Y03518*
X02765Y03514*
X02761Y03507*
X02759Y035*
X02761Y03492*
X02765Y03485*
X02772Y03481*
X0278Y03479*
X02835*
X02839Y03474*
X02837Y0347*
Y03464*
X0284Y03457*
X02845Y03452*
X02851Y0345*
X02858*
X02864Y03452*
X02869Y03457*
X02872Y03464*
Y0347*
X0287Y03474*
X02874Y03479*
X02907*
X02914Y03481*
X02921Y03485*
X02958Y03522*
X03044*
X03047Y03517*
X03046Y03514*
Y03507*
X03039Y035*
X03032*
X03028Y03499*
X03025Y03497*
X02812Y03284*
X02811Y03283*
X02777Y03249*
X02772Y03248*
X02765Y03244*
X02761Y03237*
X02759Y0323*
X02761Y03222*
X02765Y03215*
X02772Y03211*
X0278Y03209*
X03106*
X033Y03016*
Y03011*
X03302Y03003*
X03305Y02996*
X03311Y0299*
X03318Y02987*
X03326Y02985*
X03333*
X03341Y02987*
X03348Y0299*
X03354Y02996*
X03357Y03003*
X0336Y03011*
Y03018*
X03357Y03026*
X03354Y03033*
X03348Y03039*
X03341Y03042*
X03333Y03045*
X03328*
X03129Y03244*
X03122Y03248*
X03115Y0325*
X0282*
Y03263*
X02935Y03378*
X02939Y03375*
X02937Y03371*
X02935Y03363*
Y03356*
X02937Y03348*
X0294Y03341*
X02946Y03335*
X02953Y03332*
X02961Y0333*
X02968*
X02976Y03332*
X02983Y03335*
X02989Y03341*
X02992Y03348*
X02995Y03356*
Y03363*
X02993Y03369*
X03079Y03455*
X03407Y03782*
X03408Y03782*
X03416Y0378*
X03423*
X03431Y03782*
X03438Y03785*
X03444Y03791*
X03447Y03798*
X0345Y03806*
Y03813*
X03447Y03821*
X03444Y03828*
X03442Y03829*
X03444Y03834*
X0357*
X03577Y03836*
X03584Y0384*
X03713Y0397*
X03718*
X03726Y03972*
X03733Y03975*
X03739Y03981*
X03742Y03988*
X03745Y03996*
Y04003*
X03742Y04011*
X03739Y04018*
X03733Y04024*
X03726Y04027*
X03718Y0403*
X03711*
X03703Y04027*
X03696Y04024*
X0369Y04018*
X03687Y04011*
X03685Y04003*
Y03998*
X03561Y03875*
X03389*
X03381Y03873*
X03374Y03869*
X03068Y03563*
X03046*
X03043Y03568*
X03045Y03573*
Y0358*
X03042Y03586*
X03038Y03591*
X03031Y03594*
X03029*
X03028Y03599*
X03029Y036*
X03034Y03605*
X03037Y03611*
Y03618*
X03034Y03624*
X03029Y03629*
X03023Y03632*
X03016*
X0301Y03629*
X03005Y03625*
X02799*
X02649Y03775*
Y03831*
X02832Y03647*
X02836Y03645*
X0284Y03644*
X02942*
X02947Y0364*
X02954Y03637*
X0296*
X02967Y0364*
X02972Y03645*
X02975Y03651*
Y03658*
X02972Y03664*
X02967Y03669*
X0296Y03672*
X02954*
X02947Y03669*
X02942Y03665*
X02916*
X02921Y0367*
X02924Y03676*
Y03683*
X02921Y03689*
X02916Y03694*
X0291Y03697*
X02903*
X02902Y03697*
X0284Y03758*
X02842Y03764*
X02845Y03766*
X0285Y0377*
X02853Y03777*
Y03784*
X0285Y0379*
X02845Y03795*
X02839Y03798*
X02832*
X02825Y03795*
X02821Y0379*
X02819Y03787*
X02813Y03785*
X02549Y04049*
X02934*
Y03923*
X02935Y03917*
X02939Y03912*
X03034Y03817*
Y03786*
X03028Y03782*
X03022Y03776*
X03017Y03768*
X03015Y03759*
Y0375*
X03017Y03741*
X03022Y03733*
X03028Y03727*
X03036Y03722*
X03045Y0372*
X03054*
X03063Y03722*
X03071Y03727*
X03077Y03733*
X03082Y03741*
X03084Y0375*
Y03759*
X03082Y03768*
X03077Y03776*
X03071Y03782*
X03065Y03786*
Y03823*
X03064Y03829*
X0306Y03834*
X02994Y039*
X02996Y03905*
X03003Y03907*
X03011Y03911*
X03018Y03918*
X03022Y03926*
X03023Y0393*
X0299*
Y0394*
X0298*
Y03973*
X02976Y03972*
X0297Y03969*
X02965Y03971*
Y04232*
X02964Y04238*
X0296Y04243*
X02793Y0441*
X02788Y04414*
X02782Y04415*
X02641*
X02577Y04479*
X03301*
X03301Y04479*
X03302Y04479*
X03302Y0448*
X03307Y04471*
X03316Y04462*
X03327Y04456*
X03338Y04453*
X03351*
X03362Y04456*
X03373Y04462*
X03382Y04471*
X03387Y0448*
X03387Y04479*
X03388Y04479*
X03388Y04479*
X03501*
X03501Y04479*
X03502Y04479*
X03502Y0448*
X03507Y04471*
G37*
G36*
X04666Y03725D02*
X047D01*
Y03705*
X04666*
X04662Y037*
X04548*
X04548Y03699*
X04543Y03702*
X04542Y03702*
X04542Y03703*
X04538Y03711*
X04531Y03718*
X04525Y03721*
X04529Y03725*
X04534Y03728*
X0454Y03729*
X04662*
X04666Y03725*
G37*
G36*
X02815Y03235D02*
X0277D01*
X02815Y0328*
Y03235*
G37*
G36*
X04025Y04051D02*
X04028Y04049D01*
X04028*
X04294*
Y03046*
X04092Y02844*
X04088Y02845*
X04081*
X04073Y02842*
X04066Y02839*
X0406Y02833*
X04057Y02826*
X04055Y02818*
Y02811*
X04057Y02803*
X0406Y02796*
X04066Y0279*
X04073Y02787*
X04081Y02785*
X04088*
X04096Y02787*
X04103Y0279*
X04109Y02796*
X04112Y02803*
X04115Y02811*
Y02818*
X04114Y02822*
X04299Y03007*
Y02525*
X04301Y02521*
X04305Y02519*
X04465*
X04171Y02225*
X04166*
X04158Y02222*
X04151Y02219*
X04145Y02213*
X04142Y02206*
X0414Y02198*
Y02191*
X04142Y02183*
X04145Y02176*
X04151Y0217*
X04158Y02167*
X04166Y02165*
X04173*
X04181Y02167*
X04188Y0217*
X04194Y02176*
X04197Y02183*
X042Y02191*
Y02196*
X04525Y02521*
X04528Y02519*
X04528*
X04645*
X04645Y02519*
X04646Y02519*
X04651Y0252*
X04652Y0252*
X04654Y02521*
X04654Y02521*
X04654Y02522*
X04655Y02523*
X04655Y02525*
Y0253*
X04724*
X04724Y0253*
X04725Y02529*
X04725Y02527*
X04726Y02527*
X04726Y02526*
X0473Y02524*
X04731Y02524*
X04732Y02524*
X04733Y02524*
X04734Y02524*
X04734Y02524*
X04734Y02524*
X04736Y02524*
X04737Y02525*
X04737Y02525*
X04738Y02525*
X04738Y02525*
X04738*
X04738Y02525*
X04738Y02526*
X04739Y02527*
X0474Y02529*
X0474Y02529*
X0474Y02529*
Y0297*
X0476*
X04762Y02963*
X04765Y02956*
X04771Y0295*
X04778Y02947*
X04786Y02945*
X04793*
X04801Y02947*
X04808Y0295*
X04814Y02956*
X04817Y02963*
X04819Y0297*
X0484*
Y02647*
X04835Y02646*
X04833Y02649*
X04828Y02654*
X04822Y02657*
X04815*
X04808Y02654*
X04803Y02649*
X04801Y02643*
Y02636*
X04803Y0263*
X04808Y02625*
X04815Y02622*
X04822*
X04828Y02625*
X04833Y0263*
X04835Y02633*
X0484Y02632*
Y023*
X048*
X04796Y02299*
X04792Y02297*
X04753Y02257*
X04746*
X0474Y02254*
X04735Y02249*
X04732Y02243*
Y02236*
X04735Y0223*
X0474Y02225*
X04746Y02222*
X04753*
X04759Y02225*
X04764Y0223*
X04767Y02236*
Y02243*
X04804Y02279*
X0484*
Y02265*
X0482*
X04816Y02264*
X04812Y02262*
X04753Y02202*
X04746*
X0474Y02199*
X04735Y02194*
X04732Y02188*
Y02181*
X04735Y02175*
X0474Y0217*
X04746Y02167*
X04753*
X04759Y0217*
X04764Y02175*
X04767Y02181*
Y02188*
X04824Y02244*
X0484*
Y021*
X04418*
X04398Y0212*
X04391Y02125*
X0439Y02125*
X04389Y02128*
X04383Y02134*
X04376Y02137*
X04368Y0214*
X04361*
X04353Y02137*
X04346Y02134*
X0434Y02128*
X04337Y02121*
X04335Y02113*
Y02106*
X04336Y021*
X03763*
X03767Y02106*
X03768Y0211*
X03701*
X03702Y02106*
X03706Y021*
X03569*
X03568Y02105*
X03573Y02107*
X03582Y02116*
X03588Y02127*
X03591Y02138*
Y02151*
X03588Y02162*
X03582Y02173*
X03573Y02182*
X03562Y02188*
X03551Y02191*
X03538*
X03527Y02188*
X03516Y02182*
X03507Y02173*
X03501Y02162*
X03498Y02151*
Y02138*
X03501Y02127*
X03507Y02116*
X03516Y02107*
X03521Y02105*
X0352Y021*
X03369*
X03368Y02105*
X03373Y02107*
X03382Y02116*
X03388Y02127*
X03391Y02138*
Y02151*
X03388Y02162*
X03382Y02173*
X03373Y02182*
X03362Y02188*
X03351Y02191*
X03338*
X03327Y02188*
X03316Y02182*
X03307Y02173*
X03301Y02162*
X03298Y02151*
Y02138*
X03301Y02127*
X03307Y02116*
X03316Y02107*
X03321Y02105*
X0332Y021*
X0323*
Y0297*
X03235*
X03287Y02918*
X03341Y02864*
X03339Y02859*
X03335Y0286*
X03327Y02858*
X0332Y02854*
X03316Y02847*
X03314Y0284*
Y026*
Y0236*
X03316Y02352*
X0332Y02345*
X034Y02265*
X03407Y02261*
X03415Y02259*
X03428*
X03429Y02259*
X03436Y02257*
X03444Y02259*
X03451Y02263*
X03455Y0227*
X03457Y02278*
X03455Y02285*
X03451Y02292*
X03449Y02294*
X03442Y02298*
X03434Y023*
X03423*
X03355Y02368*
Y026*
Y0284*
X03353Y02847*
X03351Y0285*
X03354Y02855*
X03357Y02854*
X03439*
X0344Y02851*
X03446Y02845*
X03453Y02842*
X03461Y0284*
X03468*
X03476Y02842*
X03483Y02845*
X03489Y02851*
X03492Y02858*
X03495Y02866*
Y02873*
X03492Y02881*
X03489Y02888*
X03483Y02894*
X03476Y02897*
X03468Y029*
X03461*
X03453Y02897*
X03446Y02894*
X0344Y02888*
X03439Y02885*
X03363*
X03279Y0297*
X04*
Y03375*
X04034*
Y03444*
X04*
Y04076*
X04025Y04051*
G37*
G36*
X03224Y021D02*
X03226Y02096D01*
X0323Y02094*
X0332*
X03321Y02095*
X03322Y02095*
X03323Y02095*
X03324Y02096*
X03324Y02097*
X03325Y02098*
X03326Y02102*
X03327Y02101*
X03338Y02098*
X03351*
X03362Y02101*
X03363Y02102*
X03364Y02098*
X03365Y02097*
X03365Y02096*
X03366Y02095*
X03367Y02095*
X03368Y02095*
X03369Y02094*
X0352*
X03521Y02095*
X03522Y02095*
X03523Y02095*
X03524Y02096*
X03524Y02097*
X03525Y02098*
X03526Y02102*
X03527Y02101*
X03538Y02098*
X03551*
X03562Y02101*
X03563Y02102*
X03564Y02098*
X03565Y02097*
X03565Y02096*
X03566Y02095*
X03567Y02095*
X03568Y02095*
X03569Y02094*
X03706*
X03707Y02095*
X03708Y02095*
X03709Y02095*
X03709Y02096*
X03713Y02097*
X03715Y02096*
X03716Y02095*
X03723Y02092*
X03731Y0209*
X03738*
X03746Y02092*
X03753Y02095*
X03754Y02096*
X03756Y02097*
X0376Y02096*
X0376Y02095*
X03761Y02095*
X03762Y02095*
X03763Y02094*
X0431*
Y01135*
X03994*
X03992Y0114*
X03994Y01141*
X03997Y01148*
X04Y01156*
Y01163*
X03997Y01171*
X03994Y01178*
X03988Y01184*
X03981Y01187*
X03973Y0119*
X03971*
X03765Y01396*
Y01403*
X03762Y01411*
X03759Y01418*
X03757Y01419*
X03759Y01424*
X04125*
X04126Y01425*
X04127Y01425*
X04128Y01425*
X04129Y01426*
X04129Y01427*
X0413Y01428*
X04131Y01432*
X04133Y01434*
X04135Y01436*
X04136Y01436*
X0414Y01435*
X04149*
X04158Y01437*
X04166Y01442*
X04172Y01448*
X04177Y01456*
X04179Y01465*
Y01474*
X04177Y01483*
X04175Y01485*
X04178Y01491*
X04178Y01492*
X0418Y01495*
Y01495*
Y0155*
X0418Y0155*
X04179Y01555*
Y01624*
X0411*
Y01629*
X0411Y01631*
X04109Y01632*
X04109Y01633*
X04109Y01633*
X04107Y01634*
X04106Y01634*
X04101Y01635*
X041Y01635*
X041Y01635*
X0359*
X03591Y01638*
Y01651*
X03588Y01662*
X03582Y01673*
X03573Y01682*
X03562Y01688*
X03551Y01691*
X03538*
X03527Y01688*
X03516Y01682*
X03507Y01673*
X03501Y01662*
X03498Y01651*
Y01638*
X03499Y01635*
X0339*
X03391Y01638*
Y01651*
X03388Y01662*
X03382Y01673*
X03373Y01682*
X03362Y01688*
X03351Y01691*
X03338*
X03327Y01688*
X03316Y01682*
X03307Y01673*
X03301Y01662*
X03298Y01651*
Y01638*
X03299Y01635*
X026*
X02599Y01634*
X02597Y01634*
X02597Y01634*
X02596Y01633*
X02596Y01632*
X02595Y01631*
X02594Y01627*
X02593Y01627*
X02586*
X02585Y01627*
X02584Y01631*
X02583Y01632*
X02583Y01633*
X02582Y01634*
X02582Y01634*
X0258Y01634*
X02579Y01635*
X02535*
Y01728*
X02534Y01734*
X02531Y01737*
X02535Y01741*
X02537Y0174*
X02544*
X0255Y01743*
X02555Y01748*
X02558Y01754*
Y01761*
X02557Y01764*
X04119*
X04122Y01766*
X04123Y01766*
X04129Y01769*
X04131Y01767*
X0414Y01765*
X04149*
X04158Y01767*
X04166Y01772*
X04172Y01778*
X04177Y01786*
X04179Y01795*
Y01804*
X04178Y01808*
X04178Y01809*
X0418Y01811*
X04182Y01813*
X04186Y01814*
X04187Y01815*
X04188Y01815*
X04189Y01816*
X04189Y01817*
X04189Y01818*
X0419Y01819*
Y01875*
X0419Y01875*
X0419Y01876*
X04189Y01881*
X04189Y01882*
X04188Y01884*
X04188Y01884*
X04187Y01884*
X04186Y01885*
X04184Y01885*
X04179*
Y01954*
X04115*
X0411Y01955*
X0411Y01959*
X0411Y01961*
X04109Y01962*
X04109Y01963*
X04109Y01963*
X04107Y01964*
X04106Y01964*
X04101Y01965*
X041Y01965*
X041Y01965*
X03588*
X03588Y01965*
X03587Y01965*
X03587Y01964*
X03582Y01973*
X03573Y01982*
X03562Y01988*
X03551Y01991*
X03538*
X03527Y01988*
X03516Y01982*
X03507Y01973*
X03502Y01964*
X03502Y01965*
X03501Y01965*
X03501Y01965*
X03388*
X03388Y01965*
X03387Y01965*
X03387Y01964*
X03382Y01973*
X03373Y01982*
X03362Y01988*
X03351Y01991*
X03338*
X03327Y01988*
X03316Y01982*
X03307Y01973*
X03302Y01964*
X03302Y01965*
X03301Y01965*
X03301Y01965*
X03088*
X03088Y01965*
X03087Y01965*
X03087Y01964*
X03082Y01973*
X03073Y01982*
X03062Y01988*
X03051Y01991*
X03038*
X03027Y01988*
X03016Y01982*
X03007Y01973*
X03002Y01964*
X03002Y01965*
X03001Y01965*
X03001Y01965*
X02888*
X02888Y01965*
X02887Y01965*
X02887Y01964*
X02882Y01973*
X02873Y01982*
X02862Y01988*
X02851Y01991*
X02838*
X02827Y01988*
X02816Y01982*
X02807Y01973*
X02802Y01964*
X02802Y01965*
X02801Y01965*
X02801Y01965*
X02775*
Y02348*
X02774Y02354*
X0277Y02359*
X02609Y0252*
X02604Y02524*
X02598Y02525*
X0191*
X01904Y02524*
X01899Y0252*
X01451Y02072*
X01444Y02074*
X01435*
X01426Y02072*
X01418Y02067*
X01412Y02061*
X01407Y02053*
X01405Y02044*
Y02035*
X01407Y02026*
X01412Y02018*
X01418Y02012*
X01426Y02007*
X01435Y02005*
X01444*
X01453Y02007*
X01461Y02012*
X01467Y02018*
X01472Y02026*
X01474Y02035*
Y02044*
X01472Y02051*
X01916Y02494*
X02591*
X02744Y02341*
Y01965*
X02512*
X0264Y02093*
X02643Y02098*
X02644Y02104*
Y02313*
X02643Y02319*
X0264Y02324*
X02509Y02455*
X02504Y02459*
X02498Y0246*
X01945*
X01939Y02459*
X01934Y02455*
X01451Y01972*
X01444Y01974*
X01435*
X01426Y01972*
X01418Y01967*
X01412Y01961*
X01407Y01953*
X01405Y01944*
Y01935*
X01407Y01926*
X01412Y01918*
X01418Y01912*
X01426Y01907*
X01435Y01905*
X01444*
X01453Y01907*
X01461Y01912*
X01467Y01918*
X01472Y01926*
X01474Y01935*
Y01944*
X01472Y01951*
X01951Y02429*
X02284*
X0228Y02424*
X02277Y02418*
Y02411*
X0228Y02405*
X02285Y024*
X02291Y02397*
X02294*
X0232Y02371*
X02324Y02368*
X02329Y02367*
X02511*
X02513Y02365*
X0252Y02363*
X02527*
X02533Y02365*
X02538Y0237*
X0254Y02374*
X02545Y02375*
X02614Y02307*
Y02186*
X02609Y02184*
X02606Y02187*
X02598Y02192*
X02589Y02194*
X0258*
X02571Y02192*
X02563Y02187*
X02557Y02181*
X02552Y02173*
X0255Y02164*
Y02155*
X02552Y02148*
X02424Y0202*
X0242Y02015*
X02419Y0201*
Y01545*
X0242Y01539*
X02424Y01534*
X02624Y01334*
X02629Y0133*
X02635Y01329*
X02776*
X02934Y01171*
Y01*
X02509*
X02479Y0103*
X02481Y01035*
X02522*
X02526Y01036*
X02529Y01038*
X02536Y01044*
X02725*
X02732Y01038*
Y01031*
X02735Y01025*
X0274Y0102*
X02746Y01017*
X02753*
X02759Y0102*
X02764Y01025*
X02767Y01031*
Y01038*
X02764Y01044*
X02759Y01049*
X02753Y01052*
X02746*
X02739Y01059*
X02741Y01064*
X02805*
X0281Y0106*
X02816Y01057*
X02823*
X02829Y0106*
X02834Y01065*
X02837Y01071*
Y01078*
X02834Y01084*
X02829Y01089*
X02823Y01092*
X02816*
X0281Y01089*
X02805Y01085*
X02536*
X02533Y0109*
X02534Y01095*
Y01104*
X02532Y01113*
X02527Y01121*
X02521Y01127*
X02513Y01132*
X02513Y01132*
X02513Y01137*
X02685*
X02689Y01138*
X02694Y0114*
X02761Y01208*
X02761Y01207*
X0277Y01205*
X02779*
X02788Y01207*
X02796Y01212*
X02802Y01218*
X02807Y01226*
X02809Y01235*
Y01244*
X02807Y01253*
X02802Y01261*
X02796Y01267*
X02788Y01272*
X02779Y01274*
X0277*
X02761Y01272*
X02753Y01267*
X02747Y01261*
X02742Y01253*
X0274Y01244*
Y01235*
X02742Y01226*
X02743Y01226*
X02679Y01162*
X02407*
X02404Y01164*
X02398Y01167*
X02391*
X02385Y01164*
X0238Y01159*
X02377Y01153*
Y01146*
X0238Y0114*
X02385Y01135*
X02391Y01132*
X02398*
X02404Y01135*
X02407Y01137*
X02486*
X02486Y01132*
X02486Y01132*
X02478Y01127*
X02472Y01121*
X02467Y01113*
X02465Y01104*
Y01095*
X02467Y01086*
X02471Y0108*
X01819*
X01807Y01092*
X01804Y01094*
X018Y01095*
X01531*
X0153Y011*
X0153Y011*
X0156Y01129*
X02011*
X02015Y0113*
X02018Y01132*
X0207Y01184*
X021*
X02105Y0118*
X02111Y01177*
X02118*
X02124Y0118*
X02129Y01185*
X02132Y01191*
Y01198*
X02129Y01204*
X02124Y01209*
X02118Y01212*
X02111*
X02105Y01209*
X021Y01205*
X02069*
X02076Y01212*
X02083*
X02089Y01215*
X02094Y0122*
X02097Y01226*
Y01233*
X02094Y01239*
X02089Y01244*
X02083Y01247*
X02076*
X0207Y01244*
X02065Y01239*
X02062Y01233*
Y01226*
X02056Y0122*
X0205Y01222*
X02049Y01226*
Y01233*
X02052Y01235*
X02053Y01235*
X02053Y01236*
X02054Y01237*
X02055Y01238*
X02055Y01239*
X02055Y01239*
Y01342*
X0206Y01344*
X02061Y01343*
X02068Y0134*
X02075*
X02081Y01343*
X02086Y01348*
X02089Y01354*
Y01361*
X02086Y01368*
X02081Y01373*
X02075Y01375*
X02068*
X02061Y01373*
X0206Y01371*
X02055Y01373*
Y01386*
X0206Y01388*
X02061Y01386*
X02068Y01384*
X02075*
X02081Y01386*
X02086Y01391*
X02089Y01398*
Y01405*
X02086Y01411*
X02081Y01416*
X02075Y01419*
X02068*
X02061Y01416*
X0206Y01415*
X02055Y01417*
Y01429*
X0206Y01431*
X02061Y0143*
X02068Y01427*
X02075*
X02081Y0143*
X02086Y01435*
X02089Y01441*
Y01448*
X02086Y01454*
X02081Y01459*
X02075Y01462*
X02068*
X02061Y01459*
X0206Y01458*
X02055Y0146*
Y01472*
X0206Y01474*
X02061Y01473*
X02068Y0147*
X02075*
X02081Y01473*
X02086Y01478*
X02089Y01484*
Y01491*
X02086Y01498*
X02081Y01503*
X02075Y01505*
X02068*
X02061Y01503*
X0206Y01501*
X02055Y01503*
Y01516*
X0206Y01518*
X02061Y01516*
X02068Y01514*
X02075*
X02081Y01516*
X02086Y01521*
X02089Y01528*
Y01535*
X02086Y01541*
X02081Y01546*
X02075Y01549*
X02068*
X02061Y01546*
X0206Y01545*
X02055Y01547*
Y017*
X02053Y01703*
X0205Y01705*
X01991*
X0199Y01704*
X01988Y01704*
X01988Y01704*
X01987Y01703*
X01987Y01702*
X01986Y01701*
X01985Y01697*
X01984Y01695*
X01981Y01692*
X0198Y01692*
X01979*
X01978Y01692*
X01975Y01695*
X01974Y01697*
X01973Y01701*
X01972Y01702*
X01972Y01703*
X01971Y01704*
X01971Y01704*
X01969Y01704*
X01968Y01705*
X0146*
Y01805*
X01474*
Y01874*
X01405*
Y01805*
X01419*
Y01705*
X01405*
X01401Y01703*
X01399Y017*
Y01629*
X01401Y01625*
X01405Y01624*
X01405*
Y01555*
X0147*
X01474Y01551*
X01475Y0155*
X01475Y01549*
X01476Y01546*
X01476Y01543*
X01463Y01529*
X01421*
X01415Y01528*
X0141Y01525*
X01384Y01499*
X01381Y01494*
X0138Y01488*
Y01446*
X01374Y01441*
Y01504*
X01305*
Y01435*
X01368*
X01285Y01351*
Y01626*
X01354Y01695*
X01358Y01702*
X0136Y0171*
Y01811*
X01361Y01812*
X01367Y01818*
X01372Y01826*
X01374Y01835*
Y01844*
X01372Y01853*
X01367Y01861*
X01361Y01867*
X01353Y01872*
X01344Y01874*
X01335*
X01326Y01872*
X01318Y01867*
X01312Y01861*
X01307Y01853*
X01305Y01844*
Y01835*
X01307Y01826*
X01312Y01818*
X01318Y01812*
X01319Y01811*
Y01718*
X01285Y01683*
Y0261*
X02043*
Y02603*
X02046Y02592*
X02052Y02581*
X02061Y02572*
X02072Y02566*
X02083Y02563*
X02096*
X02107Y02566*
X02118Y02572*
X02127Y02581*
X02133Y02592*
X02136Y02603*
Y0261*
X02243*
Y02603*
X02246Y02592*
X02252Y02581*
X02261Y02572*
X02272Y02566*
X02283Y02563*
X02296*
X02307Y02566*
X02318Y02572*
X02327Y02581*
X02333Y02592*
X02336Y02603*
Y0261*
X02759*
X02759Y02609*
Y02603*
X02762Y02596*
X02767Y02591*
X02773Y02588*
X0278*
X02787Y02591*
X02792Y02596*
X02794Y02603*
Y02609*
X02794Y0261*
X03224*
Y021*
G37*
G36*
X04105Y01959D02*
Y01955D01*
Y0193*
X04145*
Y0192*
X04155*
Y0188*
X04184Y0188*
X04185Y01875*
Y01819*
X0418Y01818*
X04176Y01824*
X04169Y01831*
X0416Y01836*
X04155Y01838*
Y018*
X04145*
Y0179*
X04106*
X04108Y01784*
X04113Y01775*
X04119Y0177*
X02553*
X0255Y01773*
X02544Y01775*
X02537*
X0253Y01773*
X02527Y0177*
X025*
X02492Y01777*
X025Y0178*
X02506Y01787*
X02507Y0179*
X02487*
Y018*
X02477*
Y0182*
X02475Y01819*
Y01928*
X02506Y0196*
X02801*
X02798Y01951*
Y01938*
X02801Y01927*
X02807Y01916*
X02816Y01907*
X02827Y01901*
X02838Y01898*
X02851*
X02862Y01901*
X02873Y01907*
X02882Y01916*
X02888Y01927*
X02891Y01938*
Y01951*
X02888Y0196*
X03001*
X02998Y01951*
Y01938*
X03001Y01927*
X03007Y01916*
X03016Y01907*
X03027Y01901*
X03038Y01898*
X03051*
X03062Y01901*
X03073Y01907*
X03082Y01916*
X03088Y01927*
X03091Y01938*
Y01951*
X03088Y0196*
X03301*
X03298Y01951*
Y01938*
X03301Y01927*
X03307Y01916*
X03316Y01907*
X03327Y01901*
X03338Y01898*
X03351*
X03362Y01901*
X03373Y01907*
X03382Y01916*
X03388Y01927*
X03391Y01938*
Y01951*
X03388Y0196*
X03501*
X03498Y01951*
Y01938*
X03501Y01927*
X03507Y01916*
X03516Y01907*
X03527Y01901*
X03538Y01898*
X03551*
X03562Y01901*
X03573Y01907*
X03582Y01916*
X03588Y01927*
X03591Y01938*
Y01951*
X03588Y0196*
X041*
X04105Y01959*
G37*
G36*
X0205Y01538D02*
X02045Y01537D01*
X02043Y01541*
X02038Y01546*
X02031Y01549*
X02024*
X02018Y01546*
X02013Y01541*
X0201Y01535*
Y01528*
X02013Y01521*
X02018Y01516*
X02024Y01514*
X02031*
X02038Y01516*
X02043Y01521*
X02045Y01525*
X0205Y01525*
Y01494*
X02045Y01493*
X02043Y01498*
X02038Y01503*
X02031Y01505*
X02024*
X02018Y01503*
X02013Y01498*
X0201Y01491*
Y01484*
X02013Y01478*
X02018Y01473*
X02024Y0147*
X02031*
X02038Y01473*
X02043Y01478*
X02045Y01482*
X0205Y01481*
Y01451*
X02045Y0145*
X02043Y01454*
X02038Y01459*
X02031Y01462*
X02024*
X02018Y01459*
X02013Y01454*
X0201Y01448*
Y01441*
X02013Y01435*
X02018Y0143*
X02024Y01427*
X02031*
X02038Y0143*
X02043Y01435*
X02045Y01439*
X0205Y01438*
Y01408*
X02045Y01407*
X02043Y01411*
X02038Y01416*
X02031Y01419*
X02024*
X02018Y01416*
X02013Y01411*
X0201Y01405*
Y01398*
X02013Y01391*
X02018Y01386*
X02024Y01384*
X02031*
X02038Y01386*
X02043Y01391*
X02045Y01396*
X0205Y01395*
Y01365*
X02045Y01364*
X02043Y01368*
X02038Y01373*
X02031Y01375*
X02024*
X02018Y01373*
X02013Y01368*
X0201Y01361*
Y01354*
X02013Y01348*
X02018Y01343*
X02024Y0134*
X02031*
X02038Y01343*
X02043Y01348*
X02045Y01352*
X0205Y01351*
Y01239*
X02045Y01237*
X02044Y01237*
Y01217*
X02034*
Y01207*
X02013*
X02015Y01204*
X02021Y01198*
X02021Y01198*
X02023Y01192*
X02021Y0119*
X01405*
Y01271*
X01636Y01502*
X01872*
X01875Y015*
X01881Y01497*
X01888*
X01894Y015*
X01899Y01505*
X01902Y01511*
Y01518*
X01899Y01524*
X01894Y01529*
X01888Y01532*
X01881*
X01875Y01529*
X01872Y01527*
X0163*
X01626Y01526*
X01621Y01524*
X01405Y01307*
Y01346*
X0165Y01592*
X0184*
X01857Y01575*
Y01572*
X0186Y01566*
X01865Y01561*
X01871Y01558*
X01878*
X01884Y01561*
X01889Y01566*
X01892Y01572*
Y01579*
X01889Y01586*
X01884Y0159*
X01878Y01593*
X01875*
X01855Y01614*
X0185Y01616*
X01846Y01617*
X01645*
X0164Y01616*
X01635Y01614*
X01476Y01454*
X01478Y0146*
X0144*
Y0148*
X01478*
X01476Y01485*
X01471Y01494*
X01471Y01494*
X01473Y01499*
X01475Y015*
X0148Y01503*
X01631Y01654*
X01665*
X01669Y01649*
X01667Y01645*
Y01639*
X0167Y01632*
X01675Y01627*
X01681Y01625*
X01688*
X01694Y01627*
X01699Y01632*
X01702Y01639*
Y01645*
X017Y01649*
X01704Y01654*
X01841*
X01869Y01626*
X01871Y01621*
X01876Y01616*
X01882Y01613*
X01889*
X01896Y01616*
X01901Y01621*
X01903Y01627*
Y01634*
X01901Y01641*
X01896Y01646*
X01891Y01648*
X01884Y01654*
X01887Y01659*
X01891Y01657*
X01898*
X01904Y0166*
X01909Y01665*
X01912Y01671*
Y01678*
X01909Y01684*
X01904Y01689*
X01898Y01692*
X01891*
X01885Y01689*
X0188Y01684*
X01877Y01678*
Y01671*
X01879Y01667*
X01874Y01664*
X01858Y0168*
X01853Y01684*
X01847Y01685*
X01625*
X01619Y01684*
X01614Y0168*
X01484Y01551*
X01479Y01553*
Y0158*
X0144*
Y0159*
X0143*
Y01629*
X01405*
Y017*
X01968*
X01969Y01695*
X01967Y01694*
X0196Y01687*
X01959Y01685*
X02*
X01999Y01687*
X01992Y01694*
X0199Y01695*
X01991Y017*
X0205*
Y01538*
G37*
G36*
X04105Y01629D02*
Y016D01*
X04145*
Y0159*
X04155*
Y0155*
X04175*
Y01495*
X04169Y01501*
X0416Y01506*
X04155Y01508*
Y0147*
X04145*
Y0146*
X04106*
X04108Y01454*
X04113Y01445*
X0412Y01438*
X04126Y01435*
X04125Y0143*
X03588*
X03591Y01438*
Y01451*
X03588Y01462*
X03582Y01473*
X03573Y01482*
X03562Y01488*
X03551Y01491*
X03538*
X03527Y01488*
X03516Y01482*
X03507Y01473*
X03501Y01462*
X03498Y01451*
Y01438*
X03501Y0143*
X03388*
X03391Y01438*
Y01451*
X03388Y01462*
X03382Y01473*
X03373Y01482*
X03362Y01488*
X03351Y01491*
X03338*
X03327Y01488*
X03316Y01482*
X03307Y01473*
X03301Y01462*
X03298Y01451*
Y01438*
X03301Y0143*
X02571*
X0249Y01511*
Y01543*
X02495Y01546*
X02496Y01545*
Y01565*
Y01585*
X02495Y01585*
X0249Y01587*
Y0163*
X02579*
X0258Y01625*
X0258Y01624*
X02575Y01619*
X02572Y01613*
Y01606*
X02575Y016*
X0258Y01595*
X02586Y01592*
X02593*
X02599Y01595*
X02604Y016*
X02607Y01606*
Y01613*
X02604Y01619*
X02599Y01624*
X02599Y01625*
X026Y0163*
X03301*
X03301Y01627*
X03307Y01616*
X03316Y01607*
X03327Y01601*
X03338Y01598*
X03351*
X03362Y01601*
X03373Y01607*
X03382Y01616*
X03388Y01627*
X03388Y0163*
X03501*
X03501Y01627*
X03507Y01616*
X03516Y01607*
X03527Y01601*
X03538Y01598*
X03551*
X03562Y01601*
X03573Y01607*
X03582Y01616*
X03588Y01627*
X03588Y0163*
X041*
X04105Y01629*
G37*
%LNcfd_2channel_copper_signal_bot-4*%
%LPC*%
G36*
X01344Y04929D02*
X01335D01*
X01326Y04927*
X01318Y04922*
X01312Y04916*
X01307Y04908*
X01305Y04899*
Y0489*
X01307Y04881*
X01312Y04873*
X01318Y04867*
X01326Y04862*
X01335Y0486*
X01344*
X01353Y04862*
X01361Y04867*
X01367Y04873*
X01372Y04881*
X01374Y0489*
Y04899*
X01372Y04908*
X01367Y04916*
X01361Y04922*
X01353Y04927*
X01344Y04929*
G37*
G36*
X0135Y04683D02*
Y04655D01*
X01378*
X01376Y0466*
X01371Y04669*
X01364Y04676*
X01355Y04681*
X0135Y04683*
G37*
G36*
X0133D02*
X01324Y04681D01*
X01315Y04676*
X01308Y04669*
X01303Y0466*
X01301Y04655*
X0133*
Y04683*
G37*
G36*
X01378Y04635D02*
X0135D01*
Y04606*
X01355Y04608*
X01364Y04613*
X01371Y0462*
X01376Y04629*
X01378Y04635*
G37*
G36*
X0133D02*
X01301D01*
X01303Y04629*
X01308Y0462*
X01315Y04613*
X01324Y04608*
X0133Y04606*
Y04635*
G37*
G36*
X02205Y04604D02*
X02198D01*
X02191Y04601*
X02186Y04596*
X02184Y0459*
Y04583*
X02186Y04576*
X02191Y04571*
X02198Y04569*
X02205*
X02211Y04571*
X02216Y04576*
X02219Y04583*
Y0459*
X02216Y04596*
X02211Y04601*
X02205Y04604*
G37*
G36*
X02161D02*
X02154D01*
X02148Y04601*
X02143Y04596*
X0214Y0459*
Y04583*
X02143Y04576*
X02148Y04571*
X02154Y04569*
X02161*
X02168Y04571*
X02173Y04576*
X02175Y04583*
Y0459*
X02173Y04596*
X02168Y04601*
X02161Y04604*
G37*
G36*
X02118D02*
X02111D01*
X02105Y04601*
X021Y04596*
X02097Y0459*
Y04583*
X021Y04576*
X02105Y04571*
X02111Y04569*
X02118*
X02124Y04571*
X02129Y04576*
X02132Y04583*
Y0459*
X02129Y04596*
X02124Y04601*
X02118Y04604*
G37*
G36*
X02075D02*
X02068D01*
X02061Y04601*
X02056Y04596*
X02054Y0459*
Y04583*
X02056Y04576*
X02061Y04571*
X02068Y04569*
X02075*
X02081Y04571*
X02086Y04576*
X02089Y04583*
Y0459*
X02086Y04596*
X02081Y04601*
X02075Y04604*
G37*
G36*
X02205Y0456D02*
X02198D01*
X02191Y04558*
X02186Y04553*
X02184Y04546*
Y04539*
X02186Y04533*
X02191Y04528*
X02198Y04525*
X02205*
X02211Y04528*
X02216Y04533*
X02219Y04539*
Y04546*
X02216Y04553*
X02211Y04558*
X02205Y0456*
G37*
G36*
X02161D02*
X02154D01*
X02148Y04558*
X02143Y04553*
X0214Y04546*
Y04539*
X02143Y04533*
X02148Y04528*
X02154Y04525*
X02161*
X02168Y04528*
X02173Y04533*
X02175Y04539*
Y04546*
X02173Y04553*
X02168Y04558*
X02161Y0456*
G37*
G36*
X02118D02*
X02111D01*
X02105Y04558*
X021Y04553*
X02097Y04546*
Y04539*
X021Y04533*
X02105Y04528*
X02111Y04525*
X02118*
X02124Y04528*
X02129Y04533*
X02132Y04539*
Y04546*
X02129Y04553*
X02124Y04558*
X02118Y0456*
G37*
G36*
X02075D02*
X02068D01*
X02061Y04558*
X02056Y04553*
X02054Y04546*
Y04539*
X02056Y04533*
X02061Y04528*
X02068Y04525*
X02075*
X02081Y04528*
X02086Y04533*
X02089Y04539*
Y04546*
X02086Y04553*
X02081Y04558*
X02075Y0456*
G37*
G36*
X02205Y04517D02*
X02198D01*
X02191Y04514*
X02186Y04509*
X02184Y04503*
Y04496*
X02186Y0449*
X02191Y04485*
X02198Y04482*
X02205*
X02211Y04485*
X02216Y0449*
X02219Y04496*
Y04503*
X02216Y04509*
X02211Y04514*
X02205Y04517*
G37*
G36*
X02161D02*
X02154D01*
X02148Y04514*
X02143Y04509*
X0214Y04503*
Y04496*
X02143Y0449*
X02148Y04485*
X02154Y04482*
X02161*
X02168Y04485*
X02173Y0449*
X02175Y04496*
Y04503*
X02173Y04509*
X02168Y04514*
X02161Y04517*
G37*
G36*
X02118D02*
X02111D01*
X02105Y04514*
X021Y04509*
X02097Y04503*
Y04496*
X021Y0449*
X02105Y04485*
X02111Y04482*
X02118*
X02124Y04485*
X02129Y0449*
X02132Y04496*
Y04503*
X02129Y04509*
X02124Y04514*
X02118Y04517*
G37*
G36*
X02075D02*
X02068D01*
X02061Y04514*
X02056Y04509*
X02054Y04503*
Y04496*
X02056Y0449*
X02061Y04485*
X02068Y04482*
X02075*
X02081Y04485*
X02086Y0449*
X02089Y04496*
Y04503*
X02086Y04509*
X02081Y04514*
X02075Y04517*
G37*
G36*
X02205Y04474D02*
X02198D01*
X02191Y04471*
X02186Y04466*
X02184Y0446*
Y04453*
X02186Y04446*
X02191Y04441*
X02198Y04439*
X02205*
X02211Y04441*
X02216Y04446*
X02219Y04453*
Y0446*
X02216Y04466*
X02211Y04471*
X02205Y04474*
G37*
G36*
X02161D02*
X02154D01*
X02148Y04471*
X02143Y04466*
X0214Y0446*
Y04453*
X02143Y04446*
X02148Y04441*
X02154Y04439*
X02161*
X02168Y04441*
X02173Y04446*
X02175Y04453*
Y0446*
X02173Y04466*
X02168Y04471*
X02161Y04474*
G37*
G36*
X02118D02*
X02111D01*
X02105Y04471*
X021Y04466*
X02097Y0446*
Y04453*
X021Y04446*
X02105Y04441*
X02111Y04439*
X02118*
X02124Y04441*
X02129Y04446*
X02132Y04453*
Y0446*
X02129Y04466*
X02124Y04471*
X02118Y04474*
G37*
G36*
X02075D02*
X02068D01*
X02061Y04471*
X02056Y04466*
X02054Y0446*
Y04453*
X02056Y04446*
X02061Y04441*
X02068Y04439*
X02075*
X02081Y04441*
X02086Y04446*
X02089Y04453*
Y0446*
X02086Y04466*
X02081Y04471*
X02075Y04474*
G37*
G36*
X02205Y0443D02*
X02198D01*
X02191Y04428*
X02186Y04423*
X02184Y04416*
Y04409*
X02186Y04403*
X02191Y04398*
X02198Y04395*
X02205*
X02211Y04398*
X02216Y04403*
X02219Y04409*
Y04416*
X02216Y04423*
X02211Y04428*
X02205Y0443*
G37*
G36*
X02161D02*
X02154D01*
X02148Y04428*
X02143Y04423*
X0214Y04416*
Y04409*
X02143Y04403*
X02148Y04398*
X02154Y04395*
X02161*
X02168Y04398*
X02173Y04403*
X02175Y04409*
Y04416*
X02173Y04423*
X02168Y04428*
X02161Y0443*
G37*
G36*
X02118D02*
X02111D01*
X02105Y04428*
X021Y04423*
X02097Y04416*
Y04409*
X021Y04403*
X02105Y04398*
X02111Y04395*
X02118*
X02124Y04398*
X02129Y04403*
X02132Y04409*
Y04416*
X02129Y04423*
X02124Y04428*
X02118Y0443*
G37*
G36*
X02075D02*
X02068D01*
X02061Y04428*
X02056Y04423*
X02054Y04416*
Y04409*
X02056Y04403*
X02061Y04398*
X02068Y04395*
X02075*
X02081Y04398*
X02086Y04403*
X02089Y04409*
Y04416*
X02086Y04423*
X02081Y04428*
X02075Y0443*
G37*
G36*
X04283Y04965D02*
X04255D01*
Y04936*
X0426Y04938*
X04269Y04943*
X04276Y0495*
X04281Y04959*
X04283Y04965*
G37*
G36*
X04235D02*
X04206D01*
X04208Y04959*
X04213Y0495*
X0422Y04943*
X04229Y04938*
X04235Y04936*
Y04965*
G37*
G36*
X04255Y04683D02*
Y04655D01*
X04283*
X04281Y0466*
X04276Y04669*
X04269Y04676*
X0426Y04681*
X04255Y04683*
G37*
G36*
X04235D02*
X04229Y04681D01*
X0422Y04676*
X04213Y04669*
X04208Y0466*
X04206Y04655*
X04235*
Y04683*
G37*
G36*
X04283Y04635D02*
X04255D01*
Y04606*
X0426Y04608*
X04269Y04613*
X04276Y0462*
X04281Y04629*
X04283Y04635*
G37*
G36*
X04235D02*
X04206D01*
X04208Y04629*
X04213Y0462*
X0422Y04613*
X04229Y04608*
X04235Y04606*
Y04635*
G37*
G36*
X04729Y02604D02*
X047D01*
Y02575*
X04729*
Y02604*
G37*
G36*
X0468D02*
X0465D01*
Y02575*
X0468*
Y02604*
G37*
G36*
X04135Y04965D02*
X04105D01*
Y04935*
X04135*
Y04965*
G37*
G36*
X02497Y04875D02*
Y04865D01*
X02507*
X02506Y04867*
X025Y04874*
X02497Y04875*
G37*
G36*
X04135Y04893D02*
X04129Y04891D01*
X0412Y04886*
X04113Y04879*
X04108Y0487*
X04106Y04865*
X04135*
Y04893*
G37*
G36*
X01898Y04747D02*
X01891D01*
X01885Y04744*
X0188Y04739*
X01877Y04733*
Y04726*
X0188Y0472*
X01885Y04715*
X01891Y04712*
X01898*
X01904Y04715*
X01909Y0472*
X01912Y04726*
Y04733*
X01909Y04739*
X01904Y04744*
X01898Y04747*
G37*
G36*
X0197Y0472D02*
X01959D01*
X0196Y04717*
X01967Y0471*
X0197Y04709*
Y0472*
G37*
G36*
X01688Y04712D02*
X01681D01*
X01675Y04709*
X0167Y04704*
X01667Y04698*
Y04691*
X0167Y04685*
X01675Y0468*
X01681Y04677*
X01688*
X01694Y0468*
X01699Y04685*
X01702Y04691*
Y04698*
X01699Y04704*
X01694Y04709*
X01688Y04712*
G37*
G36*
X01479Y04684D02*
X0145D01*
Y04655*
X01479*
Y04684*
G37*
G36*
Y04635D02*
X0145D01*
Y04605*
X01479*
Y04635*
G37*
G36*
X01688Y04627D02*
X01681D01*
X01675Y04624*
X0167Y04619*
X01667Y04613*
Y04606*
X0167Y046*
X01675Y04595*
X01681Y04592*
X01688*
X01694Y04595*
X01699Y046*
X01702Y04606*
Y04613*
X01699Y04619*
X01694Y04624*
X01688Y04627*
G37*
G36*
X01895Y04545D02*
Y04535D01*
X01905*
X01904Y04537*
X01897Y04544*
X01895Y04545*
G37*
G36*
X01875D02*
X01872Y04544D01*
X01865Y04537*
X01864Y04535*
X01875*
Y04545*
G37*
G36*
X0145Y04563D02*
Y04535D01*
X01478*
X01476Y0454*
X01471Y04549*
X01464Y04556*
X01455Y04561*
X0145Y04563*
G37*
G36*
X01688Y04542D02*
X01681D01*
X01675Y04539*
X0167Y04534*
X01667Y04528*
Y04521*
X0167Y04515*
X01675Y0451*
X01681Y04507*
X01688*
X01694Y0451*
X01699Y04515*
X01702Y04521*
Y04528*
X01699Y04534*
X01694Y04539*
X01688Y04542*
G37*
G36*
X01905Y04515D02*
X01895D01*
Y04504*
X01897Y04505*
X01904Y04512*
X01905Y04515*
G37*
G36*
X01875D02*
X01864D01*
X01865Y04512*
X01872Y04505*
X01875Y04504*
Y04515*
G37*
G36*
X01478D02*
X0145D01*
Y04486*
X01455Y04488*
X01464Y04493*
X01471Y045*
X01476Y04509*
X01478Y04515*
G37*
G36*
X01888Y04457D02*
X01881D01*
X01875Y04454*
X0187Y04449*
X01867Y04443*
Y04436*
X0187Y0443*
X01875Y04425*
X01881Y04422*
X01888*
X01894Y04425*
X01899Y0443*
X01902Y04436*
Y04443*
X01899Y04449*
X01894Y04454*
X01888Y04457*
G37*
G36*
X01688D02*
X01681D01*
X01675Y04454*
X0167Y04449*
X01667Y04443*
Y04436*
X0167Y0443*
X01675Y04425*
X01681Y04422*
X01688*
X01694Y04425*
X01699Y0443*
X01702Y04436*
Y04443*
X01699Y04449*
X01694Y04454*
X01688Y04457*
G37*
G36*
X01895Y04375D02*
Y04365D01*
X01905*
X01904Y04367*
X01897Y04374*
X01895Y04375*
G37*
G36*
X01875D02*
X01872Y04374D01*
X01865Y04367*
X01864Y04365*
X01875*
Y04375*
G37*
G36*
X01905Y04345D02*
X01895D01*
Y04334*
X01897Y04335*
X01904Y04342*
X01905Y04345*
G37*
G36*
X01875D02*
X01864D01*
X01865Y04342*
X01872Y04335*
X01875Y04334*
Y04345*
G37*
G36*
X02025Y0429D02*
X02022Y04289D01*
X02015Y04282*
X02014Y0428*
X02025*
Y0429*
G37*
G36*
X01963Y04287D02*
X01956D01*
X0195Y04284*
X01945Y04279*
X01942Y04273*
Y04266*
X01945Y0426*
X0195Y04255*
X01956Y04252*
X01963*
X01969Y04255*
X01974Y0426*
X01977Y04266*
Y04273*
X01974Y04279*
X01969Y04284*
X01963Y04287*
G37*
G36*
X01758Y0431D02*
X01751D01*
X01743Y04307*
X01736Y04304*
X0173Y04298*
X01727Y04291*
X01725Y04283*
Y04276*
X01727Y04268*
X0173Y04261*
X01736Y04255*
X01743Y04252*
X01751Y0425*
X01758*
X01766Y04252*
X01773Y04255*
X01779Y04261*
X01782Y04268*
X01785Y04276*
Y04283*
X01782Y04291*
X01779Y04298*
X01773Y04304*
X01766Y04307*
X01758Y0431*
G37*
G36*
X02516Y0464D02*
Y0463D01*
X02526*
X02525Y04633*
X02519Y04639*
X02516Y0464*
G37*
G36*
X02718Y04657D02*
X02711D01*
X02705Y04654*
X027Y04649*
X02697Y04643*
Y04636*
X027Y0463*
X02705Y04625*
X02711Y04622*
X02718*
X02724Y04625*
X02729Y0463*
X02732Y04636*
Y04643*
X02729Y04649*
X02724Y04654*
X02718Y04657*
G37*
G36*
X04135Y04635D02*
X04105D01*
Y04605*
X04135*
Y04635*
G37*
G36*
X02526Y0461D02*
X02516D01*
Y046*
X02519Y04601*
X02525Y04608*
X02526Y0461*
G37*
G36*
X03893Y04607D02*
X03886D01*
X0388Y04604*
X03875Y04599*
X03872Y04593*
Y04586*
X03875Y0458*
X0388Y04575*
X03886Y04572*
X03893*
X03899Y04575*
X03904Y0458*
X03907Y04586*
Y04593*
X03904Y04599*
X03899Y04604*
X03893Y04607*
G37*
G36*
X0345Y04644D02*
X03439D01*
X03427Y04641*
X03417Y04635*
X03409Y04627*
X03403Y04617*
X034Y04605*
Y04594*
X03403Y04582*
X03409Y04572*
X03417Y04564*
X03427Y04558*
X03439Y04555*
X0345*
X03462Y04558*
X03472Y04564*
X0348Y04572*
X03486Y04582*
X03489Y04594*
Y04605*
X03486Y04617*
X0348Y04627*
X03472Y04635*
X03462Y04641*
X0345Y04644*
G37*
G36*
X04135Y04563D02*
X04129Y04561D01*
X0412Y04556*
X04113Y04549*
X04108Y0454*
X04106Y04535*
X04135*
Y04563*
G37*
G36*
X02718Y04557D02*
X02711D01*
X02705Y04554*
X027Y04549*
X02697Y04543*
Y04536*
X027Y0453*
X02705Y04525*
X02711Y04522*
X02718*
X02724Y04525*
X02729Y0453*
X02732Y04536*
Y04543*
X02729Y04549*
X02724Y04554*
X02718Y04557*
G37*
G36*
Y04457D02*
X02711D01*
X02705Y04454*
X027Y04449*
X02697Y04443*
Y04436*
X027Y0443*
X02705Y04425*
X02711Y04422*
X02718*
X02724Y04425*
X02729Y0443*
X02732Y04436*
Y04443*
X02729Y04449*
X02724Y04454*
X02718Y04457*
G37*
G36*
X03752Y04337D02*
X03745D01*
X03739Y04334*
X03734Y04329*
X03731Y04323*
Y04316*
X03734Y04309*
X03739Y04304*
X03745Y04302*
X03752*
X03759Y04304*
X03763Y04309*
X03766Y04316*
Y04323*
X03763Y04329*
X03759Y04334*
X03752Y04337*
G37*
G36*
X03556Y04246D02*
X03543D01*
X03532Y04243*
X03521Y04237*
X03512Y04228*
X03506Y04217*
X03503Y04206*
Y04193*
X03506Y04182*
X03512Y04171*
X03521Y04162*
X03532Y04156*
X03543Y04153*
X03556*
X03567Y04156*
X03578Y04162*
X03587Y04171*
X03593Y04182*
X03596Y04193*
Y04206*
X03593Y04217*
X03587Y04228*
X03578Y04237*
X03567Y04243*
X03556Y04246*
G37*
G36*
X03356D02*
X03343D01*
X03332Y04243*
X03321Y04237*
X03312Y04228*
X03306Y04217*
X03303Y04206*
Y04193*
X03306Y04182*
X03312Y04171*
X03321Y04162*
X03332Y04156*
X03343Y04153*
X03356*
X03367Y04156*
X03378Y04162*
X03387Y04171*
X03393Y04182*
X03396Y04193*
Y04206*
X03393Y04217*
X03387Y04228*
X03378Y04237*
X03367Y04243*
X03356Y04246*
G37*
G36*
X03455Y04144D02*
X03444D01*
X03432Y04141*
X03422Y04135*
X03414Y04127*
X03408Y04117*
X03405Y04105*
Y04094*
X03408Y04082*
X03414Y04072*
X03422Y04064*
X03432Y04058*
X03444Y04055*
X03455*
X03467Y04058*
X03477Y04064*
X03485Y04072*
X03491Y04082*
X03494Y04094*
Y04105*
X03491Y04117*
X03485Y04127*
X03477Y04135*
X03467Y04141*
X03455Y04144*
G37*
G36*
X03556Y04046D02*
X03543D01*
X03532Y04043*
X03521Y04037*
X03512Y04028*
X03506Y04017*
X03503Y04006*
Y03993*
X03506Y03982*
X03512Y03971*
X03521Y03962*
X03532Y03956*
X03543Y03953*
X03556*
X03567Y03956*
X03578Y03962*
X03587Y03971*
X03593Y03982*
X03596Y03993*
Y04006*
X03593Y04017*
X03587Y04028*
X03578Y04037*
X03567Y04043*
X03556Y04046*
G37*
G36*
X03356D02*
X03343D01*
X03332Y04043*
X03321Y04037*
X03312Y04028*
X03306Y04017*
X03303Y04006*
Y03993*
X03306Y03982*
X03312Y03971*
X03321Y03962*
X03332Y03956*
X03343Y03953*
X03356*
X03367Y03956*
X03378Y03962*
X03387Y03971*
X03393Y03982*
X03396Y03993*
Y04006*
X03393Y04017*
X03387Y04028*
X03378Y04037*
X03367Y04043*
X03356Y04046*
G37*
G36*
X03Y03973D02*
Y0395D01*
X03023*
X03022Y03953*
X03018Y03961*
X03011Y03968*
X03003Y03972*
X03Y03973*
G37*
G36*
X03928Y04005D02*
X03921D01*
X03913Y04002*
X03906Y03999*
X039Y03993*
X03897Y03986*
X03895Y03978*
Y03971*
X03896Y03965*
X03385Y03455*
X0333Y03399*
X03328Y034*
X03321*
X03313Y03397*
X03306Y03394*
X033Y03388*
X03297Y03381*
X03295Y03373*
Y03366*
X03297Y03358*
X033Y03351*
X03306Y03345*
X03313Y03342*
X03321Y0334*
X03328*
X03332Y0334*
X03359Y03313*
Y0321*
X03356Y03209*
X0335Y03203*
X03347Y03196*
X03345Y03188*
Y03181*
X03347Y03173*
X0335Y03166*
X03356Y0316*
X03363Y03157*
X03371Y03155*
X03378*
X03386Y03157*
X03393Y0316*
X03399Y03166*
X03402Y03173*
X03405Y03181*
Y03188*
X03402Y03196*
X03399Y03203*
X03393Y03209*
X0339Y0321*
Y0332*
X03389Y03325*
X03385Y0333*
X03354Y03362*
X03355Y03366*
Y03373*
X03354Y03375*
X03353Y03379*
X03604Y0363*
X03919Y03945*
X03921Y03945*
X03928*
X03936Y03947*
X03943Y0395*
X03949Y03956*
X03952Y03963*
X03955Y03971*
Y03978*
X03952Y03986*
X03949Y03993*
X03943Y03999*
X03936Y04002*
X03928Y04005*
G37*
G36*
X02471Y03866D02*
X02458D01*
X02447Y03863*
X02436Y03857*
X02427Y03848*
X02421Y03837*
X02418Y03826*
Y03813*
X02421Y03802*
X02427Y03791*
X02436Y03782*
X02447Y03776*
X02458Y03773*
X02471*
X02482Y03776*
X02493Y03782*
X02502Y03791*
X02508Y03802*
X02511Y03813*
Y03826*
X02508Y03837*
X02502Y03848*
X02493Y03857*
X02482Y03863*
X02471Y03866*
G37*
G36*
X02271D02*
X02258D01*
X02247Y03863*
X02236Y03857*
X02227Y03848*
X02221Y03837*
X02218Y03826*
Y03813*
X02221Y03802*
X02227Y03791*
X02236Y03782*
X02247Y03776*
X02258Y03773*
X02271*
X02282Y03776*
X02293Y03782*
X02302Y03791*
X02308Y03802*
X02311Y03813*
Y03826*
X02308Y03837*
X02302Y03848*
X02293Y03857*
X02282Y03863*
X02271Y03866*
G37*
G36*
X01971D02*
X01958D01*
X01947Y03863*
X01936Y03857*
X01927Y03848*
X01921Y03837*
X01918Y03826*
Y03813*
X01921Y03802*
X01927Y03791*
X01936Y03782*
X01947Y03776*
X01958Y03773*
X01971*
X01982Y03776*
X01993Y03782*
X02002Y03791*
X02008Y03802*
X02011Y03813*
Y03826*
X02008Y03837*
X02002Y03848*
X01993Y03857*
X01982Y03863*
X01971Y03866*
G37*
G36*
X02934Y03789D02*
X02925D01*
X02916Y03787*
X02908Y03782*
X02902Y03776*
X02897Y03768*
X02895Y03759*
Y0375*
X02897Y03741*
X02902Y03733*
X02908Y03727*
X02916Y03722*
X02925Y0372*
X02934*
X02943Y03722*
X02951Y03727*
X02957Y03733*
X02962Y03741*
X02964Y0375*
Y03759*
X02962Y03768*
X02957Y03776*
X02951Y03782*
X02943Y03787*
X02934Y03789*
G37*
G36*
X03546Y03772D02*
X03538D01*
X0353Y0377*
X03524Y03766*
X03518Y0376*
X03514Y03754*
X03512Y03746*
Y03738*
X03514Y0373*
X03518Y03724*
X03524Y03718*
X0353Y03714*
X03538Y03712*
X03546*
X03554Y03714*
X0356Y03718*
X03566Y03724*
X0357Y0373*
X03572Y03738*
Y03746*
X0357Y03754*
X03566Y0376*
X0356Y03766*
X03554Y0377*
X03546Y03772*
G37*
G36*
X0237Y03764D02*
X02359D01*
X02347Y03761*
X02337Y03755*
X02329Y03747*
X02323Y03737*
X0232Y03725*
Y03714*
X02323Y03702*
X02329Y03692*
X02337Y03684*
X02347Y03678*
X02359Y03675*
X0237*
X02382Y03678*
X02392Y03684*
X024Y03692*
X02406Y03702*
X02409Y03714*
Y03725*
X02406Y03737*
X024Y03747*
X02392Y03755*
X02382Y03761*
X0237Y03764*
G37*
G36*
X0187D02*
X01859D01*
X01847Y03761*
X01837Y03755*
X01829Y03747*
X01823Y03737*
X0182Y03725*
Y03714*
X01823Y03702*
X01829Y03692*
X01837Y03684*
X01847Y03678*
X01859Y03675*
X0187*
X01882Y03678*
X01892Y03684*
X019Y03692*
X01906Y03702*
X01909Y03714*
Y03725*
X01906Y03737*
X019Y03747*
X01892Y03755*
X01882Y03761*
X0187Y03764*
G37*
G36*
X02471Y03666D02*
X02458D01*
X02447Y03663*
X02436Y03657*
X02427Y03648*
X02421Y03637*
X02418Y03626*
Y03613*
X02421Y03602*
X02427Y03591*
X02436Y03582*
X02447Y03576*
X02458Y03573*
X02471*
X02482Y03576*
X02493Y03582*
X02502Y03591*
X02508Y03602*
X02511Y03613*
Y03626*
X0251Y0363*
X02508Y03637*
X02502Y03648*
X02493Y03657*
X02482Y03663*
X02471Y03666*
G37*
G36*
X02271D02*
X02258D01*
X02247Y03663*
X02236Y03657*
X02227Y03648*
X02221Y03637*
X02218Y03626*
Y03613*
X02221Y03602*
X02227Y03591*
X02236Y03582*
X02247Y03576*
X02258Y03573*
X02271*
X02282Y03576*
X02293Y03582*
X02302Y03591*
X02308Y03602*
X02311Y03613*
Y03626*
X0231Y0363*
X02308Y03637*
X02302Y03648*
X02293Y03657*
X02282Y03663*
X02271Y03666*
G37*
G36*
X01971D02*
X01958D01*
X01947Y03663*
X01936Y03657*
X01927Y03648*
X01921Y03637*
X01918Y03626*
Y03613*
X01921Y03602*
X01927Y03591*
X01936Y03582*
X01947Y03576*
X01958Y03573*
X01971*
X01982Y03576*
X01993Y03582*
X02002Y03591*
X02008Y03602*
X02011Y03613*
Y03626*
X0201Y0363*
X02008Y03637*
X02002Y03648*
X01993Y03657*
X01982Y03663*
X01971Y03666*
G37*
G36*
X01771D02*
X01758D01*
X01747Y03663*
X01736Y03657*
X01727Y03648*
X01721Y03637*
X01718Y03626*
Y03613*
X01721Y03602*
X01727Y03591*
X01736Y03582*
X01747Y03576*
X01758Y03573*
X01771*
X01782Y03576*
X01793Y03582*
X01802Y03591*
X01808Y03602*
X01811Y03613*
Y03626*
X0181Y0363*
X01808Y03637*
X01802Y03648*
X01793Y03657*
X01782Y03663*
X01771Y03666*
G37*
G36*
X03955Y03583D02*
Y0356D01*
X03978*
X03977Y03563*
X03973Y03571*
X03966Y03578*
X03958Y03582*
X03955Y03583*
G37*
G36*
X03935D02*
X03931Y03582D01*
X03923Y03578*
X03916Y03571*
X03912Y03563*
X03911Y0356*
X03935*
Y03583*
G37*
G36*
X03978Y0354D02*
X03955D01*
Y03516*
X03958Y03517*
X03966Y03521*
X03973Y03528*
X03977Y03536*
X03978Y0354*
G37*
G36*
X03935D02*
X03911D01*
X03912Y03536*
X03916Y03528*
X03923Y03521*
X03931Y03517*
X03935Y03516*
Y0354*
G37*
G36*
X02613Y03502D02*
X02606D01*
X026Y03499*
X02595Y03494*
X02592Y03488*
Y03481*
X02595Y03475*
X026Y0347*
X02606Y03467*
X02613*
X02619Y0347*
X02624Y03475*
X02627Y03481*
Y03488*
X02624Y03494*
X02619Y03499*
X02613Y03502*
G37*
G36*
X03183Y03483D02*
X03176D01*
X03168Y03481*
X03161Y03477*
X03156Y03472*
X03152Y03465*
X0315Y03457*
Y03455*
Y03449*
X0315Y03449*
X03019Y03318*
X03018Y03319*
X03011Y03322*
X03003Y03325*
X02996*
X02988Y03322*
X02981Y03319*
X02975Y03313*
X02972Y03306*
X0297Y03298*
Y03291*
X02972Y03283*
X02975Y03276*
X02981Y0327*
X02988Y03267*
X02996Y03265*
X03003*
X03011Y03267*
X03018Y0327*
X03024Y03276*
X03027Y03283*
X0303Y03291*
Y03298*
X03029Y03299*
X0316Y0343*
X03161Y03429*
X03168Y03425*
X03176Y03423*
X03183*
X03191Y03425*
X03198Y03429*
X03204Y03435*
X03207Y03442*
X0321Y03449*
Y03455*
Y03457*
X03207Y03465*
X03204Y03472*
X03198Y03477*
X03191Y03481*
X03183Y03483*
G37*
G36*
X03904Y03444D02*
X03895D01*
X03886Y03442*
X03878Y03437*
X03872Y03431*
X03867Y03423*
X03865Y03414*
Y03405*
X03867Y03396*
X03872Y03388*
X03878Y03382*
X03886Y03377*
X03895Y03375*
X03904*
X03913Y03377*
X03921Y03382*
X03927Y03388*
X03932Y03396*
X03934Y03405*
Y03414*
X03932Y03423*
X03927Y03431*
X03921Y03437*
X03913Y03442*
X03904Y03444*
G37*
G36*
X03804D02*
X03795D01*
X03786Y03442*
X03778Y03437*
X03772Y03431*
X03767Y03423*
X03765Y03414*
Y03405*
X03767Y03396*
X03772Y03388*
X03778Y03382*
X03786Y03377*
X03795Y03375*
X03804*
X03813Y03377*
X03821Y03382*
X03827Y03388*
X03832Y03396*
X03834Y03405*
Y03414*
X03832Y03423*
X03827Y03431*
X03821Y03437*
X03813Y03442*
X03804Y03444*
G37*
G36*
X03704D02*
X03695D01*
X03686Y03442*
X03678Y03437*
X03672Y03431*
X03667Y03423*
X03665Y03414*
Y03405*
X03667Y03396*
X03672Y03388*
X03678Y03382*
X03686Y03377*
X03695Y03375*
X03704*
X03713Y03377*
X03721Y03382*
X03727Y03388*
X03732Y03396*
X03734Y03405*
Y03414*
X03732Y03423*
X03727Y03431*
X03721Y03437*
X03713Y03442*
X03704Y03444*
G37*
G36*
X03604D02*
X03595D01*
X03586Y03442*
X03578Y03437*
X03572Y03431*
X03567Y03423*
X03565Y03414*
Y03405*
X03567Y03396*
X03572Y03388*
X03578Y03382*
X03586Y03377*
X03595Y03375*
X03604*
X03613Y03377*
X03621Y03382*
X03627Y03388*
X03632Y03396*
X03634Y03405*
Y03414*
X03632Y03423*
X03627Y03431*
X03621Y03437*
X03613Y03442*
X03604Y03444*
G37*
G36*
X03504D02*
X03495D01*
X03486Y03442*
X03478Y03437*
X03472Y03431*
X03467Y03423*
X03465Y03414*
Y03405*
X03467Y03396*
X03472Y03388*
X03478Y03382*
X03486Y03377*
X03495Y03375*
X03504*
X03513Y03377*
X03521Y03382*
X03527Y03388*
X03532Y03396*
X03534Y03405*
Y03414*
X03532Y03423*
X03527Y03431*
X03521Y03437*
X03513Y03442*
X03504Y03444*
G37*
G36*
X02593Y03367D02*
X02586D01*
X0258Y03364*
X02575Y03359*
X02572Y03353*
Y03346*
X02575Y0334*
X0258Y03335*
X02586Y03332*
X02593*
X02599Y03335*
X02604Y0334*
X02607Y03346*
Y03353*
X02604Y03359*
X02599Y03364*
X02593Y03367*
G37*
G36*
X02423Y03352D02*
X02416D01*
X0241Y03349*
X02405Y03344*
X02402Y03338*
Y03331*
X02405Y03325*
X0241Y0332*
X02416Y03317*
X02423*
X02429Y0332*
X02434Y03325*
X02437Y03331*
Y03338*
X02434Y03344*
X02429Y03349*
X02423Y03352*
G37*
G36*
X02718Y03237D02*
X02711D01*
X02705Y03234*
X027Y03229*
X02697Y03223*
Y03216*
X027Y0321*
X02705Y03205*
X02711Y03202*
X02718*
X02724Y03205*
X02729Y0321*
X02732Y03216*
Y03223*
X02729Y03229*
X02724Y03234*
X02718Y03237*
G37*
G36*
X02362Y0292D02*
X01765D01*
X01761Y02919*
X01757Y02917*
X01713Y02872*
X01706*
X017Y02869*
X01695Y02864*
X01692Y02858*
Y02851*
X01695Y02845*
X017Y0284*
X01706Y02837*
X01713*
X01719Y0284*
X01724Y02845*
X01727Y02851*
Y02858*
X01769Y02899*
X01818*
X0182Y02894*
X01703Y02777*
X01696*
X0169Y02774*
X01685Y02769*
X01682Y02763*
Y02756*
X01685Y0275*
X0169Y02745*
X01696Y02742*
X01703*
X01709Y02745*
X01714Y0275*
X01717Y02756*
Y02763*
X01834Y02879*
X02278*
X02296Y02861*
X02296Y02858*
X02294Y02856*
X02294Y02856*
X02291*
X02283*
X02272Y02853*
X02261Y02847*
X02252Y02838*
X02246Y02827*
X02243Y02816*
Y02803*
X02246Y02792*
X02252Y02781*
X02261Y02772*
X02272Y02766*
X02283Y02763*
X02296*
X02307Y02766*
X02318Y02772*
X02327Y02781*
X02333Y02792*
X02336Y02803*
Y02811*
Y02814*
X02336Y02814*
X02338Y02816*
X02341Y02816*
X02378Y0278*
X02383Y02774*
X02395Y02762*
X02398Y0276*
X02402Y02759*
X02765*
X0277Y02755*
X02776Y02752*
X02783*
X02789Y02755*
X02794Y0276*
X02797Y02766*
Y02773*
X02796Y02775*
X02794Y02779*
X02789Y02784*
X02783Y02787*
X02776*
X0277Y02784*
X02765Y0278*
X02406*
X02292Y02894*
X02294Y02899*
X02358*
X02425Y02832*
X02429Y0283*
X02432Y02829*
X02815*
X0282Y02825*
X02826Y02822*
X02833*
X02839Y02825*
X02844Y0283*
X02847Y02836*
Y02843*
X02844Y02849*
X02839Y02854*
X02833Y02857*
X02826*
X0282Y02854*
X02815Y0285*
X02437*
X0237Y02917*
X02366Y02919*
X02362Y0292*
G37*
G36*
X02096Y02856D02*
X02083D01*
X02072Y02853*
X02061Y02847*
X02052Y02838*
X02046Y02827*
X02043Y02816*
Y02803*
X02046Y02792*
X02052Y02781*
X02061Y02772*
X02072Y02766*
X02083Y02763*
X02096*
X02107Y02766*
X02118Y02772*
X02127Y02781*
X02133Y02792*
X02136Y02803*
Y02816*
X02133Y02827*
X02127Y02838*
X02118Y02847*
X02107Y02853*
X02096Y02856*
G37*
G36*
X03113Y02767D02*
X03106D01*
X031Y02764*
X03095Y02759*
X03092Y02753*
Y02746*
X03095Y0274*
X031Y02735*
X03106Y02732*
X03113*
X03119Y02735*
X03124Y0274*
X03127Y02746*
Y02753*
X03124Y02759*
X03119Y02764*
X03113Y02767*
G37*
G36*
X02725Y02703D02*
Y0268D01*
X02748*
X02747Y02683*
X02743Y02691*
X02736Y02698*
X02728Y02702*
X02725Y02703*
G37*
G36*
X02705D02*
X02701Y02702D01*
X02693Y02698*
X02686Y02691*
X02682Y02683*
X02681Y0268*
X02705*
Y02703*
G37*
G36*
X02195Y02754D02*
X02184D01*
X02172Y02751*
X02162Y02745*
X02154Y02737*
X02148Y02727*
X02145Y02715*
Y02704*
X02148Y02692*
X02154Y02682*
X02162Y02674*
X02172Y02668*
X02184Y02665*
X02195*
X02207Y02668*
X02217Y02674*
X02225Y02682*
X02231Y02692*
X02234Y02704*
Y02715*
X02231Y02727*
X02225Y02737*
X02217Y02745*
X02207Y02751*
X02195Y02754*
G37*
G36*
X02498Y02677D02*
X02491D01*
X02485Y02674*
X0248Y02669*
X02477Y02663*
Y02656*
X0248Y0265*
X02485Y02645*
X02491Y02642*
X02498*
X02504Y02645*
X02509Y0265*
X02512Y02656*
Y02663*
X02509Y02669*
X02504Y02674*
X02498Y02677*
G37*
G36*
X02748Y0266D02*
X02725D01*
Y02636*
X02728Y02637*
X02736Y02641*
X02743Y02648*
X02747Y02656*
X02748Y0266*
G37*
G36*
X02705D02*
X02681D01*
X02682Y02656*
X02686Y02648*
X02693Y02641*
X02701Y02637*
X02705Y02636*
Y0266*
G37*
G36*
X04128Y0387D02*
X04121D01*
X04113Y03867*
X04106Y03864*
X041Y03858*
X04097Y03851*
X04095Y03843*
Y03836*
X04097Y03828*
X041Y03821*
X04106Y03815*
X04113Y03812*
X04121Y0381*
X04128*
X04136Y03812*
X04143Y03815*
X04149Y03821*
X04152Y03828*
X04155Y03836*
Y03843*
X04152Y03851*
X04149Y03858*
X04143Y03864*
X04136Y03867*
X04128Y0387*
G37*
G36*
Y03785D02*
X04121D01*
X04113Y03782*
X04106Y03779*
X041Y03773*
X04097Y03766*
X04095Y03758*
Y03751*
X04097Y03743*
X041Y03736*
X04106Y0373*
X04113Y03727*
X04121Y03725*
X04128*
X04136Y03727*
X04143Y0373*
X04149Y03736*
X04152Y03743*
X04155Y03751*
Y03758*
X04152Y03766*
X04149Y03773*
X04143Y03779*
X04136Y03782*
X04128Y03785*
G37*
G36*
Y037D02*
X04121D01*
X04113Y03697*
X04106Y03694*
X041Y03688*
X04097Y03681*
X04095Y03673*
Y03666*
X04097Y03658*
X041Y03651*
X04106Y03645*
X04113Y03642*
X04121Y0364*
X04128*
X04136Y03642*
X04143Y03645*
X04149Y03651*
X04152Y03658*
X04155Y03666*
Y03673*
X04152Y03681*
X04149Y03688*
X04143Y03694*
X04136Y03697*
X04128Y037*
G37*
G36*
X04058Y03275D02*
X04051D01*
X04043Y03272*
X04036Y03269*
X0403Y03263*
X04027Y03256*
X04025Y03248*
Y03241*
X04027Y03233*
X0403Y03226*
X04036Y0322*
X04043Y03217*
X04051Y03215*
X04056*
X04134Y03136*
Y03097*
X0413Y03093*
X04127Y03086*
X04125Y03078*
Y03071*
X04127Y03063*
X0413Y03056*
X04136Y0305*
X04143Y03047*
X04151Y03045*
X04158*
X04166Y03047*
X04173Y0305*
X04179Y03056*
X04182Y03063*
X04185Y03071*
Y03078*
X04182Y03086*
X04179Y03093*
X04175Y03097*
Y03144*
Y03145*
X04173Y03152*
X04169Y03159*
X04085Y03243*
Y03248*
X04082Y03256*
X04079Y03263*
X04073Y03269*
X04066Y03272*
X04058Y03275*
G37*
G36*
X0327Y02705D02*
Y02695D01*
X0328*
X03279Y02697*
X03272Y02704*
X0327Y02705*
G37*
G36*
X0325D02*
X03247Y02704D01*
X0324Y02697*
X03239Y02695*
X0325*
Y02705*
G37*
G36*
X0328Y02675D02*
X0327D01*
Y02664*
X03272Y02665*
X03279Y02672*
X0328Y02675*
G37*
G36*
X0325D02*
X03239D01*
X0324Y02672*
X03247Y02665*
X0325Y02664*
Y02675*
G37*
G36*
X048Y02603D02*
Y02575D01*
X04828*
X04826Y0258*
X04821Y02589*
X04814Y02596*
X04805Y02601*
X048Y02603*
G37*
G36*
X0478D02*
X04774Y02601D01*
X04765Y02596*
X04758Y02589*
X04753Y0258*
X04751Y02575*
X0478*
Y02603*
G37*
G36*
X04828Y02555D02*
X048D01*
Y02526*
X04805Y02528*
X04814Y02533*
X04821Y0254*
X04826Y02549*
X04828Y02555*
G37*
G36*
X0478D02*
X04751D01*
X04753Y02549*
X04758Y0254*
X04765Y02533*
X04774Y02528*
X0478Y02526*
Y02555*
G37*
G36*
X0327Y02465D02*
Y02455D01*
X0328*
X03279Y02457*
X03272Y02464*
X0327Y02465*
G37*
G36*
X0325D02*
X03247Y02464D01*
X0324Y02457*
X03239Y02455*
X0325*
Y02465*
G37*
G36*
X0328Y02435D02*
X0327D01*
Y02424*
X03272Y02425*
X03279Y02432*
X0328Y02435*
G37*
G36*
X0325D02*
X03239D01*
X0324Y02432*
X03247Y02425*
X0325Y02424*
Y02435*
G37*
G36*
X03745Y02153D02*
Y0213D01*
X03768*
X03767Y02133*
X03763Y02141*
X03756Y02148*
X03748Y02152*
X03745Y02153*
G37*
G36*
X03725D02*
X03721Y02152D01*
X03713Y02148*
X03706Y02141*
X03702Y02133*
X03701Y0213*
X03725*
Y02153*
G37*
G36*
X0278Y0256D02*
X02773D01*
X02767Y02557*
X02762Y02552*
X02759Y02545*
Y02539*
X02762Y02532*
X02767Y02527*
X02773Y02525*
X0278*
X02786Y02527*
X02791Y02532*
X02794Y02539*
Y02545*
X02791Y02552*
X02786Y02557*
X0278Y0256*
G37*
G36*
X03113Y02527D02*
X03106D01*
X031Y02524*
X03095Y02519*
X03092Y02513*
Y02506*
X03095Y025*
X031Y02495*
X03106Y02492*
X03113*
X03119Y02495*
X03124Y025*
X03127Y02506*
Y02513*
X03124Y02519*
X03119Y02524*
X03113Y02527*
G37*
G36*
X02781Y02475D02*
X02774D01*
X02768Y02473*
X02763Y02468*
X0276Y02461*
Y02454*
X02763Y02448*
X02768Y02443*
X02774Y0244*
X02781*
X02787Y02443*
X02792Y02448*
X02795Y02454*
Y02461*
X02792Y02468*
X02787Y02473*
X02781Y02475*
G37*
G36*
X02298Y02367D02*
X02291D01*
X02285Y02364*
X0228Y02359*
X02277Y02353*
Y02346*
X0228Y0234*
X02285Y02335*
X02291Y02332*
X02294*
X0232Y02306*
X02324Y02303*
X02329Y02302*
X02511*
X02513Y023*
X0252Y02298*
X02527*
X02533Y023*
X02538Y02305*
X02541Y02312*
Y02319*
X02538Y02325*
X02533Y0233*
X02527Y02333*
X0252*
X02513Y0233*
X02511Y02328*
X02334*
X02312Y0235*
Y02353*
X02309Y02359*
X02304Y02364*
X02298Y02367*
G37*
G36*
X02131Y02356D02*
X02118D01*
X02107Y02353*
X02096Y02347*
X02087Y02338*
X02081Y02327*
X02078Y02316*
Y02303*
X02081Y02292*
X02087Y02281*
X02096Y02272*
X02107Y02266*
X02118Y02263*
X02131*
X02142Y02266*
X02153Y02272*
X02162Y02281*
X02168Y02292*
X02171Y02303*
Y02316*
X02168Y02327*
X02162Y02338*
X02153Y02347*
X02142Y02353*
X02131Y02356*
G37*
G36*
X01931D02*
X01918D01*
X01907Y02353*
X01896Y02347*
X01887Y02338*
X01881Y02327*
X01878Y02316*
Y02303*
X01881Y02292*
X01887Y02281*
X01896Y02272*
X01907Y02266*
X01918Y02263*
X01931*
X01942Y02266*
X01953Y02272*
X01962Y02281*
X01968Y02292*
X01971Y02303*
Y02316*
X01968Y02327*
X01962Y02338*
X01953Y02347*
X01942Y02353*
X01931Y02356*
G37*
G36*
X03113Y02287D02*
X03106D01*
X031Y02284*
X03095Y02279*
X03092Y02273*
Y02266*
X03095Y0226*
X031Y02255*
X03106Y02252*
X03113*
X03119Y02255*
X03124Y0226*
X03127Y02266*
Y02273*
X03124Y02279*
X03119Y02284*
X03113Y02287*
G37*
G36*
X0203Y02254D02*
X02019D01*
X02007Y02251*
X01997Y02245*
X01989Y02237*
X01983Y02227*
X0198Y02215*
Y02204*
X01983Y02192*
X01989Y02182*
X01997Y02174*
X02007Y02168*
X02019Y02165*
X0203*
X02042Y02168*
X02052Y02174*
X0206Y02182*
X02066Y02192*
X02069Y02204*
Y02215*
X02066Y02227*
X0206Y02237*
X02052Y02245*
X02042Y02251*
X0203Y02254*
G37*
G36*
X02469Y02194D02*
X0246D01*
X02451Y02192*
X02443Y02187*
X02437Y02181*
X02432Y02173*
X0243Y02164*
Y02155*
X02432Y02146*
X02437Y02138*
X02443Y02132*
X02451Y02127*
X0246Y02125*
X02469*
X02478Y02127*
X02486Y02132*
X02492Y02138*
X02497Y02146*
X02499Y02155*
Y02164*
X02497Y02173*
X02492Y02181*
X02486Y02187*
X02478Y02192*
X02469Y02194*
G37*
G36*
X02288Y02142D02*
X02281D01*
X02275Y02139*
X0227Y02134*
X02267Y02128*
Y02121*
X0227Y02115*
X02275Y0211*
X02281Y02107*
X02288*
X02294Y0211*
X02299Y02115*
X02302Y02121*
Y02128*
X02299Y02134*
X02294Y02139*
X02288Y02142*
G37*
G36*
X03051Y02191D02*
X03038D01*
X03027Y02188*
X03016Y02182*
X03007Y02173*
X03001Y02162*
X02998Y02151*
Y02138*
X03001Y02127*
X03007Y02116*
X03016Y02107*
X03027Y02101*
X03038Y02098*
X03051*
X03062Y02101*
X03073Y02107*
X03082Y02116*
X03088Y02127*
X03091Y02138*
Y02151*
X03088Y02162*
X03082Y02173*
X03073Y02182*
X03062Y02188*
X03051Y02191*
G37*
G36*
X02851D02*
X02838D01*
X02827Y02188*
X02816Y02182*
X02807Y02173*
X02801Y02162*
X02798Y02151*
Y02138*
X02801Y02127*
X02807Y02116*
X02816Y02107*
X02827Y02101*
X02838Y02098*
X02851*
X02862Y02101*
X02873Y02107*
X02882Y02116*
X02888Y02127*
X02891Y02138*
Y02151*
X02888Y02162*
X02882Y02173*
X02873Y02182*
X02862Y02188*
X02851Y02191*
G37*
G36*
X02131Y02156D02*
X02118D01*
X02107Y02153*
X02096Y02147*
X02087Y02138*
X02081Y02127*
X02078Y02116*
Y02103*
X02081Y02092*
X02087Y02081*
X02096Y02072*
X02107Y02066*
X02118Y02063*
X02131*
X02142Y02066*
X02153Y02072*
X02162Y02081*
X02168Y02092*
X02171Y02103*
Y02116*
X02168Y02127*
X02162Y02138*
X02153Y02147*
X02142Y02153*
X02131Y02156*
G37*
G36*
X01931D02*
X01918D01*
X01907Y02153*
X01896Y02147*
X01887Y02138*
X01881Y02127*
X01878Y02116*
Y02103*
X01881Y02092*
X01887Y02081*
X01896Y02072*
X01907Y02066*
X01918Y02063*
X01931*
X01942Y02066*
X01953Y02072*
X01962Y02081*
X01968Y02092*
X01971Y02103*
Y02116*
X01968Y02127*
X01962Y02138*
X01953Y02147*
X01942Y02153*
X01931Y02156*
G37*
G36*
X01344Y02074D02*
X01335D01*
X01326Y02072*
X01318Y02067*
X01312Y02061*
X01307Y02053*
X01305Y02044*
Y02035*
X01307Y02026*
X01312Y02018*
X01318Y02012*
X01326Y02007*
X01335Y02005*
X01344*
X01353Y02007*
X01361Y02012*
X01367Y02018*
X01372Y02026*
X01374Y02035*
Y02044*
X01372Y02053*
X01367Y02061*
X01361Y02067*
X01353Y02072*
X01344Y02074*
G37*
G36*
X0345Y02089D02*
X03439D01*
X03427Y02086*
X03417Y0208*
X03409Y02072*
X03403Y02062*
X034Y0205*
Y02039*
X03403Y02027*
X03409Y02017*
X03417Y02009*
X03427Y02003*
X03439Y02*
X0345*
X03462Y02003*
X03472Y02009*
X0348Y02017*
X03486Y02027*
X03489Y02039*
Y0205*
X03486Y02062*
X0348Y02072*
X03472Y0208*
X03462Y02086*
X0345Y02089*
G37*
G36*
X0295D02*
X02939D01*
X02927Y02086*
X02917Y0208*
X02909Y02072*
X02903Y02062*
X029Y0205*
Y02039*
X02903Y02027*
X02909Y02017*
X02917Y02009*
X02927Y02003*
X02939Y02*
X0295*
X02962Y02003*
X02972Y02009*
X0298Y02017*
X02986Y02027*
X02989Y02039*
Y0205*
X02986Y02062*
X0298Y02072*
X02972Y0208*
X02962Y02086*
X0295Y02089*
G37*
G36*
X01764Y02009D02*
X01755D01*
X01746Y02007*
X01738Y02002*
X01732Y01996*
X01727Y01988*
X01725Y01979*
Y0197*
X01727Y01961*
X01732Y01953*
X01738Y01947*
X01746Y01942*
X01755Y0194*
X01764*
X01773Y01942*
X01781Y01947*
X01787Y01953*
X01792Y01961*
X01794Y0197*
Y01979*
X01792Y01988*
X01787Y01996*
X01781Y02002*
X01773Y02007*
X01764Y02009*
G37*
G36*
X04255Y01958D02*
Y0193D01*
X04283*
X04281Y01935*
X04276Y01944*
X04269Y01951*
X0426Y01956*
X04255Y01958*
G37*
G36*
X04235D02*
X04229Y01956D01*
X0422Y01951*
X04213Y01944*
X04208Y01935*
X04206Y0193*
X04235*
Y01958*
G37*
G36*
X01344Y01974D02*
X01335D01*
X01326Y01972*
X01318Y01967*
X01312Y01961*
X01307Y01953*
X01305Y01944*
Y01935*
X01307Y01926*
X01312Y01918*
X01318Y01912*
X01326Y01907*
X01335Y01905*
X01344*
X01353Y01907*
X01361Y01912*
X01367Y01918*
X01372Y01926*
X01374Y01935*
Y01944*
X01372Y01953*
X01367Y01961*
X01361Y01967*
X01353Y01972*
X01344Y01974*
G37*
G36*
X04283Y0191D02*
X04255D01*
Y01881*
X0426Y01883*
X04269Y01888*
X04276Y01895*
X04281Y01904*
X04283Y0191*
G37*
G36*
X04235D02*
X04206D01*
X04208Y01904*
X04213Y01895*
X0422Y01888*
X04229Y01883*
X04235Y01881*
Y0191*
G37*
G36*
X01758Y0183D02*
X01751D01*
X01743Y01827*
X01736Y01824*
X0173Y01818*
X01727Y01811*
X01725Y01803*
Y01796*
X01727Y01788*
X0173Y01781*
X01736Y01775*
X01743Y01772*
X01751Y0177*
X01758*
X01766Y01772*
X01773Y01775*
X01779Y01781*
X01782Y01788*
X01785Y01796*
Y01803*
X01782Y01811*
X01779Y01818*
X01773Y01824*
X01766Y01827*
X01758Y0183*
G37*
G36*
X04279Y01834D02*
X0421D01*
Y01765*
X04279*
Y01834*
G37*
G36*
X0135Y01628D02*
Y016D01*
X01378*
X01376Y01605*
X01371Y01614*
X01364Y01621*
X01355Y01626*
X0135Y01628*
G37*
G36*
X04255D02*
Y016D01*
X04283*
X04281Y01605*
X04276Y01614*
X04269Y01621*
X0426Y01626*
X04255Y01628*
G37*
G36*
X04235D02*
X04229Y01626D01*
X0422Y01621*
X04213Y01614*
X04208Y01605*
X04206Y016*
X04235*
Y01628*
G37*
G36*
X0133D02*
X01324Y01626D01*
X01315Y01621*
X01308Y01614*
X01303Y01605*
X01301Y016*
X0133*
Y01628*
G37*
G36*
X01378Y0158D02*
X0135D01*
Y01551*
X01355Y01553*
X01364Y01558*
X01371Y01565*
X01376Y01574*
X01378Y0158*
G37*
G36*
X04283D02*
X04255D01*
Y01551*
X0426Y01553*
X04269Y01558*
X04276Y01565*
X04281Y01574*
X04283Y0158*
G37*
G36*
X04235D02*
X04206D01*
X04208Y01574*
X04213Y01565*
X0422Y01558*
X04229Y01553*
X04235Y01551*
Y0158*
G37*
G36*
X0133D02*
X01301D01*
X01303Y01574*
X01308Y01565*
X01315Y01558*
X01324Y01553*
X0133Y01551*
Y0158*
G37*
G36*
X02205Y01549D02*
X02198D01*
X02191Y01546*
X02186Y01541*
X02184Y01535*
Y01528*
X02186Y01521*
X02191Y01516*
X02198Y01514*
X02205*
X02211Y01516*
X02216Y01521*
X02219Y01528*
Y01535*
X02216Y01541*
X02211Y01546*
X02205Y01549*
G37*
G36*
X02161D02*
X02154D01*
X02148Y01546*
X02143Y01541*
X0214Y01535*
Y01528*
X02143Y01521*
X02148Y01516*
X02154Y01514*
X02161*
X02168Y01516*
X02173Y01521*
X02175Y01528*
Y01535*
X02173Y01541*
X02168Y01546*
X02161Y01549*
G37*
G36*
X02118D02*
X02111D01*
X02105Y01546*
X021Y01541*
X02097Y01535*
Y01528*
X021Y01521*
X02105Y01516*
X02111Y01514*
X02118*
X02124Y01516*
X02129Y01521*
X02132Y01528*
Y01535*
X02129Y01541*
X02124Y01546*
X02118Y01549*
G37*
G36*
X02205Y01505D02*
X02198D01*
X02191Y01503*
X02186Y01498*
X02184Y01491*
Y01484*
X02186Y01478*
X02191Y01473*
X02198Y0147*
X02205*
X02211Y01473*
X02216Y01478*
X02219Y01484*
Y01491*
X02216Y01498*
X02211Y01503*
X02205Y01505*
G37*
G36*
X02161D02*
X02154D01*
X02148Y01503*
X02143Y01498*
X0214Y01491*
Y01484*
X02143Y01478*
X02148Y01473*
X02154Y0147*
X02161*
X02168Y01473*
X02173Y01478*
X02175Y01484*
Y01491*
X02173Y01498*
X02168Y01503*
X02161Y01505*
G37*
G36*
X02118D02*
X02111D01*
X02105Y01503*
X021Y01498*
X02097Y01491*
Y01484*
X021Y01478*
X02105Y01473*
X02111Y0147*
X02118*
X02124Y01473*
X02129Y01478*
X02132Y01484*
Y01491*
X02129Y01498*
X02124Y01503*
X02118Y01505*
G37*
G36*
X04279Y01504D02*
X0421D01*
Y01435*
X04279*
Y01504*
G37*
G36*
X02205Y01462D02*
X02198D01*
X02191Y01459*
X02186Y01454*
X02184Y01448*
Y01441*
X02186Y01435*
X02191Y0143*
X02198Y01427*
X02205*
X02211Y0143*
X02216Y01435*
X02219Y01441*
Y01448*
X02216Y01454*
X02211Y01459*
X02205Y01462*
G37*
G36*
X02161D02*
X02154D01*
X02148Y01459*
X02143Y01454*
X0214Y01448*
Y01441*
X02143Y01435*
X02148Y0143*
X02154Y01427*
X02161*
X02168Y0143*
X02173Y01435*
X02175Y01441*
Y01448*
X02173Y01454*
X02168Y01459*
X02161Y01462*
G37*
G36*
X02118D02*
X02111D01*
X02105Y01459*
X021Y01454*
X02097Y01448*
Y01441*
X021Y01435*
X02105Y0143*
X02111Y01427*
X02118*
X02124Y0143*
X02129Y01435*
X02132Y01441*
Y01448*
X02129Y01454*
X02124Y01459*
X02118Y01462*
G37*
G36*
X02205Y01419D02*
X02198D01*
X02191Y01416*
X02186Y01411*
X02184Y01405*
Y01398*
X02186Y01391*
X02191Y01386*
X02198Y01384*
X02205*
X02211Y01386*
X02216Y01391*
X02219Y01398*
Y01405*
X02216Y01411*
X02211Y01416*
X02205Y01419*
G37*
G36*
X02161D02*
X02154D01*
X02148Y01416*
X02143Y01411*
X0214Y01405*
Y01398*
X02143Y01391*
X02148Y01386*
X02154Y01384*
X02161*
X02168Y01386*
X02173Y01391*
X02175Y01398*
Y01405*
X02173Y01411*
X02168Y01416*
X02161Y01419*
G37*
G36*
X02118D02*
X02111D01*
X02105Y01416*
X021Y01411*
X02097Y01405*
Y01398*
X021Y01391*
X02105Y01386*
X02111Y01384*
X02118*
X02124Y01386*
X02129Y01391*
X02132Y01398*
Y01405*
X02129Y01411*
X02124Y01416*
X02118Y01419*
G37*
G36*
X02205Y01375D02*
X02198D01*
X02191Y01373*
X02186Y01368*
X02184Y01361*
Y01354*
X02186Y01348*
X02191Y01343*
X02198Y0134*
X02205*
X02211Y01343*
X02216Y01348*
X02219Y01354*
Y01361*
X02216Y01368*
X02211Y01373*
X02205Y01375*
G37*
G36*
X02161D02*
X02154D01*
X02148Y01373*
X02143Y01368*
X0214Y01361*
Y01354*
X02143Y01348*
X02148Y01343*
X02154Y0134*
X02161*
X02168Y01343*
X02173Y01348*
X02175Y01354*
Y01361*
X02173Y01368*
X02168Y01373*
X02161Y01375*
G37*
G36*
X02118D02*
X02111D01*
X02105Y01373*
X021Y01368*
X02097Y01361*
Y01354*
X021Y01348*
X02105Y01343*
X02111Y0134*
X02118*
X02124Y01343*
X02129Y01348*
X02132Y01354*
Y01361*
X02129Y01368*
X02124Y01373*
X02118Y01375*
G37*
G36*
X04135Y0191D02*
X04105D01*
Y0188*
X04135*
Y0191*
G37*
G36*
X02497Y0182D02*
Y0181D01*
X02507*
X02506Y01812*
X025Y01819*
X02497Y0182*
G37*
G36*
X04135Y01838D02*
X04129Y01836D01*
X0412Y01831*
X04113Y01824*
X04108Y01815*
X04106Y0181*
X04135*
Y01838*
G37*
G36*
X02Y01665D02*
X0199D01*
Y01654*
X01992Y01655*
X01999Y01662*
X02Y01665*
G37*
G36*
X0197D02*
X01959D01*
X0196Y01662*
X01967Y01655*
X0197Y01654*
Y01665*
G37*
G36*
X01479Y01629D02*
X0145D01*
Y016*
X01479*
Y01629*
G37*
G36*
X01688Y01577D02*
X01681D01*
X01675Y01574*
X0167Y01569*
X01667Y01563*
Y01556*
X0167Y0155*
X01675Y01545*
X01681Y01542*
X01688*
X01694Y01545*
X01699Y0155*
X01702Y01556*
Y01563*
X01699Y01569*
X01694Y01574*
X01688Y01577*
G37*
G36*
X01895Y0149D02*
Y0148D01*
X01905*
X01904Y01482*
X01897Y01489*
X01895Y0149*
G37*
G36*
X01875D02*
X01872Y01489D01*
X01865Y01482*
X01864Y0148*
X01875*
Y0149*
G37*
G36*
X01688Y01487D02*
X01681D01*
X01675Y01484*
X0167Y01479*
X01667Y01473*
Y01466*
X0167Y0146*
X01675Y01455*
X01681Y01452*
X01688*
X01694Y01455*
X01699Y0146*
X01702Y01466*
Y01473*
X01699Y01479*
X01694Y01484*
X01688Y01487*
G37*
G36*
X01905Y0146D02*
X01895D01*
Y01449*
X01897Y0145*
X01904Y01457*
X01905Y0146*
G37*
G36*
X01875D02*
X01864D01*
X01865Y01457*
X01872Y0145*
X01875Y01449*
Y0146*
G37*
G36*
X01888Y01402D02*
X01881D01*
X01875Y01399*
X0187Y01394*
X01867Y01388*
Y01381*
X0187Y01375*
X01875Y0137*
X01881Y01367*
X01888*
X01894Y0137*
X01899Y01375*
X01902Y01381*
Y01388*
X01899Y01394*
X01894Y01399*
X01888Y01402*
G37*
G36*
X01688D02*
X01681D01*
X01675Y01399*
X0167Y01394*
X01667Y01388*
Y01381*
X0167Y01375*
X01675Y0137*
X01681Y01367*
X01688*
X01694Y0137*
X01699Y01375*
X01702Y01381*
Y01388*
X01699Y01394*
X01694Y01399*
X01688Y01402*
G37*
G36*
X01895Y0132D02*
Y0131D01*
X01905*
X01904Y01312*
X01897Y01319*
X01895Y0132*
G37*
G36*
X01875D02*
X01872Y01319D01*
X01865Y01312*
X01864Y0131*
X01875*
Y0132*
G37*
G36*
X01905Y0129D02*
X01895D01*
Y01279*
X01897Y0128*
X01904Y01287*
X01905Y0129*
G37*
G36*
X01875D02*
X01864D01*
X01865Y01287*
X01872Y0128*
X01875Y01279*
Y0129*
G37*
G36*
X02024Y01237D02*
X02021Y01236D01*
X02015Y0123*
X02013Y01227*
X02024*
Y01237*
G37*
G36*
X01963Y01232D02*
X01956D01*
X0195Y01229*
X01945Y01224*
X01942Y01218*
Y01211*
X01945Y01205*
X0195Y012*
X01956Y01197*
X01963*
X01969Y012*
X01974Y01205*
X01977Y01211*
Y01218*
X01974Y01224*
X01969Y01229*
X01963Y01232*
G37*
G36*
X01758Y01255D02*
X01751D01*
X01743Y01252*
X01736Y01249*
X0173Y01243*
X01727Y01236*
X01725Y01228*
Y01221*
X01727Y01213*
X0173Y01206*
X01736Y012*
X01743Y01197*
X01751Y01195*
X01758*
X01766Y01197*
X01773Y012*
X01779Y01206*
X01782Y01213*
X01785Y01221*
Y01228*
X01782Y01236*
X01779Y01243*
X01773Y01249*
X01766Y01252*
X01758Y01255*
G37*
G36*
X02516Y01585D02*
Y01575D01*
X02526*
X02525Y01578*
X02519Y01584*
X02516Y01585*
G37*
G36*
X02718Y01602D02*
X02711D01*
X02705Y01599*
X027Y01594*
X02697Y01588*
Y01581*
X027Y01575*
X02705Y0157*
X02711Y01567*
X02718*
X02724Y0157*
X02729Y01575*
X02732Y01581*
Y01588*
X02729Y01594*
X02724Y01599*
X02718Y01602*
G37*
G36*
X04135Y0158D02*
X04105D01*
Y0155*
X04135*
Y0158*
G37*
G36*
X02526Y01555D02*
X02516D01*
Y01545*
X02519Y01546*
X02525Y01553*
X02526Y01555*
G37*
G36*
X03893Y01552D02*
X03886D01*
X0388Y01549*
X03875Y01544*
X03872Y01538*
Y01531*
X03875Y01525*
X0388Y0152*
X03886Y01517*
X03893*
X03899Y0152*
X03904Y01525*
X03907Y01531*
Y01538*
X03904Y01544*
X03899Y01549*
X03893Y01552*
G37*
G36*
X0345Y01589D02*
X03439D01*
X03427Y01586*
X03417Y0158*
X03409Y01572*
X03403Y01562*
X034Y0155*
Y01539*
X03403Y01527*
X03409Y01517*
X03417Y01509*
X03427Y01503*
X03439Y015*
X0345*
X03462Y01503*
X03472Y01509*
X0348Y01517*
X03486Y01527*
X03489Y01539*
Y0155*
X03486Y01562*
X0348Y01572*
X03472Y0158*
X03462Y01586*
X0345Y01589*
G37*
G36*
X04135Y01508D02*
X04129Y01506D01*
X0412Y01501*
X04113Y01494*
X04108Y01485*
X04106Y0148*
X04135*
Y01508*
G37*
G36*
X02718Y01502D02*
X02711D01*
X02705Y01499*
X027Y01494*
X02697Y01488*
Y01481*
X027Y01475*
X02705Y0147*
X02711Y01467*
X02718*
X02724Y0147*
X02729Y01475*
X02732Y01481*
Y01488*
X02729Y01494*
X02724Y01499*
X02718Y01502*
G37*
%LNcfd_2channel_copper_signal_bot-5*%
%LPD*%
G54D11*
X01335Y0412D02*
X02479D01*
X0297Y0336D02*
X0342Y0381D01*
X02965Y0336D02*
X0297D01*
X0301Y03295D02*
X03169Y03453D01*
X0318*
X048Y0229D02*
X04985D01*
X04132Y06655D02*
X04271Y06516D01*
X04273*
X02841Y06476D02*
Y06666D01*
X0284Y06475D02*
X02841Y06476D01*
X02887Y06617D02*
X0289Y0662D01*
X02885Y06435D02*
X02887Y06437D01*
Y06617*
X0413Y06655D02*
X04132D01*
X0413Y06755D02*
X04132D01*
X04322Y06565D02*
X04325D01*
X04132Y06755D02*
X04322Y06565D01*
X01685Y00835D02*
X0179Y0094D01*
X02415Y01025D02*
X0284Y006D01*
X0132Y00955D02*
X02461D01*
X0125Y00885D02*
X0132Y00955D01*
X01368Y01025D02*
X02415D01*
X02455Y0094D02*
X02624Y0077D01*
X02461Y00955D02*
X02639Y00777D01*
X0179Y0094D02*
X02455D01*
X01278Y00935D02*
X01368Y01025D01*
X02455Y0104D02*
X0287Y00625D01*
X02483Y0106D02*
X02516D01*
X02467Y01055D02*
X02477Y01045D01*
X01815Y0107D02*
X02474D01*
X02477Y01045D02*
X02522D01*
X02474Y0107D02*
X02483Y0106D01*
X018Y01085D02*
X01815Y0107D01*
X0122Y01055D02*
X02467D01*
X01305Y0104D02*
X02455D01*
X0125Y00985D02*
X01305Y0104D01*
X02532Y01055D02*
X0273D01*
X02522Y01045D02*
X02532Y01055D01*
X012Y01035D02*
X0122Y01055D01*
X0125Y01085D02*
X018D01*
X02516Y0106D02*
X0253Y01075D01*
X0273Y01055D02*
X0275Y01035D01*
X0253Y01075D02*
X0282D01*
X01523Y01107D02*
X01555Y0114D01*
X01474Y01135D02*
X01494Y01155D01*
X02005D02*
X0208Y0123D01*
X02011Y0114D02*
X02066Y01195D01*
X01494Y01155D02*
X02005D01*
X01555Y0114D02*
X02011D01*
X01355Y04085D02*
X01375Y04105D01*
X02472*
X02479Y0412D02*
X02483Y04115D01*
X02815Y0413D02*
X0282D01*
X02505Y041D02*
X02516Y0409D01*
X02466D02*
X02471Y04085D01*
X02499*
X02483Y04115D02*
X02801D01*
X01791Y0406D02*
X01821Y0409D01*
X02516D02*
X0275D01*
X01821D02*
X02466D01*
X02472Y04105D02*
X02477Y041D01*
X02499Y04085D02*
X02905Y0368D01*
X02801Y04115D02*
X02815Y0413D01*
X02477Y041D02*
X02505D01*
X01311Y03996D02*
X0132Y04005D01*
X01311Y03991D02*
Y03996D01*
X02466Y04005D02*
X02639Y03832D01*
X0246Y0399D02*
X02624Y03825D01*
X02475Y0402D02*
X0284Y03655D01*
X0126Y0394D02*
X01311Y03991D01*
X0132Y04005D02*
X02466D01*
X01685Y0389D02*
X01785Y0399D01*
X0246*
X01313Y0402D02*
X02475D01*
X01296Y04002D02*
X01313Y0402D01*
X02905Y0368D02*
X02907D01*
X01296Y04002D02*
Y04002D01*
X01282Y03989D02*
X01296Y04002D01*
X017Y04975D02*
Y0519D01*
X0172Y04979D02*
Y0513D01*
X01785Y05195*
X0172Y04979D02*
X0181Y0489D01*
X02005Y04595D02*
X02025Y04615D01*
Y04737*
X01873Y0489D02*
X02025Y04737D01*
X0181Y0489D02*
X01873D01*
X018Y04874D02*
X01867D01*
X017Y04975D02*
X018Y04874D01*
X02002Y04613D02*
Y04739D01*
X01867Y04874D02*
X02002Y04739D01*
X0199Y04602D02*
X02002Y04613D01*
X02005Y04404D02*
Y04595D01*
Y04404D02*
X02058Y04351D01*
X02064*
X0212Y04296*
Y04255D02*
Y04296D01*
X0199Y04394D02*
X02085Y043D01*
X0199Y04394D02*
Y04602D01*
X03032Y0349D02*
X03043D01*
X03063Y0351*
X02402Y0277D02*
X0278D01*
X02282Y0289D02*
X02402Y0277D01*
X01012Y01107D02*
X01523D01*
X02066Y01195D02*
X02115D01*
X01005Y011D02*
X01012Y01107D01*
X012Y00835D02*
X01685D01*
X012Y00835D02*
X012Y00835D01*
X0094Y01135D02*
X01474D01*
X004Y03986D02*
Y04045D01*
Y03986D02*
X0043Y03956D01*
X0054Y04045D02*
X00573Y04011D01*
Y03742D02*
Y04011D01*
X00535Y037D02*
Y0397D01*
X00505Y04D02*
X00535Y0397D01*
X0047Y03986D02*
Y04045D01*
X005Y03745D02*
Y03956D01*
X0047Y03986D02*
X005Y03956D01*
X00435Y04D02*
X00465Y0397D01*
Y037D02*
Y0397D01*
X0043Y03745D02*
Y03956D01*
X00365Y04D02*
X00395Y0397D01*
Y037D02*
Y0397D01*
X00925Y02075D02*
X00965Y02115D01*
X0115*
X00925Y0202D02*
X00995D01*
X0105Y02075D02*
X011D01*
X00995Y0202D02*
X0105Y02075D01*
X0093Y01955D02*
X00965D01*
X01045Y02035*
X01165*
X00935Y0215D02*
X011D01*
X00905Y02215D02*
X00915D01*
X0093Y022D02*
X01145D01*
X00915Y02215D02*
X0093Y022D01*
X0092Y0229D02*
X0096Y0225D01*
X01105*
X0171Y02855D02*
X01765Y0291D01*
X0183Y0289D02*
X02282D01*
X017Y0276D02*
X0183Y0289D01*
X01765Y0291D02*
X02362D01*
X02432Y0284*
X0283*
X00884Y0401D02*
X0101D01*
X0086Y0403D02*
X00864D01*
X00884Y0401*
X00905Y039D02*
X01025D01*
X0083Y03975D02*
X00905Y039D01*
X00895Y0398D02*
X00915Y0396D01*
X0103*
X0089Y04085D02*
X00894D01*
X00914Y04065D02*
X0102D01*
X00894Y04085D02*
X00914Y04065D01*
X0102Y0412D02*
X01025D01*
X0085Y04125D02*
X01015D01*
X0102Y0412*
X00895Y04165D02*
X01055D01*
X01213Y04573D02*
X01216Y04576D01*
X00695Y0406D02*
Y04063D01*
X01204Y04573*
X01213*
X00685Y0412D02*
X01157Y04592D01*
X00685Y0412D02*
Y0412D01*
X01157Y04592D02*
Y04593D01*
X0475Y0224D02*
X048Y0229D01*
X0475Y02185D02*
X0482Y02255D01*
X04985*
X0375Y00856D02*
Y00904D01*
X03313Y0042D02*
X0375Y00856D01*
X03313Y0049D02*
X03608Y00785D01*
Y00832*
X0308Y0042D02*
X03313D01*
X03135Y0049D02*
X03313D01*
X03Y0024D02*
X0314Y0038D01*
X03608Y00832D02*
X037Y00925D01*
X0275Y00515D02*
X02883D01*
X0289Y00521*
X03028*
X03042Y00438D02*
X03046D01*
X02779Y00175D02*
X03042Y00438D01*
X02775Y00175D02*
X02779D01*
X0314Y0038D02*
X03175D01*
X0318Y00385*
X02965Y00305D02*
X0308Y0042D01*
X03729Y00925D02*
X0375Y00904D01*
X037Y00925D02*
X03729D01*
X02795Y0056D02*
X0302D01*
X02624Y0064D02*
X0275Y00515D01*
X00972Y01777D02*
X0102Y0173D01*
X00967Y01777D02*
X00972D01*
X00922Y01822D02*
X00967Y01777D01*
X00922Y01822D02*
Y01847D01*
X00915Y01855D02*
X00922Y01847D01*
X00915Y01785D02*
X01017Y01682D01*
Y01657D02*
Y01682D01*
Y01657D02*
X0102Y01655D01*
X02789Y03246D02*
X03032Y0349D01*
X0289Y03576D02*
X03028D01*
X0284Y03655D02*
X02957D01*
X0275Y0357D02*
X02883D01*
X0289Y03576*
X0278Y03234D02*
X02789Y03243D01*
X0278Y0323D02*
Y03234D01*
X03Y03295D02*
X0301D01*
X02789Y03243D02*
Y03246D01*
X02795Y03615D02*
X0302D01*
X02624Y03695D02*
X0275Y0357D01*
X01332Y0406D02*
X01791D01*
X01345Y04082D02*
X01347Y04085D01*
X01355*
X01313Y04041D02*
X01332Y0406D01*
X01256Y03989D02*
X01282D01*
X0128Y04019D02*
X01303Y04041D01*
X01313*
X0121Y0389D02*
X01685D01*
X01235Y03967D02*
X01256Y03989D01*
X01235Y03964D02*
Y03967D01*
X012Y00935D02*
X01278D01*
X02624Y0064D02*
Y0077D01*
X02639Y00715D02*
X02795Y0056D01*
X02639Y00715D02*
Y00777D01*
X0284Y006D02*
X0295D01*
X02639Y0377D02*
X02795Y03615D01*
X02624Y03695D02*
Y03825D01*
X02639Y0377D02*
Y03832D01*
G54D14*
X0305Y0103D02*
X03155Y01135D01*
Y01145D02*
X03255Y01245D01*
X03155Y01135D02*
Y01145D01*
X03925Y03972D02*
Y03975D01*
X03325Y0337D02*
Y03372D01*
X03925Y03972*
X02728Y03005D02*
X0274Y03017D01*
X03209*
X0272Y03005D02*
X02728D01*
X0431Y0304D02*
Y0426D01*
X04645Y0581D02*
Y06355D01*
X04315Y0548D02*
X04645Y0581D01*
X04085Y02815D02*
X0431Y0304D01*
X03357Y0287D02*
X03465D01*
X03209Y03017D02*
X03357Y0287D01*
X03255Y01245D02*
X03595D01*
X0482Y06405D02*
X04822D01*
X05317Y0591D02*
X0532D01*
X04822Y06405D02*
X05317Y0591D01*
X03595Y01245D02*
X0372Y0112D01*
X05035*
X05037Y02127D02*
X05385Y02475D01*
Y0615*
X0501Y06525D02*
X05385Y0615D01*
X05037Y02012D02*
Y02127D01*
X0471Y01685D02*
X05037Y02012D01*
X0408Y05775D02*
X04085Y0577D01*
X0408Y05775D02*
Y06385D01*
X0368Y04685D02*
Y0471D01*
X03675Y0468D02*
X0368Y04685D01*
Y0471D02*
X03795Y04825D01*
X03375Y0413D02*
X03675Y0443D01*
X03045Y0413D02*
X03375D01*
X03935Y0502D02*
X0404Y05125D01*
X03915Y0502D02*
X03935D01*
X0391Y05015D02*
X03915Y0502D01*
X01469Y01514D02*
X01625Y0167D01*
X01847*
X01886Y01631*
X01421Y01514D02*
X01469D01*
X01395Y01488D02*
X01421Y01514D01*
X01255Y013D02*
X01395Y0144D01*
X01095Y013D02*
X01255D01*
X01395Y0144D02*
Y01488D01*
X00145Y0577D02*
X00645Y0627D01*
X02445*
X00675Y06245D02*
X0252D01*
X0237Y06295D02*
X0243Y06355D01*
X00145Y05715D02*
X00675Y06245D01*
X0252D02*
X0263Y06355D01*
X00145Y05825D02*
X00615Y06295D01*
X00705Y0622D02*
X02595D01*
X00145Y0566D02*
X00705Y0622D01*
X02595D02*
X0273Y06355D01*
X00615Y06295D02*
X0237D01*
X02445Y0627D02*
X0253Y06355D01*
X00145Y0588D02*
X00695Y0643D01*
X02255D02*
X0233Y06355D01*
X00695Y0643D02*
X02255D01*
X04515Y04385D02*
X04631D01*
X04747Y045*
Y04577*
X0483Y0466*
X03325Y0337D02*
X03375Y0332D01*
Y03185D02*
Y0332D01*
X01945Y055D02*
X02498D01*
X0144Y05095D02*
X0191Y05565D01*
X0144Y04995D02*
X01945Y055D01*
X0191Y05565D02*
X02598D01*
X0305Y007D02*
Y00768D01*
X02635Y01345D02*
X02782D01*
X0295Y01177*
X02435Y01545D02*
X02635Y01345D01*
X02435Y01545D02*
Y0201D01*
X02585Y0216*
X0295Y00868D02*
X0305Y00768D01*
X0295Y00868D02*
Y01177D01*
X02629Y02104D02*
Y02313D01*
X02498Y02445D02*
X02629Y02313D01*
X0246Y01935D02*
X02629Y02104D01*
X0246Y01788D02*
X0252Y01728D01*
X0246Y01788D02*
Y01935D01*
X0252Y01605D02*
Y01728D01*
X01945Y02445D02*
X02498D01*
X0144Y0194D02*
X01945Y02445D01*
X0276Y0195D02*
Y02348D01*
X02598Y0251D02*
X0276Y02348D01*
X0191Y0251D02*
X02598D01*
X0144Y0204D02*
X0191Y0251D01*
X02635Y044D02*
X02782D01*
X0295Y04232*
Y03923D02*
Y04232D01*
Y03923D02*
X0305Y03823D01*
Y03755D02*
Y03823D01*
X02435Y046D02*
X02635Y044D01*
X0246Y04843D02*
Y0499D01*
Y04843D02*
X0252Y04783D01*
Y0466D02*
Y04783D01*
X0246Y0499D02*
X02629Y05159D01*
X02435Y046D02*
Y05065D01*
X02585Y05215*
X02629Y05159D02*
Y05368D01*
X02498Y055D02*
X02629Y05368D01*
X0276Y05005D02*
Y05403D01*
X02598Y05565D02*
X0276Y05403D01*
G54D52*
X02329Y05435D02*
X02523D01*
X00595Y01075D02*
X00738Y01218D01*
Y01233D02*
X0076Y01254D01*
X00783Y01203D02*
Y01211D01*
X0076Y01254D02*
Y01257D01*
X0065Y0107D02*
X00783Y01203D01*
X00738Y01218D02*
Y01233D01*
X00783Y01211D02*
X0081Y01237D01*
X01272Y01232D02*
X01645Y01605D01*
X01025Y01232D02*
X01272D01*
X01645Y01605D02*
X01846D01*
X01874Y01576*
X01803Y04758D02*
X01886Y04675D01*
X0175Y04754D02*
Y04765D01*
Y04754D02*
X01875Y0463D01*
X01627Y04887D02*
X0175Y04765D01*
X01565Y0489D02*
Y05045D01*
Y0489D02*
X01885Y0457D01*
X01627Y04887D02*
Y05065D01*
X03472Y06337D02*
Y06346D01*
X03407Y06272D02*
X03472Y06337D01*
X0348Y06355D02*
X0353D01*
X03472Y06346D02*
X0348Y06355D01*
X03116Y06272D02*
X03407D01*
X02888Y06045D02*
X03116Y06272D01*
X03097Y06312D02*
X03287D01*
X01947Y06045D02*
X02888D01*
X03107Y06292D02*
X03367D01*
X0287Y06085D02*
X03097Y06312D01*
X0288Y06065D02*
X03107Y06292D01*
X01785Y05882D02*
X01947Y06045D01*
X0162Y05882D02*
X01842Y06105D01*
X01675Y05882D02*
X01877Y06085D01*
X01912Y06065D02*
X0288D01*
X0173Y05882D02*
X01912Y06065D01*
X01842Y06105D02*
X02839D01*
X01877Y06085D02*
X0287D01*
X02839Y06105D02*
X03089Y06355D01*
X03367Y06292D02*
X0343Y06355D01*
X03287Y06312D02*
X0333Y06355D01*
X01807Y06125D02*
X028D01*
X0303Y06355*
X01565Y05882D02*
X01807Y06125D01*
X03089Y06355D02*
X0323D01*
X01665Y04891D02*
Y05135D01*
Y04891D02*
X01798Y04758D01*
X01803*
X00845Y0093D02*
Y0109D01*
X0077Y00855D02*
X00845Y0093D01*
X0074Y0091D02*
X00802Y00972D01*
X0065Y0102D02*
Y0107D01*
X0069Y00955D02*
X00695Y0096D01*
Y01077*
X01022Y01172D02*
X01025Y0117D01*
X01285*
X00802Y00972D02*
Y01117D01*
X00695Y01077D02*
X0081Y01192D01*
Y01195*
X01285Y0117D02*
X0163Y01515D01*
X01885*
X02329Y0238D02*
X02523D01*
X02295Y02415D02*
X02329Y0238D01*
Y02315D02*
X02523D01*
X02295Y0235D02*
X02329Y02315D01*
X02395Y0115D02*
X02685D01*
X02775Y0124*
X02295Y0547D02*
X02329Y05435D01*
Y0537D02*
X02523D01*
X02295Y05405D02*
X02329Y0537D01*
X02685Y04205D02*
X02775Y04295D01*
X02395Y04205D02*
X02685D01*
G54D53*
X00905Y02545D02*
X0121Y0224D01*
X013*
X0139Y02041D02*
Y02059D01*
X0136Y02089D02*
X0139Y02059D01*
X0136Y02089D02*
X0136D01*
X00905Y02545D02*
Y02635D01*
X0079Y03319D02*
Y03808D01*
X01045Y02505D02*
Y03122D01*
X00941Y03225D02*
X01045Y03122D01*
X03415Y0228D02*
X03434D01*
X03436Y02278*
X0278Y0323D02*
X03115D01*
X0333Y03015*
X03077Y03543D02*
X03389Y03855D01*
X0357D02*
X03715Y04D01*
X03389Y03855D02*
X0357D01*
X0295Y03543D02*
X03077D01*
X0326Y02445D02*
Y02685D01*
Y02925*
X03335Y0236D02*
Y026D01*
Y0284*
X02665Y0619D02*
X0283Y06355D01*
X00835Y0619D02*
X02665D01*
X0273Y06155D02*
X0293Y06355D01*
X0158Y06155D02*
X0273D01*
X01746Y00826D02*
X0182Y009D01*
X0134Y05915D02*
X0158Y06155D01*
X00275Y0563D02*
X00835Y0619D01*
X04631Y04468D02*
X04651D01*
X04655Y04465*
X04245Y04855D02*
X04631Y04468D01*
X0454Y03715D02*
X047D01*
X0451Y0369D02*
X04515D01*
X04745Y03025D02*
Y04025D01*
X04515Y0369D02*
X0454Y03715D01*
X04245Y04525D02*
X04745Y04025D01*
X04655Y0268D02*
Y03425D01*
X04745Y03025D02*
X0479Y0298D01*
X02907Y035D02*
X0295Y03543D01*
X01005Y01375D02*
X0134Y0171D01*
Y0184*
X01215Y00775D02*
X0166D01*
X01035Y00954D02*
Y00963D01*
X00855Y01143D02*
X01035Y00963D01*
Y00954D02*
X01215Y00775D01*
X00855Y01143D02*
Y02672D01*
X00905Y02722*
X00785Y03813D02*
X0079Y03808D01*
X00785Y03813D02*
Y04118D01*
X01191Y04525*
X0134*
X0469Y0367D02*
X047Y0366D01*
Y02675D02*
Y0366D01*
X03711Y00852D02*
Y00886D01*
X03715Y0089*
X03116Y00445D02*
X03303D01*
X03711Y00852*
X0309Y0047D02*
X03116Y00445D01*
X02948Y0047D02*
X0309D01*
X0278Y00445D02*
X02922D01*
X02948Y0047*
X03975Y0408D02*
Y0422D01*
Y0408D02*
X0402Y04035D01*
X0278Y035D02*
X02907D01*
X0362Y02234D02*
X03735Y0212D01*
X0341Y02234D02*
X0362D01*
X0417Y02195D02*
X04655Y0268D01*
X0469Y02665D02*
X047Y02675D01*
X0469Y02565D02*
Y02665D01*
X0479Y02975D02*
Y0298D01*
X04383Y02106D02*
X04567Y01922D01*
Y01917D02*
Y01922D01*
X04365Y0211D02*
X04368Y02106D01*
X04383*
X04155Y03075D02*
Y03145D01*
X04055Y03245D02*
X04155Y03145D01*
X03735Y04455D02*
X03737D01*
X03972Y0422*
X03975*
X03735Y01397D02*
X0397Y01162D01*
X03735Y01397D02*
Y014D01*
X0397Y0116D02*
Y01162D01*
X0079Y03319D02*
X00884Y03225D01*
X00941*
X00905Y02722D02*
Y03055D01*
X01587Y03855D02*
Y03857D01*
X01344Y03612D02*
X01587Y03855D01*
Y03857D02*
X01715D01*
X013Y04083D02*
Y0412D01*
X00905Y03688D02*
X013Y04083D01*
X00905Y03275D02*
Y03688D01*
X01711Y00826D02*
X01746D01*
X0166Y00775D02*
X01711Y00826D01*
X01746Y03881D02*
X0182Y03955D01*
X01715Y03857D02*
X01739Y03881D01*
X01746*
X00905Y03055D02*
Y03175D01*
X03335Y0236D02*
X03415Y0228D01*
X0144Y0169D02*
Y0184D01*
Y0169D02*
X01445Y01685D01*
X0326Y02385D02*
X0341Y02234D01*
X0326Y02385D02*
Y02445D01*
X0144Y04745D02*
X01445Y0474D01*
X0144Y04745D02*
Y04895D01*
X0326Y0574D02*
Y0598D01*
Y055D02*
Y0574D01*
Y0544D02*
Y055D01*
X0341Y05289D02*
X0357D01*
X03725Y05135*
X0326Y0544D02*
X0341Y05289D01*
X03335Y05655D02*
Y05895D01*
Y05415D02*
Y05655D01*
X03415Y05335D02*
X0368D01*
X03335Y05415D02*
X03415Y05335D01*
X0368D02*
X0392Y05095D01*
G54D54*
X0491Y0015D03*
X0541Y0065D03*
Y081D03*
X0491Y086D03*
X0065Y0015D03*
X0015Y0065D03*
Y081D03*
X0065Y086D03*
X0015D03*
Y0015D03*
X0541Y086D03*
Y0015D03*
G54D55*
X0471Y0466D03*
X02465Y05215D03*
Y0216D03*
X0471Y01685D03*
X0293Y03755D03*
Y007D03*
X00645Y0392D03*
X0413Y06555D03*
X0403D03*
X0203Y06355D03*
X0193D03*
X0137Y08255D03*
X0483Y0466D03*
X0134Y04895D03*
X0144Y04995D03*
X0134D03*
X0144Y05095D03*
X0134D03*
Y0184D03*
X0144Y0194D03*
X0134D03*
X0144Y0204D03*
X0134D03*
X02585Y0216D03*
X0305Y007D03*
X0176Y01975D03*
X039Y00355D03*
X038D03*
X037D03*
X036D03*
X035D03*
X025Y011D03*
X02775Y0124D03*
X0134Y0159D03*
X0144Y0147D03*
X04245Y0192D03*
X04145Y018D03*
X04245Y0159D03*
X04145Y0147D03*
X02775Y04295D03*
X0176Y0503D03*
X04245Y04645D03*
X04145Y04525D03*
X04245Y04975D03*
X04145Y04855D03*
X0134Y04645D03*
X0144Y04525D03*
X025Y04155D03*
X039Y0341D03*
X038D03*
X037D03*
X036D03*
X035D03*
X0305Y03755D03*
X02585Y05215D03*
X0479Y02565D03*
X00805Y02635D03*
X00905Y03055D03*
Y03275D03*
X0483Y01685D03*
X0243Y06355D03*
X0263D03*
X0253D03*
X0283D03*
X0273D03*
X0303D03*
X0293D03*
X0233D03*
X0413Y06655D03*
X0403D03*
X0413Y06955D03*
Y06855D03*
Y06755D03*
Y07055D03*
X0403Y06955D03*
Y06855D03*
Y06755D03*
Y07055D03*
X0413Y07455D03*
Y07355D03*
X0403D03*
X0413Y07255D03*
X0403D03*
X0413Y07155D03*
X0403D03*
Y07455D03*
X0413Y07755D03*
Y07655D03*
Y07555D03*
Y07855D03*
X0403Y07755D03*
Y07655D03*
Y07555D03*
Y07855D03*
X0313Y08255D03*
X0333D03*
X0323D03*
X0353D03*
X0343D03*
X0373D03*
X0363D03*
X0303D03*
X0223D03*
X0243D03*
X0233D03*
X0263D03*
X0253D03*
X0283D03*
X0273D03*
X0157D03*
X0147D03*
X0177D03*
X0167D03*
X0117D03*
X0107D03*
X0127D03*
X0197D03*
X0187D03*
X0213D03*
X0413D03*
Y08155D03*
X0403D03*
X0413Y08055D03*
X0403D03*
X0413Y07955D03*
X0403D03*
Y08255D03*
X0333Y06355D03*
X0353D03*
X0343D03*
X0373D03*
X0363D03*
X0393D03*
X0383D03*
X0323D03*
X0153D03*
X0173D03*
X0163D03*
X0183D03*
X0213D03*
X0143D03*
X01045Y02505D03*
X0079Y0349D03*
G54D56*
X03545Y052D03*
X03345D03*
X03545Y05D03*
X03345Y047D03*
Y05D03*
X03545Y045D03*
Y047D03*
X0355Y042D03*
X0335D03*
X03345Y045D03*
X0355Y04D03*
X0335D03*
X02845Y052D03*
X0229Y05665D03*
Y05865D03*
X03045Y052D03*
Y05D03*
X02845D03*
X02125Y05165D03*
Y05365D03*
X02465Y0362D03*
Y0382D03*
X02265Y0362D03*
Y0382D03*
X03545Y01645D03*
Y01945D03*
X0355Y01145D03*
Y00945D03*
X03545Y02145D03*
X03345Y01645D03*
Y01945D03*
X03545Y01445D03*
X0335Y01145D03*
X03345Y01445D03*
Y02145D03*
X0335Y00945D03*
X02845Y02145D03*
X0229Y0261D03*
Y0281D03*
X03045Y02145D03*
Y01945D03*
X02845D03*
X02125Y0211D03*
Y0231D03*
X02465Y00565D03*
Y00765D03*
X02265Y00565D03*
Y00765D03*
X0209Y05865D03*
Y05665D03*
X01925Y05165D03*
Y05365D03*
X0209Y0281D03*
Y0261D03*
X01965Y0382D03*
Y0362D03*
X01925Y0211D03*
Y0231D03*
X01765Y0362D03*
Y0382D03*
X01965Y00765D03*
Y00565D03*
X01765D03*
Y00765D03*
G54D57*
X0144Y04895D03*
Y0184D03*
X00645Y0382D03*
X00905Y03175D03*
G54D58*
X02365Y00665D03*
X02025Y0221D03*
X01865Y00665D03*
X02945Y02045D03*
X0219Y0271D03*
X03445Y02045D03*
X0345Y01045D03*
X03445Y01545D03*
X0345Y041D03*
X03445Y046D03*
X0219Y05765D03*
X03445Y051D03*
X01865Y0372D03*
X02945Y051D03*
X02365Y0372D03*
X02025Y05265D03*
G54D59*
X04Y00355D03*
X0144Y0159D03*
X0134Y0147D03*
X04145Y0192D03*
X04245Y018D03*
X04145Y0159D03*
X04245Y0147D03*
X04145Y04645D03*
X04245Y04525D03*
X04145Y04975D03*
X04245Y04855D03*
X0144Y04645D03*
X0134Y04525D03*
X04Y0341D03*
X0469Y02565D03*
X00905Y02635D03*
X00805Y03055D03*
G54D60*
X04355Y06956D03*
X02028Y01531D03*
X02071D03*
X02115D03*
X02158D03*
X02201D03*
X02028Y01488D03*
X02071D03*
X02115D03*
X02158D03*
X02201D03*
X02028Y01445D03*
X02071D03*
X02115D03*
X02158D03*
X02201D03*
X02028Y01401D03*
X02071D03*
X02115D03*
X02158D03*
X02201D03*
X02028Y01358D03*
X02071D03*
X02115D03*
X02158D03*
X02201D03*
X02028Y04586D03*
X02071D03*
X02115D03*
X02158D03*
X02201D03*
X02028Y04543D03*
X02071D03*
X02115D03*
X02158D03*
X02201D03*
X02028Y045D03*
X02071D03*
X02115D03*
X02158D03*
X02201D03*
X02028Y04456D03*
X02071D03*
X02115D03*
X02158D03*
X02201D03*
X02028Y04413D03*
X02071D03*
X02115D03*
X02158D03*
X02201D03*
X01335Y0412D03*
X0305Y0103D03*
X03436Y02278D03*
X0326Y02925D03*
X03335Y0284D03*
X03749Y01264D03*
X05065Y021D03*
X0507Y0499D03*
Y05075D03*
Y04905D03*
X04985Y0229D03*
X04273Y06516D03*
X0284Y06475D03*
X02841Y06666D03*
X02885Y06435D03*
X0289Y0662D03*
X02523Y05435D03*
X04325Y06565D03*
X0479Y06747D03*
X0439Y06773D03*
X04525Y0717D03*
X0461D03*
X04695D03*
X0439Y06695D03*
X05065Y0193D03*
Y02015D03*
X0081Y01325D03*
X00642Y01725D03*
X0064Y0159D03*
X0068Y0142D03*
X00738Y01327D03*
X00898D03*
X0081Y01237D03*
X0076Y01257D03*
X02777Y02458D03*
X02777Y02542D03*
X02778Y0551D03*
X02775Y05595D03*
X0091Y0438D03*
X00825D03*
X0074D03*
X01685Y01385D03*
Y0147D03*
Y01642D03*
Y0156D03*
Y04695D03*
Y0461D03*
Y0444D03*
Y04525D03*
X01875Y0463D03*
X01886Y04675D03*
X0173Y05882D03*
X01675D03*
X0162D03*
X01565D03*
X01785D03*
X0134Y05915D03*
X00145Y0566D03*
X00275Y0563D03*
X00145Y0588D03*
Y05825D03*
Y0577D03*
Y05715D03*
X0198Y0473D03*
X01895D03*
X03063Y0351D03*
X02907Y0368D03*
X0278Y0277D03*
X02777Y02606D03*
X0212Y04255D03*
X00845Y0109D03*
X02034Y01217D03*
X0125Y01085D03*
X02115Y01195D03*
X0208Y0123D03*
X00802Y01117D03*
X012Y00835D03*
X0081Y01195D03*
X01886Y01631D03*
X01885Y01515D03*
Y0457D03*
X02085Y043D03*
X01874Y01576D03*
X004Y04045D03*
X0054D03*
X00365Y04D03*
X00505D03*
X0047Y04045D03*
X00435Y04D03*
X00465Y037D03*
X00573Y03742D03*
X005Y03745D03*
X00535Y037D03*
X0043Y03745D03*
X00395Y037D03*
X00925Y02075D03*
Y0202D03*
X0093Y01955D03*
X00935Y0215D03*
X00905Y02215D03*
X0092Y0229D03*
X01165Y02035D03*
X011Y02075D03*
X0115Y02115D03*
X011Y0215D03*
X01145Y022D03*
X01105Y0225D03*
X0171Y02855D03*
X017Y0276D03*
X0283Y0284D03*
X0086Y0403D03*
X0083Y03975D03*
X00895Y0398D03*
X0089Y04085D03*
X0085Y04125D03*
X00895Y04165D03*
X00685Y0412D03*
X00695Y0406D03*
X01025Y039D03*
X0103Y0396D03*
X0101Y0401D03*
X0102Y04065D03*
X01025Y0412D03*
X01055Y04165D03*
X04985Y02255D03*
X0475Y02185D03*
Y0224D03*
X00595Y04645D03*
X01157Y04593D03*
X01216Y04576D03*
X03028Y00521D03*
X02855Y00412D03*
X03046Y00438D03*
X0302Y0056D03*
X0102Y0173D03*
Y01655D03*
X00915Y01855D03*
Y01785D03*
X00795Y0256D03*
X0283Y0072D03*
X0287Y00625D03*
X02835Y0378D03*
X03028Y03576D03*
X02957Y03655D03*
X02855Y03467D03*
X0302Y03615D03*
X02495Y0266D03*
X02715Y0322D03*
X0462Y0466D03*
X04818Y0264D03*
X048Y03055D03*
X0242Y03335D03*
X0278Y0323D03*
Y035D03*
X02775Y00175D03*
X0278Y00445D03*
X00757Y03395D03*
X01345Y04082D03*
X0126Y0394D03*
X0121Y0389D03*
X01235Y03964D03*
X0128Y04019D03*
X0125Y00985D03*
X012Y01035D03*
X0125Y00885D03*
X012Y00935D03*
X00795Y0298D03*
X0259Y00295D03*
X02715Y00165D03*
X0311Y0299D03*
X02487Y018D03*
X0254Y01758D03*
X0389Y01535D03*
X02506Y01565D03*
X0259Y0161D03*
X02523Y0238D03*
X02295Y02415D03*
X02523Y02315D03*
X02295Y0235D03*
X02285Y02125D03*
X0295Y006D03*
X0275Y01035D03*
X0282Y01075D03*
X0311Y0251D03*
Y0227D03*
X0261Y0043D03*
X0242Y0028D03*
X0311Y0275D03*
X03335Y026D03*
Y0236D03*
X02715Y01585D03*
Y01485D03*
Y01385D03*
X01885Y013D03*
Y01385D03*
X01895Y01675D03*
X0198D03*
X02395Y0115D03*
X02487Y04855D03*
X02295Y0547D03*
X02523Y0537D03*
X02295Y05405D03*
X0275Y0409D03*
X0259Y04665D03*
X0261Y03485D03*
X02495Y05715D03*
X02795Y05725D03*
X02715Y0444D03*
Y0454D03*
Y0464D03*
X0254Y04813D03*
X02285Y0518D03*
X0462Y01685D03*
X048Y0347D03*
X01885Y0147D03*
X0326Y02685D03*
Y02445D03*
X0196Y01215D03*
X02395Y04205D03*
X02035Y0427D03*
X01885Y04355D03*
Y0444D03*
X03335Y05415D03*
Y05655D03*
Y05895D03*
X0392Y05095D03*
X0282Y0413D03*
X02506Y0462D03*
X0259Y0335D03*
X0311Y05805D03*
Y05565D03*
X0326Y0574D03*
Y055D03*
X0311Y05325D03*
Y06045D03*
X0326Y0598D03*
X03749Y04319D03*
X0389Y0459D03*
X01885Y04525D03*
X0196Y0427D03*
G54D61*
X03925Y03975D03*
X0342Y0381D03*
X0318Y03453D03*
X0431Y0426D03*
X04645Y06355D03*
X04315Y0548D03*
X04085Y02815D03*
X03465Y0287D03*
X0272Y03005D03*
X0532Y0591D03*
X0482Y06405D03*
X05035Y0112D03*
X0501Y06525D03*
X05055Y03375D03*
X04085Y0577D03*
X0408Y06385D03*
X03675Y0468D03*
X03045Y0413D03*
X03675Y0443D03*
X03795Y04825D03*
X0391Y05015D03*
X0404Y05125D03*
X0459Y06775D03*
X0491Y05175D03*
X04125Y0367D03*
Y03755D03*
Y0384D03*
Y00615D03*
Y007D03*
Y0078D03*
X01025Y01232D03*
X0216Y0099D03*
X0208D03*
X01995D03*
X0191D03*
X0182Y009D03*
X0216Y04055D03*
X0208D03*
X01995D03*
X0191D03*
X01755Y04855D03*
X017Y0519D03*
X01785Y05195D03*
X01665Y05135D03*
X01627Y05065D03*
X04515Y04385D03*
X04655Y04465D03*
X047Y03715D03*
X04655Y03425D03*
X03375Y03185D03*
X03325Y0337D03*
X02715Y0267D03*
X049Y0222D03*
X01005Y01375D03*
X01565Y05045D03*
X0077Y00855D03*
X0074Y0091D03*
X00595Y01075D03*
X0065Y0102D03*
X0069Y00955D03*
X01005Y011D03*
X01022Y01172D03*
X0094Y01135D03*
X01095Y013D03*
X0054Y0349D03*
X0451Y0369D03*
X0366Y00675D03*
X03715Y0089D03*
X0318Y00385D03*
X03542Y03742D03*
X03715Y04D03*
X03735Y0212D03*
X0479Y02975D03*
X0417Y02195D03*
X04567Y01917D03*
X04365Y0211D03*
X04055Y03245D03*
X04155Y03075D03*
X03975Y0422D03*
X0397Y0116D03*
X0333Y03015D03*
X02965Y0336D03*
X01344Y03612D03*
X00803Y01616D03*
X0054Y02655D03*
Y03075D03*
X00655Y04485D03*
X05055Y02545D03*
Y0296D03*
X03945Y00495D03*
X01755Y01225D03*
Y018D03*
X0299Y00885D03*
X03135Y0049D03*
X02965Y00305D03*
X03Y0024D03*
Y03295D03*
X0299Y0394D03*
X03945Y0355D03*
X03735Y014D03*
X0182Y03955D03*
X0272Y05725D03*
X03735Y04455D03*
X03725Y05135D03*
X01755Y0428D03*
M02*