%FSTAX23Y23*%
%MOIN*%
%SFA1B1*%

%IPPOS*%
%AMD41*
4,1,8,0.021900,-0.009800,0.021900,0.009800,0.017700,0.014000,-0.017700,0.014000,-0.021900,0.009800,-0.021900,-0.009800,-0.017700,-0.014000,0.017700,-0.014000,0.021900,-0.009800,0.0*
1,1,0.008426,0.017700,-0.009800*
1,1,0.008426,0.017700,0.009800*
1,1,0.008426,-0.017700,0.009800*
1,1,0.008426,-0.017700,-0.009800*
%
%ADD31O,0.033937X0.014252*%
%ADD32O,0.014252X0.033937*%
%ADD33R,0.238268X0.238268*%
%ADD34R,0.045748X0.041811*%
%ADD35R,0.041811X0.035906*%
%ADD36R,0.062992X0.013780*%
%ADD37R,0.035906X0.041811*%
%ADD38R,0.062480X0.022126*%
%ADD39R,0.041811X0.045748*%
%ADD40R,0.037874X0.016220*%
G04~CAMADD=41~8~0.0~0.0~280.3~437.8~42.1~0.0~15~0.0~0.0~0.0~0.0~0~0.0~0.0~0.0~0.0~0~0.0~0.0~0.0~270.0~438.0~280.0*
%ADD41D41*%
%ADD42R,0.022126X0.062480*%
%ADD43R,0.016220X0.037874*%
%ADD44R,0.039843X0.039843*%
%ADD45R,0.039843X0.039843*%
%ADD46C,0.204409*%
%ADD47C,0.063465*%
%ADD48C,0.087087*%
%ADD49R,0.063465X0.063465*%
%ADD50C,0.083150*%
%ADD51R,0.063465X0.063465*%
%ADD52C,0.029409*%
%ADD53C,0.054409*%
%LNcfd_2channel_soldermask_top-1*%
%LPD*%
G54D31*
X01959Y01572D03*
Y01553D03*
Y01533D03*
Y01513D03*
Y01494D03*
Y01474D03*
Y01454D03*
Y01435D03*
Y01415D03*
Y01395D03*
Y01376D03*
Y01356D03*
Y01336D03*
Y01317D03*
X0227D03*
Y01336D03*
Y01356D03*
Y01376D03*
Y01395D03*
Y01415D03*
Y01435D03*
Y01454D03*
Y01474D03*
Y01494D03*
Y01513D03*
Y01533D03*
Y01553D03*
Y01572D03*
X01959Y04627D03*
Y04608D03*
Y04588D03*
Y04568D03*
Y04549D03*
Y04529D03*
Y04509D03*
Y0449D03*
Y0447D03*
Y0445D03*
Y04431D03*
Y04411D03*
Y04391D03*
Y04372D03*
X0227D03*
Y04391D03*
Y04411D03*
Y04431D03*
Y0445D03*
Y0447D03*
Y0449D03*
Y04509D03*
Y04529D03*
Y04549D03*
Y04568D03*
Y04588D03*
Y04608D03*
Y04627D03*
G54D32*
X01987Y01289D03*
X02006D03*
X02026D03*
X02046D03*
X02065D03*
X02085D03*
X02105D03*
X02124D03*
X02144D03*
X02164D03*
X02183D03*
X02203D03*
X02223D03*
X02242D03*
Y016D03*
X02223D03*
X02203D03*
X02183D03*
X02164D03*
X02144D03*
X02124D03*
X02105D03*
X02085D03*
X02065D03*
X02046D03*
X02026D03*
X02006D03*
X01987D03*
Y04344D03*
X02006D03*
X02026D03*
X02046D03*
X02065D03*
X02085D03*
X02105D03*
X02124D03*
X02144D03*
X02164D03*
X02183D03*
X02203D03*
X02223D03*
X02242D03*
Y04655D03*
X02223D03*
X02203D03*
X02183D03*
X02164D03*
X02144D03*
X02124D03*
X02105D03*
X02085D03*
X02065D03*
X02046D03*
X02026D03*
X02006D03*
X01987D03*
G54D33*
X02115Y01445D03*
Y045D03*
G54D34*
X04695Y06931D03*
Y06988D03*
X0461Y06931D03*
Y06988D03*
X04525Y06931D03*
Y06988D03*
X01895Y04801D03*
X0191Y04198D03*
X01895Y01746D03*
X0191Y01143D03*
X0389Y04518D03*
X03185Y06043D03*
Y05803D03*
Y05563D03*
X03105Y04138D03*
X0489Y03301D03*
Y03638D03*
Y03223D03*
X02165Y04141D03*
X0208D03*
X0489Y02886D03*
Y02808D03*
X03185Y02988D03*
Y02748D03*
Y02508D03*
X0489Y02471D03*
X0389Y01463D03*
X03105Y01083D03*
X02165Y01086D03*
X0208D03*
X02065Y04858D03*
X01895D03*
X0198D03*
X01995Y04141D03*
X0191D03*
X0091Y04421D03*
X0074D03*
X00825D03*
X00705Y03563D03*
Y03148D03*
Y03226D03*
Y02728D03*
Y02811D03*
Y02391D03*
X02065Y01803D03*
X0198D03*
X01895D03*
X01995Y01086D03*
X0191D03*
X00825Y01366D03*
X0091D03*
X0074D03*
X0215Y01803D03*
Y01746D03*
X03105Y01026D03*
X03185Y02691D03*
Y02451D03*
Y02931D03*
X01995Y01143D03*
X0198Y01746D03*
X0389Y01406D03*
X0208Y01143D03*
X02065Y01746D03*
X02165Y01143D03*
Y04198D03*
X02065Y04801D03*
X0208Y04198D03*
X0389Y04461D03*
X0198Y04801D03*
X01995Y04198D03*
X03185Y05986D03*
Y05506D03*
Y05746D03*
X03105Y04081D03*
X0215Y04858D03*
Y04801D03*
X0489Y02528D03*
X00705Y02671D03*
X0489Y02751D03*
X00705Y02448D03*
X0489Y03358D03*
Y02943D03*
Y03581D03*
Y03166D03*
X00705Y03506D03*
Y03091D03*
Y03283D03*
Y02868D03*
X0074Y04478D03*
X00825D03*
X0091D03*
X0074Y01423D03*
X00825D03*
X0091D03*
G54D35*
X0494Y06589D03*
Y0664D03*
X0482Y06589D03*
Y0664D03*
X0488Y06589D03*
Y0664D03*
X0476Y06589D03*
Y0664D03*
X02779Y04643D03*
Y04538D03*
Y04433D03*
Y01588D03*
Y01483D03*
Y01378D03*
Y01639D03*
X02445Y02525D03*
Y02474D03*
X02779Y01534D03*
X0299Y01065D03*
Y01014D03*
X02779Y01429D03*
Y04484D03*
X0299Y0412D03*
Y04069D03*
X02779Y04589D03*
X02445Y0558D03*
Y05529D03*
X02779Y04694D03*
G54D36*
X047Y06851D03*
Y06826D03*
Y068D03*
Y06775D03*
Y06749D03*
Y06723D03*
Y06698D03*
X04479D03*
Y06723D03*
Y06749D03*
Y06775D03*
Y068D03*
Y06826D03*
Y06851D03*
G54D37*
X04264Y06725D03*
X04315D03*
X04315Y068D03*
X04264D03*
X0249Y0564D03*
X02145Y05065D03*
X02944Y0418D03*
X02285Y0413D03*
X0239D03*
X0249Y02585D03*
X02145Y0201D03*
X02944Y01125D03*
X02285Y01075D03*
X0239D03*
X02094Y0201D03*
X02339Y01075D03*
X02234D03*
X02439Y02585D03*
X02995Y01125D03*
Y0418D03*
X02439Y0564D03*
X02234Y0413D03*
X02339D03*
X02094Y05065D03*
G54D38*
X04654Y04804D03*
X02409Y05364D03*
Y02309D03*
X04654Y01829D03*
X02874Y03904D03*
Y00849D03*
X04654Y04753D03*
X02409Y05313D03*
X02874Y03853D03*
X04654Y01778D03*
X02409Y02258D03*
X02874Y00798D03*
X00709Y04642D03*
Y01664D03*
Y01638D03*
Y01587D03*
Y01485D03*
X04654Y04906D03*
Y04881D03*
Y04855D03*
Y0483D03*
Y04778D03*
X04885Y04753D03*
Y04778D03*
Y04804D03*
Y0483D03*
Y04855D03*
Y04881D03*
Y04906D03*
X02409Y02411D03*
Y02386D03*
Y0236D03*
Y02335D03*
Y02283D03*
X0264Y02258D03*
Y02283D03*
Y02309D03*
Y02335D03*
Y0236D03*
Y02386D03*
Y02411D03*
X02874Y00951D03*
Y00926D03*
Y009D03*
Y00875D03*
Y00823D03*
X03105Y00798D03*
Y00823D03*
Y00849D03*
Y00875D03*
Y009D03*
Y00926D03*
Y00951D03*
X02874Y04006D03*
Y03981D03*
Y03955D03*
Y0393D03*
Y03878D03*
X03105Y03853D03*
Y03878D03*
Y03904D03*
Y0393D03*
Y03955D03*
Y03981D03*
Y04006D03*
X02409Y05466D03*
Y05441D03*
Y05415D03*
Y0539D03*
Y05338D03*
X0264Y05313D03*
Y05338D03*
Y05364D03*
Y0539D03*
Y05415D03*
Y05441D03*
Y05466D03*
X04885Y01931D03*
Y01906D03*
Y0188D03*
Y01855D03*
Y01829D03*
Y01803D03*
Y01778D03*
X04654Y01803D03*
Y01855D03*
Y0188D03*
Y01906D03*
Y01931D03*
X0094Y0454D03*
Y04566D03*
Y04591D03*
Y04617D03*
Y04642D03*
Y04668D03*
Y04693D03*
Y04719D03*
X00709D03*
Y04693D03*
Y04668D03*
Y04617D03*
Y04591D03*
Y04566D03*
Y0454D03*
Y01511D03*
Y01536D03*
Y01562D03*
Y01613D03*
X0094Y01664D03*
Y01638D03*
Y01613D03*
Y01587D03*
Y01562D03*
Y01536D03*
Y01511D03*
Y01485D03*
G54D39*
X01813Y0444D03*
Y01385D03*
X05023Y05075D03*
Y0499D03*
Y04905D03*
X03243Y04095D03*
X05056Y0347D03*
X03923Y0384D03*
Y03755D03*
X03243Y0401D03*
X03923Y0367D03*
X02777Y05555D03*
Y0564D03*
Y0547D03*
X02473Y0459D03*
Y04725D03*
X02838Y0342D03*
X02648Y0327D03*
X05056Y03055D03*
Y0264D03*
X05023Y02015D03*
Y021D03*
Y0193D03*
X03923Y007D03*
Y00785D03*
Y00615D03*
X03243Y00955D03*
Y0104D03*
X02777Y025D03*
Y02585D03*
Y02415D03*
X02473Y01535D03*
Y0167D03*
X02838Y00365D03*
X02648Y00215D03*
X01756Y0478D03*
Y0461D03*
Y04695D03*
Y0444D03*
Y04525D03*
Y04355D03*
X00538Y03395D03*
Y0298D03*
Y0256D03*
X01756Y01725D03*
Y0164D03*
Y01555D03*
Y0147D03*
Y01385D03*
Y013D03*
X04966Y05075D03*
Y04905D03*
Y0499D03*
X0272Y02585D03*
Y025D03*
Y02415D03*
X03186Y0104D03*
Y00955D03*
X03866Y00785D03*
Y007D03*
Y00615D03*
X02781Y00365D03*
X02591Y00215D03*
X01813Y0147D03*
Y013D03*
X02416Y0167D03*
X01813Y01555D03*
Y0164D03*
Y01725D03*
X02416Y01535D03*
X01813Y0478D03*
Y04695D03*
Y0461D03*
X02416Y0459D03*
Y04725D03*
X01813Y04355D03*
Y04525D03*
X02591Y0327D03*
X02781Y0342D03*
X03866Y0367D03*
Y03755D03*
Y0384D03*
X03186Y0401D03*
Y04095D03*
X0272Y0547D03*
Y05555D03*
Y0564D03*
X05113Y0264D03*
X00481Y0256D03*
X05113Y0347D03*
Y03055D03*
X00481Y03395D03*
Y0298D03*
X04966Y0193D03*
Y02015D03*
Y021D03*
G54D40*
X03827Y0434D03*
X03122Y05865D03*
Y05385D03*
Y05625D03*
Y0281D03*
Y0257D03*
X03827Y01285D03*
X03122Y0233D03*
X03247Y02629D03*
Y02609D03*
Y0259D03*
Y0257D03*
X03122Y0259D03*
Y02609D03*
Y02629D03*
X03247Y02389D03*
Y02369D03*
Y0235D03*
Y0233D03*
X03122Y0235D03*
Y02369D03*
Y02389D03*
X03247Y02869D03*
Y02849D03*
Y0283D03*
Y0281D03*
X03122Y0283D03*
Y02849D03*
Y02869D03*
X03952Y01344D03*
Y01324D03*
Y01305D03*
Y01285D03*
X03827Y01305D03*
Y01324D03*
Y01344D03*
X03952Y04399D03*
Y04379D03*
Y0436D03*
Y0434D03*
X03827Y0436D03*
Y04379D03*
Y04399D03*
X03122Y05924D03*
Y05904D03*
Y05885D03*
X03247Y05865D03*
Y05885D03*
Y05904D03*
Y05924D03*
X03122Y05444D03*
Y05424D03*
Y05405D03*
X03247Y05385D03*
Y05405D03*
Y05424D03*
Y05444D03*
X03122Y05684D03*
Y05664D03*
Y05645D03*
X03247Y05625D03*
Y05645D03*
Y05664D03*
Y05684D03*
G54D41*
X04984Y0347D03*
Y03055D03*
Y0264D03*
X0061Y03395D03*
Y0298D03*
Y0256D03*
X04875Y02602D03*
Y02677D03*
X04984D03*
Y02602D03*
X0061Y02597D03*
Y02522D03*
X00719D03*
Y02597D03*
X04984Y03432D03*
Y03507D03*
X04875D03*
Y03432D03*
Y03017D03*
Y03092D03*
X04984D03*
Y03017D03*
X0061Y03432D03*
Y03357D03*
X00719D03*
Y03432D03*
X0061Y03017D03*
Y02942D03*
X00719D03*
Y03017D03*
G54D42*
X03702Y03639D03*
Y00584D03*
X03804Y00815D03*
X03778D03*
X03753D03*
X03727D03*
X03702D03*
X03676D03*
X03651D03*
X03625D03*
Y00584D03*
X03651D03*
X03676D03*
X03727D03*
X03753D03*
X03778D03*
X03804D03*
Y0387D03*
X03778D03*
X03753D03*
X03727D03*
X03702D03*
X03676D03*
X03651D03*
X03625D03*
Y03639D03*
X03651D03*
X03676D03*
X03727D03*
X03753D03*
X03778D03*
X03804D03*
G54D43*
X0266Y03482D03*
X0247Y03332D03*
X0266Y00427D03*
X0247Y00277D03*
X02719Y00302D03*
X02699D03*
X0268D03*
X0266D03*
X0268Y00427D03*
X02699D03*
X02719D03*
X02529Y00152D03*
X02509D03*
X0249D03*
X0247D03*
X0249Y00277D03*
X02509D03*
X02529D03*
Y03207D03*
X02509D03*
X0249D03*
X0247D03*
X0249Y03332D03*
X02509D03*
X02529D03*
X02719Y03357D03*
X02699D03*
X0268D03*
X0266D03*
X0268Y03482D03*
X02699D03*
X02719D03*
G54D44*
X02225Y01735D03*
X02287D03*
X02225Y01797D03*
Y0479D03*
X02287D03*
X02225Y04852D03*
G54D45*
X02405Y01395D03*
Y01332D03*
X02467Y01395D03*
X02405Y0445D03*
Y04387D03*
X02467Y0445D03*
G54D46*
X0491Y0015D03*
X0541Y0065D03*
Y081D03*
X0491Y086D03*
X0065Y0015D03*
X0015Y0065D03*
Y081D03*
X0065Y086D03*
X0015D03*
Y0015D03*
X0541Y086D03*
Y0015D03*
G54D47*
X0471Y0466D03*
X02465Y05215D03*
Y0216D03*
X0471Y01685D03*
X0293Y03755D03*
Y007D03*
X00645Y0392D03*
X0413Y06555D03*
X0403D03*
X0203Y06355D03*
X0193D03*
X0137Y08255D03*
X0483Y0466D03*
X0134Y04895D03*
X0144Y04995D03*
X0134D03*
X0144Y05095D03*
X0134D03*
Y0184D03*
X0144Y0194D03*
X0134D03*
X0144Y0204D03*
X0134D03*
X02585Y0216D03*
X0305Y007D03*
X0176Y01975D03*
X039Y00355D03*
X038D03*
X037D03*
X036D03*
X035D03*
X025Y011D03*
X02775Y0124D03*
X0134Y0159D03*
X0144Y0147D03*
X04245Y0192D03*
X04145Y018D03*
X04245Y0159D03*
X04145Y0147D03*
X02775Y04295D03*
X0176Y0503D03*
X04245Y04645D03*
X04145Y04525D03*
X04245Y04975D03*
X04145Y04855D03*
X0134Y04645D03*
X0144Y04525D03*
X025Y04155D03*
X039Y0341D03*
X038D03*
X037D03*
X036D03*
X035D03*
X0305Y03755D03*
X02585Y05215D03*
X0479Y02565D03*
X00805Y02635D03*
X00905Y03055D03*
Y03275D03*
X0483Y01685D03*
X0243Y06355D03*
X0263D03*
X0253D03*
X0283D03*
X0273D03*
X0303D03*
X0293D03*
X0233D03*
X0413Y06655D03*
X0403D03*
X0413Y06955D03*
Y06855D03*
Y06755D03*
Y07055D03*
X0403Y06955D03*
Y06855D03*
Y06755D03*
Y07055D03*
X0413Y07455D03*
Y07355D03*
X0403D03*
X0413Y07255D03*
X0403D03*
X0413Y07155D03*
X0403D03*
Y07455D03*
X0413Y07755D03*
Y07655D03*
Y07555D03*
Y07855D03*
X0403Y07755D03*
Y07655D03*
Y07555D03*
Y07855D03*
X0313Y08255D03*
X0333D03*
X0323D03*
X0353D03*
X0343D03*
X0373D03*
X0363D03*
X0303D03*
X0223D03*
X0243D03*
X0233D03*
X0263D03*
X0253D03*
X0283D03*
X0273D03*
X0157D03*
X0147D03*
X0177D03*
X0167D03*
X0117D03*
X0107D03*
X0127D03*
X0197D03*
X0187D03*
X0213D03*
X0413D03*
Y08155D03*
X0403D03*
X0413Y08055D03*
X0403D03*
X0413Y07955D03*
X0403D03*
Y08255D03*
X0333Y06355D03*
X0353D03*
X0343D03*
X0373D03*
X0363D03*
X0393D03*
X0383D03*
X0323D03*
X0153D03*
X0173D03*
X0163D03*
X0183D03*
X0213D03*
X0143D03*
X01045Y02505D03*
X0079Y0349D03*
G54D48*
X03545Y052D03*
X03345D03*
X03545Y05D03*
X03345Y047D03*
Y05D03*
X03545Y045D03*
Y047D03*
X0355Y042D03*
X0335D03*
X03345Y045D03*
X0355Y04D03*
X0335D03*
X02845Y052D03*
X0229Y05665D03*
Y05865D03*
X03045Y052D03*
Y05D03*
X02845D03*
X02125Y05165D03*
Y05365D03*
X02465Y0362D03*
Y0382D03*
X02265Y0362D03*
Y0382D03*
X03545Y01645D03*
Y01945D03*
X0355Y01145D03*
Y00945D03*
X03545Y02145D03*
X03345Y01645D03*
Y01945D03*
X03545Y01445D03*
X0335Y01145D03*
X03345Y01445D03*
Y02145D03*
X0335Y00945D03*
X02845Y02145D03*
X0229Y0261D03*
Y0281D03*
X03045Y02145D03*
Y01945D03*
X02845D03*
X02125Y0211D03*
Y0231D03*
X02465Y00565D03*
Y00765D03*
X02265Y00565D03*
Y00765D03*
X0209Y05865D03*
Y05665D03*
X01925Y05165D03*
Y05365D03*
X0209Y0281D03*
Y0261D03*
X01965Y0382D03*
Y0362D03*
X01925Y0211D03*
Y0231D03*
X01765Y0362D03*
Y0382D03*
X01965Y00765D03*
Y00565D03*
X01765D03*
Y00765D03*
G54D49*
X0144Y04895D03*
Y0184D03*
X00645Y0382D03*
X00905Y03175D03*
G54D50*
X02365Y00665D03*
X02025Y0221D03*
X01865Y00665D03*
X02945Y02045D03*
X0219Y0271D03*
X03445Y02045D03*
X0345Y01045D03*
X03445Y01545D03*
X0345Y041D03*
X03445Y046D03*
X0219Y05765D03*
X03445Y051D03*
X01865Y0372D03*
X02945Y051D03*
X02365Y0372D03*
X02025Y05265D03*
G54D51*
X04Y00355D03*
X0144Y0159D03*
X0134Y0147D03*
X04145Y0192D03*
X04245Y018D03*
X04145Y0159D03*
X04245Y0147D03*
X04145Y04645D03*
X04245Y04525D03*
X04145Y04975D03*
X04245Y04855D03*
X0144Y04645D03*
X0134Y04525D03*
X04Y0341D03*
X0469Y02565D03*
X00905Y02635D03*
X00805Y03055D03*
G54D52*
X04355Y06956D03*
X02028Y01531D03*
X02071D03*
X02115D03*
X02158D03*
X02201D03*
X02028Y01488D03*
X02071D03*
X02115D03*
X02158D03*
X02201D03*
X02028Y01445D03*
X02071D03*
X02115D03*
X02158D03*
X02201D03*
X02028Y01401D03*
X02071D03*
X02115D03*
X02158D03*
X02201D03*
X02028Y01358D03*
X02071D03*
X02115D03*
X02158D03*
X02201D03*
X02028Y04586D03*
X02071D03*
X02115D03*
X02158D03*
X02201D03*
X02028Y04543D03*
X02071D03*
X02115D03*
X02158D03*
X02201D03*
X02028Y045D03*
X02071D03*
X02115D03*
X02158D03*
X02201D03*
X02028Y04456D03*
X02071D03*
X02115D03*
X02158D03*
X02201D03*
X02028Y04413D03*
X02071D03*
X02115D03*
X02158D03*
X02201D03*
X01335Y0412D03*
X0305Y0103D03*
X03436Y02278D03*
X0326Y02925D03*
X03335Y0284D03*
X03749Y01264D03*
X05065Y021D03*
X0507Y0499D03*
Y05075D03*
Y04905D03*
X04985Y0229D03*
X04273Y06516D03*
X0284Y06475D03*
X02841Y06666D03*
X02885Y06435D03*
X0289Y0662D03*
X02523Y05435D03*
X04325Y06565D03*
X0479Y06747D03*
X0439Y06773D03*
X04525Y0717D03*
X0461D03*
X04695D03*
X0439Y06695D03*
X05065Y0193D03*
Y02015D03*
X0081Y01325D03*
X00642Y01725D03*
X0064Y0159D03*
X0068Y0142D03*
X00738Y01327D03*
X00898D03*
X0081Y01237D03*
X0076Y01257D03*
X02777Y02458D03*
X02777Y02542D03*
X02778Y0551D03*
X02775Y05595D03*
X0091Y0438D03*
X00825D03*
X0074D03*
X01685Y01385D03*
Y0147D03*
Y01642D03*
Y0156D03*
Y04695D03*
Y0461D03*
Y0444D03*
Y04525D03*
X01875Y0463D03*
X01886Y04675D03*
X0173Y05882D03*
X01675D03*
X0162D03*
X01565D03*
X01785D03*
X0134Y05915D03*
X00145Y0566D03*
X00275Y0563D03*
X00145Y0588D03*
Y05825D03*
Y0577D03*
Y05715D03*
X0198Y0473D03*
X01895D03*
X03063Y0351D03*
X02907Y0368D03*
X0278Y0277D03*
X02777Y02606D03*
X0212Y04255D03*
X00845Y0109D03*
X02034Y01217D03*
X0125Y01085D03*
X02115Y01195D03*
X0208Y0123D03*
X00802Y01117D03*
X012Y00835D03*
X0081Y01195D03*
X01886Y01631D03*
X01885Y01515D03*
Y0457D03*
X02085Y043D03*
X01874Y01576D03*
X004Y04045D03*
X0054D03*
X00365Y04D03*
X00505D03*
X0047Y04045D03*
X00435Y04D03*
X00465Y037D03*
X00573Y03742D03*
X005Y03745D03*
X00535Y037D03*
X0043Y03745D03*
X00395Y037D03*
X00925Y02075D03*
Y0202D03*
X0093Y01955D03*
X00935Y0215D03*
X00905Y02215D03*
X0092Y0229D03*
X01165Y02035D03*
X011Y02075D03*
X0115Y02115D03*
X011Y0215D03*
X01145Y022D03*
X01105Y0225D03*
X0171Y02855D03*
X017Y0276D03*
X0283Y0284D03*
X0086Y0403D03*
X0083Y03975D03*
X00895Y0398D03*
X0089Y04085D03*
X0085Y04125D03*
X00895Y04165D03*
X00685Y0412D03*
X00695Y0406D03*
X01025Y039D03*
X0103Y0396D03*
X0101Y0401D03*
X0102Y04065D03*
X01025Y0412D03*
X01055Y04165D03*
X04985Y02255D03*
X0475Y02185D03*
Y0224D03*
X00595Y04645D03*
X01157Y04593D03*
X01216Y04576D03*
X03028Y00521D03*
X02855Y00412D03*
X03046Y00438D03*
X0302Y0056D03*
X0102Y0173D03*
Y01655D03*
X00915Y01855D03*
Y01785D03*
X00795Y0256D03*
X0283Y0072D03*
X0287Y00625D03*
X02835Y0378D03*
X03028Y03576D03*
X02957Y03655D03*
X02855Y03467D03*
X0302Y03615D03*
X02495Y0266D03*
X02715Y0322D03*
X0462Y0466D03*
X04818Y0264D03*
X048Y03055D03*
X0242Y03335D03*
X0278Y0323D03*
Y035D03*
X02775Y00175D03*
X0278Y00445D03*
X00757Y03395D03*
X01345Y04082D03*
X0126Y0394D03*
X0121Y0389D03*
X01235Y03964D03*
X0128Y04019D03*
X0125Y00985D03*
X012Y01035D03*
X0125Y00885D03*
X012Y00935D03*
X00795Y0298D03*
X0259Y00295D03*
X02715Y00165D03*
X0311Y0299D03*
X02487Y018D03*
X0254Y01758D03*
X0389Y01535D03*
X02506Y01565D03*
X0259Y0161D03*
X02523Y0238D03*
X02295Y02415D03*
X02523Y02315D03*
X02295Y0235D03*
X02285Y02125D03*
X0295Y006D03*
X0275Y01035D03*
X0282Y01075D03*
X0311Y0251D03*
Y0227D03*
X0261Y0043D03*
X0242Y0028D03*
X0311Y0275D03*
X03335Y026D03*
Y0236D03*
X02715Y01585D03*
Y01485D03*
Y01385D03*
X01885Y013D03*
Y01385D03*
X01895Y01675D03*
X0198D03*
X02395Y0115D03*
X02487Y04855D03*
X02295Y0547D03*
X02523Y0537D03*
X02295Y05405D03*
X0275Y0409D03*
X0259Y04665D03*
X0261Y03485D03*
X02495Y05715D03*
X02795Y05725D03*
X02715Y0444D03*
Y0454D03*
Y0464D03*
X0254Y04813D03*
X02285Y0518D03*
X0462Y01685D03*
X048Y0347D03*
X01885Y0147D03*
X0326Y02685D03*
Y02445D03*
X0196Y01215D03*
X02395Y04205D03*
X02035Y0427D03*
X01885Y04355D03*
Y0444D03*
X03335Y05415D03*
Y05655D03*
Y05895D03*
X0392Y05095D03*
X0282Y0413D03*
X02506Y0462D03*
X0259Y0335D03*
X0311Y05805D03*
Y05565D03*
X0326Y0574D03*
Y055D03*
X0311Y05325D03*
Y06045D03*
X0326Y0598D03*
X03749Y04319D03*
X0389Y0459D03*
X01885Y04525D03*
X0196Y0427D03*
G54D53*
X03925Y03975D03*
X0342Y0381D03*
X0318Y03453D03*
X0431Y0426D03*
X04645Y06355D03*
X04315Y0548D03*
X04085Y02815D03*
X03465Y0287D03*
X0272Y03005D03*
X0532Y0591D03*
X0482Y06405D03*
X05035Y0112D03*
X0501Y06525D03*
X05055Y03375D03*
X04085Y0577D03*
X0408Y06385D03*
X03675Y0468D03*
X03045Y0413D03*
X03675Y0443D03*
X03795Y04825D03*
X0391Y05015D03*
X0404Y05125D03*
X0459Y06775D03*
X0491Y05175D03*
X04125Y0367D03*
Y03755D03*
Y0384D03*
Y00615D03*
Y007D03*
Y0078D03*
X01025Y01232D03*
X0216Y0099D03*
X0208D03*
X01995D03*
X0191D03*
X0182Y009D03*
X0216Y04055D03*
X0208D03*
X01995D03*
X0191D03*
X01755Y04855D03*
X017Y0519D03*
X01785Y05195D03*
X01665Y05135D03*
X01627Y05065D03*
X04515Y04385D03*
X04655Y04465D03*
X047Y03715D03*
X04655Y03425D03*
X03375Y03185D03*
X03325Y0337D03*
X02715Y0267D03*
X049Y0222D03*
X01005Y01375D03*
X01565Y05045D03*
X0077Y00855D03*
X0074Y0091D03*
X00595Y01075D03*
X0065Y0102D03*
X0069Y00955D03*
X01005Y011D03*
X01022Y01172D03*
X0094Y01135D03*
X01095Y013D03*
X0054Y0349D03*
X0451Y0369D03*
X0366Y00675D03*
X03715Y0089D03*
X0318Y00385D03*
X03542Y03742D03*
X03715Y04D03*
X03735Y0212D03*
X0479Y02975D03*
X0417Y02195D03*
X04567Y01917D03*
X04365Y0211D03*
X04055Y03245D03*
X04155Y03075D03*
X03975Y0422D03*
X0397Y0116D03*
X0333Y03015D03*
X02965Y0336D03*
X01344Y03612D03*
X00803Y01616D03*
X0054Y02655D03*
Y03075D03*
X00655Y04485D03*
X05055Y02545D03*
Y0296D03*
X03945Y00495D03*
X01755Y01225D03*
Y018D03*
X0299Y00885D03*
X03135Y0049D03*
X02965Y00305D03*
X03Y0024D03*
Y03295D03*
X0299Y0394D03*
X03945Y0355D03*
X03735Y014D03*
X0182Y03955D03*
X0272Y05725D03*
X03735Y04455D03*
X03725Y05135D03*
X01755Y0428D03*
M02*