%FSTAX23Y23*%
%MOIN*%
%SFA1B1*%

%IPPOS*%
%AMD26*
4,1,8,0.019700,-0.009800,0.019700,0.009800,0.017700,0.011800,-0.017700,0.011800,-0.019700,0.009800,-0.019700,-0.009800,-0.017700,-0.011800,0.017700,-0.011800,0.019700,-0.009800,0.0*
1,1,0.004016,0.017700,-0.009800*
1,1,0.004016,0.017700,0.009800*
1,1,0.004016,-0.017700,0.009800*
1,1,0.004016,-0.017700,-0.009800*
%
%ADD11C,0.010000*%
%ADD13C,0.020000*%
%ADD17O,0.029528X0.009842*%
%ADD18O,0.009842X0.029528*%
%ADD19R,0.233858X0.233858*%
%ADD20R,0.041339X0.037402*%
%ADD21R,0.037402X0.031496*%
%ADD22R,0.031496X0.037402*%
%ADD23R,0.058071X0.017716*%
%ADD24R,0.037402X0.041339*%
%ADD25R,0.033465X0.011811*%
G04~CAMADD=26~8~0.0~0.0~236.2~393.7~20.1~0.0~15~0.0~0.0~0.0~0.0~0~0.0~0.0~0.0~0.0~0~0.0~0.0~0.0~270.0~394.0~236.0*
%ADD26D26*%
%ADD27R,0.017716X0.058071*%
%ADD28R,0.011811X0.033465*%
%ADD29R,0.035433X0.035433*%
%ADD30R,0.035433X0.035433*%
%ADD36R,0.062992X0.013780*%
%ADD54C,0.015000*%
%ADD55C,0.030000*%
%ADD56C,0.200000*%
%ADD57C,0.059055*%
%ADD58C,0.082677*%
%ADD59R,0.059055X0.059055*%
%ADD60C,0.078740*%
%ADD61R,0.059055X0.059055*%
%ADD62C,0.025000*%
%ADD63C,0.050000*%
%LNcfd_2channel_copper_signal_top-1*%
%LPD*%
G36*
X04715Y06915D02*
X04655D01*
Y06685*
X04525*
Y06915*
X04505*
Y0695*
X04715*
Y06915*
G37*
G36*
X03265Y0593D02*
Y059D01*
X03105*
Y0591*
X03165*
Y05995*
X03265*
Y0593*
G37*
G36*
Y0569D02*
Y0566D01*
X03105*
Y0567*
X03165*
Y05755*
X03265*
Y0569*
G37*
G36*
X0274Y05525D02*
X0267D01*
Y0546*
X0264*
Y0575*
X0274*
Y05525*
G37*
G36*
X03265Y0545D02*
Y0542D01*
X03105*
Y0543*
X03165*
Y05515*
X03265*
Y0545*
G37*
G36*
X04985Y04965D02*
X04915D01*
Y049*
X04885*
Y051*
X04985*
Y04965*
G37*
G36*
X00965Y0461D02*
X00905D01*
Y04495*
X0093*
Y0446*
X00865*
Y0465*
X00965*
Y0461*
G37*
G36*
X00845Y0446D02*
X0072D01*
Y04495*
X00755*
Y0461*
X0068*
Y04625*
X00845*
Y0446*
G37*
G36*
X0391Y04405D02*
X0397D01*
Y04375*
X0381*
Y04385*
X0387*
Y0448*
X0391*
Y04405*
G37*
G36*
X03205Y04075D02*
X03135D01*
Y04*
X03085*
Y041*
X03165*
Y04115*
X03205*
Y04075*
G37*
G36*
X03735Y03835D02*
X0385D01*
Y03965*
X03885*
Y03795*
X03695*
Y04025*
X03735*
Y03835*
G37*
G36*
X03885Y0365D02*
X0385D01*
Y03685*
X03735*
Y0361*
X0372*
Y03775*
X03885*
Y0365*
G37*
G36*
X0513Y0342D02*
X04965D01*
Y0344*
X05095*
Y035*
X04965*
Y0352*
X0513*
Y0342*
G37*
G36*
X0063Y03425D02*
X005D01*
Y03365*
X0063*
Y03345*
X00465*
Y03445*
X0063*
Y03425*
G37*
G36*
X02705Y0344D02*
X02775D01*
Y034*
X02725*
Y0334*
X02695*
Y035*
X02705*
Y0344*
G37*
G36*
X02515Y0329D02*
X02585D01*
Y0325*
X02535*
Y0319*
X02505*
Y0335*
X02515*
Y0329*
G37*
G36*
X0513Y03005D02*
X04965D01*
Y03025*
X05095*
Y03085*
X04965*
Y03105*
X0513*
Y03005*
G37*
G36*
X0084D02*
X007D01*
Y0311*
X0084*
Y03005*
G37*
G36*
X0063Y0301D02*
X005D01*
Y0295*
X0063*
Y0293*
X00465*
Y0303*
X0063*
Y0301*
G37*
G36*
X03265Y02875D02*
Y02845D01*
X03105*
Y02855*
X03165*
Y0294*
X03265*
Y02875*
G37*
G36*
Y02635D02*
Y02605D01*
X03105*
Y02615*
X03165*
Y027*
X03265*
Y02635*
G37*
G36*
X0513Y0259D02*
X04965D01*
Y0261*
X05095*
Y0267*
X04965*
Y0269*
X0513*
Y0259*
G37*
G36*
X0084Y02585D02*
X007D01*
Y0269*
X0084*
Y02585*
G37*
G36*
X04895Y0251D02*
X04765D01*
Y02615*
X04895*
Y0251*
G37*
G36*
X0063Y0259D02*
X005D01*
Y0253*
X0063*
Y0251*
X00465*
Y0261*
X0063*
Y0259*
G37*
G36*
X0274Y0247D02*
X0267D01*
Y02405*
X0264*
Y02695*
X0274*
Y0247*
G37*
G36*
X03265Y02395D02*
Y02365D01*
X03105*
Y02375*
X03165*
Y0246*
X03265*
Y02395*
G37*
G36*
X04985Y0199D02*
X04915D01*
Y01925*
X04885*
Y02125*
X04985*
Y0199*
G37*
G36*
X00965Y01555D02*
X00905D01*
Y0144*
X0093*
Y01405*
X00865*
Y01595*
X00965*
Y01555*
G37*
G36*
X00845Y01405D02*
X0072D01*
Y0144*
X00755*
Y01555*
X0068*
Y0157*
X00845*
Y01405*
G37*
G36*
X0391Y0135D02*
X0397D01*
Y0132*
X0381*
Y0133*
X0387*
Y01425*
X0391*
Y0135*
G37*
G36*
X03205Y0102D02*
X03135D01*
Y00945*
X03085*
Y01045*
X03165*
Y0106*
X03205*
Y0102*
G37*
G36*
X03885Y0074D02*
X03695D01*
Y0084*
X03735*
Y0078*
X0385*
Y0091*
X03885*
Y0074*
G37*
G36*
Y00595D02*
X0385D01*
Y0063*
X03735*
Y00555*
X0372*
Y0072*
X03885*
Y00595*
G37*
G36*
X02705Y00385D02*
X02775D01*
Y00345*
X02725*
Y00285*
X02695*
Y00445*
X02705*
Y00385*
G37*
G36*
X02515Y00235D02*
X02585D01*
Y00195*
X02535*
Y00135*
X02505*
Y00295*
X02515*
Y00235*
G37*
G54D11*
X0129Y04165D02*
X01335Y0412D01*
X01055Y04165D02*
X0129D01*
X03681Y02278D02*
X0398Y0198D01*
X03436Y02278D02*
X03681D01*
X03679Y0233D02*
X04015Y01995D01*
X0403Y01305D02*
Y02001D01*
X03247Y0257D02*
X0346D01*
X04015Y01311D02*
Y01995D01*
X0346Y0257D02*
X0403Y02001D01*
X03247Y0233D02*
X03679D01*
X0342Y0381D02*
X03427Y03817D01*
Y03849*
X03487Y03909*
X03381Y03655D02*
Y03676D01*
X0318Y03453D02*
X03381Y03655D01*
X04825Y05255D02*
X0508Y0551D01*
Y06995*
X04825Y04864D02*
Y05255D01*
X04985Y0229D02*
X05138D01*
X04985Y02255D02*
X05125D01*
X052Y0233*
X05185Y02336D02*
Y02554D01*
X05138Y0229D02*
X05185Y02336D01*
X052Y0233D02*
Y02548D01*
X05252Y03907D02*
X05252Y03907D01*
X05207Y06971D02*
D01*
X0497Y07755D02*
X05207Y07517D01*
X05267Y01972D02*
Y04473D01*
X05215Y02542D02*
X05222Y02549D01*
X04891Y07855D02*
X05222Y07524D01*
Y03555D02*
X05222Y03555D01*
X05222Y06972D02*
D01*
X05252Y01987D02*
Y03907D01*
X0509Y0188D02*
X05215Y02005D01*
X05192Y06969D02*
Y07511D01*
X05267Y04473D02*
Y07542D01*
X05215Y02005D02*
Y02542D01*
X05207Y06971D02*
Y07517D01*
X05237Y02002D02*
Y03561D01*
X05185Y02554D02*
X05192Y02562D01*
X05267Y04473D02*
X05267Y04473D01*
X05192Y03542D02*
Y06969D01*
X05048Y07655D02*
X05192Y07511D01*
X0509Y01855D02*
X05237Y02002D01*
X05207Y03548D02*
X05207Y03548D01*
X05192Y06969D02*
D01*
X05207Y03548D02*
Y06971D01*
X05192Y03542D02*
X05192Y03542D01*
X05237Y03561D02*
X05237Y03561D01*
X052Y02548D02*
X05207Y02555D01*
X05073Y01778D02*
X05267Y01972D01*
X05222Y06972D02*
Y07524D01*
Y03555D02*
Y06972D01*
X05068Y01803D02*
X05252Y01987D01*
X05252Y03907D02*
Y07536D01*
X05222Y02549D02*
Y03555D01*
X05192Y02562D02*
Y03542D01*
X05207Y02555D02*
Y03548D01*
X05237Y03561D02*
Y06971D01*
Y0753D01*
Y06971D02*
D01*
X05135Y049D02*
Y0724D01*
X04885Y04753D02*
X05013D01*
X0516Y049D02*
Y07236D01*
X05013Y04778D02*
X05135Y049D01*
X05013Y04753D02*
X0516Y049D01*
X04841Y07555D02*
X0516Y07236D01*
X04885Y04778D02*
X05013D01*
X0492Y07455D02*
X05135Y0724D01*
X0466Y0815D02*
X05267Y07542D01*
X04733Y08055D02*
X05252Y07536D01*
X04654Y01906D02*
X04658Y0191D01*
X04684D02*
X0475Y01975D01*
Y02185*
X04658Y0191D02*
X04684D01*
X02489Y04477D02*
X02489D01*
X03694Y04399D02*
X03827D01*
X03689Y04395D02*
X03694Y04399D01*
X02572Y04395D02*
X03689D01*
X02489Y04477D02*
X02572Y04395D01*
X03258Y05864D02*
X03651Y05471D01*
Y05463D02*
X04045Y0507D01*
X03651Y05463D02*
Y05471D01*
X03247Y05865D02*
X03247Y05864D01*
X03258*
X04045Y04354D02*
Y0507D01*
X0346Y05625D02*
X0403Y05056D01*
X03247Y05385D02*
X03679D01*
X04015Y0505*
Y04366D02*
Y0505D01*
X0403Y0436D02*
Y05056D01*
X03247Y05625D02*
X0346D01*
X04272Y06512D02*
X04673Y06111D01*
Y0491D02*
Y06111D01*
X0284Y064D02*
X02869Y06371D01*
X0284Y064D02*
Y06475D01*
X02835Y0666D02*
X0313Y06955D01*
X0403*
X02869Y06294D02*
Y06371D01*
X03125Y06855D02*
X0403D01*
X02895Y06625D02*
X03125Y06855D01*
X02885Y06288D02*
Y06435D01*
X04325Y0656D02*
Y06565D01*
Y0656D02*
X04693Y06191D01*
X0482Y07255D02*
X0508Y06995D01*
X0484Y0523D02*
X051Y0549D01*
Y07025*
X0477Y07355D02*
X051Y07025D01*
X04654Y04881D02*
X04658Y04885D01*
X04684*
X04693Y04893*
X04654Y04906D02*
X04669D01*
X04673Y0491*
X04693Y06191D02*
Y04893D01*
X0413Y07255D02*
X0482D01*
X0413Y07355D02*
X0477D01*
X0484Y04874D02*
Y0523D01*
X04881Y04859D02*
X04885Y04855D01*
X04881Y04833D02*
X04885Y0483D01*
X0484Y04874D02*
X04855Y04859D01*
X04825Y04864D02*
X04855Y04833D01*
X04881*
X04855Y04859D02*
X04881D01*
X04885Y0188D02*
X0509D01*
X04885Y01855D02*
X0509D01*
X04885Y01803D02*
X05068D01*
X04885Y01778D02*
X05073D01*
X03016Y05444D02*
X03122D01*
X02905Y05353D02*
Y05484D01*
X02793Y05221D02*
X03016Y05444D01*
X02793Y05217D02*
Y05221D01*
X02742Y05166D02*
X02793Y05217D01*
X02905Y05484D02*
X03104Y05683D01*
X02778Y05227D02*
X02905Y05353D01*
X0289Y0536D02*
Y05709D01*
X03104Y05923*
X02763Y05233D02*
X0289Y0536D01*
X02835Y06238D02*
X02885Y06288D01*
X02835Y05453D02*
Y06238D01*
X02695Y05313D02*
X02835Y05453D01*
X0282Y05459D02*
Y06245D01*
X0264Y05338D02*
X02699D01*
X0282Y05459*
Y06245D02*
X02869Y06294D01*
X01827Y04735D02*
X01886Y04675D01*
X01934Y04627*
X0413Y07455D02*
X0492D01*
X0413Y07555D02*
X04841D01*
X0413Y07655D02*
X05048D01*
X0413Y07755D02*
X0497D01*
X0413Y07855D02*
X04891D01*
X0413Y07955D02*
X04812D01*
X0413Y08055D02*
X04733D01*
X0413Y08155D02*
X04135Y0815D01*
X0466*
X04812Y07955D02*
X05237Y0753D01*
X02225Y06495D02*
X02785Y07055D01*
X02225Y06222D02*
Y06495D01*
X01955Y05952D02*
X02225Y06222D01*
X0221Y06228D02*
Y06501D01*
X02863Y07155D02*
X0403D01*
X02195Y06234D02*
Y06507D01*
X0221Y06501D02*
X02863Y07155D01*
X0218Y06513D02*
X03021Y07355D01*
X02942Y07255D02*
X0403D01*
X02785Y07055D02*
X0403D01*
X03021Y07355D02*
X0403D01*
X0218Y06241D02*
Y06513D01*
X02195Y06507D02*
X02942Y07255D01*
X01955Y05657D02*
Y05952D01*
X01925Y05964D02*
X02195Y06234D01*
X0194Y05958D02*
X0221Y06228D01*
X0191Y05971D02*
X0218Y06241D01*
X0194Y05627D02*
Y05958D01*
X0191Y0557D02*
Y05971D01*
X01925Y05601D02*
Y05964D01*
X0067Y06286D02*
X01938Y07555D01*
X0403*
X00655Y06292D02*
X02017Y07655D01*
X0403*
X00572Y06231D02*
X02096Y07755D01*
X0403*
X02175Y07855D02*
X0403D01*
X00555Y06234D02*
X02175Y07855D01*
X03985Y0791D02*
X0403Y07955D01*
X0053Y06231D02*
X02208Y0791D01*
X03985*
X0051Y06232D02*
X02202Y07925D01*
X039D02*
X0403Y08055D01*
X02202Y07925D02*
X039D01*
X00495Y06238D02*
X02196Y0794D01*
X03815D02*
X0403Y08155D01*
X02196Y0794D02*
X03815D01*
X00465Y0625D02*
X02184Y0797D01*
X00435Y06263D02*
X02171Y08D01*
X0048Y06244D02*
X0219Y07955D01*
X0039Y06281D02*
X02153Y08045D01*
X00375Y06288D02*
X02146Y0806D01*
X0222Y0809D02*
X02385Y08254D01*
X0282Y08045D02*
X0303Y08255D01*
X0045Y06257D02*
X02177Y07985D01*
X00405Y06275D02*
X02159Y0803D01*
X02165Y08015D02*
X0299D01*
X02171Y08D02*
X03075D01*
X02159Y0803D02*
X02905D01*
X02435Y0806D02*
X0263Y08255D01*
X03075Y08D02*
X0333Y08255D01*
X0036Y06294D02*
X0214Y08075D01*
X0235D02*
X0253Y08255D01*
X0316Y07985D02*
X0343Y08255D01*
X02177Y07985D02*
X0316D01*
X0214Y08075D02*
X0235D01*
X02146Y0806D02*
X02435D01*
X0042Y06269D02*
X02165Y08015D01*
X0333Y07955D02*
X0363Y08255D01*
X0299Y08015D02*
X0323Y08255D01*
X0219Y07955D02*
X0333D01*
X02905Y0803D02*
X0313Y08255D01*
X02134Y0809D02*
X0222D01*
X00345Y063D02*
X02134Y0809D01*
X02184Y0797D02*
X03245D01*
X0353Y08255*
X02153Y08045D02*
X0282D01*
X0033Y05652D02*
Y06306D01*
X00572Y04635D02*
Y06231D01*
X0033Y06306D02*
X02197Y08173D01*
X00465Y04456D02*
Y0625D01*
X0053Y04635D02*
Y06231D01*
X00405Y04432D02*
Y06275D01*
X0051Y04528D02*
Y06232D01*
X0067Y04706D02*
Y06286D01*
X0048Y04463D02*
Y06244D01*
X00555Y04631D02*
Y06234D01*
X00299Y06284D02*
Y06319D01*
X00315Y05646D02*
Y06313D01*
X00495Y0448D02*
Y06238D01*
X00345Y05658D02*
Y063D01*
X0045Y0445D02*
Y06257D01*
X00375Y05671D02*
Y06288D01*
X00709Y04719D02*
Y06304D01*
X00435Y04444D02*
Y06263D01*
X0186Y07455D02*
X04029D01*
X02197Y08173D02*
X02248D01*
X0042Y04438D02*
Y06269D01*
X00655Y04696D02*
Y06292D01*
X0039Y05677D02*
Y06281D01*
X02145Y08143D02*
Y0817D01*
X00299Y06319D02*
X0213Y08149D01*
X00709Y06304D02*
X0186Y07455D01*
X0036Y05665D02*
Y06294D01*
X00315Y06313D02*
X02145Y08143D01*
X0213Y08149D02*
Y08255D01*
X00655Y04696D02*
X00679Y04672D01*
X02145Y0817D02*
X0223Y08255D01*
X0062Y04566D02*
X00709D01*
X00555Y04631D02*
X00557Y04629D01*
Y04629D02*
Y04629D01*
X0061Y04576D02*
D01*
X0062Y04566*
X00557Y04629D02*
X0061Y04576D01*
X00705Y01617D02*
X00709Y01613D01*
X00315Y01838D02*
Y05646D01*
X00679Y01617D02*
X00705D01*
X0033Y01966D02*
X00679Y01617D01*
X00315Y01838D02*
X00616Y01536D01*
X00709*
X0033Y05652D02*
D01*
X00405Y04158D02*
X00505Y04058D01*
X00345Y0402D02*
Y05658D01*
X00315Y05646D02*
D01*
X0036Y04085D02*
Y05665D01*
X0033Y01966D02*
Y05652D01*
X0039Y05677D02*
D01*
X00345Y05658D02*
D01*
X00375Y04118D02*
Y05671D01*
X0039Y04125D02*
Y05677D01*
X00375Y05671D02*
Y05671D01*
X00505Y04D02*
Y04058D01*
X0036Y05665D02*
D01*
X00405Y04158D02*
Y04432D01*
X0042Y04165D02*
Y04438D01*
X00375Y04118D02*
X00435Y04058D01*
X00405Y04432D02*
D01*
X00435Y04D02*
Y04058D01*
X0042Y04438D02*
Y04438D01*
X04029Y07455D02*
X0403D01*
X00189Y06838D02*
X0145Y08099D01*
X00234Y0682D02*
X01549Y08135D01*
X0019Y01565D02*
X0087Y00885D01*
X00189Y06838D02*
X0019Y01565D01*
X00219Y06826D02*
X0022Y01585D01*
X00174Y06844D02*
X00175Y01555D01*
X00234Y0682D02*
X00235Y01593D01*
X00793Y01035*
X00205Y01575D02*
X00845Y00935D01*
X00175Y01555D02*
X00895Y00835D01*
X00204Y06832D02*
X00205Y01575D01*
X00174Y06844D02*
X0144Y0811D01*
X0022Y01585D02*
X0082Y00985D01*
X00204Y06832D02*
X01461Y08088D01*
X00219Y06826D02*
X01471Y08078D01*
X01549Y08135D02*
X0175D01*
X0025Y01599D02*
Y06813D01*
Y01599D02*
X00794Y01055D01*
X0025Y06813D02*
X01556Y0812D01*
X01925Y05601D02*
X01927Y05599D01*
X0194Y05627D02*
X01942Y05625D01*
X01955Y05657D02*
X01957Y05655D01*
X00679Y04672D02*
X00705D01*
X00709Y04668*
X02248Y08173D02*
X0233Y08255D01*
X02385Y08254D02*
X02429D01*
X0243Y08255*
X00613Y01511D02*
X00709D01*
X003Y01825D02*
X00613Y01511D01*
X00299Y06284D02*
X003Y01825D01*
X0145Y08099D02*
X01567Y08216D01*
Y08252D02*
X0157Y08255D01*
X01567Y08216D02*
Y08252D01*
X01835Y0812D02*
X0197Y08255D01*
X01556Y0812D02*
X01835D01*
X0175Y08135D02*
X0187Y08255D01*
X01539Y08167D02*
X01582D01*
X0167Y08255*
X01667Y08152D02*
X0177Y08255D01*
X01461Y08088D02*
X01539Y08167D01*
X01471Y08078D02*
X01545Y08152D01*
X01667*
X0147Y0814D02*
Y08255D01*
X0144Y0811D02*
X0147Y0814D01*
X012Y00835D02*
X012Y00835D01*
X00895Y00835D02*
X012D01*
X0087Y00885D02*
X0125D01*
X00858Y04085D02*
X0089D01*
X0048Y04463D02*
X00858Y04085D01*
X00435Y04401D02*
X0083Y04006D01*
X00435Y04401D02*
Y04444D01*
Y04444D02*
Y04444D01*
X0053Y04635D02*
X00625Y0454D01*
X00616Y04591D02*
X00709D01*
X00572Y04635D02*
X00616Y04591D01*
X0045Y04408D02*
Y0445D01*
D01*
X00465Y04456D02*
X00851Y0407D01*
X00625Y0454D02*
X00709D01*
X00679Y04697D02*
X00705D01*
X00709Y04693*
X0067Y04706D02*
X00679Y04697D01*
X01813Y01638D02*
X01898Y01553D01*
X01827Y01695D02*
X01949Y01572D01*
X00851Y0407D02*
X0086Y04061D01*
X00851Y0407D02*
X00851D01*
X0083Y03975D02*
Y04006D01*
X0198Y0474D02*
X02046Y04673D01*
X0198Y0474D02*
Y04801D01*
X01697Y02757D02*
X017Y0276D01*
X01145Y022D02*
X01697Y02752D01*
Y02757*
X02907Y0368D02*
X0303D01*
X03066Y03538D02*
X03453Y03924D01*
X03063Y0351D02*
X03066Y03513D01*
Y03538*
X0278Y02765D02*
X02815Y0273D01*
Y02635D02*
Y0273D01*
X0278Y02765D02*
Y0277D01*
X0264Y02283D02*
X02734D01*
X0264Y02258D02*
X0273D01*
X02815Y02635D02*
X0283Y0262D01*
Y02379D02*
Y0262D01*
X02734Y02283D02*
X0283Y02379D01*
X0273Y02258D02*
X02845Y02373D01*
X0291Y02346D02*
Y02434D01*
X0283Y02642D02*
X02845Y02626D01*
X0283Y02642D02*
Y0284D01*
X02905Y02298D02*
Y0234D01*
X02845Y02373D02*
Y02626D01*
X0291Y02434D02*
X03104Y02628D01*
X0289Y02305D02*
Y02347D01*
X02905Y0234D02*
X0291Y02346D01*
X02895Y02659D02*
X03104Y02868D01*
X0289Y02347D02*
X02895Y02352D01*
Y02659*
X03122Y02628D02*
X03122Y02629D01*
X03104Y02628D02*
X03122D01*
X00793Y01035D02*
X012D01*
X00794Y01055D02*
X0101D01*
X0036Y0241D02*
Y03725D01*
Y0241D02*
X00915Y01855D01*
X00345Y02355D02*
X00915Y01785D01*
X00345Y02355D02*
Y03785D01*
X00673Y04113*
X0036Y03725D02*
X00695Y0406D01*
X01897Y04722D02*
X0193Y0469D01*
X01895Y04725D02*
X01897Y04723D01*
Y04722D02*
Y04723D01*
X01895Y04725D02*
Y04801D01*
Y04725D02*
X01895D01*
X01934Y04627D02*
X01959D01*
X01813Y0478D02*
X01827Y04766D01*
Y04735D02*
Y04766D01*
X0193Y0469D02*
X02008D01*
X02124Y04259D02*
Y04344D01*
X02124Y04344*
X0212Y04255D02*
X02124Y04259D01*
X02164Y04283D02*
X02234Y04213D01*
X02155Y04206D02*
Y04269D01*
X02144Y04279D02*
X02155Y04269D01*
Y04206D02*
X02163Y04198D01*
X02164Y04283D02*
Y04344D01*
X02234Y0413D02*
Y04213D01*
X02144Y04279D02*
Y04344D01*
X02183Y04285D02*
X02325Y04143D01*
X02339Y0413D02*
Y04132D01*
X02328Y04143D02*
X02339Y04132D01*
X02325Y04143D02*
X02328D01*
X02183Y04285D02*
Y04344D01*
X0045Y04408D02*
X00856Y04001D01*
X00873*
X0082Y00985D02*
X0125D01*
X00845Y00935D02*
X012D01*
X0101Y01055D02*
X01012Y01057D01*
X01Y01095D02*
X01005Y011D01*
X0085Y01095D02*
X01D01*
X00845Y0109D02*
X0085Y01095D01*
X01012Y01057D02*
X01222D01*
X0125Y01085*
X02034Y01214D02*
Y01217D01*
X01995Y01175D02*
X02034Y01214D01*
X0215Y01156D02*
X02163Y01143D01*
X0215Y01156D02*
Y01212D01*
X02144Y01217D02*
X0215Y01212D01*
X02115Y01195D02*
Y01205D01*
X02144Y01217D02*
Y01289D01*
X02124Y01215D02*
Y01289D01*
X02115Y01205D02*
X02124Y01215D01*
X02164Y01219D02*
X02234Y01149D01*
Y01075D02*
Y01149D01*
X02164Y01219D02*
Y01289D01*
X02183Y0123D02*
Y01289D01*
X02339Y01075D02*
Y01077D01*
X02325Y01088D02*
X02328D01*
X02339Y01077*
X02183Y0123D02*
X02325Y01088D01*
X0208Y01143D02*
Y0123D01*
X02105Y01255D02*
Y01289D01*
X0208Y0123D02*
X02105Y01255D01*
X00802Y01117D02*
X00806D01*
X00824Y01135D02*
X0094D01*
X00806Y01117D02*
X00824Y01135D01*
X0094Y01511D02*
X00944Y01507D01*
X015Y0073D02*
Y00978D01*
X0097Y01532D02*
X01515Y00988D01*
Y0074D02*
Y00988D01*
X0097Y01507D02*
X015Y00978D01*
X0094Y01536D02*
X00944Y01532D01*
X0097*
X00944Y01507D02*
X0097D01*
X01006Y01613D02*
X01445Y01175D01*
X01813*
X0094Y01613D02*
X01006D01*
X0102Y01655D02*
X01485Y0119D01*
X01806*
X01306Y0143D02*
X01309D01*
X01395Y01345D02*
X01876D01*
X0102Y0173D02*
X01022Y01727D01*
Y01717D02*
Y01727D01*
X013Y01436D02*
X01306Y0143D01*
X013Y01436D02*
Y01439D01*
X01309Y0143D02*
X01395Y01345D01*
X01022Y01717D02*
X013Y01439D01*
X01818Y01474D02*
X01959D01*
X0198Y01685D02*
X02046Y01618D01*
X01818Y04529D02*
X01959D01*
X01895Y0167D02*
X01895D01*
X01895D02*
Y01746D01*
X01924Y01169D02*
X02005Y0125D01*
X01924Y04224D02*
X02005Y04305D01*
X01052Y04693D02*
X01501Y04245D01*
X0092Y04719D02*
X01073D01*
X02065Y01289D02*
Y01395D01*
X01959Y01454D02*
X02105D01*
Y016*
X02065Y04344D02*
Y0445D01*
X01959Y04509D02*
X02105D01*
Y04655*
X01813Y01553D02*
X01852Y01514D01*
X01884D02*
X01885Y01515D01*
X01852Y01514D02*
X01884D01*
X01959Y01513D02*
X01959Y01513D01*
X01886Y01513D02*
X01959D01*
X01885Y01515D02*
X01886Y01513D01*
X01813Y04608D02*
X01852Y04569D01*
X01884*
X01885Y0457*
X01959Y04568D02*
X01959Y04568D01*
X01886Y04568D02*
X01959D01*
X01885Y0457D02*
X01886Y04568D01*
X01896Y04608D02*
X01959D01*
X01813Y04693D02*
X01875Y04631D01*
X01813Y04693D02*
Y04695D01*
X01875Y0463D02*
X01896Y04608D01*
X01875Y0463D02*
Y04631D01*
X02085Y04203D02*
Y043D01*
X02105Y0432D02*
Y04344D01*
X02085Y043D02*
X02105Y0432D01*
X0208Y04198D02*
X02085Y04203D01*
X00345Y0402D02*
X00365Y04D01*
X0039Y04125D02*
X0047Y04045D01*
X0042Y04165D02*
X0054Y04045D01*
X0036Y04085D02*
X004Y04045D01*
X0045Y0358D02*
X00573Y03703D01*
X0045Y0251D02*
Y0358D01*
X00573Y03703D02*
Y03742D01*
X00533Y037D02*
X00535D01*
X00435Y03601D02*
X00533Y037D01*
X0042Y03623D02*
X005Y03703D01*
Y03745*
X00405Y0364D02*
X00465Y037D01*
X0042Y02498D02*
Y03623D01*
X00405Y02492D02*
Y0364D01*
X0039Y03647D02*
X0043Y03687D01*
Y03745*
X0039Y02486D02*
Y03647D01*
X00375Y0368D02*
X00395Y037D01*
X00375Y02479D02*
Y0368D01*
X00435Y02504D02*
Y03601D01*
X00375Y02479D02*
X00899Y01955D01*
X0039Y02486D02*
X00856Y0202D01*
X00925*
X00899Y01955D02*
X0093D01*
X00405Y02492D02*
X00822Y02075D01*
X00925*
X0042Y02498D02*
X00768Y0215D01*
X00935*
X00435Y02504D02*
X00724Y02215D01*
X00905*
X0045Y0251D02*
X0067Y0229D01*
X0092*
X00673Y04113D02*
X0068Y0412D01*
X00685*
X00673Y04113D02*
X00673D01*
X01165Y02035D02*
X0123D01*
X0166Y02465*
X011Y02075D02*
X01245D01*
X01655Y02485*
X0115Y02115D02*
X01245D01*
X0164Y0251*
X011Y0215D02*
X0121D01*
X01595Y02535*
X01105Y0225D02*
X0171Y02855D01*
X00495Y0448D02*
X0085Y04125D01*
X0051Y04528D02*
X00873Y04165D01*
X0086Y0403D02*
Y04061D01*
X00873Y04165D02*
X00895D01*
X00873Y04001D02*
X00895Y0398D01*
X01025Y039D02*
X01145D01*
X01155Y0389*
X0103Y0396D02*
X0113D01*
X0115Y0394*
X0119Y0401D02*
X01235Y03964D01*
X0101Y0401D02*
X0119D01*
X0102Y04065D02*
X01235D01*
X0128Y04019*
X01139Y0412D02*
X01177Y04082D01*
X01025Y0412D02*
X01139D01*
X01177Y04082D02*
X01345D01*
X04654Y02144D02*
X0475Y0224D01*
X04654Y01931D02*
Y02144D01*
X0264Y05313D02*
X02695D01*
X01501Y04245D02*
X01806D01*
X0094Y04693D02*
X01052D01*
X01029Y04668D02*
X01467Y0423D01*
X0094Y04668D02*
X01029D01*
X01467Y0423D02*
X01813D01*
X01073Y04719D02*
X01216Y04576D01*
Y04575D02*
Y04576D01*
Y04575D02*
X01391Y044D01*
X01876*
X0097Y04587D02*
X01525Y04033D01*
X0151Y03775D02*
Y04023D01*
X0094Y04591D02*
X00944Y04587D01*
X01525Y03785D02*
Y04033D01*
X00944Y04587D02*
X0097D01*
X0097Y04562D02*
X0151Y04023D01*
X03698Y00588D02*
Y00636D01*
X0366Y00675D02*
X03698Y00636D01*
Y00588D02*
X03702Y00584D01*
X03539Y00815D02*
X03625D01*
X0305Y00515D02*
X03065D01*
X0318Y00455D02*
X03539Y00815D01*
X0318Y00385D02*
Y00455D01*
X03065Y00458D02*
Y0047D01*
X03046Y00439D02*
X03065Y00458D01*
X03046Y00438D02*
Y00439D01*
X03046Y00519D02*
X0305Y00515D01*
X0303Y00519D02*
X03046D01*
X03028Y00521D02*
X0303Y00519D01*
X03065Y0047D02*
X03464Y00869D01*
X03753Y00815D02*
Y0105D01*
X04015Y01311*
X03676Y00815D02*
Y0102D01*
X03941Y01285*
X0302Y0056D02*
X03159Y00699D01*
X03065Y00515D02*
X03174Y00624D01*
X0287Y00625D02*
X0303D01*
X0303Y03574D02*
X03046D01*
X03028Y03576D02*
X0303Y03574D01*
X03046D02*
X0305Y0357D01*
X02957Y03655D02*
X03027D01*
X03579Y03748D02*
X03586Y03755D01*
X03547Y03748D02*
X03579D01*
X03542Y03742D02*
X03547Y03748D01*
X0305Y0357D02*
X03065D01*
X03453Y03924D02*
X03547D01*
X03065Y0357D02*
X03174Y03679D01*
Y03913*
X03575Y0387D02*
X03625D01*
X03381Y03676D02*
X03575Y0387D01*
X0366Y04037D02*
Y04085D01*
X03547Y03924D02*
X0366Y04037D01*
X03675Y04074D02*
X03941Y0434D01*
X0366Y04085D02*
X03934Y04359D01*
X03675Y03955D02*
Y04074D01*
X03753Y04105D02*
X04015Y04366D01*
X03753Y0387D02*
Y04105D01*
X03675Y03955D02*
X03676Y03953D01*
Y0387D02*
Y03953D01*
X03487Y03909D02*
X03638D01*
X03586Y03755D02*
X03612D01*
X0302Y03615D02*
X03159Y03754D01*
X02494Y03165D02*
X0287D01*
X025Y0318D02*
X0273D01*
X0287Y03165D02*
X03Y03295D01*
X0273Y0318D02*
X0278Y0323D01*
X02644Y0028D02*
Y00323D01*
X0265Y00329D02*
X0267D01*
X02644Y00323D02*
X0265Y00329D01*
Y03384D02*
X0267D01*
X02644Y03335D02*
Y03378D01*
X0265Y03384*
X01731Y03553D02*
X02492D01*
X01741Y03568D02*
X02486D01*
X01525Y03785D02*
X01741Y03568D01*
X0151Y03775D02*
X01731Y03553D01*
X0094Y04566D02*
X00944Y04562D01*
X0097*
X02695Y03315D02*
X0278Y0323D01*
X02644Y03335D02*
X02665Y03315D01*
X0267Y03384D02*
X02679Y03375D01*
X02665Y03315D02*
X02695D01*
X02671Y0333D02*
X02935D01*
X02965Y0336*
X02661Y03339D02*
X02671Y0333D01*
X03934Y04359D02*
X03951D01*
X03952Y0436*
X02763Y00168D02*
X02772Y00176D01*
X0272Y00125D02*
X02763Y00168D01*
X025Y00125D02*
X0272D01*
X02772Y00176D02*
Y00182D01*
X02763Y00168D02*
X02763D01*
X02644Y0028D02*
X02665Y0026D01*
X0267Y00329D02*
X02679Y0032D01*
X02665Y0026D02*
X02695D01*
X02772Y00182*
X03464Y00869D02*
X03547D01*
X03661Y00984*
Y01031*
X03934Y01304*
X03951*
X03952Y01305*
X03499Y00854D02*
X03638D01*
X03135Y0049D02*
X03499Y00854D01*
X02679Y00303D02*
Y0032D01*
Y00303D02*
X0268Y00302D01*
X02491Y00134D02*
Y00152D01*
Y00134D02*
X025Y00125D01*
X02471Y00133D02*
X02494Y0011D01*
X0249Y00152D02*
X02491Y00152D01*
X0287Y0011D02*
X03Y0024D01*
X02471Y00133D02*
Y00152D01*
X02494Y0011D02*
X0287D01*
X02679Y03358D02*
Y03375D01*
Y03358D02*
X0268Y03357D01*
X02491Y03189D02*
Y03207D01*
X0249Y03207D02*
X02491Y03207D01*
Y03189D02*
X025Y0318D01*
X02471Y03188D02*
X02494Y03165D01*
X02471Y03188D02*
Y03207D01*
X015Y0073D02*
X01731Y00498D01*
X01515Y0074D02*
X01741Y00513D01*
X02486*
X01155Y0389D02*
X0121D01*
X0115Y0394D02*
X0126D01*
X02416Y01668D02*
Y0167D01*
Y01533D02*
Y01535D01*
X02065Y01746D02*
X02066D01*
X03109Y00896D02*
X03135D01*
X03105Y009D02*
X03109Y00896D01*
X03174Y00624D02*
Y00858D01*
X03135Y00896D02*
X03174Y00858D01*
X03109Y00871D02*
X03135D01*
X03105Y00875D02*
X03109Y00871D01*
X03159Y00699D02*
Y00847D01*
X03135Y00871D02*
X03159Y00847D01*
X03109Y00819D02*
X03135D01*
X03105Y00823D02*
X03109Y00819D01*
X03144Y00717D02*
Y00811D01*
X03027Y006D02*
X03144Y00717D01*
X03135Y00819D02*
X03144Y00811D01*
X0295Y006D02*
X03027D01*
X03105Y00699D02*
Y00798D01*
X0303Y00625D02*
X03105Y00699D01*
X02757Y01016D02*
Y01027D01*
X0287Y0093D02*
X02874Y00926D01*
X02844Y0093D02*
X0287D01*
X0275Y01035D02*
X02757Y01027D01*
Y01016D02*
X02844Y0093D01*
X02874Y00951D02*
Y0102D01*
X0282Y01075D02*
X02874Y0102D01*
X03112Y0257D02*
X03122D01*
X03111Y02569D02*
X03112Y0257D01*
X03111Y02511D02*
Y02569D01*
X0311Y0251D02*
X03111Y02511D01*
X03778Y01054D02*
X0403Y01305D01*
X03778Y00815D02*
Y01054D01*
X03112Y0233D02*
X03122D01*
X03111Y02329D02*
X03112Y0233D01*
X03111Y02271D02*
Y02329D01*
X0311Y0227D02*
X03111Y02271D01*
X03647Y00819D02*
Y00845D01*
Y00819D02*
X03651Y00815D01*
X03638Y00854D02*
X03647Y00845D01*
X0266Y00302D02*
X02661Y00302D01*
Y00284D02*
Y00302D01*
X02935Y00275D02*
X02965Y00305D01*
X02661Y00284D02*
X02671Y00275D01*
X02935*
X0247Y00152D02*
X02471Y00152D01*
X03804Y01058D02*
X04045Y01299D01*
Y02023*
X03804Y00815D02*
Y01058D01*
X03247Y0281D02*
X03257D01*
X04045Y02023*
X03112Y0281D02*
X03122D01*
X03111Y02809D02*
X03112Y0281D01*
X03111Y02751D02*
Y02809D01*
X0311Y0275D02*
X03111Y02751D01*
X03941Y01285D02*
X03952D01*
X0398Y01315D02*
Y0198D01*
X0397Y01306D02*
X0398Y01315D01*
X03952Y01306D02*
X0397D01*
X03952Y01305D02*
X03952Y01306D01*
X0333Y0236D02*
X03335D01*
X0333Y026D02*
X03335D01*
X03321Y0259D02*
X0333Y026D01*
X03321Y0235D02*
X0333Y0236D01*
X03247Y0259D02*
X03321D01*
X03247Y0235D02*
X03321D01*
X02115Y01445D02*
X02158Y01488D01*
X02071D02*
X02105Y01454D01*
X02158Y01401D02*
X02201Y01358D01*
X02115Y01445D02*
X02158Y01401D01*
X02071D02*
X02115Y01445D01*
X02065Y01395D02*
X02071Y01401D01*
X02028Y01358D02*
X02065Y01395D01*
X02252Y01279D02*
X02332Y012D01*
X02455*
X02242Y01279D02*
X02243Y01279D01*
X02252*
X02539Y00566D02*
Y01116D01*
X02486Y00513D02*
X02539Y00566D01*
X02455Y012D02*
X02539Y01116D01*
X02242Y01279D02*
Y01289D01*
X02496Y01103D02*
X025Y011D01*
X02346Y01103D02*
X02496D01*
X02203Y01246D02*
Y01289D01*
Y01246D02*
X02346Y01103D01*
X02183Y01289D02*
X02183Y01289D01*
X02046Y0123D02*
Y01289D01*
X02035Y01219D02*
X02046Y0123D01*
X01995Y01143D02*
Y01175D01*
X02026Y01271D02*
Y01289D01*
X02005Y0125D02*
X02026Y01271D01*
X01924Y01157D02*
Y01169D01*
X0191Y01143D02*
X0191D01*
X01924Y01157*
X02001Y01275D02*
X02006Y01279D01*
Y01289*
X01966Y01237D02*
X02001Y01273D01*
Y01275*
X01875Y01237D02*
X01966D01*
X01813Y01175D02*
X01875Y01237D01*
X01906Y01289D02*
X01987D01*
X01806Y0119D02*
X01906Y01289D01*
X01959Y01336D02*
X02006D01*
X02028Y01358*
X01885Y013D02*
X01941Y01356D01*
X01959*
X01813Y013D02*
X01885D01*
X01927Y01395D02*
X01959D01*
X01876Y01345D02*
X01927Y01395D01*
X01935Y01435D02*
X01959D01*
X01885Y01385D02*
X01935Y01435D01*
X01813Y01385D02*
X01885D01*
X02105Y01454D02*
X02115Y01445D01*
X01813Y0147D02*
X01818Y01474D01*
X01813Y01553D02*
Y01555D01*
X01898Y01553D02*
X01959D01*
X01813Y01638D02*
Y0164D01*
X01949Y01572D02*
X01959D01*
X01813Y01725D02*
X01827Y01711D01*
Y01695D02*
Y01711D01*
X02028Y01531D02*
X02071Y01488D01*
X01987Y01572D02*
Y016D01*
Y01572D02*
X02028Y01531D01*
X02026Y016D02*
Y01617D01*
Y016D02*
X02026Y016D01*
X02008Y01635D02*
X02026Y01617D01*
X0193Y01635D02*
X02008D01*
X01897Y01667D02*
X0193Y01635D01*
X01895Y0167D02*
X01897Y01668D01*
Y01667D02*
Y01668D01*
X02046Y016D02*
Y01618D01*
X0198Y01685D02*
Y01746D01*
X02085Y016D02*
Y01727D01*
X02066Y01746D02*
X02085Y01727D01*
X02183Y016D02*
Y01693D01*
X02225Y01735*
X03122Y02868D02*
X03122Y02869D01*
X03104Y02868D02*
X03122D01*
X02763Y02178D02*
X0289Y02305D01*
X02763Y02175D02*
Y02178D01*
X02557Y01955D02*
Y01969D01*
X02763Y02175*
X02309Y01707D02*
X02557Y01955D01*
X02203Y01653D02*
X02257Y01707D01*
X02309*
X02203Y016D02*
X02203Y016D01*
Y01653*
X02242Y01572D02*
X0227D01*
X02201Y01531D02*
X02242Y01572D01*
Y016*
X02158Y01488D02*
X02201Y01531D01*
X02301Y01553D02*
X02416Y01668D01*
X0227Y01553D02*
X02301D01*
X02778Y02172D02*
X02905Y02298D01*
X02778Y02169D02*
Y02172D01*
X02639Y02029D02*
X02778Y02169D01*
X02457Y016D02*
X02639Y01782D01*
Y02029*
X02401Y016D02*
X02457D01*
X02334Y01533D02*
X02401Y016D01*
X0227Y01533D02*
X02334D01*
X03016Y02389D02*
X03122D01*
X02793Y02166D02*
X03016Y02389D01*
X02793Y02162D02*
Y02166D01*
X02742Y02111D02*
X02793Y02162D01*
X02742Y01864D02*
Y02111D01*
X02463Y01585D02*
X02742Y01864D01*
X02407Y01585D02*
X02463D01*
X0227Y01513D02*
X02336D01*
X02407Y01585*
X02377Y01494D02*
X02416Y01533D01*
X0227Y01494D02*
X02377D01*
X02397Y01492D02*
X0242D01*
X02379Y01474D02*
X02397Y01492D01*
X0227Y01474D02*
X02379D01*
X02393Y01467D02*
X0242D01*
X0238Y01454D02*
X02393Y01467D01*
X0227Y01454D02*
X0238D01*
X02417Y01439D02*
X0242Y01442D01*
X02379Y01439D02*
X02417D01*
X02374Y01435D02*
X02379Y01439D01*
X0227Y01435D02*
X02374D01*
X02489Y01422D02*
X02568Y01344D01*
X02383Y01422D02*
X02489D01*
X02568Y01344D02*
X03827D01*
X02375Y01415D02*
X02383Y01422D01*
X0227Y01415D02*
X02375D01*
X02404Y01395D02*
X02405Y01395D01*
X0227Y01395D02*
X02404D01*
X02593Y00715D02*
Y01126D01*
Y00715D02*
X02719Y00589D01*
X02467Y01252D02*
X02593Y01126D01*
X02719Y00427D02*
Y00589D01*
X0228Y01376D02*
X02301D01*
X02424Y01252D02*
X02467D01*
X02301Y01376D02*
X02424Y01252D01*
X02569Y00327D02*
Y01128D01*
X0253Y00288D02*
X02569Y00327D01*
X0246Y01237D02*
X02569Y01128D01*
X02529Y00277D02*
X0253Y00277D01*
Y00288*
X0227Y01356D02*
X02299D01*
X0227Y01356D02*
X0227Y01356D01*
X02418Y01237D02*
X0246D01*
X02299Y01356D02*
X02418Y01237D01*
X02201Y01358D02*
X02223Y01336D01*
X0227*
X0228Y01317D02*
X0238Y01216D01*
X0246*
X0227Y01317D02*
X0228D01*
X02554Y0056D02*
Y01122D01*
X02492Y00498D02*
X02554Y0056D01*
X0246Y01216D02*
X02554Y01122D01*
X01731Y00498D02*
X02492D01*
X02223Y01256D02*
Y01289D01*
X0233Y0115D02*
X02395D01*
X02223Y01256D02*
X0233Y0115D01*
X02593Y0377D02*
Y04181D01*
Y0377D02*
X02719Y03644D01*
Y03482D02*
Y03644D01*
X02424Y04307D02*
X02467D01*
X02301Y04431D02*
X02424Y04307D01*
X0228Y04431D02*
X02301D01*
X02467Y04307D02*
X02593Y04181D01*
X0246Y04292D02*
X02569Y04183D01*
Y03382D02*
Y04183D01*
X02418Y04292D02*
X0246D01*
X0238Y04271D02*
X0246D01*
X02554Y04177*
X0228Y04372D02*
X0238Y04271D01*
X03027Y03655D02*
X03144Y03772D01*
X0303Y0368D02*
X03105Y03754D01*
X03159Y03754D02*
Y03902D01*
X03144Y03772D02*
Y03866D01*
X03135Y03926D02*
X03159Y03902D01*
X03135Y03951D02*
X03174Y03913D01*
X0275Y0409D02*
X02757Y04082D01*
Y04071D02*
Y04082D01*
X03105Y03754D02*
Y03853D01*
X02071Y04456D02*
X02115Y045D01*
X02065Y0445D02*
X02071Y04456D01*
X02028Y04413D02*
X02065Y0445D01*
X02006Y04391D02*
X02028Y04413D01*
X01959Y04391D02*
X02006D01*
X02201Y04413D02*
X02223Y04391D01*
X02158Y04456D02*
X02201Y04413D01*
X02115Y045D02*
X02158Y04456D01*
X02223Y04391D02*
X0227D01*
X02242Y04627D02*
X0227D01*
X02201Y04586D02*
X02242Y04627D01*
X02158Y04543D02*
X02201Y04586D01*
X02115Y045D02*
X02158Y04543D01*
X02242Y04627D02*
Y04655D01*
X02105Y04509D02*
X02115Y045D01*
X02071Y04543D02*
X02105Y04509D01*
X02028Y04586D02*
X02071Y04543D01*
X01987Y04627D02*
X02028Y04586D01*
X01987Y04627D02*
Y04655D01*
X03612Y03755D02*
X03698Y03669D01*
Y03643D02*
X03702Y03639D01*
X03698Y03643D02*
Y03669D01*
X03111Y05384D02*
X03112Y05385D01*
X03111Y05326D02*
Y05384D01*
X0311Y05325D02*
X03111Y05326D01*
X03112Y05385D02*
X03122D01*
X03111Y05864D02*
X03112Y05865D01*
X0311Y05805D02*
X03111Y05806D01*
X03112Y05865D02*
X03122D01*
X03111Y05806D02*
Y05864D01*
Y05624D02*
X03112Y05625D01*
X03122*
X03111Y05566D02*
Y05624D01*
X0311Y05565D02*
X03111Y05566D01*
X02223Y04311D02*
X0233Y04205D01*
X02395*
X02223Y04311D02*
Y04344D01*
X02242Y04334D02*
X02243Y04334D01*
X02455Y04255D02*
X02539Y04171D01*
X02486Y03568D02*
X02539Y03621D01*
Y04171*
X02243Y04334D02*
X02252D01*
X02242Y04334D02*
Y04344D01*
X02332Y04255D02*
X02455D01*
X02252Y04334D02*
X02332Y04255D01*
X02203Y04301D02*
X02346Y04158D01*
X02203Y04301D02*
Y04344D01*
X02346Y04158D02*
X02496D01*
X025Y04155*
X02183Y04344D02*
X02183Y04344D01*
X01995Y04198D02*
Y0423D01*
X02035Y0427D02*
Y04274D01*
X01995Y0423D02*
X02035Y0427D01*
Y04274D02*
X02046Y04285D01*
Y04344*
X0191Y04198D02*
X01924Y04212D01*
X0191Y04198D02*
X0191D01*
X01924Y04212D02*
Y04224D01*
X02005Y04305D02*
X02026Y04326D01*
Y04344*
X01813Y0423D02*
X01875Y04292D01*
X01966*
X02001Y04328D02*
Y0433D01*
X01966Y04292D02*
X02001Y04328D01*
X02006Y04334D02*
Y04344D01*
X02001Y0433D02*
X02006Y04334D01*
X01806Y04245D02*
X01906Y04344D01*
X01987*
X01813Y04355D02*
X01885D01*
X01941Y04411D02*
X01959D01*
X01885Y04355D02*
X01941Y04411D01*
X01876Y044D02*
X01927Y0445D01*
X01959*
X01813Y0444D02*
X01885D01*
X01935Y0449*
X01959*
X01813Y04525D02*
X01818Y04529D01*
X01813Y04608D02*
Y0461D01*
X02026Y04655D02*
Y04672D01*
X02008Y0469D02*
X02026Y04672D01*
Y04655D02*
X02026Y04655D01*
X02046D02*
Y04673D01*
X02085Y04655D02*
Y04782D01*
X02066Y04801D02*
X02085Y04782D01*
X02183Y04655D02*
Y04748D01*
X02225Y0479*
X02203Y04655D02*
Y04708D01*
X02203Y04655D02*
X02203Y04655D01*
X02257Y04762D02*
X02309D01*
X02203Y04708D02*
X02257Y04762D01*
X02309D02*
X02557Y0501D01*
Y05024*
X02763Y0523*
Y05233*
X03104Y05923D02*
X03122D01*
X03122Y05924*
X0227Y04608D02*
X02301D01*
X02416Y04723*
Y04725*
X0227Y04588D02*
X02334D01*
X02401Y04655*
X02457*
X02639Y04837D02*
Y05084D01*
X02457Y04655D02*
X02639Y04837D01*
Y05084D02*
X02778Y05224D01*
Y05227*
X03104Y05683D02*
X03122D01*
X03122Y05684*
X02336Y04568D02*
X02407Y0464D01*
X0227Y04568D02*
X02336D01*
X02407Y0464D02*
X02463D01*
X02742Y04919*
Y05166*
X02377Y04549D02*
X02416Y04588D01*
X0227Y04549D02*
X02377D01*
X0227Y04529D02*
X02379D01*
X02397Y04547*
X0242*
X0227Y04509D02*
X0238D01*
X02393Y04522*
X0242*
X0227Y0449D02*
X02374D01*
X02379Y04494*
X02417*
X0242Y04497*
X0227Y0447D02*
X02375D01*
X02383Y04477*
X02489*
X0227Y0445D02*
X02404D01*
X02405Y0445*
X02299Y04411D02*
X02418Y04292D01*
X0227Y04411D02*
X0227Y04411D01*
X02299*
X0253Y03332D02*
Y03343D01*
X02529Y03332D02*
X0253Y03332D01*
Y03343D02*
X02569Y03382D01*
X02492Y03553D02*
X02554Y03615D01*
Y04177*
X0227Y04372D02*
X0228D01*
X03941Y0434D02*
X03952D01*
X03247Y05405D02*
X03321D01*
X03247Y05645D02*
X03321D01*
X03247Y05885D02*
X03321D01*
Y05405D02*
X0333Y05415D01*
X03321Y05645D02*
X0333Y05655D01*
Y05415D02*
X03335D01*
X0333Y05655D02*
X03335D01*
X03321Y05885D02*
X0333Y05895D01*
X03335*
X03952Y0436D02*
X03952Y04361D01*
X0397*
X0398Y0437*
Y05035*
X0392Y05095D02*
X0398Y05035D01*
X03804Y0387D02*
Y04113D01*
X04045Y04354*
X0247Y03207D02*
X02471Y03207D01*
X0266Y03357D02*
X02661Y03357D01*
Y03339D02*
Y03357D01*
X03647Y03874D02*
X03651Y0387D01*
X03647Y03874D02*
Y039D01*
X03638Y03909D02*
X03647Y039D01*
X03778Y0387D02*
Y04109D01*
X0403Y0436*
X03105Y03955D02*
X03109Y03951D01*
X03135*
X03105Y0393D02*
X03109Y03926D01*
X03135*
X03105Y03878D02*
X03109Y03874D01*
X03135D02*
X03144Y03866D01*
X03109Y03874D02*
X03135D01*
X0287Y03985D02*
X02874Y03981D01*
X02844Y03985D02*
X0287D01*
X02757Y04071D02*
X02844Y03985D01*
X02874Y04006D02*
Y04075D01*
X0282Y0413D02*
X02874Y04075D01*
X02065Y04801D02*
X02066D01*
X02416Y04588D02*
Y0459D01*
G54D13*
X0293Y00881D02*
X03044Y00995D01*
Y01024D02*
X0305Y0103D01*
X03044Y00995D02*
Y01024D01*
X0293Y00855D02*
Y00881D01*
X04829Y04802D02*
Y04823D01*
Y04782D02*
Y04802D01*
X04831Y04804D02*
X04885D01*
X04829Y04802D02*
X04831Y04804D01*
X04829Y04782D02*
X0483Y04782D01*
X04785Y04868D02*
X04829Y04823D01*
X0483Y0466D02*
Y04782D01*
Y0183D02*
Y02228D01*
Y0183D02*
X0483Y01829D01*
X04885*
X03925Y03975D02*
X04105D01*
X02879Y03656D02*
X03121Y03413D01*
X03281*
X03325Y0337*
X04312Y04262D02*
Y05477D01*
X0431Y0426D02*
X04312Y04262D01*
X04751Y0658D02*
Y06583D01*
X04757Y06589D02*
X0476D01*
X04751Y06583D02*
X04757Y06589D01*
X04645Y06474D02*
X04751Y0658D01*
X04645Y06355D02*
Y06474D01*
X04312Y05477D02*
X04315Y0548D01*
X04105Y03975D02*
X04515Y04385D01*
X03465Y0287D02*
X0352Y02815D01*
X04085*
X02465Y0229D02*
X02496Y02321D01*
Y02391*
X02522Y02418*
Y02807*
X0272Y03005*
X0294Y03135D02*
X03325D01*
X02752Y02947D02*
X0294Y03135D01*
X02752Y02758D02*
Y02947D01*
X05325Y0141D02*
Y05905D01*
X0532Y0591D02*
X05325Y05905D01*
X05035Y0112D02*
X05325Y0141D01*
X0482Y06405D02*
Y06589D01*
X0488Y0569D02*
Y06589D01*
X0474Y0555D02*
X0488Y0569D01*
X0474Y04818D02*
Y0555D01*
X0471Y04788D02*
X0474Y04818D01*
X04785Y0531D02*
X0506Y05585D01*
Y0694*
X04785Y04868D02*
Y0531D01*
X0494Y06589D02*
X04942D01*
X05007Y06525D02*
X0501D01*
X04942Y06589D02*
X05007Y06525D01*
X05024Y021D02*
X05065D01*
X05023Y02099D02*
X05024Y021D01*
X05023D02*
X05024D01*
X05023Y04905D02*
X05024Y04905D01*
X05023Y0499D02*
X0507D01*
X05023Y04905D02*
X0507D01*
X05023Y05075D02*
X0507D01*
X0483Y02228D02*
X05172Y0257D01*
Y03534*
X0483Y03876D02*
X05172Y03534D01*
X0483Y03876D02*
Y0466D01*
X04085Y0517D02*
Y0577D01*
X0404Y05125D02*
X04085Y0517D01*
X04264Y06569D02*
Y06725D01*
X0408Y06385D02*
X04264Y06569D01*
X0408Y06385D02*
X0408D01*
X03675Y0443D02*
Y0468D01*
X0293Y03755D02*
Y03945D01*
X03045Y0406*
Y0413*
X02964Y04204D02*
X02973Y04213D01*
X02995Y0418D02*
X03219D01*
X02944D02*
Y04182D01*
X02964Y04202D02*
Y04204D01*
X03333Y042D02*
X0335D01*
X03319Y04213D02*
X03333Y042D01*
X02944Y04182D02*
X02964Y04202D01*
X02973Y04213D02*
X03319D01*
X03219Y0418D02*
X03299Y041D01*
X03795Y04825D02*
Y049D01*
X0391Y05015*
X02585Y05622D02*
Y06373D01*
X02496Y05533D02*
X02585Y05622D01*
Y06373D02*
X02798Y06586D01*
X02895*
X03108Y068*
X04264*
X02496Y0544D02*
Y05533D01*
X02465Y05409D02*
X02496Y0544D01*
X02874Y03904D02*
X02925D01*
X02465Y05215D02*
Y05409D01*
X02409Y05364D02*
X0246D01*
X02874Y00849D02*
X02923D01*
X0293Y007D02*
Y00855D01*
X02445Y02309D02*
X02465Y0229D01*
Y0216D02*
Y0229D01*
X02409Y02309D02*
X02445D01*
X0471Y01685D02*
Y01815D01*
X04695Y01829D02*
X0471Y01815D01*
X04654Y01829D02*
X04695D01*
X0471Y0466D02*
Y04788D01*
X04654Y04804D02*
X04694D01*
X0471Y04788*
X04645Y068D02*
X047D01*
X04645Y068D02*
X04645Y068D01*
X04795Y06851D02*
X0494Y06707D01*
X047Y06851D02*
X04795D01*
X0494Y0664D02*
Y06707D01*
X047Y06826D02*
X04785D01*
X0488Y06731*
Y0664D02*
Y06731D01*
X047Y06775D02*
X04801D01*
X0482Y0664D02*
Y06756D01*
X04801Y06775D02*
X0482Y06756D01*
X04786Y06749D02*
X04788Y06747D01*
X047Y06749D02*
X04786D01*
X04788Y06747D02*
X0479D01*
X047Y06723D02*
X04735D01*
X0476Y06699*
Y0664D02*
Y06699D01*
X0478Y0722D02*
X0506Y0694D01*
X04646Y06698D02*
X047D01*
X0464Y06705D02*
X04646Y06698D01*
X04479Y06749D02*
X04534D01*
X04535Y0675*
X04479Y06826D02*
X04538D01*
X0454Y06825*
X04391Y06773D02*
X04393Y06775D01*
X0439Y06773D02*
X04391D01*
X04393Y06775D02*
X04479D01*
X0439Y06695D02*
X04391D01*
X04394Y06698D02*
X04479D01*
X04391Y06695D02*
X04394Y06698D01*
X04695Y06988D02*
Y0717D01*
X0461Y06988D02*
Y0717D01*
X04525Y06988D02*
Y0717D01*
X04316Y068D02*
X04479D01*
X04315Y068D02*
X04316Y068D01*
Y06724D02*
X04479D01*
X04315Y06725D02*
X04316Y06724D01*
X04461Y06851D02*
X04479D01*
X0413Y07055D02*
X04258D01*
X04461Y06851*
X04195Y0722D02*
X0478D01*
X0413Y07155D02*
X04195Y0722D01*
X05023Y0193D02*
X05065D01*
X05023Y02014D02*
X05024Y02015D01*
X05023Y02015D02*
X05024Y02015D01*
X05065*
X0081Y01325D02*
Y01352D01*
X00823Y01366D02*
X00825D01*
X00814Y01355D02*
Y01357D01*
X0081Y01325D02*
X0081Y01325D01*
Y01352D02*
X00814Y01355D01*
Y01357D02*
X00823Y01366D01*
X00642Y01725D02*
X00643Y01724D01*
X00691Y01664D02*
X00709D01*
X00643Y01712D02*
X00691Y01664D01*
X00643Y01712D02*
Y01724D01*
X03923Y0367D02*
X04125D01*
X03923Y03755D02*
X04125D01*
X03923Y0384D02*
X04125D01*
X03923Y00615D02*
X04125D01*
X03923Y007D02*
X04125D01*
X03926Y00782D02*
X04122D01*
X03923Y00785D02*
X03926Y00782D01*
X04122D02*
X04125Y0078D01*
X01756Y04856D02*
X01978D01*
X01755Y0478D02*
Y04854D01*
Y0478D02*
X01756Y0478D01*
X01756Y01801D02*
X01978D01*
X01755Y018D02*
X01755Y01799D01*
Y01725D02*
X01756Y01725D01*
X01755Y01725D02*
Y01799D01*
X01754Y01641D02*
X01756Y0164D01*
X01685Y01641D02*
X01754D01*
X01685Y01642D02*
X01685Y01641D01*
X00899Y01357D02*
X00908Y01366D01*
X00899Y01327D02*
Y01357D01*
X00898Y01327D02*
X00899Y01327D01*
X00908Y01366D02*
X0091D01*
X00739Y01365D02*
X00739Y01365D01*
Y01327D02*
Y01365D01*
X00738Y01327D02*
X00739Y01327D01*
X02777Y02458D02*
X02777Y02458D01*
X02777Y025D02*
X02777Y02499D01*
Y02415D02*
Y02457D01*
X02777Y02458*
X02777Y02415D02*
X02777Y02415D01*
X02777Y025D02*
Y02542D01*
X02777Y05509D02*
X02778Y0551D01*
X02777Y0547D02*
X02777Y0547D01*
Y05509*
X02775Y05555D02*
X02778Y05552D01*
X02775Y05555D02*
Y05594D01*
Y05638D02*
X02777Y0564D01*
X02775Y05595D02*
X02775Y05595D01*
X02775Y05595D02*
X02775Y05594D01*
X0091Y0438D02*
Y04421D01*
X00825Y0438D02*
Y04421D01*
X00739Y0442D02*
X0074Y0442D01*
Y0438D02*
Y0442D01*
X02162Y00992D02*
Y01083D01*
X02165Y01086*
X0216Y0099D02*
X02162Y00992D01*
X0208Y0099D02*
Y01086D01*
X01995Y0099D02*
Y01086D01*
X0191Y0099D02*
Y01086D01*
X02228Y00953D02*
Y01066D01*
X0214Y009D02*
X022Y0096D01*
Y01121*
X0182Y009D02*
X0214D01*
X01995Y00875D02*
X0215D01*
X02228Y00953*
X02234Y01072D02*
Y01075D01*
X02228Y01066D02*
X02234Y01072D01*
X02162Y04057D02*
Y04138D01*
X0216Y04055D02*
X02162Y04057D01*
Y04138D02*
X02165Y04141D01*
X0208Y04055D02*
Y04141D01*
X01995Y04055D02*
Y04141D01*
X0191Y04055D02*
Y04141D01*
X0212Y03955D02*
X022Y04035D01*
X0182Y03955D02*
X0212D01*
X022Y04035D02*
Y04176D01*
X02228Y04023D02*
Y04121D01*
X01995Y0393D02*
X02135D01*
X02228Y04023*
Y04121D02*
X02234Y04127D01*
Y0413*
X01686Y01383D02*
X01755D01*
X01681Y01468D02*
X0175D01*
X01681Y01558D02*
X0175D01*
X01755Y0444D02*
X01756Y0444D01*
X00142Y01412D02*
Y0566D01*
X0014Y05713D02*
Y05715D01*
X00142Y01412D02*
X0048Y01075D01*
X00115Y05688D02*
X0014Y05713D01*
X00115Y014D02*
Y05688D01*
Y014D02*
X00495Y0102D01*
X0009Y01385D02*
X0052Y00955D01*
X0009Y0572D02*
X0014Y0577D01*
X0009Y01385D02*
Y0572D01*
X00065Y01374D02*
Y0575D01*
Y01374D02*
X00529Y0091D01*
X0004Y01364D02*
Y0578D01*
X00065Y0575D02*
X0014Y05825D01*
X0004Y01364D02*
X00549Y00855D01*
X0004Y0578D02*
X0014Y0588D01*
X01755Y04855D02*
X01755Y04854D01*
X01755Y04855D02*
X01756Y04856D01*
X03325Y03135D02*
X03375Y03185D01*
X02898Y0371D02*
X02948D01*
X0299Y03752*
X03047D02*
X0305Y03755D01*
X0299Y03752D02*
X03047D01*
X02879Y03691D02*
X02898Y0371D01*
X02879Y03656D02*
Y03691D01*
X0279Y02632D02*
Y02721D01*
X02752Y02758D02*
X0279Y02721D01*
Y02632D02*
X0281Y02611D01*
X02777Y02606D02*
X02777Y02606D01*
X02777Y02585D02*
Y02606D01*
X02777Y02585D02*
X02777Y02585D01*
X0281Y02388D02*
Y02611D01*
X0264Y02309D02*
X02732D01*
X0281Y02388*
X00549Y00855D02*
X0077D01*
X00529Y0091D02*
X0074D01*
X00495Y0102D02*
X0065D01*
X0048Y01075D02*
X00595D01*
X0052Y00955D02*
X0069D01*
X00739Y01365D02*
X0074Y01366D01*
X02511Y01429D02*
X0305D01*
X02511Y04484D02*
X0305D01*
X00739Y0442D02*
X0074Y04421D01*
X00669Y0256D02*
X00795D01*
X02495Y02658D02*
Y0266D01*
X0249Y02585D02*
Y02654D01*
X02495Y02658*
X0259Y00295D02*
Y0031D01*
X02645Y00365D02*
X02695D01*
X0259Y00295D02*
X0259Y00295D01*
Y0031D02*
X02645Y00365D01*
X0265Y0342D02*
X0271D01*
X0259Y0335D02*
Y0336D01*
X0259Y0335D02*
X0259Y0335D01*
Y0336D02*
X0265Y0342D01*
X04818Y0264D02*
X04925D01*
X048Y03055D02*
X04925D01*
X00669Y03395D02*
X00757D01*
X00669Y0256D02*
Y02696D01*
X00678Y02705*
X0061Y0256D02*
X00669D01*
Y02423D02*
Y0256D01*
X00678Y02705D02*
X0068D01*
X00703Y02728D02*
X00705D01*
X0068Y02705D02*
X00703Y02728D01*
X00538Y0256D02*
X0061D01*
X00669Y0298D02*
X00795D01*
X03203Y01083D02*
X03234Y01052D01*
Y01048D02*
Y01052D01*
X03105Y01083D02*
X03203D01*
X03234Y01048D02*
X03243Y0104D01*
Y00955D02*
Y0104D01*
X03184Y02989D02*
X03185Y02988D01*
X0311Y02989D02*
X03184D01*
X0311Y0299D02*
X0311Y02989D01*
X01755Y01225D02*
Y01299D01*
X01756Y013*
X01755Y01225D02*
X01755Y01225D01*
X02539Y01757D02*
X0254Y01758D01*
X02539Y01738D02*
Y01757D01*
X02473Y0167D02*
Y01671D01*
X02539Y01738*
X0389Y01463D02*
Y01535D01*
X01978Y01801D02*
X0198Y01803D01*
X01755Y018D02*
X01756Y01801D01*
X01755Y01385D02*
X01756Y01385D01*
X02054Y01812D02*
X02063Y01803D01*
X02621Y02307D02*
X02622Y02309D01*
X0264*
X03104Y0095D02*
X03105Y00951D01*
X03055Y0095D02*
X03104D01*
X0299Y00885D02*
X03055Y0095D01*
X03087Y00849D02*
X03105D01*
X03086Y00847D02*
X03087Y00849D01*
X03184Y02509D02*
X03185Y02508D01*
X0311Y02509D02*
X03184D01*
X0311Y0251D02*
X0311Y02509D01*
X03184Y02749D02*
X03185Y02748D01*
X0311Y02749D02*
X03184D01*
X0311Y0275D02*
X0311Y02749D01*
X02054Y01812D02*
Y01835D01*
X01925Y01965D02*
X02054Y01835D01*
X02063Y01803D02*
X02065D01*
X01925Y01965D02*
Y0211D01*
X03319Y01158D02*
X03333Y01145D01*
X03243Y00955D02*
X03248Y0095D01*
X03345D02*
X0335Y00945D01*
X03248Y0095D02*
X03345D01*
X02605Y02307D02*
X02621D01*
X02585Y0216D02*
Y02287D01*
X02605Y02307*
X0307Y00847D02*
X03086D01*
X0305Y007D02*
Y00827D01*
X0307Y00847*
X02094Y01937D02*
Y0201D01*
Y01937D02*
X0215Y01881D01*
X02094Y0201D02*
Y0206D01*
X0215Y01803D02*
Y01881D01*
X02025Y0213D02*
Y0221D01*
Y0213D02*
X02094Y0206D01*
X02145Y0201D02*
Y02072D01*
X02125Y02093D02*
Y0211D01*
Y02093D02*
X02145Y02072D01*
X0239Y00839D02*
Y01075D01*
Y00839D02*
X02465Y00765D01*
X02339Y00706D02*
X02365Y0068D01*
Y00665D02*
Y0068D01*
X02339Y00706D02*
Y01075D01*
X02945Y01802D02*
Y02045D01*
X02782Y01639D02*
X02945Y01802D01*
X02779Y01639D02*
X02782D01*
X02719Y01588D02*
X02779D01*
X02716Y01585D02*
X02719Y01588D01*
X02715Y01585D02*
X02716D01*
X01865Y00744D02*
X01995Y00875D01*
X01865Y00665D02*
Y00744D01*
X02285Y00802D02*
Y01075D01*
X02265Y00781D02*
X02285Y00802D01*
X02265Y00765D02*
Y00781D01*
X03445Y01965D02*
Y02045D01*
X02779Y01534D02*
X03014D01*
X03445Y01965*
X02778Y01484D02*
X02779Y01483D01*
X02715Y01484D02*
X02778D01*
X02715Y01485D02*
X02715Y01484D01*
X02439Y02585D02*
X02442Y02582D01*
Y02528D02*
Y02582D01*
X02439Y02585D02*
Y02587D01*
X02442Y02528D02*
X02445Y02525D01*
X0219Y0271D02*
X02317D01*
X02439Y02587*
X02722Y01378D02*
X02779D01*
X02716Y01385D02*
X02722Y01378D01*
X02715Y01385D02*
X02716D01*
X02995Y01125D02*
X03219D01*
X03299Y01045*
X0345*
X02973Y01158D02*
X03319D01*
X03333Y01145D02*
X0335D01*
X02964Y01149D02*
X02973Y01158D01*
X02964Y01147D02*
Y01149D01*
X02944Y01125D02*
Y01127D01*
X02964Y01147*
X0233Y02335D02*
X02409D01*
X02225Y01797D02*
Y0223D01*
X0233Y02335*
X02839Y00876D02*
X02873D01*
X02657Y01058D02*
X02839Y00876D01*
X02873D02*
X02874Y00875D01*
X02467Y01395D02*
X02657Y01205D01*
Y01058D02*
Y01205D01*
X02186Y01134D02*
X022Y01121D01*
X02173Y01134D02*
X02186D01*
X02165Y01143D02*
X02173Y01134D01*
X02689Y01639D02*
X02779D01*
X02542Y01492D02*
X02689Y01639D01*
X0242Y01492D02*
X02542D01*
X0263Y01534D02*
X02779D01*
X0256Y01465D02*
X0263Y01534D01*
X02508Y01467D02*
X02511Y01465D01*
X0256*
X0242Y01467D02*
X02508D01*
X03166Y01545D02*
X03445D01*
X02498Y01442D02*
X02511Y01429D01*
X0305D02*
X03166Y01545D01*
X0242Y01442D02*
X02498D01*
X02657Y04113D02*
Y0426D01*
X02467Y0445D02*
X02657Y0426D01*
Y04113D02*
X02839Y03931D01*
X0299Y0394D02*
X03055Y04005D01*
X0249Y05709D02*
X02495Y05713D01*
Y05715*
X0249Y0564D02*
Y05709D01*
X02777Y0564D02*
Y05705D01*
X02795Y05723*
Y05725*
X03248Y04005D02*
X03345D01*
X0335Y04*
X03243Y0401D02*
X03248Y04005D01*
X03243Y0401D02*
Y04095D01*
X03203Y04138D02*
X03234Y04107D01*
X03105Y04138D02*
X03203D01*
X03234Y04103D02*
Y04107D01*
Y04103D02*
X03243Y04095D01*
X02722Y04433D02*
X02779D01*
X02716Y0444D02*
X02722Y04433D01*
X02715Y0444D02*
X02716D01*
X02715Y0454D02*
X02715Y04539D01*
X02778D02*
X02779Y04538D01*
X02715Y04539D02*
X02778D01*
X02715Y0464D02*
X02716D01*
X02719Y04643D02*
X02779D01*
X02716Y0464D02*
X02719Y04643D01*
X02539Y04793D02*
Y04812D01*
X02473Y04725D02*
Y04726D01*
X02539Y04793*
Y04812D02*
X0254Y04813D01*
X02542Y04547D02*
X02689Y04694D01*
X02779*
X0242Y04547D02*
X02542D01*
X01978Y04856D02*
X0198Y04858D01*
X02063D02*
X02065D01*
X02054Y04867D02*
X02063Y04858D01*
X01925Y0502D02*
Y05165D01*
X02054Y04867D02*
Y0489D01*
X01925Y0502D02*
X02054Y0489D01*
X02125Y05148D02*
X02145Y05127D01*
Y05065D02*
Y05127D01*
X02125Y05148D02*
Y05165D01*
X00669Y0298D02*
Y03116D01*
Y02843D02*
Y0298D01*
X0061D02*
X00669D01*
Y03395D02*
Y03531D01*
Y03258D02*
Y03395D01*
X0061D02*
X00669D01*
X04925Y0347D02*
Y03606D01*
Y03333D02*
Y0347D01*
X04984*
X048D02*
X04925D01*
Y03055D02*
Y03191D01*
Y02918D02*
Y03055D01*
X04984*
X04925Y0264D02*
Y02776D01*
Y02503D02*
Y0264D01*
X04984*
X04891Y02471D02*
X04915Y02494D01*
X04916*
X04925Y02503*
X04916Y02785D02*
X04925Y02776D01*
X04914Y02785D02*
X04916D01*
X04891Y02808D02*
X04914Y02785D01*
X0489Y02808D02*
X04891D01*
X0489Y02471D02*
X04891D01*
X04915Y02909D02*
X04916D01*
X04891Y02886D02*
X04915Y02909D01*
X04916D02*
X04925Y02918D01*
X0489Y02886D02*
X04891D01*
X04914Y032D02*
X04916D01*
X04925Y03191*
X04891Y03223D02*
X04914Y032D01*
X0489Y03223D02*
X04891D01*
Y03301D02*
X04915Y03324D01*
X04916Y03615D02*
X04925Y03606D01*
X04914Y03615D02*
X04916D01*
X04915Y03324D02*
X04916D01*
X04891Y03638D02*
X04914Y03615D01*
X04916Y03324D02*
X04925Y03333D01*
X0489Y03638D02*
X04891D01*
X0489Y03301D02*
X04891D01*
X00679Y02414D02*
X00703Y02391D01*
X00678Y02414D02*
X00679D01*
X00669Y02423D02*
X00678Y02414D01*
X00703Y02391D02*
X00705D01*
X00703Y02811D02*
X00705D01*
X00679Y02834D02*
X00703Y02811D01*
X00678Y02834D02*
X00679D01*
X00669Y02843D02*
X00678Y02834D01*
X00678Y03125D02*
X0068D01*
X00669Y03116D02*
X00678Y03125D01*
X0068D02*
X00703Y03148D01*
X00705*
X00703Y03226D02*
X00705D01*
X00678Y03249D02*
X00679D01*
X00703Y03226*
X00669Y03258D02*
X00678Y03249D01*
X00678Y0354D02*
X0068D01*
X00669Y03531D02*
X00678Y0354D01*
X0068D02*
X00703Y03563D01*
X00705*
X04984Y0347D02*
X05056D01*
X04984Y03055D02*
X05056D01*
X04984Y0264D02*
X05056D01*
X00538Y0298D02*
X0061D01*
X00538Y03395D02*
X0061D01*
X04966Y04903D02*
Y04905D01*
X04944Y04881D02*
X04966Y04903D01*
X04885Y04881D02*
X04944D01*
X04966Y01928D02*
Y0193D01*
X04885Y01906D02*
X04944D01*
X04966Y01928*
X0483Y01685D02*
Y0183D01*
X0239Y03894D02*
X02465Y0382D01*
X0239Y03894D02*
Y0413D01*
X02285Y03857D02*
Y0413D01*
X02265Y03836D02*
X02285Y03857D01*
X02265Y0382D02*
Y03836D01*
X01865Y03799D02*
X01995Y0393D01*
X02165Y04198D02*
X02173Y04189D01*
X02186*
X022Y04176*
X01755Y0428D02*
Y04354D01*
X01756Y04355*
X01755Y0428D02*
X01755Y0428D01*
X0389Y04518D02*
Y0459D01*
X0311Y05564D02*
X03184D01*
X0311Y05565D02*
X0311Y05564D01*
X03184D02*
X03185Y05563D01*
X0311Y05804D02*
X03184D01*
X03185Y05803*
X0311Y05805D02*
X0311Y05804D01*
X03184Y06044D02*
X03185Y06043D01*
X0311Y06044D02*
X03184D01*
X0311Y06045D02*
X0311Y06044D01*
X0242Y04522D02*
X02508D01*
X02511Y0452D02*
X0256D01*
X02508Y04522D02*
X02511Y0452D01*
X0256D02*
X0263Y04589D01*
X02779*
X0242Y04497D02*
X02498D01*
X0305Y04484D02*
X03166Y046D01*
X02498Y04497D02*
X02511Y04484D01*
X03166Y046D02*
X03445D01*
X02873Y03931D02*
X02874Y0393D01*
X02839Y03931D02*
X02873D01*
X02225Y04852D02*
Y05285D01*
X0233Y0539*
X02409*
X03299Y041D02*
X0345D01*
X02317Y05765D02*
X02439Y05642D01*
X0219Y05765D02*
X02317D01*
X02442Y05583D02*
X02445Y0558D01*
X02439Y0564D02*
Y05642D01*
X02442Y05583D02*
Y05637D01*
X02439Y0564D02*
X02442Y05637D01*
X02779Y04589D02*
X03014D01*
X03445Y0502*
Y051*
X01865Y0372D02*
Y03799D01*
X02779Y04694D02*
X02782D01*
X02945Y04857*
Y051*
X02339Y03761D02*
X02365Y03735D01*
Y0372D02*
Y03735D01*
X02339Y03761D02*
Y0413D01*
X02025Y05185D02*
X02094Y05115D01*
X02025Y05185D02*
Y05265D01*
X0215Y04858D02*
Y04936D01*
X02094Y05065D02*
Y05115D01*
Y04992D02*
X0215Y04936D01*
X02094Y04992D02*
Y05065D01*
X0305Y03755D02*
Y03882D01*
X0307Y03902*
X03086*
X02585Y05342D02*
X02605Y05362D01*
X02585Y05215D02*
Y05342D01*
X02605Y05362D02*
X02621D01*
X03055Y04005D02*
X03104D01*
X03105Y04006*
X03086Y03902D02*
X03087Y03904D01*
X03105*
X02621Y05362D02*
X02622Y05364D01*
X0264*
X0489Y03513D02*
Y03581D01*
X04875Y03507D02*
X04883D01*
X0489Y03513*
Y03098D02*
Y03166D01*
X04875Y03092D02*
X04883D01*
X0489Y03098*
X04883Y02677D02*
X0489Y02683D01*
Y02751*
X04875Y02677D02*
X04883D01*
X00711Y03357D02*
X00719D01*
X00705Y03351D02*
X00711Y03357D01*
X00705Y03283D02*
Y03351D01*
X00711Y02942D02*
X00719D01*
X00705Y02936D02*
X00711Y02942D01*
X00705Y02868D02*
Y02936D01*
X00711Y02522D02*
X00719D01*
X00705Y02448D02*
Y02516D01*
X00711Y02522*
G54D17*
X01959Y01572D03*
Y01553D03*
Y01533D03*
Y01513D03*
Y01494D03*
Y01474D03*
Y01454D03*
Y01435D03*
Y01415D03*
Y01395D03*
Y01376D03*
Y01356D03*
Y01336D03*
Y01317D03*
X0227D03*
Y01336D03*
Y01356D03*
Y01376D03*
Y01395D03*
Y01415D03*
Y01435D03*
Y01454D03*
Y01474D03*
Y01494D03*
Y01513D03*
Y01533D03*
Y01553D03*
Y01572D03*
X01959Y04627D03*
Y04608D03*
Y04588D03*
Y04568D03*
Y04549D03*
Y04529D03*
Y04509D03*
Y0449D03*
Y0447D03*
Y0445D03*
Y04431D03*
Y04411D03*
Y04391D03*
Y04372D03*
X0227D03*
Y04391D03*
Y04411D03*
Y04431D03*
Y0445D03*
Y0447D03*
Y0449D03*
Y04509D03*
Y04529D03*
Y04549D03*
Y04568D03*
Y04588D03*
Y04608D03*
Y04627D03*
G54D18*
X01987Y01289D03*
X02006D03*
X02026D03*
X02046D03*
X02065D03*
X02085D03*
X02105D03*
X02124D03*
X02144D03*
X02164D03*
X02183D03*
X02203D03*
X02223D03*
X02242D03*
Y016D03*
X02223D03*
X02203D03*
X02183D03*
X02164D03*
X02144D03*
X02124D03*
X02105D03*
X02085D03*
X02065D03*
X02046D03*
X02026D03*
X02006D03*
X01987D03*
Y04344D03*
X02006D03*
X02026D03*
X02046D03*
X02065D03*
X02085D03*
X02105D03*
X02124D03*
X02144D03*
X02164D03*
X02183D03*
X02203D03*
X02223D03*
X02242D03*
Y04655D03*
X02223D03*
X02203D03*
X02183D03*
X02164D03*
X02144D03*
X02124D03*
X02105D03*
X02085D03*
X02065D03*
X02046D03*
X02026D03*
X02006D03*
X01987D03*
G54D19*
X02115Y01445D03*
Y045D03*
G54D20*
X04695Y06931D03*
Y06988D03*
X0461Y06931D03*
Y06988D03*
X04525Y06931D03*
Y06988D03*
X01895Y04801D03*
X0191Y04198D03*
X01895Y01746D03*
X0191Y01143D03*
X0389Y04518D03*
X03185Y06043D03*
Y05803D03*
Y05563D03*
X03105Y04138D03*
X0489Y03301D03*
Y03638D03*
Y03223D03*
X02165Y04141D03*
X0208D03*
X0489Y02886D03*
Y02808D03*
X03185Y02988D03*
Y02748D03*
Y02508D03*
X0489Y02471D03*
X0389Y01463D03*
X03105Y01083D03*
X02165Y01086D03*
X0208D03*
X02065Y04858D03*
X01895D03*
X0198D03*
X01995Y04141D03*
X0191D03*
X0091Y04421D03*
X0074D03*
X00825D03*
X00705Y03563D03*
Y03148D03*
Y03226D03*
Y02728D03*
Y02811D03*
Y02391D03*
X02065Y01803D03*
X0198D03*
X01895D03*
X01995Y01086D03*
X0191D03*
X00825Y01366D03*
X0091D03*
X0074D03*
X0215Y01803D03*
Y01746D03*
X03105Y01026D03*
X03185Y02691D03*
Y02451D03*
Y02931D03*
X01995Y01143D03*
X0198Y01746D03*
X0389Y01406D03*
X0208Y01143D03*
X02065Y01746D03*
X02165Y01143D03*
Y04198D03*
X02065Y04801D03*
X0208Y04198D03*
X0389Y04461D03*
X0198Y04801D03*
X01995Y04198D03*
X03185Y05986D03*
Y05506D03*
Y05746D03*
X03105Y04081D03*
X0215Y04858D03*
Y04801D03*
X0489Y02528D03*
X00705Y02671D03*
X0489Y02751D03*
X00705Y02448D03*
X0489Y03358D03*
Y02943D03*
Y03581D03*
Y03166D03*
X00705Y03506D03*
Y03091D03*
Y03283D03*
Y02868D03*
X0074Y04478D03*
X00825D03*
X0091D03*
X0074Y01423D03*
X00825D03*
X0091D03*
G54D21*
X0494Y06589D03*
Y0664D03*
X0482Y06589D03*
Y0664D03*
X0488Y06589D03*
Y0664D03*
X0476Y06589D03*
Y0664D03*
X02779Y04643D03*
Y04538D03*
Y04433D03*
Y01588D03*
Y01483D03*
Y01378D03*
Y01639D03*
X02445Y02525D03*
Y02474D03*
X02779Y01534D03*
X0299Y01065D03*
Y01014D03*
X02779Y01429D03*
Y04484D03*
X0299Y0412D03*
Y04069D03*
X02779Y04589D03*
X02445Y0558D03*
Y05529D03*
X02779Y04694D03*
G54D22*
X04264Y06725D03*
X04315D03*
X04315Y068D03*
X04264D03*
X0249Y0564D03*
X02145Y05065D03*
X02944Y0418D03*
X02285Y0413D03*
X0239D03*
X0249Y02585D03*
X02145Y0201D03*
X02944Y01125D03*
X02285Y01075D03*
X0239D03*
X02094Y0201D03*
X02339Y01075D03*
X02234D03*
X02439Y02585D03*
X02995Y01125D03*
Y0418D03*
X02439Y0564D03*
X02234Y0413D03*
X02339D03*
X02094Y05065D03*
G54D23*
X04654Y04804D03*
X02409Y05364D03*
Y02309D03*
X04654Y01829D03*
X02874Y03904D03*
Y00849D03*
X04654Y04753D03*
X02409Y05313D03*
X02874Y03853D03*
X04654Y01778D03*
X02409Y02258D03*
X02874Y00798D03*
X00709Y04642D03*
Y01664D03*
Y01638D03*
Y01587D03*
Y01485D03*
X04654Y04906D03*
Y04881D03*
Y04855D03*
Y0483D03*
Y04778D03*
X04885Y04753D03*
Y04778D03*
Y04804D03*
Y0483D03*
Y04855D03*
Y04881D03*
Y04906D03*
X02409Y02411D03*
Y02386D03*
Y0236D03*
Y02335D03*
Y02283D03*
X0264Y02258D03*
Y02283D03*
Y02309D03*
Y02335D03*
Y0236D03*
Y02386D03*
Y02411D03*
X02874Y00951D03*
Y00926D03*
Y009D03*
Y00875D03*
Y00823D03*
X03105Y00798D03*
Y00823D03*
Y00849D03*
Y00875D03*
Y009D03*
Y00926D03*
Y00951D03*
X02874Y04006D03*
Y03981D03*
Y03955D03*
Y0393D03*
Y03878D03*
X03105Y03853D03*
Y03878D03*
Y03904D03*
Y0393D03*
Y03955D03*
Y03981D03*
Y04006D03*
X02409Y05466D03*
Y05441D03*
Y05415D03*
Y0539D03*
Y05338D03*
X0264Y05313D03*
Y05338D03*
Y05364D03*
Y0539D03*
Y05415D03*
Y05441D03*
Y05466D03*
X04885Y01931D03*
Y01906D03*
Y0188D03*
Y01855D03*
Y01829D03*
Y01803D03*
Y01778D03*
X04654Y01803D03*
Y01855D03*
Y0188D03*
Y01906D03*
Y01931D03*
X0094Y0454D03*
Y04566D03*
Y04591D03*
Y04617D03*
Y04642D03*
Y04668D03*
Y04693D03*
Y04719D03*
X00709D03*
Y04693D03*
Y04668D03*
Y04617D03*
Y04591D03*
Y04566D03*
Y0454D03*
Y01511D03*
Y01536D03*
Y01562D03*
Y01613D03*
X0094Y01664D03*
Y01638D03*
Y01613D03*
Y01587D03*
Y01562D03*
Y01536D03*
Y01511D03*
Y01485D03*
G54D24*
X01813Y0444D03*
Y01385D03*
X05023Y05075D03*
Y0499D03*
Y04905D03*
X03243Y04095D03*
X05056Y0347D03*
X03923Y0384D03*
Y03755D03*
X03243Y0401D03*
X03923Y0367D03*
X02777Y05555D03*
Y0564D03*
Y0547D03*
X02473Y0459D03*
Y04725D03*
X02838Y0342D03*
X02648Y0327D03*
X05056Y03055D03*
Y0264D03*
X05023Y02015D03*
Y021D03*
Y0193D03*
X03923Y007D03*
Y00785D03*
Y00615D03*
X03243Y00955D03*
Y0104D03*
X02777Y025D03*
Y02585D03*
Y02415D03*
X02473Y01535D03*
Y0167D03*
X02838Y00365D03*
X02648Y00215D03*
X01756Y0478D03*
Y0461D03*
Y04695D03*
Y0444D03*
Y04525D03*
Y04355D03*
X00538Y03395D03*
Y0298D03*
Y0256D03*
X01756Y01725D03*
Y0164D03*
Y01555D03*
Y0147D03*
Y01385D03*
Y013D03*
X04966Y05075D03*
Y04905D03*
Y0499D03*
X0272Y02585D03*
Y025D03*
Y02415D03*
X03186Y0104D03*
Y00955D03*
X03866Y00785D03*
Y007D03*
Y00615D03*
X02781Y00365D03*
X02591Y00215D03*
X01813Y0147D03*
Y013D03*
X02416Y0167D03*
X01813Y01555D03*
Y0164D03*
Y01725D03*
X02416Y01535D03*
X01813Y0478D03*
Y04695D03*
Y0461D03*
X02416Y0459D03*
Y04725D03*
X01813Y04355D03*
Y04525D03*
X02591Y0327D03*
X02781Y0342D03*
X03866Y0367D03*
Y03755D03*
Y0384D03*
X03186Y0401D03*
Y04095D03*
X0272Y0547D03*
Y05555D03*
Y0564D03*
X05113Y0264D03*
X00481Y0256D03*
X05113Y0347D03*
Y03055D03*
X00481Y03395D03*
Y0298D03*
X04966Y0193D03*
Y02015D03*
Y021D03*
G54D25*
X03827Y0434D03*
X03122Y05865D03*
Y05385D03*
Y05625D03*
Y0281D03*
Y0257D03*
X03827Y01285D03*
X03122Y0233D03*
X03247Y02629D03*
Y02609D03*
Y0259D03*
Y0257D03*
X03122Y0259D03*
Y02609D03*
Y02629D03*
X03247Y02389D03*
Y02369D03*
Y0235D03*
Y0233D03*
X03122Y0235D03*
Y02369D03*
Y02389D03*
X03247Y02869D03*
Y02849D03*
Y0283D03*
Y0281D03*
X03122Y0283D03*
Y02849D03*
Y02869D03*
X03952Y01344D03*
Y01324D03*
Y01305D03*
Y01285D03*
X03827Y01305D03*
Y01324D03*
Y01344D03*
X03952Y04399D03*
Y04379D03*
Y0436D03*
Y0434D03*
X03827Y0436D03*
Y04379D03*
Y04399D03*
X03122Y05924D03*
Y05904D03*
Y05885D03*
X03247Y05865D03*
Y05885D03*
Y05904D03*
Y05924D03*
X03122Y05444D03*
Y05424D03*
Y05405D03*
X03247Y05385D03*
Y05405D03*
Y05424D03*
Y05444D03*
X03122Y05684D03*
Y05664D03*
Y05645D03*
X03247Y05625D03*
Y05645D03*
Y05664D03*
Y05684D03*
G54D26*
X04984Y0347D03*
Y03055D03*
Y0264D03*
X0061Y03395D03*
Y0298D03*
Y0256D03*
X04875Y02602D03*
Y02677D03*
X04984D03*
Y02602D03*
X0061Y02597D03*
Y02522D03*
X00719D03*
Y02597D03*
X04984Y03432D03*
Y03507D03*
X04875D03*
Y03432D03*
Y03017D03*
Y03092D03*
X04984D03*
Y03017D03*
X0061Y03432D03*
Y03357D03*
X00719D03*
Y03432D03*
X0061Y03017D03*
Y02942D03*
X00719D03*
Y03017D03*
G54D27*
X03702Y03639D03*
Y00584D03*
X03804Y00815D03*
X03778D03*
X03753D03*
X03727D03*
X03702D03*
X03676D03*
X03651D03*
X03625D03*
Y00584D03*
X03651D03*
X03676D03*
X03727D03*
X03753D03*
X03778D03*
X03804D03*
Y0387D03*
X03778D03*
X03753D03*
X03727D03*
X03702D03*
X03676D03*
X03651D03*
X03625D03*
Y03639D03*
X03651D03*
X03676D03*
X03727D03*
X03753D03*
X03778D03*
X03804D03*
G54D28*
X0266Y03482D03*
X0247Y03332D03*
X0266Y00427D03*
X0247Y00277D03*
X02719Y00302D03*
X02699D03*
X0268D03*
X0266D03*
X0268Y00427D03*
X02699D03*
X02719D03*
X02529Y00152D03*
X02509D03*
X0249D03*
X0247D03*
X0249Y00277D03*
X02509D03*
X02529D03*
Y03207D03*
X02509D03*
X0249D03*
X0247D03*
X0249Y03332D03*
X02509D03*
X02529D03*
X02719Y03357D03*
X02699D03*
X0268D03*
X0266D03*
X0268Y03482D03*
X02699D03*
X02719D03*
G54D29*
X02225Y01735D03*
X02287D03*
X02225Y01797D03*
Y0479D03*
X02287D03*
X02225Y04852D03*
G54D30*
X02405Y01395D03*
Y01332D03*
X02467Y01395D03*
X02405Y0445D03*
Y04387D03*
X02467Y0445D03*
G54D36*
X047Y06851D03*
Y06826D03*
Y068D03*
Y06775D03*
Y06749D03*
Y06723D03*
Y06698D03*
X04479D03*
Y06723D03*
Y06749D03*
Y06775D03*
Y068D03*
Y06826D03*
Y06851D03*
G54D54*
X03332Y0284D02*
X03335D01*
X03247Y0283D02*
X03322D01*
X03332Y0284*
X03751Y01264D02*
X03772Y01285D01*
X03749Y01264D02*
X03751D01*
X03772Y01285D02*
X03827D01*
X02905Y00901D02*
X02979Y00976D01*
Y01006D02*
X02988Y01014D01*
X02874Y009D02*
X02875Y00901D01*
X02979Y00976D02*
Y01006D01*
X02875Y00901D02*
X02905D01*
X02988Y01014D02*
X0299D01*
X02526Y05435D02*
X02546Y05415D01*
X0264*
X02523Y05435D02*
X02526D01*
X02545Y0539D02*
X0264D01*
X02526Y0537D02*
X02545Y0539D01*
X02523Y0537D02*
X02526D01*
X02979Y04031D02*
Y04061D01*
X02875Y03956D02*
X02905D01*
X02988Y04069D02*
X0299D01*
X02905Y03956D02*
X02979Y04031D01*
Y04061D02*
X02988Y04069D01*
X02874Y03955D02*
X02875Y03956D01*
X0064Y0159D02*
X00641Y01588D01*
X00708*
X00709Y01587*
X0068Y0142D02*
Y0142D01*
X00709Y01449D02*
Y01485D01*
X0068Y0142D02*
X00709Y01449D01*
X01685Y04695D02*
X01756D01*
X0076Y01257D02*
X0076Y01257D01*
X00795*
X00799Y01262*
X00926*
X00847Y01237D02*
X00852Y01232D01*
X00926Y01262D02*
X00964Y013D01*
X00852Y01232D02*
X01025D01*
X00964Y013D02*
X01095D01*
X0081Y01237D02*
X00847D01*
X01682Y04439D02*
X01753D01*
X01682Y04524D02*
X01753D01*
X01683Y0461D02*
X01755D01*
X01785Y05195D02*
Y05882D01*
X0173Y05227D02*
Y05882D01*
X0162Y05879D02*
Y05882D01*
X01675Y05879D02*
Y05882D01*
X01662Y05137D02*
Y05867D01*
X01627Y05065D02*
Y05872D01*
X01565Y05045D02*
Y05882D01*
X0162Y05879D02*
X01627Y05872D01*
X01662Y05867D02*
X01675Y05879D01*
X017Y05197D02*
X0173Y05227D01*
X017Y0519D02*
Y05197D01*
X01662Y05137D02*
X01665Y05135D01*
X0147Y08255D02*
X01472Y08252D01*
X0167Y08255D02*
X01672Y08252D01*
X0177Y08255D02*
X01772Y08252D01*
X0191Y0557D02*
X0196Y0552D01*
X01927Y05596D02*
Y05599D01*
Y05596D02*
X0198Y05544D01*
X01942Y05622D02*
X02Y05565D01*
X01942Y05622D02*
Y05625D01*
X01957Y05652D02*
Y05655D01*
Y05652D02*
X0202Y0559D01*
X02265*
X0198Y05544D02*
X0222D01*
X0196Y0552D02*
X02205D01*
X02Y05565D02*
X02255D01*
X01013Y01172D02*
X01022D01*
X0099Y01195D02*
X01013Y01172D01*
X0081Y01195D02*
X0099D01*
X01595Y02535D02*
X02265D01*
X00595Y04645D02*
X00596Y04643D01*
X00708*
X00709Y04642*
X0094Y0454D02*
X0096D01*
X0137Y04131*
Y0388D02*
Y04131D01*
X0222Y05544D02*
X02295Y0547D01*
X02849Y00404D02*
X02855Y00409D01*
X02849Y00376D02*
Y00404D01*
X02855Y00409D02*
Y00412D01*
X02838Y00365D02*
X02849Y00376D01*
X0283Y0072D02*
X02874Y00764D01*
X02835Y0378D02*
X02874Y03819D01*
X02855Y03464D02*
Y03467D01*
X02849Y03459D02*
X02855Y03464D01*
X02849Y03431D02*
Y03459D01*
X02838Y0342D02*
X02849Y03431D01*
X02694Y03221D02*
X02713D01*
X02715Y0322*
X02648Y03268D02*
X02694Y03221D01*
X0462Y0466D02*
X04654Y04694D01*
Y04753*
X04567Y01917D02*
X04572D01*
X04609Y0188*
X04654*
X04575Y0183D02*
X046Y01855D01*
X04654*
X01882Y03367D02*
X02351D01*
X0249Y03225D02*
Y03228D01*
X0137Y0388D02*
X01882Y03367D01*
X02351D02*
X0249Y03228D01*
X02468Y03333D02*
X0247Y03332D01*
X0242Y03335D02*
X02421Y03333D01*
X02468*
X04613Y04828D02*
X04652D01*
X04654Y0483*
X0457Y04785D02*
X04613Y04828D01*
X04622Y04856D02*
X04652D01*
X04654Y04855*
X04585Y04894D02*
X04622Y04856D01*
X04585Y04894D02*
Y0499D01*
X02648Y00213D02*
X02694Y00166D01*
X02713D02*
X02715Y00165D01*
X02694Y00166D02*
X02713D01*
X02648Y00213D02*
Y00215D01*
X02497Y01567D02*
X02504D01*
X02497Y01568D02*
X02497Y01567D01*
X02504D02*
X02506Y01565D01*
X02416Y01536D02*
X02447Y01568D01*
X02497*
X02416Y01535D02*
Y01536D01*
X02515Y01535D02*
X0259Y0161D01*
X02473Y01535D02*
X02515D01*
X02063Y01746D02*
X02065D01*
X0272Y02413D02*
Y02415D01*
X02693Y02386D02*
X0272Y02413D01*
X0264Y02386D02*
X02693D01*
X02523Y0238D02*
X02526D01*
X02546Y0236*
X0264*
X01655Y02485D02*
X02225D01*
X02295Y02415*
X02545Y02335D02*
X0264D01*
X02295Y0235D02*
Y02375D01*
X02526Y02315D02*
X02545Y02335D01*
X02523Y02315D02*
X02526D01*
X0166Y02465D02*
X02205D01*
X02295Y02375*
X02286Y02155D02*
X02389Y02258D01*
X02409*
X02286Y02126D02*
Y02155D01*
X02285Y02125D02*
X02286Y02126D01*
X02379Y0239D02*
X02381Y02387D01*
X02407*
X02375Y0239D02*
X02379D01*
X02407Y02387D02*
X02409Y02386D01*
X02255Y0251D02*
X02375Y0239D01*
X0164Y0251D02*
X02255D01*
X02389Y02411D02*
X02409D01*
X02265Y02535D02*
X02389Y02411D01*
X03186Y00953D02*
Y00955D01*
X03159Y00926D02*
X03186Y00953D01*
X03105Y00926D02*
X03159D01*
X02874Y00764D02*
Y00798D01*
X0261Y0043D02*
X02611Y00428D01*
X02658*
X0266Y00427*
X02468Y00278D02*
X0247Y00277D01*
X02421Y00278D02*
X02468D01*
X0242Y0028D02*
X02421Y00278D01*
X03625Y0048D02*
Y00584D01*
X035Y00355D02*
X03625Y0048D01*
X03651Y00406D02*
Y00584D01*
X036Y00355D02*
X03651Y00406D01*
X03676Y00385D02*
X037Y00362D01*
X03676Y00385D02*
Y00584D01*
X037Y00355D02*
Y00362D01*
X0379Y00355D02*
X038D01*
X03753Y00391D02*
Y00584D01*
Y00391D02*
X0379Y00355D01*
X03778Y00476D02*
X039Y00355D01*
X03778Y00476D02*
Y00584D01*
X03805Y00549D02*
X04Y00355D01*
X03805Y00549D02*
Y00582D01*
X03804Y00584D02*
X03805Y00582D01*
X02445Y02431D02*
X0245Y02425D01*
X02445Y02431D02*
Y02474D01*
X0244Y02361D02*
X0245Y02372D01*
Y02425*
X0241Y02361D02*
X0244D01*
X02409Y0236D02*
X0241Y02361D01*
X02992Y01122D02*
X02995Y01125D01*
X02992Y01068D02*
Y01122D01*
X0299Y01065D02*
X02992Y01068D01*
X02146Y01743D02*
X0215Y01746D01*
X02146Y01602D02*
Y01743D01*
X02144Y016D02*
X02146Y01602D01*
X0176Y01975D02*
X01865D01*
X02028Y01811*
Y0178D02*
X02063Y01746D01*
X02028Y0178D02*
Y01811D01*
X02205Y0552D02*
X02295Y0543D01*
Y05405D02*
Y0543D01*
X02874Y03819D02*
Y03853D01*
X02515Y0459D02*
X0259Y04665D01*
X02473Y0459D02*
X02515D01*
X02648Y03268D02*
Y0327D01*
X02611Y03483D02*
X02658D01*
X0261Y03485D02*
X02611Y03483D01*
X02658D02*
X0266Y03482D01*
X01865Y0503D02*
X02028Y04866D01*
Y04835D02*
Y04866D01*
X0176Y0503D02*
X01865D01*
X02028Y04835D02*
X02063Y04801D01*
X02285Y0518D02*
X02286Y05181D01*
X02389Y05313D02*
X02409D01*
X02286Y0521D02*
X02389Y05313D01*
X02286Y05181D02*
Y0521D01*
X04654Y01719D02*
Y01778D01*
X0462Y01685D02*
X04654Y01719D01*
X00709Y01638D02*
X0071Y01637D01*
X00709Y01587D02*
X0071Y01589D01*
X00709Y01638D02*
Y01664D01*
X03772Y0434D02*
X03827D01*
X03751Y04319D02*
X03772Y0434D01*
X03749Y04319D02*
X03751D01*
X02144Y04655D02*
X02146Y04657D01*
Y04798*
X0215Y04801*
X0299Y0412D02*
X02992Y04123D01*
Y04177D02*
X02995Y0418D01*
X02992Y04123D02*
Y04177D01*
X02409Y05415D02*
X0241Y05416D01*
X0244*
X0245Y05427D02*
Y0548D01*
X0244Y05416D02*
X0245Y05427D01*
X02445Y05486D02*
Y05529D01*
Y05486D02*
X0245Y0548D01*
X035Y0341D02*
X03625Y03535D01*
Y03639*
X036Y0341D02*
X03651Y03461D01*
Y03639*
X037Y0341D02*
Y03417D01*
X03676Y0344D02*
Y03639D01*
Y0344D02*
X037Y03417D01*
X03753Y03446D02*
Y03639D01*
Y03446D02*
X0379Y0341D01*
X038*
X03778Y03531D02*
X039Y0341D01*
X03778Y03531D02*
Y03639D01*
X03804D02*
X03805Y03637D01*
Y03604D02*
Y03637D01*
Y03604D02*
X04Y0341D01*
X03105Y03981D02*
X03159D01*
X03186Y04008*
Y0401*
X0264Y05441D02*
X02693D01*
X0272Y05468*
Y0547*
X02255Y05565D02*
X02375Y05445D01*
X02407Y05442D02*
X02409Y05441D01*
X02375Y05445D02*
X02379D01*
X02381Y05442D02*
X02407D01*
X02379Y05445D02*
X02381Y05442D01*
X02265Y0559D02*
X02389Y05466D01*
X02409*
X02063Y04801D02*
X02065D01*
X02416Y0459D02*
Y04591D01*
X02447Y04623*
X02497D02*
X02497Y04622D01*
X02447Y04623D02*
X02497D01*
X02504Y04622D02*
X02506Y0462D01*
X02497Y04622D02*
X02504D01*
G54D55*
X03335Y0284D02*
Y02995D01*
X03333Y02997D02*
X03335Y02995D01*
X03333Y02997D02*
Y03011D01*
X0333Y03015D02*
X03333Y03011D01*
X01045Y01765D02*
Y02505D01*
X03735Y014D02*
X03738Y01403D01*
X03886D02*
X0389Y01406D01*
X03738Y01403D02*
X03886D01*
X0144Y0147D02*
Y0159D01*
X03945Y0355D02*
X0437D01*
X0451Y0369*
X04029Y0306D02*
X0457Y036D01*
Y04785*
X0301Y0306D02*
X04029D01*
X04155Y0232D02*
Y03075D01*
Y0232D02*
X04365Y0211D01*
X02875Y02674D02*
Y02925D01*
X0301Y0306*
X05055Y03375D02*
Y0342D01*
X02985Y0609D02*
X03985D01*
X04585Y0549*
X02865Y0597D02*
X02985Y0609D01*
X0491Y05095D02*
Y05175D01*
X0262Y0378D02*
Y04209D01*
X03155Y03245D02*
X04055D01*
X0262Y0378D02*
X03155Y03245D01*
X00595Y0129D02*
X00915D01*
X01Y01375*
X00275Y0161D02*
X00595Y0129D01*
X02738Y05321D02*
X02865Y05447D01*
Y0597*
X0134Y05095D02*
Y05915D01*
Y04995D02*
Y05095D01*
X00275Y0161D02*
Y0563D01*
X04655Y03425D02*
Y04465D01*
X04881Y03715D02*
X04984Y03612D01*
X047Y03715D02*
X04881D01*
X02738Y02185D02*
Y02231D01*
X0287Y02363D02*
Y0267D01*
X02875Y02674*
X02738Y02231D02*
X0287Y02363D01*
X049Y02144D02*
Y0222D01*
X0491Y021D02*
Y02135D01*
X049Y02144D02*
X0491Y02135D01*
X01Y01375D02*
X01005D01*
X00655Y04485D02*
X00785D01*
X0098Y0177D02*
Y0246D01*
X00891Y01681D02*
X0098Y0177D01*
X00805Y02635D02*
X0098Y0246D01*
X0095Y03504D02*
Y04448D01*
X00911Y04478D02*
X0093Y0446D01*
X00938D02*
X0095Y04448D01*
X0091Y04478D02*
X00911D01*
X0082Y03374D02*
X0095Y03504D01*
X0054Y0344D02*
Y0349D01*
X02738Y0524D02*
Y05321D01*
X04984Y03507D02*
Y03612D01*
X03738Y04458D02*
X03886D01*
X0389Y04461*
X03735Y04455D02*
X03738Y04458D01*
X03715Y0084D02*
Y0089D01*
X0262Y00818D02*
Y01154D01*
X03253Y00185D02*
X0416D01*
X0262Y00818D02*
X03253Y00185D01*
X00891Y01596D02*
Y01681D01*
X01045Y01765D02*
X0134Y0147D01*
X00891Y01596D02*
X00903Y01584D01*
X00805Y02635D02*
Y02784D01*
X00903Y01584D02*
X00915D01*
X04655Y03425D02*
X0466D01*
X04666Y03431*
X04874*
X04875Y03432*
X03735Y014D02*
Y0212D01*
X04795Y02975D02*
X04836Y03015D01*
X0479Y02975D02*
X04795D01*
X04739Y02924D02*
X0479Y02975D01*
X04194Y0185D02*
Y02007D01*
X0417Y02032D02*
X04194Y02007D01*
Y0185D02*
X04245Y018D01*
X0417Y02032D02*
Y02195D01*
X04739Y02365D02*
Y02924D01*
X04245Y0147D02*
X04522Y01747D01*
Y02148D02*
X04739Y02365D01*
X04522Y01747D02*
Y02148D01*
X04245Y0192D02*
X0469Y02365D01*
Y02565*
X04836Y03015D02*
X04873D01*
X04875Y03017*
X04575Y006D02*
Y0183D01*
X0416Y00185D02*
X04575Y006D01*
X03865Y0411D02*
X03975Y0422D01*
X03865Y00895D02*
Y01055D01*
X0397Y0116*
X03865Y0395D02*
Y0411D01*
X0278Y03421D02*
Y035D01*
Y00366D02*
Y00445D01*
Y00366D02*
X02781Y00365D01*
X00735Y03435D02*
X0079Y0349D01*
X00722Y03435D02*
X00735D01*
X00719Y03432D02*
X00722Y03435D01*
X0082Y03172D02*
X00886Y03106D01*
X00855Y03224D02*
Y03295D01*
Y03224D02*
X00905Y03175D01*
X01172Y03612D02*
X01344D01*
X00855Y03295D02*
X01172Y03612D01*
X0082Y03172D02*
Y03374D01*
X00803Y01616D02*
X00805Y01614D01*
Y01565D02*
Y01614D01*
X0054Y02605D02*
Y02655D01*
Y03025D02*
Y03075D01*
X00785Y04485D02*
X008Y045D01*
X05055Y02545D02*
Y02595D01*
Y0296D02*
Y03005D01*
X04585Y0499D02*
Y0549D01*
X0093Y0446D02*
X00938D01*
X00886Y03106D02*
X00923D01*
X00954Y02933D02*
Y03075D01*
X00805Y02784D02*
X00954Y02933D01*
X00923Y03106D02*
X00954Y03075D01*
X00905Y03275D02*
X00989Y0319D01*
X00905Y02635D02*
X00989Y02719D01*
Y0319*
X0387Y00569D02*
X03945Y00495D01*
X0387Y00569D02*
Y00611D01*
X03866Y00615D02*
X0387Y00611D01*
X0259Y00216D02*
Y00295D01*
Y00216D02*
X02591Y00215D01*
X02475Y018D02*
X02487D01*
X02416Y0167D02*
Y01741D01*
X02475Y018*
X03888Y01406D02*
X0389D01*
X02287Y01735D02*
X02738Y02185D01*
X02407Y01334D02*
X02439D01*
X02405Y01332D02*
X02407Y01334D01*
X02439D02*
X0262Y01154D01*
X0134Y0184D02*
Y0194D01*
Y0204*
X02475Y04855D02*
X02487D01*
X02416Y04796D02*
X02475Y04855D01*
X02439Y04389D02*
X0262Y04209D01*
X02407Y04389D02*
X02439D01*
X02405Y04387D02*
X02407Y04389D01*
X03866Y0367D02*
X0387Y03666D01*
Y03624D02*
Y03666D01*
Y03624D02*
X03945Y0355D01*
X0134Y04895D02*
Y04995D01*
X02416Y04725D02*
Y04796D01*
X02287Y0479D02*
X02738Y0524D01*
X03888Y04461D02*
X0389D01*
X0259Y03271D02*
X02591Y0327D01*
X0259Y03271D02*
Y0335D01*
X0278Y03421D02*
X02781Y0342D01*
X04875Y0337D02*
Y03432D01*
X04888Y03358D02*
X0489D01*
X04875Y0337D02*
X04888Y03358D01*
X04875Y02955D02*
X04888Y02943D01*
X04875Y02955D02*
Y03017D01*
X04888Y02943D02*
X0489D01*
X00705Y03445D02*
Y03506D01*
X03725Y0447D02*
X03735Y0446D01*
X03725Y0447D02*
Y05135D01*
G54D56*
X0491Y0015D03*
X0541Y0065D03*
Y081D03*
X0491Y086D03*
X0065Y0015D03*
X0015Y0065D03*
Y081D03*
X0065Y086D03*
X0015D03*
Y0015D03*
X0541Y086D03*
Y0015D03*
G54D57*
X0471Y0466D03*
X02465Y05215D03*
Y0216D03*
X0471Y01685D03*
X0293Y03755D03*
Y007D03*
X00645Y0392D03*
X0413Y06555D03*
X0403D03*
X0203Y06355D03*
X0193D03*
X0137Y08255D03*
X0483Y0466D03*
X0134Y04895D03*
X0144Y04995D03*
X0134D03*
X0144Y05095D03*
X0134D03*
Y0184D03*
X0144Y0194D03*
X0134D03*
X0144Y0204D03*
X0134D03*
X02585Y0216D03*
X0305Y007D03*
X0176Y01975D03*
X039Y00355D03*
X038D03*
X037D03*
X036D03*
X035D03*
X025Y011D03*
X02775Y0124D03*
X0134Y0159D03*
X0144Y0147D03*
X04245Y0192D03*
X04145Y018D03*
X04245Y0159D03*
X04145Y0147D03*
X02775Y04295D03*
X0176Y0503D03*
X04245Y04645D03*
X04145Y04525D03*
X04245Y04975D03*
X04145Y04855D03*
X0134Y04645D03*
X0144Y04525D03*
X025Y04155D03*
X039Y0341D03*
X038D03*
X037D03*
X036D03*
X035D03*
X0305Y03755D03*
X02585Y05215D03*
X0479Y02565D03*
X00805Y02635D03*
X00905Y03055D03*
Y03275D03*
X0483Y01685D03*
X0243Y06355D03*
X0263D03*
X0253D03*
X0283D03*
X0273D03*
X0303D03*
X0293D03*
X0233D03*
X0413Y06655D03*
X0403D03*
X0413Y06955D03*
Y06855D03*
Y06755D03*
Y07055D03*
X0403Y06955D03*
Y06855D03*
Y06755D03*
Y07055D03*
X0413Y07455D03*
Y07355D03*
X0403D03*
X0413Y07255D03*
X0403D03*
X0413Y07155D03*
X0403D03*
Y07455D03*
X0413Y07755D03*
Y07655D03*
Y07555D03*
Y07855D03*
X0403Y07755D03*
Y07655D03*
Y07555D03*
Y07855D03*
X0313Y08255D03*
X0333D03*
X0323D03*
X0353D03*
X0343D03*
X0373D03*
X0363D03*
X0303D03*
X0223D03*
X0243D03*
X0233D03*
X0263D03*
X0253D03*
X0283D03*
X0273D03*
X0157D03*
X0147D03*
X0177D03*
X0167D03*
X0117D03*
X0107D03*
X0127D03*
X0197D03*
X0187D03*
X0213D03*
X0413D03*
Y08155D03*
X0403D03*
X0413Y08055D03*
X0403D03*
X0413Y07955D03*
X0403D03*
Y08255D03*
X0333Y06355D03*
X0353D03*
X0343D03*
X0373D03*
X0363D03*
X0393D03*
X0383D03*
X0323D03*
X0153D03*
X0173D03*
X0163D03*
X0183D03*
X0213D03*
X0143D03*
X01045Y02505D03*
X0079Y0349D03*
G54D58*
X03545Y052D03*
X03345D03*
X03545Y05D03*
X03345Y047D03*
Y05D03*
X03545Y045D03*
Y047D03*
X0355Y042D03*
X0335D03*
X03345Y045D03*
X0355Y04D03*
X0335D03*
X02845Y052D03*
X0229Y05665D03*
Y05865D03*
X03045Y052D03*
Y05D03*
X02845D03*
X02125Y05165D03*
Y05365D03*
X02465Y0362D03*
Y0382D03*
X02265Y0362D03*
Y0382D03*
X03545Y01645D03*
Y01945D03*
X0355Y01145D03*
Y00945D03*
X03545Y02145D03*
X03345Y01645D03*
Y01945D03*
X03545Y01445D03*
X0335Y01145D03*
X03345Y01445D03*
Y02145D03*
X0335Y00945D03*
X02845Y02145D03*
X0229Y0261D03*
Y0281D03*
X03045Y02145D03*
Y01945D03*
X02845D03*
X02125Y0211D03*
Y0231D03*
X02465Y00565D03*
Y00765D03*
X02265Y00565D03*
Y00765D03*
X0209Y05865D03*
Y05665D03*
X01925Y05165D03*
Y05365D03*
X0209Y0281D03*
Y0261D03*
X01965Y0382D03*
Y0362D03*
X01925Y0211D03*
Y0231D03*
X01765Y0362D03*
Y0382D03*
X01965Y00765D03*
Y00565D03*
X01765D03*
Y00765D03*
G54D59*
X0144Y04895D03*
Y0184D03*
X00645Y0382D03*
X00905Y03175D03*
G54D60*
X02365Y00665D03*
X02025Y0221D03*
X01865Y00665D03*
X02945Y02045D03*
X0219Y0271D03*
X03445Y02045D03*
X0345Y01045D03*
X03445Y01545D03*
X0345Y041D03*
X03445Y046D03*
X0219Y05765D03*
X03445Y051D03*
X01865Y0372D03*
X02945Y051D03*
X02365Y0372D03*
X02025Y05265D03*
G54D61*
X04Y00355D03*
X0144Y0159D03*
X0134Y0147D03*
X04145Y0192D03*
X04245Y018D03*
X04145Y0159D03*
X04245Y0147D03*
X04145Y04645D03*
X04245Y04525D03*
X04145Y04975D03*
X04245Y04855D03*
X0144Y04645D03*
X0134Y04525D03*
X04Y0341D03*
X0469Y02565D03*
X00905Y02635D03*
X00805Y03055D03*
G54D62*
X04355Y06956D03*
X02028Y01531D03*
X02071D03*
X02115D03*
X02158D03*
X02201D03*
X02028Y01488D03*
X02071D03*
X02115D03*
X02158D03*
X02201D03*
X02028Y01445D03*
X02071D03*
X02115D03*
X02158D03*
X02201D03*
X02028Y01401D03*
X02071D03*
X02115D03*
X02158D03*
X02201D03*
X02028Y01358D03*
X02071D03*
X02115D03*
X02158D03*
X02201D03*
X02028Y04586D03*
X02071D03*
X02115D03*
X02158D03*
X02201D03*
X02028Y04543D03*
X02071D03*
X02115D03*
X02158D03*
X02201D03*
X02028Y045D03*
X02071D03*
X02115D03*
X02158D03*
X02201D03*
X02028Y04456D03*
X02071D03*
X02115D03*
X02158D03*
X02201D03*
X02028Y04413D03*
X02071D03*
X02115D03*
X02158D03*
X02201D03*
X01335Y0412D03*
X0305Y0103D03*
X03436Y02278D03*
X0326Y02925D03*
X03335Y0284D03*
X03749Y01264D03*
X05065Y021D03*
X0507Y0499D03*
Y05075D03*
Y04905D03*
X04985Y0229D03*
X04273Y06516D03*
X0284Y06475D03*
X02841Y06666D03*
X02885Y06435D03*
X0289Y0662D03*
X02523Y05435D03*
X04325Y06565D03*
X0479Y06747D03*
X0439Y06773D03*
X04525Y0717D03*
X0461D03*
X04695D03*
X0439Y06695D03*
X05065Y0193D03*
Y02015D03*
X0081Y01325D03*
X00642Y01725D03*
X0064Y0159D03*
X0068Y0142D03*
X00738Y01327D03*
X00898D03*
X0081Y01237D03*
X0076Y01257D03*
X02777Y02458D03*
X02777Y02542D03*
X02778Y0551D03*
X02775Y05595D03*
X0091Y0438D03*
X00825D03*
X0074D03*
X01685Y01385D03*
Y0147D03*
Y01642D03*
Y0156D03*
Y04695D03*
Y0461D03*
Y0444D03*
Y04525D03*
X01875Y0463D03*
X01886Y04675D03*
X0173Y05882D03*
X01675D03*
X0162D03*
X01565D03*
X01785D03*
X0134Y05915D03*
X00145Y0566D03*
X00275Y0563D03*
X00145Y0588D03*
Y05825D03*
Y0577D03*
Y05715D03*
X0198Y0473D03*
X01895D03*
X03063Y0351D03*
X02907Y0368D03*
X0278Y0277D03*
X02777Y02606D03*
X0212Y04255D03*
X00845Y0109D03*
X02034Y01217D03*
X0125Y01085D03*
X02115Y01195D03*
X0208Y0123D03*
X00802Y01117D03*
X012Y00835D03*
X0081Y01195D03*
X01886Y01631D03*
X01885Y01515D03*
Y0457D03*
X02085Y043D03*
X01874Y01576D03*
X004Y04045D03*
X0054D03*
X00365Y04D03*
X00505D03*
X0047Y04045D03*
X00435Y04D03*
X00465Y037D03*
X00573Y03742D03*
X005Y03745D03*
X00535Y037D03*
X0043Y03745D03*
X00395Y037D03*
X00925Y02075D03*
Y0202D03*
X0093Y01955D03*
X00935Y0215D03*
X00905Y02215D03*
X0092Y0229D03*
X01165Y02035D03*
X011Y02075D03*
X0115Y02115D03*
X011Y0215D03*
X01145Y022D03*
X01105Y0225D03*
X0171Y02855D03*
X017Y0276D03*
X0283Y0284D03*
X0086Y0403D03*
X0083Y03975D03*
X00895Y0398D03*
X0089Y04085D03*
X0085Y04125D03*
X00895Y04165D03*
X00685Y0412D03*
X00695Y0406D03*
X01025Y039D03*
X0103Y0396D03*
X0101Y0401D03*
X0102Y04065D03*
X01025Y0412D03*
X01055Y04165D03*
X04985Y02255D03*
X0475Y02185D03*
Y0224D03*
X00595Y04645D03*
X01157Y04593D03*
X01216Y04576D03*
X03028Y00521D03*
X02855Y00412D03*
X03046Y00438D03*
X0302Y0056D03*
X0102Y0173D03*
Y01655D03*
X00915Y01855D03*
Y01785D03*
X00795Y0256D03*
X0283Y0072D03*
X0287Y00625D03*
X02835Y0378D03*
X03028Y03576D03*
X02957Y03655D03*
X02855Y03467D03*
X0302Y03615D03*
X02495Y0266D03*
X02715Y0322D03*
X0462Y0466D03*
X04818Y0264D03*
X048Y03055D03*
X0242Y03335D03*
X0278Y0323D03*
Y035D03*
X02775Y00175D03*
X0278Y00445D03*
X00757Y03395D03*
X01345Y04082D03*
X0126Y0394D03*
X0121Y0389D03*
X01235Y03964D03*
X0128Y04019D03*
X0125Y00985D03*
X012Y01035D03*
X0125Y00885D03*
X012Y00935D03*
X00795Y0298D03*
X0259Y00295D03*
X02715Y00165D03*
X0311Y0299D03*
X02487Y018D03*
X0254Y01758D03*
X0389Y01535D03*
X02506Y01565D03*
X0259Y0161D03*
X02523Y0238D03*
X02295Y02415D03*
X02523Y02315D03*
X02295Y0235D03*
X02285Y02125D03*
X0295Y006D03*
X0275Y01035D03*
X0282Y01075D03*
X0311Y0251D03*
Y0227D03*
X0261Y0043D03*
X0242Y0028D03*
X0311Y0275D03*
X03335Y026D03*
Y0236D03*
X02715Y01585D03*
Y01485D03*
Y01385D03*
X01885Y013D03*
Y01385D03*
X01895Y01675D03*
X0198D03*
X02395Y0115D03*
X02487Y04855D03*
X02295Y0547D03*
X02523Y0537D03*
X02295Y05405D03*
X0275Y0409D03*
X0259Y04665D03*
X0261Y03485D03*
X02495Y05715D03*
X02795Y05725D03*
X02715Y0444D03*
Y0454D03*
Y0464D03*
X0254Y04813D03*
X02285Y0518D03*
X0462Y01685D03*
X048Y0347D03*
X01885Y0147D03*
X0326Y02685D03*
Y02445D03*
X0196Y01215D03*
X02395Y04205D03*
X02035Y0427D03*
X01885Y04355D03*
Y0444D03*
X03335Y05415D03*
Y05655D03*
Y05895D03*
X0392Y05095D03*
X0282Y0413D03*
X02506Y0462D03*
X0259Y0335D03*
X0311Y05805D03*
Y05565D03*
X0326Y0574D03*
Y055D03*
X0311Y05325D03*
Y06045D03*
X0326Y0598D03*
X03749Y04319D03*
X0389Y0459D03*
X01885Y04525D03*
X0196Y0427D03*
G54D63*
X03925Y03975D03*
X0342Y0381D03*
X0318Y03453D03*
X0431Y0426D03*
X04645Y06355D03*
X04315Y0548D03*
X04085Y02815D03*
X03465Y0287D03*
X0272Y03005D03*
X0532Y0591D03*
X0482Y06405D03*
X05035Y0112D03*
X0501Y06525D03*
X05055Y03375D03*
X04085Y0577D03*
X0408Y06385D03*
X03675Y0468D03*
X03045Y0413D03*
X03675Y0443D03*
X03795Y04825D03*
X0391Y05015D03*
X0404Y05125D03*
X0459Y06775D03*
X0491Y05175D03*
X04125Y0367D03*
Y03755D03*
Y0384D03*
Y00615D03*
Y007D03*
Y0078D03*
X01025Y01232D03*
X0216Y0099D03*
X0208D03*
X01995D03*
X0191D03*
X0182Y009D03*
X0216Y04055D03*
X0208D03*
X01995D03*
X0191D03*
X01755Y04855D03*
X017Y0519D03*
X01785Y05195D03*
X01665Y05135D03*
X01627Y05065D03*
X04515Y04385D03*
X04655Y04465D03*
X047Y03715D03*
X04655Y03425D03*
X03375Y03185D03*
X03325Y0337D03*
X02715Y0267D03*
X049Y0222D03*
X01005Y01375D03*
X01565Y05045D03*
X0077Y00855D03*
X0074Y0091D03*
X00595Y01075D03*
X0065Y0102D03*
X0069Y00955D03*
X01005Y011D03*
X01022Y01172D03*
X0094Y01135D03*
X01095Y013D03*
X0054Y0349D03*
X0451Y0369D03*
X0366Y00675D03*
X03715Y0089D03*
X0318Y00385D03*
X03542Y03742D03*
X03715Y04D03*
X03735Y0212D03*
X0479Y02975D03*
X0417Y02195D03*
X04567Y01917D03*
X04365Y0211D03*
X04055Y03245D03*
X04155Y03075D03*
X03975Y0422D03*
X0397Y0116D03*
X0333Y03015D03*
X02965Y0336D03*
X01344Y03612D03*
X00803Y01616D03*
X0054Y02655D03*
Y03075D03*
X00655Y04485D03*
X05055Y02545D03*
Y0296D03*
X03945Y00495D03*
X01755Y01225D03*
Y018D03*
X0299Y00885D03*
X03135Y0049D03*
X02965Y00305D03*
X03Y0024D03*
Y03295D03*
X0299Y0394D03*
X03945Y0355D03*
X03735Y014D03*
X0182Y03955D03*
X0272Y05725D03*
X03735Y04455D03*
X03725Y05135D03*
X01755Y0428D03*
M02*