%FSTAX23Y23*%
%MOIN*%
%SFA1B1*%

%IPPOS*%
%AMD67*
1,1,0.130000,0.000000,0.000000*
1,0,0.110000,0.000000,0.000000*
4,0,4,0.042400,0.049500,-0.049500,-0.042400,-0.042400,-0.049500,0.049500,0.042400,0.042400,0.049500,0.0*
4,0,4,-0.042400,0.049500,0.049500,-0.042400,0.042400,-0.049500,-0.049500,0.042400,-0.042400,0.049500,0.0*
%
%AMD68*
1,1,0.065433,0.000000,0.000000*
1,0,0.045433,0.000000,0.000000*
4,0,4,0.019600,0.026700,-0.026700,-0.019600,-0.019600,-0.026700,0.026700,0.019600,0.019600,0.026700,0.0*
4,0,4,-0.019600,0.026700,0.026700,-0.019600,0.019600,-0.026700,-0.026700,0.019600,-0.019600,0.026700,0.0*
%
%AMD69*
1,1,0.092992,0.000000,0.000000*
1,0,0.072992,0.000000,0.000000*
4,0,4,0.029300,0.036300,-0.036300,-0.029300,-0.029300,-0.036300,0.036300,0.029300,0.029300,0.036300,0.0*
4,0,4,-0.029300,0.036300,0.036300,-0.029300,0.029300,-0.036300,-0.036300,0.029300,-0.029300,0.036300,0.0*
%
%AMD72*
1,1,0.045000,0.000000,0.000000*
1,0,0.025000,0.000000,0.000000*
4,0,4,0.012400,0.019400,-0.019400,-0.012400,-0.012400,-0.019400,0.019400,0.012400,0.012400,0.019400,0.0*
4,0,4,-0.012400,0.019400,0.019400,-0.012400,0.012400,-0.019400,-0.019400,0.012400,-0.012400,0.019400,0.0*
%
%AMD74*
1,1,0.058000,0.000000,0.000000*
1,0,0.038000,0.000000,0.000000*
4,0,4,0.017000,0.024000,-0.024000,-0.017000,-0.017000,-0.024000,0.024000,0.017000,0.017000,0.024000,0.0*
4,0,4,-0.017000,0.024000,0.024000,-0.017000,0.017000,-0.024000,-0.024000,0.017000,-0.017000,0.024000,0.0*
%
%ADD64C,0.040000*%
%ADD65C,0.140000*%
%ADD66C,0.075433*%
G04~CAMADD=67~12~0.0~0.0~0.0~0.0~0.0~0.0~0~1300.0~1100.0~0.0~45.0~4~100.0~0.0~0.0~0.0~0~0.0~0.0~0.0~0.0~1300.0~1300.0*
%ADD67D67*%
G04~CAMADD=68~12~0.0~0.0~0.0~0.0~0.0~0.0~0~654.3~454.3~0.0~45.0~4~100.0~0.0~0.0~0.0~0~0.0~0.0~0.0~0.0~654.3~654.3*
%ADD68D68*%
G04~CAMADD=69~12~0.0~0.0~0.0~0.0~0.0~0.0~0~929.9~729.9~0.0~45.0~4~100.0~0.0~0.0~0.0~0~0.0~0.0~0.0~0.0~929.9~929.9*
%ADD69D69*%
%ADD70C,0.099055*%
%ADD71C,0.055000*%
G04~CAMADD=72~12~0.0~0.0~0.0~0.0~0.0~0.0~0~450.0~250.0~0.0~45.0~4~100.0~0.0~0.0~0.0~0~0.0~0.0~0.0~0.0~450.0~450.0*
%ADD72D72*%
%ADD73C,0.068000*%
G04~CAMADD=74~12~0.0~0.0~0.0~0.0~0.0~0.0~0~580.0~380.0~0.0~45.0~4~100.0~0.0~0.0~0.0~0~0.0~0.0~0.0~0.0~580.0~580.0*
%ADD74D74*%
%LNcfd_2channel_copper_plane_1-1*%
%LPD*%
G54D64*
X0Y0D02*
Y0875D01*
X0556*
Y0D02*
Y0875D01*
X0Y0D02*
X0556D01*
G54D65*
X0491Y0015D03*
X0541Y0065D03*
Y081D03*
X0491Y086D03*
X0065Y0015D03*
X0015Y0065D03*
Y081D03*
X0065Y086D03*
G54D66*
X0471Y0466D03*
X02465Y05215D03*
Y0216D03*
X0471Y01685D03*
X0293Y03755D03*
Y007D03*
X00645Y0392D03*
X0483Y0466D03*
X0144Y04895D03*
X0134D03*
X0144Y04995D03*
X0134D03*
X0144Y05095D03*
X0134D03*
X0144Y0184D03*
X0134D03*
X0144Y0194D03*
X0134D03*
X0144Y0204D03*
X0134D03*
X02585Y0216D03*
X0305Y007D03*
X0176Y01975D03*
X04Y00355D03*
X039D03*
X038D03*
X037D03*
X036D03*
X035D03*
X025Y011D03*
X02775Y0124D03*
X0144Y0159D03*
X0134D03*
Y0147D03*
X0144D03*
X04145Y0192D03*
X04245D03*
Y018D03*
X04145D03*
Y0159D03*
X04245D03*
Y0147D03*
X04145D03*
X02775Y04295D03*
X0176Y0503D03*
X04245Y04645D03*
X04145D03*
Y04525D03*
X04245D03*
Y04975D03*
X04145D03*
Y04855D03*
X04245D03*
X0134Y04645D03*
X0144D03*
Y04525D03*
X0134D03*
X025Y04155D03*
X04Y0341D03*
X039D03*
X038D03*
X037D03*
X036D03*
X035D03*
X0305Y03755D03*
X02585Y05215D03*
X0469Y02565D03*
X0479D03*
X00805Y02635D03*
X00905D03*
X00645Y0382D03*
X00905Y03055D03*
X00805D03*
X00905Y03275D03*
Y03175D03*
X0483Y01685D03*
X0243Y06355D03*
X0263D03*
X0253D03*
X0283D03*
X0273D03*
X0303D03*
X0293D03*
X0233D03*
X0413Y06655D03*
X0403D03*
X0413Y06955D03*
Y06855D03*
Y06755D03*
Y07055D03*
X0403Y06955D03*
Y06855D03*
Y06755D03*
Y07055D03*
X0413Y07455D03*
Y07355D03*
X0403D03*
X0413Y07255D03*
X0403D03*
X0413Y07155D03*
X0403D03*
Y07455D03*
X0413Y07755D03*
Y07655D03*
Y07555D03*
Y07855D03*
X0403Y07755D03*
Y07655D03*
Y07555D03*
Y07855D03*
X0313Y08255D03*
X0333D03*
X0323D03*
X0353D03*
X0343D03*
X0373D03*
X0363D03*
X0303D03*
X0223D03*
X0243D03*
X0233D03*
X0263D03*
X0253D03*
X0283D03*
X0273D03*
X0157D03*
X0147D03*
X0177D03*
X0167D03*
X0117D03*
X0107D03*
X0127D03*
X0197D03*
X0187D03*
X0213D03*
X0413D03*
Y08155D03*
X0403D03*
X0413Y08055D03*
X0403D03*
X0413Y07955D03*
X0403D03*
Y08255D03*
X0333Y06355D03*
X0353D03*
X0343D03*
X0373D03*
X0363D03*
X0393D03*
X0383D03*
X0323D03*
X0153D03*
X0173D03*
X0163D03*
X0183D03*
X0213D03*
X0143D03*
X01045Y02505D03*
X0079Y0349D03*
G54D67*
X0015Y086D03*
Y0015D03*
X0541Y086D03*
Y0015D03*
G54D68*
X0413Y06555D03*
X0403D03*
X0203Y06355D03*
X0193D03*
X0137Y08255D03*
G54D69*
X03545Y052D03*
X03345D03*
X03545Y05D03*
X03345Y047D03*
Y05D03*
X03545Y045D03*
Y047D03*
X0355Y042D03*
X0335D03*
X03345Y045D03*
X0355Y04D03*
X0335D03*
X02845Y052D03*
X0229Y05665D03*
Y05865D03*
X03045Y052D03*
Y05D03*
X02845D03*
X02125Y05165D03*
Y05365D03*
X02465Y0362D03*
Y0382D03*
X02265Y0362D03*
Y0382D03*
X03545Y01645D03*
Y01945D03*
X0355Y01145D03*
Y00945D03*
X03545Y02145D03*
X03345Y01645D03*
Y01945D03*
X03545Y01445D03*
X0335Y01145D03*
X03345Y01445D03*
Y02145D03*
X0335Y00945D03*
X02845Y02145D03*
X0229Y0261D03*
Y0281D03*
X03045Y02145D03*
Y01945D03*
X02845D03*
X02125Y0211D03*
Y0231D03*
X02465Y00565D03*
Y00765D03*
X02265Y00565D03*
Y00765D03*
X0209Y05865D03*
Y05665D03*
X01925Y05165D03*
Y05365D03*
X0209Y0281D03*
Y0261D03*
X01965Y0382D03*
Y0362D03*
X01925Y0211D03*
Y0231D03*
X01765Y0362D03*
Y0382D03*
X01965Y00765D03*
Y00565D03*
X01765D03*
Y00765D03*
G54D70*
X02365Y00665D03*
X02025Y0221D03*
X01865Y00665D03*
X02945Y02045D03*
X0219Y0271D03*
X03445Y02045D03*
X0345Y01045D03*
X03445Y01545D03*
X0345Y041D03*
X03445Y046D03*
X0219Y05765D03*
X03445Y051D03*
X01865Y0372D03*
X02945Y051D03*
X02365Y0372D03*
X02025Y05265D03*
G54D71*
X04355Y06956D03*
X01335Y0412D03*
X0305Y0103D03*
X03436Y02278D03*
X0326Y02925D03*
X03335Y0284D03*
X04985Y0229D03*
X04273Y06516D03*
X0284Y06475D03*
X02841Y06666D03*
X02885Y06435D03*
X0289Y0662D03*
X02523Y05435D03*
X04325Y06565D03*
X0081Y01237D03*
X0076Y01257D03*
X01875Y0463D03*
X01886Y04675D03*
X0173Y05882D03*
X01675D03*
X0162D03*
X01565D03*
X01785D03*
X0134Y05915D03*
X00145Y0566D03*
X00275Y0563D03*
X00145Y0588D03*
Y05825D03*
Y0577D03*
Y05715D03*
X0198Y0473D03*
X01895D03*
X03063Y0351D03*
X02907Y0368D03*
X0278Y0277D03*
X0212Y04255D03*
X00845Y0109D03*
X02034Y01217D03*
X0125Y01085D03*
X02115Y01195D03*
X0208Y0123D03*
X00802Y01117D03*
X012Y00835D03*
X0081Y01195D03*
X01886Y01631D03*
X01885Y01515D03*
Y0457D03*
X02085Y043D03*
X01874Y01576D03*
X004Y04045D03*
X0054D03*
X00365Y04D03*
X00505D03*
X0047Y04045D03*
X00435Y04D03*
X00465Y037D03*
X00573Y03742D03*
X005Y03745D03*
X00535Y037D03*
X0043Y03745D03*
X00395Y037D03*
X00925Y02075D03*
Y0202D03*
X0093Y01955D03*
X00935Y0215D03*
X00905Y02215D03*
X0092Y0229D03*
X01165Y02035D03*
X011Y02075D03*
X0115Y02115D03*
X011Y0215D03*
X01145Y022D03*
X01105Y0225D03*
X0171Y02855D03*
X017Y0276D03*
X0283Y0284D03*
X0086Y0403D03*
X0083Y03975D03*
X00895Y0398D03*
X0089Y04085D03*
X0085Y04125D03*
X00895Y04165D03*
X00685Y0412D03*
X00695Y0406D03*
X01025Y039D03*
X0103Y0396D03*
X0101Y0401D03*
X0102Y04065D03*
X01025Y0412D03*
X01055Y04165D03*
X04985Y02255D03*
X0475Y02185D03*
Y0224D03*
X01157Y04593D03*
X01216Y04576D03*
X03028Y00521D03*
X03046Y00438D03*
X0302Y0056D03*
X0102Y0173D03*
Y01655D03*
X00915Y01855D03*
Y01785D03*
X0287Y00625D03*
X03028Y03576D03*
X02957Y03655D03*
X0302Y03615D03*
X0278Y0323D03*
Y035D03*
X02775Y00175D03*
X0278Y00445D03*
X01345Y04082D03*
X0126Y0394D03*
X0121Y0389D03*
X01235Y03964D03*
X0128Y04019D03*
X0125Y00985D03*
X012Y01035D03*
X0125Y00885D03*
X012Y00935D03*
X0259Y00295D03*
X02487Y018D03*
X02506Y01565D03*
X02523Y0238D03*
X02295Y02415D03*
X02523Y02315D03*
X02295Y0235D03*
X0295Y006D03*
X0275Y01035D03*
X0282Y01075D03*
X03335Y026D03*
Y0236D03*
X01885Y013D03*
Y01385D03*
X01895Y01675D03*
X0198D03*
X02395Y0115D03*
X02487Y04855D03*
X02295Y0547D03*
X02523Y0537D03*
X02295Y05405D03*
X0275Y0409D03*
X01885Y0147D03*
X0326Y02685D03*
Y02445D03*
X0196Y01215D03*
X02395Y04205D03*
X02035Y0427D03*
X01885Y04355D03*
Y0444D03*
X03335Y05415D03*
Y05655D03*
Y05895D03*
X0392Y05095D03*
X0282Y0413D03*
X02506Y0462D03*
X0259Y0335D03*
X0326Y0574D03*
Y055D03*
Y0598D03*
X01885Y04525D03*
X0196Y0427D03*
G54D72*
X02028Y01531D03*
X02071D03*
X02115D03*
X02158D03*
X02201D03*
X02028Y01488D03*
X02071D03*
X02115D03*
X02158D03*
X02201D03*
X02028Y01445D03*
X02071D03*
X02115D03*
X02158D03*
X02201D03*
X02028Y01401D03*
X02071D03*
X02115D03*
X02158D03*
X02201D03*
X02028Y01358D03*
X02071D03*
X02115D03*
X02158D03*
X02201D03*
X02028Y04586D03*
X02071D03*
X02115D03*
X02158D03*
X02201D03*
X02028Y04543D03*
X02071D03*
X02115D03*
X02158D03*
X02201D03*
X02028Y045D03*
X02071D03*
X02115D03*
X02158D03*
X02201D03*
X02028Y04456D03*
X02071D03*
X02115D03*
X02158D03*
X02201D03*
X02028Y04413D03*
X02071D03*
X02115D03*
X02158D03*
X02201D03*
X03749Y01264D03*
X05065Y021D03*
X0507Y0499D03*
Y05075D03*
Y04905D03*
X0479Y06747D03*
X0439Y06773D03*
X04525Y0717D03*
X0461D03*
X04695D03*
X0439Y06695D03*
X05065Y0193D03*
Y02015D03*
X0081Y01325D03*
X00642Y01725D03*
X0064Y0159D03*
X0068Y0142D03*
X00738Y01327D03*
X00898D03*
X02777Y02458D03*
X02777Y02542D03*
X02778Y0551D03*
X02775Y05595D03*
X0091Y0438D03*
X00825D03*
X0074D03*
X01685Y01385D03*
Y0147D03*
Y01642D03*
Y0156D03*
Y04695D03*
Y0461D03*
Y0444D03*
Y04525D03*
X02777Y02606D03*
X00595Y04645D03*
X02855Y00412D03*
X00795Y0256D03*
X0283Y0072D03*
X02835Y0378D03*
X02855Y03467D03*
X02495Y0266D03*
X02715Y0322D03*
X0462Y0466D03*
X04818Y0264D03*
X048Y03055D03*
X0242Y03335D03*
X00757Y03395D03*
X00795Y0298D03*
X02715Y00165D03*
X0311Y0299D03*
X0254Y01758D03*
X0389Y01535D03*
X0259Y0161D03*
X02285Y02125D03*
X0311Y0251D03*
Y0227D03*
X0261Y0043D03*
X0242Y0028D03*
X0311Y0275D03*
X02715Y01585D03*
Y01485D03*
Y01385D03*
X0259Y04665D03*
X0261Y03485D03*
X02495Y05715D03*
X02795Y05725D03*
X02715Y0444D03*
Y0454D03*
Y0464D03*
X0254Y04813D03*
X02285Y0518D03*
X0462Y01685D03*
X048Y0347D03*
X0311Y05805D03*
Y05565D03*
Y05325D03*
Y06045D03*
X03749Y04319D03*
X0389Y0459D03*
G54D73*
X03925Y03975D03*
X0342Y0381D03*
X0318Y03453D03*
X0431Y0426D03*
X04645Y06355D03*
X04315Y0548D03*
X04085Y02815D03*
X03465Y0287D03*
X0272Y03005D03*
X0532Y0591D03*
X0482Y06405D03*
X05035Y0112D03*
X0501Y06525D03*
X05055Y03375D03*
X04085Y0577D03*
X0408Y06385D03*
X03675Y0468D03*
X03045Y0413D03*
X03675Y0443D03*
X03795Y04825D03*
X0391Y05015D03*
X0404Y05125D03*
X0459Y06775D03*
X0491Y05175D03*
X01025Y01232D03*
X0182Y009D03*
X017Y0519D03*
X01785Y05195D03*
X01665Y05135D03*
X01627Y05065D03*
X04515Y04385D03*
X04655Y04465D03*
X047Y03715D03*
X04655Y03425D03*
X03375Y03185D03*
X03325Y0337D03*
X02715Y0267D03*
X049Y0222D03*
X01005Y01375D03*
X01565Y05045D03*
X0077Y00855D03*
X0074Y0091D03*
X00595Y01075D03*
X0065Y0102D03*
X0069Y00955D03*
X01005Y011D03*
X01022Y01172D03*
X0094Y01135D03*
X01095Y013D03*
X0054Y0349D03*
X0451Y0369D03*
X03715Y0089D03*
X0318Y00385D03*
X03715Y04D03*
X03735Y0212D03*
X0479Y02975D03*
X0417Y02195D03*
X04567Y01917D03*
X04365Y0211D03*
X04055Y03245D03*
X04155Y03075D03*
X03975Y0422D03*
X0397Y0116D03*
X0333Y03015D03*
X02965Y0336D03*
X01344Y03612D03*
X00803Y01616D03*
X0054Y02655D03*
Y03075D03*
X00655Y04485D03*
X05055Y02545D03*
Y0296D03*
X03945Y00495D03*
X0299Y00885D03*
X03135Y0049D03*
X02965Y00305D03*
X03Y0024D03*
Y03295D03*
X0299Y0394D03*
X03945Y0355D03*
X03735Y014D03*
X0182Y03955D03*
X0272Y05725D03*
X03735Y04455D03*
X03725Y05135D03*
G54D74*
X04125Y0367D03*
Y03755D03*
Y0384D03*
Y00615D03*
Y007D03*
Y0078D03*
X0216Y0099D03*
X0208D03*
X01995D03*
X0191D03*
X0216Y04055D03*
X0208D03*
X01995D03*
X0191D03*
X01755Y04855D03*
X0366Y00675D03*
X03542Y03742D03*
X01755Y01225D03*
Y018D03*
Y0428D03*
M02*